%TF.GenerationSoftware,KiCad,Pcbnew,10.0.5*%
%TF.CreationDate,2026-09-30T21:06:45+02:00*%
%TF.ProjectId,PTR_micro_pcb,5054525f-6d69-4637-926f-5f7063622e6b,rev?*%
%TF.SameCoordinates,Original*%
%TF.FileFunction,Legend,Top*%
%TF.FilePolarity,Positive*%
%FSLAX46Y46*%
G04 Gerber Fmt 4.6, Leading zero omitted, Abs format (unit mm)*
G04 Created by KiCad (PCBNEW 10.0.5) date 2026-09-30 21:06:45*
%MOMM*%
%LPD*%
G01*
G04 APERTURE LIST*
G04 Aperture macros list*
%AMRoundRect*
0 Rectangle with rounded corners*
0 $1 Rounding radius*
0 $2 $3 $4 $5 $6 $7 $8 $9 X,Y pos of 4 corners*
0 Add a 4 corners polygon primitive as box body*
4,1,4,$2,$3,$4,$5,$6,$7,$8,$9,$2,$3,0*
0 Add four circle primitives for the rounded corners*
1,1,$1+$1,$2,$3*
1,1,$1+$1,$4,$5*
1,1,$1+$1,$6,$7*
1,1,$1+$1,$8,$9*
0 Add four rect primitives between the rounded corners*
20,1,$1+$1,$2,$3,$4,$5,0*
20,1,$1+$1,$4,$5,$6,$7,0*
20,1,$1+$1,$6,$7,$8,$9,0*
20,1,$1+$1,$8,$9,$2,$3,0*%
G04 Aperture macros list end*
%ADD10C,0.150000*%
%ADD11C,0.275000*%
%ADD12C,0.270000*%
%ADD13C,0.300000*%
%ADD14C,0.100000*%
%ADD15C,0.250000*%
%ADD16C,0.120000*%
%ADD17C,0.200000*%
%ADD18C,0.000000*%
%ADD19C,0.177001*%
%ADD20RoundRect,0.250001X-0.949999X-0.949999X0.949999X-0.949999X0.949999X0.949999X-0.949999X0.949999X0*%
%ADD21C,2.400000*%
%ADD22RoundRect,0.190500X0.444500X-0.444500X0.444500X0.444500X-0.444500X0.444500X-0.444500X-0.444500X0*%
%ADD23R,1.150000X0.600000*%
%ADD24R,1.150000X0.300000*%
%ADD25O,2.100000X1.000000*%
%ADD26O,1.800000X1.000000*%
%ADD27R,0.736600X0.609600*%
%ADD28RoundRect,0.218750X0.218750X0.256250X-0.218750X0.256250X-0.218750X-0.256250X0.218750X-0.256250X0*%
%ADD29C,6.000000*%
%ADD30R,1.600000X1.600000*%
%ADD31C,1.600000*%
%ADD32R,0.609600X0.736600*%
%ADD33C,0.001000*%
%ADD34O,5.000000X2.000000*%
%ADD35O,1.300000X1.300000*%
%ADD36RoundRect,0.218750X-0.218750X-0.256250X0.218750X-0.256250X0.218750X0.256250X-0.218750X0.256250X0*%
%ADD37R,1.000000X1.000000*%
%ADD38O,1.000000X1.000000*%
G04 APERTURE END LIST*
D10*
X20599999Y-13320633D02*
X20499999Y-13287300D01*
X20499999Y-13287300D02*
X20466665Y-13253966D01*
X20466665Y-13253966D02*
X20433332Y-13187300D01*
X20433332Y-13187300D02*
X20433332Y-13087300D01*
X20433332Y-13087300D02*
X20466665Y-13020633D01*
X20466665Y-13020633D02*
X20499999Y-12987300D01*
X20499999Y-12987300D02*
X20566665Y-12953966D01*
X20566665Y-12953966D02*
X20833332Y-12953966D01*
X20833332Y-12953966D02*
X20833332Y-13653966D01*
X20833332Y-13653966D02*
X20599999Y-13653966D01*
X20599999Y-13653966D02*
X20533332Y-13620633D01*
X20533332Y-13620633D02*
X20499999Y-13587300D01*
X20499999Y-13587300D02*
X20466665Y-13520633D01*
X20466665Y-13520633D02*
X20466665Y-13453966D01*
X20466665Y-13453966D02*
X20499999Y-13387300D01*
X20499999Y-13387300D02*
X20533332Y-13353966D01*
X20533332Y-13353966D02*
X20599999Y-13320633D01*
X20599999Y-13320633D02*
X20833332Y-13320633D01*
X19999999Y-13653966D02*
X19866665Y-13653966D01*
X19866665Y-13653966D02*
X19799999Y-13620633D01*
X19799999Y-13620633D02*
X19733332Y-13553966D01*
X19733332Y-13553966D02*
X19699999Y-13420633D01*
X19699999Y-13420633D02*
X19699999Y-13187300D01*
X19699999Y-13187300D02*
X19733332Y-13053966D01*
X19733332Y-13053966D02*
X19799999Y-12987300D01*
X19799999Y-12987300D02*
X19866665Y-12953966D01*
X19866665Y-12953966D02*
X19999999Y-12953966D01*
X19999999Y-12953966D02*
X20066665Y-12987300D01*
X20066665Y-12987300D02*
X20133332Y-13053966D01*
X20133332Y-13053966D02*
X20166665Y-13187300D01*
X20166665Y-13187300D02*
X20166665Y-13420633D01*
X20166665Y-13420633D02*
X20133332Y-13553966D01*
X20133332Y-13553966D02*
X20066665Y-13620633D01*
X20066665Y-13620633D02*
X19999999Y-13653966D01*
X19266666Y-13653966D02*
X19133332Y-13653966D01*
X19133332Y-13653966D02*
X19066666Y-13620633D01*
X19066666Y-13620633D02*
X18999999Y-13553966D01*
X18999999Y-13553966D02*
X18966666Y-13420633D01*
X18966666Y-13420633D02*
X18966666Y-13187300D01*
X18966666Y-13187300D02*
X18999999Y-13053966D01*
X18999999Y-13053966D02*
X19066666Y-12987300D01*
X19066666Y-12987300D02*
X19133332Y-12953966D01*
X19133332Y-12953966D02*
X19266666Y-12953966D01*
X19266666Y-12953966D02*
X19333332Y-12987300D01*
X19333332Y-12987300D02*
X19399999Y-13053966D01*
X19399999Y-13053966D02*
X19433332Y-13187300D01*
X19433332Y-13187300D02*
X19433332Y-13420633D01*
X19433332Y-13420633D02*
X19399999Y-13553966D01*
X19399999Y-13553966D02*
X19333332Y-13620633D01*
X19333332Y-13620633D02*
X19266666Y-13653966D01*
X18766666Y-13653966D02*
X18366666Y-13653966D01*
X18566666Y-12953966D02*
X18566666Y-13653966D01*
X20466666Y-16160633D02*
X20533333Y-16193966D01*
X20533333Y-16193966D02*
X20633333Y-16193966D01*
X20633333Y-16193966D02*
X20733333Y-16160633D01*
X20733333Y-16160633D02*
X20800000Y-16093966D01*
X20800000Y-16093966D02*
X20833333Y-16027300D01*
X20833333Y-16027300D02*
X20866666Y-15893966D01*
X20866666Y-15893966D02*
X20866666Y-15793966D01*
X20866666Y-15793966D02*
X20833333Y-15660633D01*
X20833333Y-15660633D02*
X20800000Y-15593966D01*
X20800000Y-15593966D02*
X20733333Y-15527300D01*
X20733333Y-15527300D02*
X20633333Y-15493966D01*
X20633333Y-15493966D02*
X20566666Y-15493966D01*
X20566666Y-15493966D02*
X20466666Y-15527300D01*
X20466666Y-15527300D02*
X20433333Y-15560633D01*
X20433333Y-15560633D02*
X20433333Y-15793966D01*
X20433333Y-15793966D02*
X20566666Y-15793966D01*
X20133333Y-15493966D02*
X20133333Y-16193966D01*
X20133333Y-16193966D02*
X19733333Y-15493966D01*
X19733333Y-15493966D02*
X19733333Y-16193966D01*
X19400000Y-15493966D02*
X19400000Y-16193966D01*
X19400000Y-16193966D02*
X19233333Y-16193966D01*
X19233333Y-16193966D02*
X19133333Y-16160633D01*
X19133333Y-16160633D02*
X19066667Y-16093966D01*
X19066667Y-16093966D02*
X19033333Y-16027300D01*
X19033333Y-16027300D02*
X19000000Y-15893966D01*
X19000000Y-15893966D02*
X19000000Y-15793966D01*
X19000000Y-15793966D02*
X19033333Y-15660633D01*
X19033333Y-15660633D02*
X19066667Y-15593966D01*
X19066667Y-15593966D02*
X19133333Y-15527300D01*
X19133333Y-15527300D02*
X19233333Y-15493966D01*
X19233333Y-15493966D02*
X19400000Y-15493966D01*
X20950000Y-9843966D02*
X20716667Y-9143966D01*
X20716667Y-9143966D02*
X20483333Y-9843966D01*
X20250000Y-9410633D02*
X19716667Y-9410633D01*
X19983333Y-9143966D02*
X19983333Y-9677300D01*
X20433333Y-10413966D02*
X20666666Y-10747300D01*
X20833333Y-10413966D02*
X20833333Y-11113966D01*
X20833333Y-11113966D02*
X20566666Y-11113966D01*
X20566666Y-11113966D02*
X20500000Y-11080633D01*
X20500000Y-11080633D02*
X20466666Y-11047300D01*
X20466666Y-11047300D02*
X20433333Y-10980633D01*
X20433333Y-10980633D02*
X20433333Y-10880633D01*
X20433333Y-10880633D02*
X20466666Y-10813966D01*
X20466666Y-10813966D02*
X20500000Y-10780633D01*
X20500000Y-10780633D02*
X20566666Y-10747300D01*
X20566666Y-10747300D02*
X20833333Y-10747300D01*
X20200000Y-11113966D02*
X19733333Y-10413966D01*
X19733333Y-11113966D02*
X20200000Y-10413966D01*
X20833333Y-14590633D02*
X20600000Y-14590633D01*
X20500000Y-14223966D02*
X20833333Y-14223966D01*
X20833333Y-14223966D02*
X20833333Y-14923966D01*
X20833333Y-14923966D02*
X20500000Y-14923966D01*
X20200000Y-14223966D02*
X20200000Y-14923966D01*
X20200000Y-14923966D02*
X19800000Y-14223966D01*
X19800000Y-14223966D02*
X19800000Y-14923966D01*
X20933333Y-12383966D02*
X20533333Y-12383966D01*
X20733333Y-11683966D02*
X20733333Y-12383966D01*
X20366667Y-12383966D02*
X19900000Y-11683966D01*
X19900000Y-12383966D02*
X20366667Y-11683966D01*
D11*
X17375715Y-3385419D02*
X16690001Y-3385419D01*
X17032858Y-2285419D02*
X17032858Y-3385419D01*
X16290000Y-2285419D02*
X16290000Y-3385419D01*
X16290000Y-2861609D02*
X15604286Y-2861609D01*
X15604286Y-2285419D02*
X15604286Y-3385419D01*
X15032857Y-2285419D02*
X15032857Y-3385419D01*
X14518571Y-2337800D02*
X14347143Y-2285419D01*
X14347143Y-2285419D02*
X14061428Y-2285419D01*
X14061428Y-2285419D02*
X13947143Y-2337800D01*
X13947143Y-2337800D02*
X13890000Y-2390180D01*
X13890000Y-2390180D02*
X13832857Y-2494942D01*
X13832857Y-2494942D02*
X13832857Y-2599704D01*
X13832857Y-2599704D02*
X13890000Y-2704466D01*
X13890000Y-2704466D02*
X13947143Y-2756847D01*
X13947143Y-2756847D02*
X14061428Y-2809228D01*
X14061428Y-2809228D02*
X14290000Y-2861609D01*
X14290000Y-2861609D02*
X14404285Y-2913990D01*
X14404285Y-2913990D02*
X14461428Y-2966371D01*
X14461428Y-2966371D02*
X14518571Y-3071133D01*
X14518571Y-3071133D02*
X14518571Y-3175895D01*
X14518571Y-3175895D02*
X14461428Y-3280657D01*
X14461428Y-3280657D02*
X14404285Y-3333038D01*
X14404285Y-3333038D02*
X14290000Y-3385419D01*
X14290000Y-3385419D02*
X14004285Y-3385419D01*
X14004285Y-3385419D02*
X13832857Y-3333038D01*
X12461428Y-2337800D02*
X12290000Y-2285419D01*
X12290000Y-2285419D02*
X12004285Y-2285419D01*
X12004285Y-2285419D02*
X11890000Y-2337800D01*
X11890000Y-2337800D02*
X11832857Y-2390180D01*
X11832857Y-2390180D02*
X11775714Y-2494942D01*
X11775714Y-2494942D02*
X11775714Y-2599704D01*
X11775714Y-2599704D02*
X11832857Y-2704466D01*
X11832857Y-2704466D02*
X11890000Y-2756847D01*
X11890000Y-2756847D02*
X12004285Y-2809228D01*
X12004285Y-2809228D02*
X12232857Y-2861609D01*
X12232857Y-2861609D02*
X12347142Y-2913990D01*
X12347142Y-2913990D02*
X12404285Y-2966371D01*
X12404285Y-2966371D02*
X12461428Y-3071133D01*
X12461428Y-3071133D02*
X12461428Y-3175895D01*
X12461428Y-3175895D02*
X12404285Y-3280657D01*
X12404285Y-3280657D02*
X12347142Y-3333038D01*
X12347142Y-3333038D02*
X12232857Y-3385419D01*
X12232857Y-3385419D02*
X11947142Y-3385419D01*
X11947142Y-3385419D02*
X11775714Y-3333038D01*
X11261428Y-2285419D02*
X11261428Y-3385419D01*
X10689999Y-2285419D02*
X10689999Y-3385419D01*
X10689999Y-3385419D02*
X10404285Y-3385419D01*
X10404285Y-3385419D02*
X10232856Y-3333038D01*
X10232856Y-3333038D02*
X10118571Y-3228276D01*
X10118571Y-3228276D02*
X10061428Y-3123514D01*
X10061428Y-3123514D02*
X10004285Y-2913990D01*
X10004285Y-2913990D02*
X10004285Y-2756847D01*
X10004285Y-2756847D02*
X10061428Y-2547323D01*
X10061428Y-2547323D02*
X10118571Y-2442561D01*
X10118571Y-2442561D02*
X10232856Y-2337800D01*
X10232856Y-2337800D02*
X10404285Y-2285419D01*
X10404285Y-2285419D02*
X10689999Y-2285419D01*
X9489999Y-2861609D02*
X9089999Y-2861609D01*
X8918571Y-2285419D02*
X9489999Y-2285419D01*
X9489999Y-2285419D02*
X9489999Y-3385419D01*
X9489999Y-3385419D02*
X8918571Y-3385419D01*
X7489999Y-2285419D02*
X7489999Y-3385419D01*
X7489999Y-3385419D02*
X7204285Y-3385419D01*
X7204285Y-3385419D02*
X7032856Y-3333038D01*
X7032856Y-3333038D02*
X6918571Y-3228276D01*
X6918571Y-3228276D02*
X6861428Y-3123514D01*
X6861428Y-3123514D02*
X6804285Y-2913990D01*
X6804285Y-2913990D02*
X6804285Y-2756847D01*
X6804285Y-2756847D02*
X6861428Y-2547323D01*
X6861428Y-2547323D02*
X6918571Y-2442561D01*
X6918571Y-2442561D02*
X7032856Y-2337800D01*
X7032856Y-2337800D02*
X7204285Y-2285419D01*
X7204285Y-2285419D02*
X7489999Y-2285419D01*
X6061428Y-3385419D02*
X5832856Y-3385419D01*
X5832856Y-3385419D02*
X5718571Y-3333038D01*
X5718571Y-3333038D02*
X5604285Y-3228276D01*
X5604285Y-3228276D02*
X5547142Y-3018752D01*
X5547142Y-3018752D02*
X5547142Y-2652085D01*
X5547142Y-2652085D02*
X5604285Y-2442561D01*
X5604285Y-2442561D02*
X5718571Y-2337800D01*
X5718571Y-2337800D02*
X5832856Y-2285419D01*
X5832856Y-2285419D02*
X6061428Y-2285419D01*
X6061428Y-2285419D02*
X6175714Y-2337800D01*
X6175714Y-2337800D02*
X6289999Y-2442561D01*
X6289999Y-2442561D02*
X6347142Y-2652085D01*
X6347142Y-2652085D02*
X6347142Y-3018752D01*
X6347142Y-3018752D02*
X6289999Y-3228276D01*
X6289999Y-3228276D02*
X6175714Y-3333038D01*
X6175714Y-3333038D02*
X6061428Y-3385419D01*
X5147142Y-3385419D02*
X4861428Y-2285419D01*
X4861428Y-2285419D02*
X4632856Y-3071133D01*
X4632856Y-3071133D02*
X4404285Y-2285419D01*
X4404285Y-2285419D02*
X4118571Y-3385419D01*
X3661427Y-2285419D02*
X3661427Y-3385419D01*
X3661427Y-3385419D02*
X2975713Y-2285419D01*
X2975713Y-2285419D02*
X2975713Y-3385419D01*
D12*
X3512845Y-44212635D02*
X3512845Y-45512635D01*
X3512845Y-45512635D02*
X3017607Y-45512635D01*
X3017607Y-45512635D02*
X2893797Y-45450730D01*
X2893797Y-45450730D02*
X2831892Y-45388825D01*
X2831892Y-45388825D02*
X2769988Y-45265016D01*
X2769988Y-45265016D02*
X2769988Y-45079301D01*
X2769988Y-45079301D02*
X2831892Y-44955492D01*
X2831892Y-44955492D02*
X2893797Y-44893587D01*
X2893797Y-44893587D02*
X3017607Y-44831682D01*
X3017607Y-44831682D02*
X3512845Y-44831682D01*
X2274749Y-44584063D02*
X1655702Y-44584063D01*
X2398559Y-44212635D02*
X1965226Y-45512635D01*
X1965226Y-45512635D02*
X1531892Y-44212635D01*
X355702Y-44212635D02*
X789035Y-44831682D01*
X1098559Y-44212635D02*
X1098559Y-45512635D01*
X1098559Y-45512635D02*
X603321Y-45512635D01*
X603321Y-45512635D02*
X479511Y-45450730D01*
X479511Y-45450730D02*
X417606Y-45388825D01*
X417606Y-45388825D02*
X355702Y-45265016D01*
X355702Y-45265016D02*
X355702Y-45079301D01*
X355702Y-45079301D02*
X417606Y-44955492D01*
X417606Y-44955492D02*
X479511Y-44893587D01*
X479511Y-44893587D02*
X603321Y-44831682D01*
X603321Y-44831682D02*
X1098559Y-44831682D01*
X-139536Y-45388825D02*
X-201440Y-45450730D01*
X-201440Y-45450730D02*
X-325250Y-45512635D01*
X-325250Y-45512635D02*
X-634774Y-45512635D01*
X-634774Y-45512635D02*
X-758583Y-45450730D01*
X-758583Y-45450730D02*
X-820488Y-45388825D01*
X-820488Y-45388825D02*
X-882393Y-45265016D01*
X-882393Y-45265016D02*
X-882393Y-45141206D01*
X-882393Y-45141206D02*
X-820488Y-44955492D01*
X-820488Y-44955492D02*
X-77631Y-44212635D01*
X-77631Y-44212635D02*
X-882393Y-44212635D01*
X20512845Y-44612635D02*
X20512845Y-45912635D01*
X20512845Y-45912635D02*
X20017607Y-45912635D01*
X20017607Y-45912635D02*
X19893797Y-45850730D01*
X19893797Y-45850730D02*
X19831892Y-45788825D01*
X19831892Y-45788825D02*
X19769988Y-45665016D01*
X19769988Y-45665016D02*
X19769988Y-45479301D01*
X19769988Y-45479301D02*
X19831892Y-45355492D01*
X19831892Y-45355492D02*
X19893797Y-45293587D01*
X19893797Y-45293587D02*
X20017607Y-45231682D01*
X20017607Y-45231682D02*
X20512845Y-45231682D01*
X19274749Y-44984063D02*
X18655702Y-44984063D01*
X19398559Y-44612635D02*
X18965226Y-45912635D01*
X18965226Y-45912635D02*
X18531892Y-44612635D01*
X17355702Y-44612635D02*
X17789035Y-45231682D01*
X18098559Y-44612635D02*
X18098559Y-45912635D01*
X18098559Y-45912635D02*
X17603321Y-45912635D01*
X17603321Y-45912635D02*
X17479511Y-45850730D01*
X17479511Y-45850730D02*
X17417606Y-45788825D01*
X17417606Y-45788825D02*
X17355702Y-45665016D01*
X17355702Y-45665016D02*
X17355702Y-45479301D01*
X17355702Y-45479301D02*
X17417606Y-45355492D01*
X17417606Y-45355492D02*
X17479511Y-45293587D01*
X17479511Y-45293587D02*
X17603321Y-45231682D01*
X17603321Y-45231682D02*
X18098559Y-45231682D01*
X16117606Y-44612635D02*
X16860463Y-44612635D01*
X16489035Y-44612635D02*
X16489035Y-45912635D01*
X16489035Y-45912635D02*
X16612844Y-45726920D01*
X16612844Y-45726920D02*
X16736654Y-45603111D01*
X16736654Y-45603111D02*
X16860463Y-45541206D01*
D13*
X10028568Y-10714195D02*
X9742854Y-10714195D01*
X9742854Y-10714195D02*
X9599997Y-10652290D01*
X9599997Y-10652290D02*
X9457140Y-10528480D01*
X9457140Y-10528480D02*
X9385711Y-10280861D01*
X9385711Y-10280861D02*
X9385711Y-9847528D01*
X9385711Y-9847528D02*
X9457140Y-9599909D01*
X9457140Y-9599909D02*
X9599997Y-9476100D01*
X9599997Y-9476100D02*
X9742854Y-9414195D01*
X9742854Y-9414195D02*
X10028568Y-9414195D01*
X10028568Y-9414195D02*
X10171426Y-9476100D01*
X10171426Y-9476100D02*
X10314283Y-9599909D01*
X10314283Y-9599909D02*
X10385711Y-9847528D01*
X10385711Y-9847528D02*
X10385711Y-10280861D01*
X10385711Y-10280861D02*
X10314283Y-10528480D01*
X10314283Y-10528480D02*
X10171426Y-10652290D01*
X10171426Y-10652290D02*
X10028568Y-10714195D01*
X8242854Y-10095147D02*
X8742854Y-10095147D01*
X8742854Y-9414195D02*
X8742854Y-10714195D01*
X8742854Y-10714195D02*
X8028568Y-10714195D01*
X6957140Y-10095147D02*
X7457140Y-10095147D01*
X7457140Y-9414195D02*
X7457140Y-10714195D01*
X7457140Y-10714195D02*
X6742854Y-10714195D01*
X16285804Y-37128571D02*
X17214376Y-37128571D01*
X17214376Y-37128571D02*
X17400090Y-37200000D01*
X17400090Y-37200000D02*
X17523900Y-37342857D01*
X17523900Y-37342857D02*
X17585804Y-37557143D01*
X17585804Y-37557143D02*
X17585804Y-37700000D01*
X17585804Y-35700000D02*
X17585804Y-36414286D01*
X17585804Y-36414286D02*
X16285804Y-36414286D01*
X17461995Y-34342857D02*
X17523900Y-34414285D01*
X17523900Y-34414285D02*
X17585804Y-34628571D01*
X17585804Y-34628571D02*
X17585804Y-34771428D01*
X17585804Y-34771428D02*
X17523900Y-34985714D01*
X17523900Y-34985714D02*
X17400090Y-35128571D01*
X17400090Y-35128571D02*
X17276280Y-35200000D01*
X17276280Y-35200000D02*
X17028661Y-35271428D01*
X17028661Y-35271428D02*
X16842947Y-35271428D01*
X16842947Y-35271428D02*
X16595328Y-35200000D01*
X16595328Y-35200000D02*
X16471519Y-35128571D01*
X16471519Y-35128571D02*
X16347709Y-34985714D01*
X16347709Y-34985714D02*
X16285804Y-34771428D01*
X16285804Y-34771428D02*
X16285804Y-34628571D01*
X16285804Y-34628571D02*
X16347709Y-34414285D01*
X16347709Y-34414285D02*
X16409614Y-34342857D01*
X16285804Y-33271428D02*
X17214376Y-33271428D01*
X17214376Y-33271428D02*
X17400090Y-33342857D01*
X17400090Y-33342857D02*
X17523900Y-33485714D01*
X17523900Y-33485714D02*
X17585804Y-33700000D01*
X17585804Y-33700000D02*
X17585804Y-33842857D01*
X17585804Y-31842857D02*
X17585804Y-32557143D01*
X17585804Y-32557143D02*
X16285804Y-32557143D01*
X17461995Y-30485714D02*
X17523900Y-30557142D01*
X17523900Y-30557142D02*
X17585804Y-30771428D01*
X17585804Y-30771428D02*
X17585804Y-30914285D01*
X17585804Y-30914285D02*
X17523900Y-31128571D01*
X17523900Y-31128571D02*
X17400090Y-31271428D01*
X17400090Y-31271428D02*
X17276280Y-31342857D01*
X17276280Y-31342857D02*
X17028661Y-31414285D01*
X17028661Y-31414285D02*
X16842947Y-31414285D01*
X16842947Y-31414285D02*
X16595328Y-31342857D01*
X16595328Y-31342857D02*
X16471519Y-31271428D01*
X16471519Y-31271428D02*
X16347709Y-31128571D01*
X16347709Y-31128571D02*
X16285804Y-30914285D01*
X16285804Y-30914285D02*
X16285804Y-30771428D01*
X16285804Y-30771428D02*
X16347709Y-30557142D01*
X16347709Y-30557142D02*
X16409614Y-30485714D01*
X16285804Y-29414285D02*
X17214376Y-29414285D01*
X17214376Y-29414285D02*
X17400090Y-29485714D01*
X17400090Y-29485714D02*
X17523900Y-29628571D01*
X17523900Y-29628571D02*
X17585804Y-29842857D01*
X17585804Y-29842857D02*
X17585804Y-29985714D01*
X17585804Y-27985714D02*
X17585804Y-28700000D01*
X17585804Y-28700000D02*
X16285804Y-28700000D01*
X17461995Y-26628571D02*
X17523900Y-26699999D01*
X17523900Y-26699999D02*
X17585804Y-26914285D01*
X17585804Y-26914285D02*
X17585804Y-27057142D01*
X17585804Y-27057142D02*
X17523900Y-27271428D01*
X17523900Y-27271428D02*
X17400090Y-27414285D01*
X17400090Y-27414285D02*
X17276280Y-27485714D01*
X17276280Y-27485714D02*
X17028661Y-27557142D01*
X17028661Y-27557142D02*
X16842947Y-27557142D01*
X16842947Y-27557142D02*
X16595328Y-27485714D01*
X16595328Y-27485714D02*
X16471519Y-27414285D01*
X16471519Y-27414285D02*
X16347709Y-27271428D01*
X16347709Y-27271428D02*
X16285804Y-27057142D01*
X16285804Y-27057142D02*
X16285804Y-26914285D01*
X16285804Y-26914285D02*
X16347709Y-26699999D01*
X16347709Y-26699999D02*
X16409614Y-26628571D01*
X16285804Y-25557142D02*
X17214376Y-25557142D01*
X17214376Y-25557142D02*
X17400090Y-25628571D01*
X17400090Y-25628571D02*
X17523900Y-25771428D01*
X17523900Y-25771428D02*
X17585804Y-25985714D01*
X17585804Y-25985714D02*
X17585804Y-26128571D01*
X17585804Y-24128571D02*
X17585804Y-24842857D01*
X17585804Y-24842857D02*
X16285804Y-24842857D01*
X17461995Y-22771428D02*
X17523900Y-22842856D01*
X17523900Y-22842856D02*
X17585804Y-23057142D01*
X17585804Y-23057142D02*
X17585804Y-23199999D01*
X17585804Y-23199999D02*
X17523900Y-23414285D01*
X17523900Y-23414285D02*
X17400090Y-23557142D01*
X17400090Y-23557142D02*
X17276280Y-23628571D01*
X17276280Y-23628571D02*
X17028661Y-23699999D01*
X17028661Y-23699999D02*
X16842947Y-23699999D01*
X16842947Y-23699999D02*
X16595328Y-23628571D01*
X16595328Y-23628571D02*
X16471519Y-23557142D01*
X16471519Y-23557142D02*
X16347709Y-23414285D01*
X16347709Y-23414285D02*
X16285804Y-23199999D01*
X16285804Y-23199999D02*
X16285804Y-23057142D01*
X16285804Y-23057142D02*
X16347709Y-22842856D01*
X16347709Y-22842856D02*
X16409614Y-22771428D01*
X21754376Y-40224285D02*
X21754376Y-39510000D01*
X22125804Y-40367142D02*
X20825804Y-39867142D01*
X20825804Y-39867142D02*
X22125804Y-39367142D01*
X22125804Y-38867143D02*
X20825804Y-38867143D01*
X20825804Y-38867143D02*
X22125804Y-38010000D01*
X22125804Y-38010000D02*
X20825804Y-38010000D01*
X20825804Y-37509999D02*
X20825804Y-36652857D01*
X22125804Y-37081428D02*
X20825804Y-37081428D01*
X21704852Y-22507142D02*
X21766757Y-22292856D01*
X21766757Y-22292856D02*
X21828661Y-22221427D01*
X21828661Y-22221427D02*
X21952471Y-22149999D01*
X21952471Y-22149999D02*
X22138185Y-22149999D01*
X22138185Y-22149999D02*
X22261995Y-22221427D01*
X22261995Y-22221427D02*
X22323900Y-22292856D01*
X22323900Y-22292856D02*
X22385804Y-22435713D01*
X22385804Y-22435713D02*
X22385804Y-23007142D01*
X22385804Y-23007142D02*
X21085804Y-23007142D01*
X21085804Y-23007142D02*
X21085804Y-22507142D01*
X21085804Y-22507142D02*
X21147709Y-22364285D01*
X21147709Y-22364285D02*
X21209614Y-22292856D01*
X21209614Y-22292856D02*
X21333423Y-22221427D01*
X21333423Y-22221427D02*
X21457233Y-22221427D01*
X21457233Y-22221427D02*
X21581042Y-22292856D01*
X21581042Y-22292856D02*
X21642947Y-22364285D01*
X21642947Y-22364285D02*
X21704852Y-22507142D01*
X21704852Y-22507142D02*
X21704852Y-23007142D01*
X22014376Y-21578570D02*
X22014376Y-20864285D01*
X22385804Y-21721427D02*
X21085804Y-21221427D01*
X21085804Y-21221427D02*
X22385804Y-20721427D01*
X21085804Y-20435713D02*
X21085804Y-19578571D01*
X22385804Y-20007142D02*
X21085804Y-20007142D01*
X9528571Y-22114195D02*
X9242857Y-22114195D01*
X9242857Y-22114195D02*
X9100000Y-22052290D01*
X9100000Y-22052290D02*
X8957143Y-21928480D01*
X8957143Y-21928480D02*
X8885714Y-21680861D01*
X8885714Y-21680861D02*
X8885714Y-21247528D01*
X8885714Y-21247528D02*
X8957143Y-20999909D01*
X8957143Y-20999909D02*
X9100000Y-20876100D01*
X9100000Y-20876100D02*
X9242857Y-20814195D01*
X9242857Y-20814195D02*
X9528571Y-20814195D01*
X9528571Y-20814195D02*
X9671429Y-20876100D01*
X9671429Y-20876100D02*
X9814286Y-20999909D01*
X9814286Y-20999909D02*
X9885714Y-21247528D01*
X9885714Y-21247528D02*
X9885714Y-21680861D01*
X9885714Y-21680861D02*
X9814286Y-21928480D01*
X9814286Y-21928480D02*
X9671429Y-22052290D01*
X9671429Y-22052290D02*
X9528571Y-22114195D01*
X8242857Y-20814195D02*
X8242857Y-22114195D01*
X8242857Y-22114195D02*
X7385714Y-20814195D01*
X7385714Y-20814195D02*
X7385714Y-22114195D01*
X11866284Y2301900D02*
X11651999Y2363804D01*
X11651999Y2363804D02*
X11294856Y2363804D01*
X11294856Y2363804D02*
X11151999Y2301900D01*
X11151999Y2301900D02*
X11080570Y2239995D01*
X11080570Y2239995D02*
X11009141Y2116185D01*
X11009141Y2116185D02*
X11009141Y1992376D01*
X11009141Y1992376D02*
X11080570Y1868566D01*
X11080570Y1868566D02*
X11151999Y1806661D01*
X11151999Y1806661D02*
X11294856Y1744757D01*
X11294856Y1744757D02*
X11580570Y1682852D01*
X11580570Y1682852D02*
X11723427Y1620947D01*
X11723427Y1620947D02*
X11794856Y1559042D01*
X11794856Y1559042D02*
X11866284Y1435233D01*
X11866284Y1435233D02*
X11866284Y1311423D01*
X11866284Y1311423D02*
X11794856Y1187614D01*
X11794856Y1187614D02*
X11723427Y1125709D01*
X11723427Y1125709D02*
X11580570Y1063804D01*
X11580570Y1063804D02*
X11223427Y1063804D01*
X11223427Y1063804D02*
X11009141Y1125709D01*
X10580570Y1063804D02*
X9723428Y1063804D01*
X10151999Y2363804D02*
X10151999Y1063804D01*
X9294856Y1992376D02*
X8580571Y1992376D01*
X9437713Y2363804D02*
X8937713Y1063804D01*
X8937713Y1063804D02*
X8437713Y2363804D01*
X8151999Y1063804D02*
X7294857Y1063804D01*
X7723428Y2363804D02*
X7723428Y1063804D01*
X18584285Y-4334195D02*
X18584285Y-5634195D01*
X18584285Y-5634195D02*
X18012856Y-5634195D01*
X18012856Y-5634195D02*
X17869999Y-5572290D01*
X17869999Y-5572290D02*
X17798570Y-5510385D01*
X17798570Y-5510385D02*
X17727142Y-5386576D01*
X17727142Y-5386576D02*
X17727142Y-5200861D01*
X17727142Y-5200861D02*
X17798570Y-5077052D01*
X17798570Y-5077052D02*
X17869999Y-5015147D01*
X17869999Y-5015147D02*
X18012856Y-4953242D01*
X18012856Y-4953242D02*
X18584285Y-4953242D01*
X17298570Y-5634195D02*
X16441428Y-5634195D01*
X16869999Y-4334195D02*
X16869999Y-5634195D01*
X15084285Y-4334195D02*
X15584285Y-4953242D01*
X15941428Y-4334195D02*
X15941428Y-5634195D01*
X15941428Y-5634195D02*
X15369999Y-5634195D01*
X15369999Y-5634195D02*
X15227142Y-5572290D01*
X15227142Y-5572290D02*
X15155713Y-5510385D01*
X15155713Y-5510385D02*
X15084285Y-5386576D01*
X15084285Y-5386576D02*
X15084285Y-5200861D01*
X15084285Y-5200861D02*
X15155713Y-5077052D01*
X15155713Y-5077052D02*
X15227142Y-5015147D01*
X15227142Y-5015147D02*
X15369999Y-4953242D01*
X15369999Y-4953242D02*
X15941428Y-4953242D01*
X14441428Y-4829433D02*
X13298571Y-4829433D01*
X12584285Y-4334195D02*
X12584285Y-5200861D01*
X12584285Y-5077052D02*
X12512856Y-5138957D01*
X12512856Y-5138957D02*
X12369999Y-5200861D01*
X12369999Y-5200861D02*
X12155713Y-5200861D01*
X12155713Y-5200861D02*
X12012856Y-5138957D01*
X12012856Y-5138957D02*
X11941428Y-5015147D01*
X11941428Y-5015147D02*
X11941428Y-4334195D01*
X11941428Y-5015147D02*
X11869999Y-5138957D01*
X11869999Y-5138957D02*
X11727142Y-5200861D01*
X11727142Y-5200861D02*
X11512856Y-5200861D01*
X11512856Y-5200861D02*
X11369999Y-5138957D01*
X11369999Y-5138957D02*
X11298570Y-5015147D01*
X11298570Y-5015147D02*
X11298570Y-4334195D01*
X10584285Y-4334195D02*
X10584285Y-5200861D01*
X10584285Y-5634195D02*
X10655713Y-5572290D01*
X10655713Y-5572290D02*
X10584285Y-5510385D01*
X10584285Y-5510385D02*
X10512856Y-5572290D01*
X10512856Y-5572290D02*
X10584285Y-5634195D01*
X10584285Y-5634195D02*
X10584285Y-5510385D01*
X9227142Y-4396100D02*
X9369999Y-4334195D01*
X9369999Y-4334195D02*
X9655713Y-4334195D01*
X9655713Y-4334195D02*
X9798570Y-4396100D01*
X9798570Y-4396100D02*
X9869999Y-4458004D01*
X9869999Y-4458004D02*
X9941427Y-4581814D01*
X9941427Y-4581814D02*
X9941427Y-4953242D01*
X9941427Y-4953242D02*
X9869999Y-5077052D01*
X9869999Y-5077052D02*
X9798570Y-5138957D01*
X9798570Y-5138957D02*
X9655713Y-5200861D01*
X9655713Y-5200861D02*
X9369999Y-5200861D01*
X9369999Y-5200861D02*
X9227142Y-5138957D01*
X8584285Y-4334195D02*
X8584285Y-5200861D01*
X8584285Y-4953242D02*
X8512856Y-5077052D01*
X8512856Y-5077052D02*
X8441428Y-5138957D01*
X8441428Y-5138957D02*
X8298570Y-5200861D01*
X8298570Y-5200861D02*
X8155713Y-5200861D01*
X7441428Y-4334195D02*
X7584285Y-4396100D01*
X7584285Y-4396100D02*
X7655714Y-4458004D01*
X7655714Y-4458004D02*
X7727142Y-4581814D01*
X7727142Y-4581814D02*
X7727142Y-4953242D01*
X7727142Y-4953242D02*
X7655714Y-5077052D01*
X7655714Y-5077052D02*
X7584285Y-5138957D01*
X7584285Y-5138957D02*
X7441428Y-5200861D01*
X7441428Y-5200861D02*
X7227142Y-5200861D01*
X7227142Y-5200861D02*
X7084285Y-5138957D01*
X7084285Y-5138957D02*
X7012857Y-5077052D01*
X7012857Y-5077052D02*
X6941428Y-4953242D01*
X6941428Y-4953242D02*
X6941428Y-4581814D01*
X6941428Y-4581814D02*
X7012857Y-4458004D01*
X7012857Y-4458004D02*
X7084285Y-4396100D01*
X7084285Y-4396100D02*
X7227142Y-4334195D01*
X7227142Y-4334195D02*
X7441428Y-4334195D01*
X5298571Y-5200861D02*
X4941428Y-4334195D01*
X4941428Y-4334195D02*
X4584285Y-5200861D01*
X3227142Y-4334195D02*
X4084285Y-4334195D01*
X3655714Y-4334195D02*
X3655714Y-5634195D01*
X3655714Y-5634195D02*
X3798571Y-5448480D01*
X3798571Y-5448480D02*
X3941428Y-5324671D01*
X3941428Y-5324671D02*
X4084285Y-5262766D01*
X2584286Y-4458004D02*
X2512857Y-4396100D01*
X2512857Y-4396100D02*
X2584286Y-4334195D01*
X2584286Y-4334195D02*
X2655714Y-4396100D01*
X2655714Y-4396100D02*
X2584286Y-4458004D01*
X2584286Y-4458004D02*
X2584286Y-4334195D01*
X1584285Y-5634195D02*
X1441428Y-5634195D01*
X1441428Y-5634195D02*
X1298571Y-5572290D01*
X1298571Y-5572290D02*
X1227143Y-5510385D01*
X1227143Y-5510385D02*
X1155714Y-5386576D01*
X1155714Y-5386576D02*
X1084285Y-5138957D01*
X1084285Y-5138957D02*
X1084285Y-4829433D01*
X1084285Y-4829433D02*
X1155714Y-4581814D01*
X1155714Y-4581814D02*
X1227143Y-4458004D01*
X1227143Y-4458004D02*
X1298571Y-4396100D01*
X1298571Y-4396100D02*
X1441428Y-4334195D01*
X1441428Y-4334195D02*
X1584285Y-4334195D01*
X1584285Y-4334195D02*
X1727143Y-4396100D01*
X1727143Y-4396100D02*
X1798571Y-4458004D01*
X1798571Y-4458004D02*
X1870000Y-4581814D01*
X1870000Y-4581814D02*
X1941428Y-4829433D01*
X1941428Y-4829433D02*
X1941428Y-5138957D01*
X1941428Y-5138957D02*
X1870000Y-5386576D01*
X1870000Y-5386576D02*
X1798571Y-5510385D01*
X1798571Y-5510385D02*
X1727143Y-5572290D01*
X1727143Y-5572290D02*
X1584285Y-5634195D01*
X22648571Y-7084195D02*
X22648571Y-8384195D01*
X22648571Y-8384195D02*
X22077142Y-8384195D01*
X22077142Y-8384195D02*
X21934285Y-8322290D01*
X21934285Y-8322290D02*
X21862856Y-8260385D01*
X21862856Y-8260385D02*
X21791428Y-8136576D01*
X21791428Y-8136576D02*
X21791428Y-7950861D01*
X21791428Y-7950861D02*
X21862856Y-7827052D01*
X21862856Y-7827052D02*
X21934285Y-7765147D01*
X21934285Y-7765147D02*
X22077142Y-7703242D01*
X22077142Y-7703242D02*
X22648571Y-7703242D01*
X20291428Y-7084195D02*
X20791428Y-7703242D01*
X21148571Y-7084195D02*
X21148571Y-8384195D01*
X21148571Y-8384195D02*
X20577142Y-8384195D01*
X20577142Y-8384195D02*
X20434285Y-8322290D01*
X20434285Y-8322290D02*
X20362856Y-8260385D01*
X20362856Y-8260385D02*
X20291428Y-8136576D01*
X20291428Y-8136576D02*
X20291428Y-7950861D01*
X20291428Y-7950861D02*
X20362856Y-7827052D01*
X20362856Y-7827052D02*
X20434285Y-7765147D01*
X20434285Y-7765147D02*
X20577142Y-7703242D01*
X20577142Y-7703242D02*
X21148571Y-7703242D01*
X19362856Y-8384195D02*
X19077142Y-8384195D01*
X19077142Y-8384195D02*
X18934285Y-8322290D01*
X18934285Y-8322290D02*
X18791428Y-8198480D01*
X18791428Y-8198480D02*
X18719999Y-7950861D01*
X18719999Y-7950861D02*
X18719999Y-7517528D01*
X18719999Y-7517528D02*
X18791428Y-7269909D01*
X18791428Y-7269909D02*
X18934285Y-7146100D01*
X18934285Y-7146100D02*
X19077142Y-7084195D01*
X19077142Y-7084195D02*
X19362856Y-7084195D01*
X19362856Y-7084195D02*
X19505714Y-7146100D01*
X19505714Y-7146100D02*
X19648571Y-7269909D01*
X19648571Y-7269909D02*
X19719999Y-7517528D01*
X19719999Y-7517528D02*
X19719999Y-7950861D01*
X19719999Y-7950861D02*
X19648571Y-8198480D01*
X19648571Y-8198480D02*
X19505714Y-8322290D01*
X19505714Y-8322290D02*
X19362856Y-8384195D01*
X17291427Y-8322290D02*
X17434285Y-8384195D01*
X17434285Y-8384195D02*
X17648570Y-8384195D01*
X17648570Y-8384195D02*
X17862856Y-8322290D01*
X17862856Y-8322290D02*
X18005713Y-8198480D01*
X18005713Y-8198480D02*
X18077142Y-8074671D01*
X18077142Y-8074671D02*
X18148570Y-7827052D01*
X18148570Y-7827052D02*
X18148570Y-7641338D01*
X18148570Y-7641338D02*
X18077142Y-7393719D01*
X18077142Y-7393719D02*
X18005713Y-7269909D01*
X18005713Y-7269909D02*
X17862856Y-7146100D01*
X17862856Y-7146100D02*
X17648570Y-7084195D01*
X17648570Y-7084195D02*
X17505713Y-7084195D01*
X17505713Y-7084195D02*
X17291427Y-7146100D01*
X17291427Y-7146100D02*
X17219999Y-7208004D01*
X17219999Y-7208004D02*
X17219999Y-7641338D01*
X17219999Y-7641338D02*
X17505713Y-7641338D01*
D10*
X5103866Y-34310951D02*
X5103866Y-33549047D01*
X5484819Y-33929999D02*
X4722914Y-33929999D01*
D14*
X17566390Y-24614285D02*
X17518771Y-24757142D01*
X17518771Y-24757142D02*
X17471152Y-24804761D01*
X17471152Y-24804761D02*
X17375914Y-24852380D01*
X17375914Y-24852380D02*
X17233057Y-24852380D01*
X17233057Y-24852380D02*
X17137819Y-24804761D01*
X17137819Y-24804761D02*
X17090200Y-24757142D01*
X17090200Y-24757142D02*
X17042580Y-24661904D01*
X17042580Y-24661904D02*
X17042580Y-24280952D01*
X17042580Y-24280952D02*
X18042580Y-24280952D01*
X18042580Y-24280952D02*
X18042580Y-24614285D01*
X18042580Y-24614285D02*
X17994961Y-24709523D01*
X17994961Y-24709523D02*
X17947342Y-24757142D01*
X17947342Y-24757142D02*
X17852104Y-24804761D01*
X17852104Y-24804761D02*
X17756866Y-24804761D01*
X17756866Y-24804761D02*
X17661628Y-24757142D01*
X17661628Y-24757142D02*
X17614009Y-24709523D01*
X17614009Y-24709523D02*
X17566390Y-24614285D01*
X17566390Y-24614285D02*
X17566390Y-24280952D01*
X18042580Y-25138095D02*
X18042580Y-25709523D01*
X17042580Y-25423809D02*
X18042580Y-25423809D01*
X17042580Y-26566666D02*
X17042580Y-25995238D01*
X17042580Y-26280952D02*
X18042580Y-26280952D01*
X18042580Y-26280952D02*
X17899723Y-26185714D01*
X17899723Y-26185714D02*
X17804485Y-26090476D01*
X17804485Y-26090476D02*
X17756866Y-25995238D01*
D15*
X9167669Y-28837380D02*
X8501003Y-28837380D01*
X8501003Y-28837380D02*
X9167669Y-27837380D01*
X9167669Y-27837380D02*
X8501003Y-27837380D01*
X9294669Y-31885380D02*
X8628003Y-30885380D01*
X8628003Y-31885380D02*
X9294669Y-30885380D01*
X11929955Y-28186571D02*
X11929955Y-27710380D01*
X12263288Y-28710380D02*
X11929955Y-28186571D01*
X11929955Y-28186571D02*
X11596622Y-28710380D01*
%TO.C,J3*%
D16*
X4600000Y-45810000D02*
X15340000Y-45810000D01*
X4600000Y-52930000D02*
X4600000Y-45810000D01*
X4600000Y-52930000D02*
X15340000Y-52930000D01*
X15340000Y-45810000D02*
X15340000Y-52930000D01*
X6470000Y-52170000D02*
X6910000Y-52780000D01*
X6030000Y-52780000D01*
X6470000Y-52170000D01*
G36*
X6910000Y-52780000D02*
G01*
X6030000Y-52780000D01*
X6470000Y-52170000D01*
X6910000Y-52780000D01*
G37*
%TO.C,SW1*%
D14*
X6800000Y-11200000D02*
X10200000Y-11200000D01*
X6800000Y-11800000D02*
X6800000Y-11200000D01*
X6800000Y-19800000D02*
X6800000Y-20400000D01*
X10200000Y-11800000D02*
X10200000Y-11200000D01*
X10200000Y-19800000D02*
X10200000Y-20400000D01*
X10200000Y-20400000D02*
X6800000Y-20400000D01*
%TO.C,U2*%
X-2950000Y-21800000D02*
X-2950000Y-28300000D01*
%TO.C,D3*%
D17*
X11042000Y-43333999D02*
X11042000Y-45365999D01*
D16*
X12063529Y-43219699D02*
X13576471Y-43219699D01*
X12063529Y-45480299D02*
X13576471Y-45480299D01*
D13*
X12312000Y-43333999D02*
X12312000Y-45365999D01*
%TO.C,D1*%
X10508000Y-1516000D02*
X10508000Y516000D01*
D16*
X10756471Y630300D02*
X9243529Y630300D01*
X10756471Y-1630300D02*
X9243529Y-1630300D01*
D17*
X11778000Y-1516000D02*
X11778000Y516000D01*
%TO.C,D9*%
D16*
X-1562000Y-19277000D02*
X723000Y-19277000D01*
X723000Y-17807000D02*
X-1562000Y-17807000D01*
X723000Y-19277000D02*
X723000Y-17807000D01*
%TO.C,LS1*%
X9550000Y-37930000D02*
G75*
G02*
X310000Y-37930000I-4620000J0D01*
G01*
X310000Y-37930000D02*
G75*
G02*
X9550000Y-37930000I4620000J0D01*
G01*
%TO.C,D4*%
D17*
X5292000Y-43334000D02*
X5292000Y-45366000D01*
D16*
X6313529Y-43219700D02*
X7826471Y-43219700D01*
X6313529Y-45480300D02*
X7826471Y-45480300D01*
D13*
X6562000Y-43334000D02*
X6562000Y-45366000D01*
%TO.C,D2*%
D16*
X20619701Y-25812671D02*
X20619701Y-24299729D01*
D13*
X20734001Y-25564200D02*
X22766001Y-25564200D01*
D17*
X20734001Y-26834200D02*
X22766001Y-26834200D01*
D16*
X22880301Y-25812671D02*
X22880301Y-24299729D01*
%TO.C,BT1*%
D17*
X16111000Y-12650000D02*
X17889000Y-12650000D01*
X17000000Y-11761000D02*
X17000000Y-13539000D01*
%TO.C,D10*%
D16*
X-1562000Y-32231000D02*
X723000Y-32231000D01*
X723000Y-30761000D02*
X-1562000Y-30761000D01*
X723000Y-32231000D02*
X723000Y-30761000D01*
D18*
%TO.C,G\u002A\u002A\u002A*%
G36*
X2827011Y-10802717D02*
G01*
X2931324Y-11046036D01*
X3683693Y-11046036D01*
X3836527Y-11046193D01*
X3978948Y-11046642D01*
X4107762Y-11047353D01*
X4219775Y-11048292D01*
X4311792Y-11049428D01*
X4380619Y-11050729D01*
X4423062Y-11052164D01*
X4436062Y-11053555D01*
X4441538Y-11071623D01*
X4455623Y-11110088D01*
X4468374Y-11143049D01*
X4500685Y-11225025D01*
X3666226Y-11891000D01*
X3498241Y-12025190D01*
X3353963Y-12140769D01*
X3231610Y-12239253D01*
X3129396Y-12322162D01*
X3045540Y-12391012D01*
X2978258Y-12447323D01*
X2925766Y-12492612D01*
X2886280Y-12528398D01*
X2858018Y-12556198D01*
X2839196Y-12577531D01*
X2828031Y-12593914D01*
X2822738Y-12606866D01*
X2822174Y-12609466D01*
X2818640Y-12631840D01*
X2810659Y-12684372D01*
X2798525Y-12765085D01*
X2782532Y-12872003D01*
X2762972Y-13003151D01*
X2740141Y-13156552D01*
X2714331Y-13330231D01*
X2685836Y-13522212D01*
X2654950Y-13730519D01*
X2621966Y-13953175D01*
X2587179Y-14188206D01*
X2550880Y-14433635D01*
X2513365Y-14687487D01*
X2511498Y-14700128D01*
X2473152Y-14959701D01*
X2435520Y-15214427D01*
X2398942Y-15462006D01*
X2363757Y-15700141D01*
X2330305Y-15926535D01*
X2298925Y-16138888D01*
X2269957Y-16334905D01*
X2243741Y-16512285D01*
X2220615Y-16668733D01*
X2200921Y-16801949D01*
X2184997Y-16909636D01*
X2173182Y-16989497D01*
X2166491Y-17034687D01*
X2122568Y-17331074D01*
X2006507Y-17331074D01*
X1986150Y-17188971D01*
X1979482Y-17142924D01*
X1968659Y-17068830D01*
X1954012Y-16968922D01*
X1935870Y-16845430D01*
X1914564Y-16700588D01*
X1890422Y-16536627D01*
X1863774Y-16355779D01*
X1834952Y-16160276D01*
X1804283Y-15952349D01*
X1772099Y-15734232D01*
X1738728Y-15508155D01*
X1704501Y-15276352D01*
X1669748Y-15041053D01*
X1634798Y-14804491D01*
X1599980Y-14568897D01*
X1565626Y-14336505D01*
X1532065Y-14109545D01*
X1499626Y-13890249D01*
X1468639Y-13680850D01*
X1439434Y-13483580D01*
X1412341Y-13300670D01*
X1387690Y-13134353D01*
X1365810Y-12986860D01*
X1347031Y-12860423D01*
X1331684Y-12757275D01*
X1320097Y-12679647D01*
X1312602Y-12629771D01*
X1309557Y-12610056D01*
X1305427Y-12597767D01*
X1295754Y-12582323D01*
X1278762Y-12562209D01*
X1252671Y-12535910D01*
X1215704Y-12501913D01*
X1166080Y-12458701D01*
X1102022Y-12404761D01*
X1021751Y-12338578D01*
X923489Y-12258637D01*
X805458Y-12163422D01*
X665877Y-12051421D01*
X502970Y-11921117D01*
X465151Y-11890904D01*
X-370220Y-11223651D01*
X-338179Y-11142363D01*
X-320321Y-11095773D01*
X-308690Y-11062962D01*
X-306138Y-11053555D01*
X-290430Y-11052028D01*
X-245434Y-11050605D01*
X-174346Y-11049318D01*
X-80358Y-11048198D01*
X33336Y-11047279D01*
X163542Y-11046591D01*
X307066Y-11046166D01*
X446576Y-11046036D01*
X1199290Y-11046036D01*
X1407226Y-10559520D01*
X2064962Y-10559459D01*
X2722699Y-10559398D01*
X2827011Y-10802717D01*
G37*
G36*
X6831593Y-8250950D02*
G01*
X6789065Y-8355147D01*
X6737142Y-8481536D01*
X6676627Y-8628180D01*
X6608321Y-8793144D01*
X6533026Y-8974491D01*
X6500681Y-9052212D01*
X6451543Y-9170284D01*
X6364673Y-9378588D01*
X6273219Y-9597466D01*
X6177980Y-9824981D01*
X6105436Y-9998012D01*
X6005369Y-10236536D01*
X5906730Y-10471671D01*
X5810484Y-10701115D01*
X5717597Y-10922565D01*
X5629034Y-11133719D01*
X5545761Y-11332275D01*
X5468743Y-11515931D01*
X5398946Y-11682383D01*
X5337335Y-11829331D01*
X5284876Y-11954472D01*
X5242534Y-12055502D01*
X5211275Y-12130122D01*
X5199393Y-12158504D01*
X5164548Y-12241728D01*
X5118356Y-12351983D01*
X5062041Y-12486351D01*
X4996828Y-12641913D01*
X4923941Y-12815751D01*
X4844603Y-13004947D01*
X4760039Y-13206581D01*
X4671474Y-13417737D01*
X4580131Y-13635495D01*
X4487234Y-13856937D01*
X4394008Y-14079144D01*
X4301677Y-14299198D01*
X4211465Y-14514182D01*
X4124596Y-14721176D01*
X4042294Y-14917261D01*
X3965784Y-15099521D01*
X3908456Y-15236061D01*
X3845997Y-15384847D01*
X3780882Y-15540024D01*
X3715733Y-15695343D01*
X3653169Y-15844557D01*
X3595810Y-15981417D01*
X3546275Y-16099676D01*
X3513492Y-16178005D01*
X3394227Y-16463011D01*
X3286856Y-16719344D01*
X3190817Y-16948330D01*
X3105545Y-17151294D01*
X3030479Y-17329560D01*
X2965055Y-17484454D01*
X2908710Y-17617299D01*
X2860881Y-17729422D01*
X2821005Y-17822147D01*
X2788519Y-17896799D01*
X2762861Y-17954702D01*
X2743466Y-17997182D01*
X2729773Y-18025563D01*
X2722903Y-18038398D01*
X2670961Y-18110075D01*
X2598877Y-18186123D01*
X2515978Y-18257250D01*
X2470047Y-18290308D01*
X2347813Y-18353220D01*
X2211427Y-18390843D01*
X2067261Y-18403064D01*
X1921689Y-18389769D01*
X1781082Y-18350847D01*
X1681930Y-18304321D01*
X1612016Y-18255585D01*
X1536624Y-18188478D01*
X1465946Y-18113075D01*
X1410175Y-18039455D01*
X1403861Y-18029412D01*
X1394695Y-18009747D01*
X1373504Y-17961358D01*
X1340809Y-17885482D01*
X1297131Y-17783354D01*
X1242992Y-17656209D01*
X1178914Y-17505285D01*
X1105419Y-17331817D01*
X1023027Y-17137040D01*
X932260Y-16922191D01*
X833639Y-16688505D01*
X727688Y-16437219D01*
X614925Y-16169568D01*
X495875Y-15886788D01*
X371057Y-15590116D01*
X240993Y-15280786D01*
X106206Y-14960035D01*
X-32785Y-14629099D01*
X-175456Y-14289214D01*
X-321286Y-13941615D01*
X-347134Y-13879987D01*
X-497018Y-13522599D01*
X-645601Y-13168322D01*
X-792249Y-12818661D01*
X-936334Y-12475119D01*
X-1077222Y-12139203D01*
X-1214283Y-11812416D01*
X-1346887Y-11496263D01*
X-1474401Y-11192250D01*
X-1596195Y-10901880D01*
X-1711637Y-10626659D01*
X-1820096Y-10368090D01*
X-1920942Y-10127680D01*
X-2013542Y-9906932D01*
X-2097267Y-9707351D01*
X-2171484Y-9530443D01*
X-2235563Y-9377710D01*
X-2288872Y-9250660D01*
X-2330781Y-9150795D01*
X-2356691Y-9089066D01*
X-2374094Y-9047602D01*
X-2141386Y-9047602D01*
X-2113659Y-9117056D01*
X-2098975Y-9153053D01*
X-2074068Y-9213259D01*
X-2041320Y-9291949D01*
X-2003114Y-9383399D01*
X-1961836Y-9481883D01*
X-1952885Y-9503197D01*
X-1819838Y-9819885D01*
X-121044Y-9824020D01*
X118132Y-9824735D01*
X346177Y-9825677D01*
X561098Y-9826826D01*
X760908Y-9828159D01*
X943615Y-9829655D01*
X1107230Y-9831292D01*
X1249762Y-9833050D01*
X1369222Y-9834907D01*
X1463620Y-9836841D01*
X1530966Y-9838830D01*
X1569270Y-9840854D01*
X1577750Y-9842337D01*
X1571947Y-9865352D01*
X1557562Y-9904607D01*
X1553171Y-9915344D01*
X1528593Y-9974169D01*
X-112824Y-9974169D01*
X-364112Y-9974311D01*
X-599869Y-9974726D01*
X-818433Y-9975400D01*
X-1018140Y-9976318D01*
X-1197328Y-9977465D01*
X-1354332Y-9978827D01*
X-1487490Y-9980388D01*
X-1595139Y-9982133D01*
X-1675615Y-9984048D01*
X-1727255Y-9986118D01*
X-1748397Y-9988329D01*
X-1748827Y-9988767D01*
X-1741539Y-10006580D01*
X-1723133Y-10050970D01*
X-1695022Y-10118546D01*
X-1658619Y-10205920D01*
X-1615335Y-10309700D01*
X-1566584Y-10426497D01*
X-1513779Y-10552921D01*
X-1508606Y-10565301D01*
X-1273798Y-11127238D01*
X-869816Y-11127238D01*
X-759497Y-11127704D01*
X-661094Y-11129016D01*
X-578889Y-11131043D01*
X-517163Y-11133653D01*
X-480195Y-11136716D01*
X-471329Y-11139418D01*
X-480255Y-11161248D01*
X-495623Y-11200394D01*
X-500306Y-11212500D01*
X-523788Y-11273402D01*
X-861574Y-11273402D01*
X-962367Y-11273959D01*
X-1051190Y-11275515D01*
X-1123274Y-11277899D01*
X-1173845Y-11280938D01*
X-1198133Y-11284461D01*
X-1199581Y-11285582D01*
X-1193701Y-11304002D01*
X-1177318Y-11346997D01*
X-1152548Y-11409216D01*
X-1121511Y-11485306D01*
X-1099962Y-11537308D01*
X-1000123Y-11776854D01*
X118856Y-11776854D01*
X217055Y-11853996D01*
X315253Y-11931138D01*
X-304010Y-11935391D01*
X-442228Y-11936577D01*
X-569707Y-11938127D01*
X-682926Y-11939964D01*
X-778364Y-11942009D01*
X-852499Y-11944187D01*
X-901812Y-11946419D01*
X-922780Y-11948628D01*
X-923273Y-11949005D01*
X-917208Y-11965637D01*
X-899960Y-12008758D01*
X-872949Y-12074924D01*
X-837595Y-12160688D01*
X-795318Y-12262604D01*
X-747538Y-12377226D01*
X-700835Y-12488806D01*
X-639981Y-12633941D01*
X-575073Y-12788779D01*
X-509216Y-12945908D01*
X-445517Y-13097919D01*
X-387081Y-13237400D01*
X-337014Y-13356939D01*
X-322009Y-13392775D01*
X-165622Y-13766304D01*
X592953Y-13770525D01*
X778515Y-13771747D01*
X933797Y-13773216D01*
X1060997Y-13775004D01*
X1162315Y-13777180D01*
X1239952Y-13779814D01*
X1296105Y-13782976D01*
X1332976Y-13786737D01*
X1352763Y-13791166D01*
X1357691Y-13794886D01*
X1363906Y-13823539D01*
X1371179Y-13867822D01*
X1372313Y-13875764D01*
X1380770Y-13936502D01*
X645429Y-13940726D01*
X-89912Y-13944949D01*
X129041Y-14468702D01*
X347995Y-14992455D01*
X939021Y-14992455D01*
X1100803Y-14992697D01*
X1232637Y-14993478D01*
X1337050Y-14994886D01*
X1416572Y-14997007D01*
X1473731Y-14999925D01*
X1511056Y-15003727D01*
X1531077Y-15008500D01*
X1536253Y-15012756D01*
X1543255Y-15042310D01*
X1551451Y-15085133D01*
X1551537Y-15085633D01*
X1560616Y-15138210D01*
X987259Y-15142474D01*
X413903Y-15146739D01*
X996298Y-16535294D01*
X1092071Y-16763075D01*
X1182289Y-16976525D01*
X1266237Y-17173999D01*
X1343199Y-17353848D01*
X1412460Y-17514426D01*
X1473303Y-17654086D01*
X1525013Y-17771181D01*
X1566874Y-17864064D01*
X1598171Y-17931087D01*
X1618189Y-17970605D01*
X1624000Y-17979859D01*
X1716523Y-18069506D01*
X1826451Y-18135115D01*
X1947971Y-18175360D01*
X2075271Y-18188917D01*
X2202538Y-18174461D01*
X2311855Y-18136592D01*
X2394723Y-18087929D01*
X2465931Y-18023981D01*
X2529308Y-17940019D01*
X2588680Y-17831313D01*
X2625158Y-17749414D01*
X2646976Y-17697275D01*
X2679757Y-17619030D01*
X2721890Y-17518522D01*
X2771765Y-17399592D01*
X2827769Y-17266082D01*
X2888291Y-17121835D01*
X2951720Y-16970693D01*
X3015182Y-16819501D01*
X3085559Y-16651819D01*
X3159289Y-16476077D01*
X3233967Y-16298017D01*
X3307186Y-16123377D01*
X3376539Y-15957899D01*
X3439621Y-15807322D01*
X3494026Y-15677385D01*
X3522392Y-15609591D01*
X3715990Y-15146739D01*
X3142649Y-15142474D01*
X2569309Y-15138210D01*
X2578387Y-15085633D01*
X2586574Y-15042766D01*
X2593612Y-15012951D01*
X2593671Y-15012756D01*
X2602400Y-15007201D01*
X2626544Y-15002680D01*
X2668631Y-14999108D01*
X2731191Y-14996399D01*
X2816753Y-14994467D01*
X2927845Y-14993225D01*
X3066998Y-14992588D01*
X3190698Y-14992455D01*
X3781519Y-14992455D01*
X4001386Y-14468702D01*
X4221252Y-13944949D01*
X3488216Y-13936829D01*
X2755179Y-13928708D01*
X2759743Y-13888107D01*
X2766759Y-13839852D01*
X2772193Y-13811126D01*
X2780078Y-13774745D01*
X3537735Y-13770525D01*
X4295391Y-13766304D01*
X4414712Y-13482097D01*
X4528465Y-13211075D01*
X4629956Y-12969093D01*
X4719556Y-12755264D01*
X4797633Y-12568704D01*
X4864556Y-12408526D01*
X4920694Y-12273846D01*
X4966416Y-12163777D01*
X5002090Y-12077434D01*
X5028087Y-12013932D01*
X5044773Y-11972386D01*
X5052520Y-11951908D01*
X5053197Y-11949419D01*
X5037545Y-11947125D01*
X4992941Y-11944801D01*
X4922913Y-11942529D01*
X4830989Y-11940388D01*
X4720699Y-11938458D01*
X4595570Y-11936820D01*
X4459131Y-11935554D01*
X4436526Y-11935391D01*
X3819855Y-11931138D01*
X4012681Y-11776854D01*
X5129748Y-11776854D01*
X5234338Y-11529188D01*
X5338929Y-11281522D01*
X4996447Y-11277154D01*
X4653965Y-11272787D01*
X4626993Y-11200012D01*
X4600021Y-11127238D01*
X5403590Y-11127238D01*
X5638464Y-10565732D01*
X5691616Y-10438609D01*
X5740842Y-10320772D01*
X5784728Y-10215614D01*
X5821860Y-10126528D01*
X5850822Y-10056909D01*
X5870201Y-10010151D01*
X5878582Y-9989647D01*
X5878752Y-9989197D01*
X5863639Y-9986763D01*
X5817364Y-9984505D01*
X5741247Y-9982438D01*
X5636605Y-9980571D01*
X5504759Y-9978919D01*
X5347026Y-9977492D01*
X5164726Y-9976303D01*
X4959177Y-9975365D01*
X4731698Y-9974688D01*
X4483609Y-9974286D01*
X4245538Y-9974169D01*
X2606911Y-9974169D01*
X2579543Y-9916776D01*
X2561885Y-9876038D01*
X2552593Y-9847367D01*
X2552174Y-9843769D01*
X2568272Y-9841085D01*
X2615994Y-9838545D01*
X2694483Y-9836160D01*
X2802884Y-9833940D01*
X2940341Y-9831895D01*
X3105996Y-9830033D01*
X3298994Y-9828367D01*
X3518478Y-9826905D01*
X3763591Y-9825657D01*
X4033479Y-9824634D01*
X4251657Y-9824020D01*
X5951139Y-9819885D01*
X6111184Y-9438353D01*
X6154586Y-9334712D01*
X6193518Y-9241414D01*
X6226308Y-9162492D01*
X6251283Y-9101982D01*
X6266771Y-9063917D01*
X6271228Y-9052212D01*
X6255342Y-9051625D01*
X6209099Y-9051144D01*
X6134625Y-9050768D01*
X6034043Y-9050498D01*
X5909478Y-9050334D01*
X5763055Y-9050275D01*
X5596897Y-9050324D01*
X5413129Y-9050478D01*
X5213876Y-9050739D01*
X5001261Y-9051106D01*
X4777410Y-9051581D01*
X4570045Y-9052094D01*
X2868862Y-9056586D01*
X2763300Y-9106774D01*
X2700529Y-9139598D01*
X2641378Y-9175491D01*
X2602519Y-9203651D01*
X2535091Y-9275920D01*
X2474620Y-9368951D01*
X2428099Y-9471025D01*
X2411932Y-9523044D01*
X2396091Y-9602051D01*
X2391752Y-9677663D01*
X2399999Y-9756364D01*
X2421919Y-9844635D01*
X2458597Y-9948958D01*
X2500351Y-10050800D01*
X2596009Y-10274616D01*
X2330486Y-10279069D01*
X2211194Y-10280414D01*
X2075154Y-10280904D01*
X1938015Y-10280538D01*
X1815429Y-10279317D01*
X1799807Y-10279069D01*
X1534652Y-10274616D01*
X1632924Y-10047251D01*
X1670583Y-9959424D01*
X1697134Y-9893977D01*
X1714511Y-9843540D01*
X1724651Y-9800746D01*
X1729487Y-9758226D01*
X1730956Y-9708613D01*
X1731027Y-9673721D01*
X1717841Y-9527865D01*
X1678235Y-9400742D01*
X1611598Y-9291363D01*
X1517315Y-9198738D01*
X1394774Y-9121879D01*
X1386928Y-9117954D01*
X1262771Y-9056586D01*
X-439307Y-9052094D01*
X-2141386Y-9047602D01*
X-2374094Y-9047602D01*
X-2439548Y-8891650D01*
X-2510728Y-8721764D01*
X-2571144Y-8576997D01*
X-2621710Y-8454938D01*
X-2663337Y-8353176D01*
X-2696938Y-8269300D01*
X-2723426Y-8200897D01*
X-2743713Y-8145557D01*
X-2758713Y-8100869D01*
X-2769337Y-8064421D01*
X-2776498Y-8033801D01*
X-2781110Y-8006599D01*
X-2784084Y-7980403D01*
X-2786232Y-7954130D01*
X-2784214Y-7874804D01*
X-1938065Y-7874804D01*
X-1934681Y-7884352D01*
X-1904355Y-7902350D01*
X-1846138Y-7929233D01*
X-1759080Y-7965436D01*
X-1642235Y-8011393D01*
X-1629448Y-8016322D01*
X-1533025Y-8053761D01*
X-1448071Y-8087381D01*
X-1378835Y-8115446D01*
X-1329563Y-8136224D01*
X-1304502Y-8147982D01*
X-1302253Y-8149866D01*
X-1319894Y-8155487D01*
X-1360115Y-8164496D01*
X-1403781Y-8172990D01*
X-1518579Y-8201025D01*
X-1602540Y-8235797D01*
X-1656041Y-8275059D01*
X-1679460Y-8316566D01*
X-1673175Y-8358072D01*
X-1637561Y-8397332D01*
X-1572998Y-8432099D01*
X-1479861Y-8460127D01*
X-1358529Y-8479172D01*
X-1352231Y-8479800D01*
X-1307842Y-8482610D01*
X-1237176Y-8485189D01*
X-1143817Y-8487523D01*
X-1031347Y-8489601D01*
X-903348Y-8491408D01*
X-763404Y-8492934D01*
X-615098Y-8494165D01*
X-462011Y-8495088D01*
X-307728Y-8495692D01*
X-155830Y-8495964D01*
X-9901Y-8495891D01*
X126477Y-8495461D01*
X249721Y-8494661D01*
X356249Y-8493479D01*
X442477Y-8491902D01*
X504822Y-8489918D01*
X539702Y-8487514D01*
X545156Y-8486434D01*
X554373Y-8479065D01*
X561130Y-8462172D01*
X565789Y-8431411D01*
X568664Y-8383310D01*
X1090538Y-8383310D01*
X1090538Y-8429943D01*
X1099095Y-8469215D01*
X1116226Y-8486434D01*
X1136712Y-8488207D01*
X1186767Y-8489878D01*
X1263481Y-8491418D01*
X1363944Y-8492798D01*
X1485245Y-8493989D01*
X1624473Y-8494963D01*
X1778718Y-8495690D01*
X1945068Y-8496143D01*
X2113683Y-8496292D01*
X2288927Y-8496131D01*
X2454862Y-8495667D01*
X2608580Y-8494930D01*
X2747168Y-8493947D01*
X2867717Y-8492748D01*
X2967315Y-8491361D01*
X3043052Y-8489816D01*
X3092017Y-8488140D01*
X3111140Y-8486434D01*
X3130979Y-8463229D01*
X3136829Y-8429592D01*
X3136829Y-8382609D01*
X2535934Y-8382609D01*
X2535934Y-8334671D01*
X3645190Y-8334671D01*
X3653426Y-8357938D01*
X3674564Y-8382609D01*
X3690829Y-8401592D01*
X3759096Y-8436771D01*
X3857679Y-8463268D01*
X3976286Y-8479957D01*
X4020480Y-8482748D01*
X4090968Y-8485308D01*
X4184167Y-8487623D01*
X4296493Y-8489681D01*
X4424361Y-8491470D01*
X4564187Y-8492978D01*
X4712389Y-8494193D01*
X4865382Y-8495102D01*
X5019582Y-8495693D01*
X5171406Y-8495954D01*
X5317268Y-8495872D01*
X5453587Y-8495436D01*
X5576776Y-8494633D01*
X5683254Y-8493451D01*
X5769435Y-8491878D01*
X5831737Y-8489900D01*
X5866574Y-8487508D01*
X5872010Y-8486434D01*
X5881246Y-8479049D01*
X5888011Y-8462121D01*
X5892671Y-8431294D01*
X5895591Y-8382214D01*
X5897139Y-8310526D01*
X5897678Y-8211873D01*
X5897699Y-8180573D01*
X5897131Y-8085641D01*
X5895555Y-8002133D01*
X5893157Y-7935391D01*
X5890128Y-7890760D01*
X5886872Y-7873743D01*
X5868027Y-7870495D01*
X5822278Y-7867830D01*
X5755199Y-7865752D01*
X5672360Y-7864271D01*
X5579334Y-7863392D01*
X5481693Y-7863122D01*
X5385010Y-7863469D01*
X5294857Y-7864439D01*
X5216806Y-7866039D01*
X5156428Y-7868277D01*
X5119298Y-7871159D01*
X5111367Y-7872773D01*
X5101437Y-7880772D01*
X5094387Y-7899067D01*
X5089752Y-7932379D01*
X5087070Y-7985425D01*
X5085876Y-8062924D01*
X5085678Y-8134227D01*
X5085678Y-8385823D01*
X4805531Y-8378990D01*
X4691002Y-8375627D01*
X4605079Y-8371461D01*
X4543890Y-8365856D01*
X4503563Y-8358175D01*
X4480222Y-8347783D01*
X4469996Y-8334042D01*
X4468543Y-8323628D01*
X4479495Y-8301534D01*
X4513941Y-8285531D01*
X4574267Y-8275131D01*
X4662860Y-8269848D01*
X4736238Y-8268926D01*
X4812503Y-8268090D01*
X4878282Y-8265824D01*
X4925871Y-8262490D01*
X4946306Y-8259068D01*
X4966145Y-8235863D01*
X4971995Y-8202227D01*
X4971995Y-8155243D01*
X4482053Y-8155243D01*
X4313812Y-8155813D01*
X4174486Y-8157744D01*
X4060527Y-8161367D01*
X3968386Y-8167013D01*
X3894515Y-8175013D01*
X3835365Y-8185698D01*
X3787387Y-8199400D01*
X3747033Y-8216449D01*
X3730278Y-8225379D01*
X3674580Y-8262518D01*
X3647260Y-8297150D01*
X3645190Y-8334671D01*
X2535934Y-8334671D01*
X2535934Y-8132236D01*
X2535159Y-8028821D01*
X2532659Y-7954529D01*
X2528175Y-7906034D01*
X2521444Y-7880009D01*
X2515633Y-7873522D01*
X2494214Y-7871280D01*
X2445124Y-7869516D01*
X2373172Y-7868292D01*
X2283167Y-7867675D01*
X2179916Y-7867728D01*
X2113683Y-7868108D01*
X1732034Y-7871036D01*
X1723914Y-8122762D01*
X1722093Y-8179219D01*
X1715793Y-8374488D01*
X1403165Y-8378899D01*
X1090538Y-8383310D01*
X568664Y-8383310D01*
X568716Y-8382435D01*
X570272Y-8310900D01*
X570822Y-8212459D01*
X570844Y-8179219D01*
X570241Y-8066253D01*
X568286Y-7982522D01*
X564767Y-7924803D01*
X559469Y-7889871D01*
X552178Y-7874499D01*
X550544Y-7873522D01*
X529124Y-7871280D01*
X480034Y-7869516D01*
X408083Y-7868292D01*
X318077Y-7867675D01*
X214827Y-7867728D01*
X148594Y-7868108D01*
X-233056Y-7871036D01*
X-237528Y-8126822D01*
X-242001Y-8382609D01*
X-489255Y-8382518D01*
X-621995Y-8380499D01*
X-723858Y-8374411D01*
X-796215Y-8364041D01*
X-840439Y-8349178D01*
X-857904Y-8329609D01*
X-858312Y-8325575D01*
X-850381Y-8303338D01*
X-824265Y-8287286D01*
X-776473Y-8276665D01*
X-703519Y-8270717D01*
X-601913Y-8268690D01*
X-595473Y-8268677D01*
X-499617Y-8267565D01*
X-431988Y-8263813D01*
X-388371Y-8256385D01*
X-364550Y-8244244D01*
X-356311Y-8226353D01*
X-357503Y-8210138D01*
X-367414Y-8196715D01*
X-394540Y-8178298D01*
X-441484Y-8153621D01*
X-510850Y-8121415D01*
X-605239Y-8080413D01*
X-727255Y-8029347D01*
X-736690Y-8025449D01*
X-1110038Y-7871294D01*
X-1512011Y-7866311D01*
X-1624052Y-7865460D01*
X-1726026Y-7865710D01*
X-1813208Y-7866965D01*
X-1880874Y-7869131D01*
X-1924298Y-7872115D01*
X-1938065Y-7874804D01*
X-2784214Y-7874804D01*
X-2782301Y-7799570D01*
X-2748153Y-7652347D01*
X-2685815Y-7515872D01*
X-2597313Y-7393559D01*
X-2484674Y-7288818D01*
X-2349923Y-7205061D01*
X-2337855Y-7199182D01*
X-2214386Y-7140217D01*
X2040601Y-7137165D01*
X2494826Y-7136866D01*
X2917604Y-7136645D01*
X3309968Y-7136507D01*
X3672954Y-7136456D01*
X4007593Y-7136496D01*
X4314922Y-7136632D01*
X4595972Y-7136868D01*
X4851779Y-7137208D01*
X5083375Y-7137656D01*
X5291796Y-7138217D01*
X5478073Y-7138895D01*
X5643243Y-7139694D01*
X5788337Y-7140619D01*
X5914390Y-7141673D01*
X6022437Y-7142861D01*
X6113510Y-7144188D01*
X6188643Y-7145657D01*
X6248871Y-7147273D01*
X6295227Y-7149040D01*
X6328745Y-7150962D01*
X6350459Y-7153044D01*
X6360550Y-7154987D01*
X6503615Y-7216122D01*
X6629221Y-7299984D01*
X6735278Y-7402912D01*
X6819697Y-7521245D01*
X6880388Y-7651323D01*
X6915261Y-7789486D01*
X6922227Y-7932072D01*
X6899197Y-8075422D01*
X6894803Y-8090876D01*
X6885264Y-8116879D01*
X6863927Y-8170882D01*
X6860013Y-8180573D01*
X6831593Y-8250950D01*
G37*
%TO.C,D8*%
D16*
X8152500Y-22665000D02*
X8152500Y-24135000D01*
X8152500Y-24135000D02*
X10437500Y-24135000D01*
X10437500Y-22665000D02*
X8152500Y-22665000D01*
%TO.C,M1*%
D15*
X9710000Y-31350000D02*
X10110000Y-31950000D01*
D10*
X10110000Y-31550000D02*
X9710000Y-31350000D01*
D15*
X10110000Y-31950000D02*
X10110000Y-30030000D01*
X10110000Y-31950000D02*
X10510000Y-31350000D01*
X10510000Y-31350000D02*
X9710000Y-31350000D01*
D10*
X10510000Y-31350000D02*
X10110000Y-31550000D01*
D15*
X10660000Y-29480000D02*
X12580000Y-29480000D01*
X11980000Y-29080000D02*
X12580000Y-29480000D01*
X11980000Y-29880000D02*
X11980000Y-29080000D01*
D14*
X11980000Y-29880000D02*
X12142000Y-29607001D01*
D10*
X12015000Y-29099000D02*
X12215000Y-29499000D01*
D15*
X12580000Y-29480000D02*
X11980000Y-29884602D01*
X10660000Y-29480000D02*
G75*
G02*
X9560000Y-29480000I-550000J0D01*
G01*
X9560000Y-29480000D02*
G75*
G02*
X10660000Y-29480000I550000J0D01*
G01*
D19*
X10198500Y-29480000D02*
G75*
G02*
X10021500Y-29480000I-88500J0D01*
G01*
X10021500Y-29480000D02*
G75*
G02*
X10198500Y-29480000I88500J0D01*
G01*
%TD*%
%LPC*%
D20*
%TO.C,J3*%
X6470000Y-49030000D03*
D21*
X9970000Y-49030000D03*
X13470000Y-49030000D03*
%TD*%
D22*
%TO.C,SW1*%
X6850000Y-18300000D03*
X10150000Y-18300000D03*
X6850000Y-15800000D03*
X10150000Y-15800000D03*
X6850000Y-13300000D03*
X10150000Y-13300000D03*
%TD*%
D23*
%TO.C,U2*%
X4405000Y-21850000D03*
X4405000Y-22650000D03*
D24*
X4405000Y-23800000D03*
X4405000Y-24800000D03*
X4405000Y-25300000D03*
X4405000Y-26300000D03*
D23*
X4405000Y-28250000D03*
X4405000Y-27450000D03*
D24*
X4405000Y-26800000D03*
X4405000Y-25800000D03*
X4405000Y-24300000D03*
X4405000Y-23300000D03*
D25*
X3830000Y-20730000D03*
D26*
X-350000Y-20730000D03*
D25*
X3830000Y-29370000D03*
D26*
X-350000Y-29370000D03*
%TD*%
D27*
%TO.C,D3*%
X11626200Y-43850000D03*
X11626200Y-44849998D03*
X14013800Y-44849998D03*
X14013800Y-43850000D03*
%TD*%
%TO.C,D1*%
X11193800Y-999999D03*
X11193800Y-1D03*
X8806200Y-1D03*
X8806200Y-999999D03*
%TD*%
D28*
%TO.C,D9*%
X25500Y-18542000D03*
X-1549500Y-18542000D03*
%TD*%
D29*
%TO.C,H3*%
X20000000Y0D03*
%TD*%
D30*
%TO.C,LS1*%
X4930000Y-35430000D03*
D31*
X4930000Y-40430000D03*
%TD*%
D29*
%TO.C,H4*%
X0Y0D03*
%TD*%
D27*
%TO.C,D4*%
X5876200Y-43850001D03*
X5876200Y-44849999D03*
X8263800Y-44849999D03*
X8263800Y-43850001D03*
%TD*%
D32*
%TO.C,D2*%
X21250002Y-26250000D03*
X22250000Y-26250000D03*
X22250000Y-23862400D03*
X21250002Y-23862400D03*
%TD*%
D29*
%TO.C,H2*%
X20000000Y-50000000D03*
%TD*%
D33*
%TO.C,BT1*%
X21000000Y-17900000D03*
X13000000Y-17900000D03*
X21000000Y-32900000D03*
X13000000Y-32900000D03*
D34*
X17000000Y-9900000D03*
D35*
X16000000Y-9900000D03*
D34*
X17000000Y-40900000D03*
D35*
X16000000Y-40900000D03*
%TD*%
D28*
%TO.C,D10*%
X25500Y-31496000D03*
X-1549500Y-31496000D03*
%TD*%
D36*
%TO.C,D8*%
X8850000Y-23400000D03*
X10425000Y-23400000D03*
%TD*%
D29*
%TO.C,H1*%
X0Y-50000000D03*
%TD*%
D37*
%TO.C,J1*%
X21800000Y-9500000D03*
D38*
X21800000Y-10770000D03*
X21800000Y-12040000D03*
X21800000Y-13310000D03*
X21800000Y-14580000D03*
X21800000Y-15850000D03*
%TD*%
%LPD*%
M02*
