%TF.GenerationSoftware,KiCad,Pcbnew,10.0.5*%
%TF.CreationDate,2026-09-30T21:06:45+02:00*%
%TF.ProjectId,PTR_micro_pcb,5054525f-6d69-4637-926f-5f7063622e6b,rev?*%
%TF.SameCoordinates,Original*%
%TF.FileFunction,Legend,Bot*%
%TF.FilePolarity,Positive*%
%FSLAX46Y46*%
G04 Gerber Fmt 4.6, Leading zero omitted, Abs format (unit mm)*
G04 Created by KiCad (PCBNEW 10.0.5) date 2026-09-30 21:06:45*
%MOMM*%
%LPD*%
G01*
G04 APERTURE LIST*
G04 Aperture macros list*
%AMRoundRect*
0 Rectangle with rounded corners*
0 $1 Rounding radius*
0 $2 $3 $4 $5 $6 $7 $8 $9 X,Y pos of 4 corners*
0 Add a 4 corners polygon primitive as box body*
4,1,4,$2,$3,$4,$5,$6,$7,$8,$9,$2,$3,0*
0 Add four circle primitives for the rounded corners*
1,1,$1+$1,$2,$3*
1,1,$1+$1,$4,$5*
1,1,$1+$1,$6,$7*
1,1,$1+$1,$8,$9*
0 Add four rect primitives between the rounded corners*
20,1,$1+$1,$2,$3,$4,$5,0*
20,1,$1+$1,$4,$5,$6,$7,0*
20,1,$1+$1,$6,$7,$8,$9,0*
20,1,$1+$1,$8,$9,$2,$3,0*%
%AMRotRect*
0 Rectangle, with rotation*
0 The origin of the aperture is its center*
0 $1 length*
0 $2 width*
0 $3 Rotation angle, in degrees counterclockwise*
0 Add horizontal line*
21,1,$1,$2,0,0,$3*%
G04 Aperture macros list end*
%ADD10C,0.200000*%
%ADD11C,0.250000*%
%ADD12C,0.500000*%
%ADD13C,0.120000*%
%ADD14C,0.343981*%
%ADD15C,0.127000*%
%ADD16RoundRect,0.250001X-0.949999X-0.949999X0.949999X-0.949999X0.949999X0.949999X-0.949999X0.949999X0*%
%ADD17C,2.400000*%
%ADD18RoundRect,0.190500X0.444500X-0.444500X0.444500X0.444500X-0.444500X0.444500X-0.444500X-0.444500X0*%
%ADD19O,2.100000X1.000000*%
%ADD20O,1.800000X1.000000*%
%ADD21C,6.000000*%
%ADD22R,1.600000X1.600000*%
%ADD23C,1.600000*%
%ADD24C,0.001000*%
%ADD25O,5.000000X2.000000*%
%ADD26O,1.300000X1.300000*%
%ADD27RoundRect,0.175000X0.325000X0.175000X-0.325000X0.175000X-0.325000X-0.175000X0.325000X-0.175000X0*%
%ADD28RoundRect,0.135000X0.185000X-0.135000X0.185000X0.135000X-0.185000X0.135000X-0.185000X-0.135000X0*%
%ADD29R,1.000000X1.000000*%
%ADD30O,1.000000X1.000000*%
%ADD31RoundRect,0.140000X0.140000X0.170000X-0.140000X0.170000X-0.140000X-0.170000X0.140000X-0.170000X0*%
%ADD32RoundRect,0.135000X-0.185000X0.135000X-0.185000X-0.135000X0.185000X-0.135000X0.185000X0.135000X0*%
%ADD33RoundRect,0.135000X0.135000X0.185000X-0.135000X0.185000X-0.135000X-0.185000X0.135000X-0.185000X0*%
%ADD34RoundRect,0.225000X-0.225000X-0.250000X0.225000X-0.250000X0.225000X0.250000X-0.225000X0.250000X0*%
%ADD35RoundRect,0.140000X-0.140000X-0.170000X0.140000X-0.170000X0.140000X0.170000X-0.140000X0.170000X0*%
%ADD36RoundRect,0.135000X-0.135000X-0.185000X0.135000X-0.185000X0.135000X0.185000X-0.135000X0.185000X0*%
%ADD37RoundRect,0.200000X-0.250000X-0.200000X0.250000X-0.200000X0.250000X0.200000X-0.250000X0.200000X0*%
%ADD38R,0.300000X0.300000*%
%ADD39RoundRect,0.175000X-0.175000X0.325000X-0.175000X-0.325000X0.175000X-0.325000X0.175000X0.325000X0*%
%ADD40RoundRect,0.250000X0.375000X0.625000X-0.375000X0.625000X-0.375000X-0.625000X0.375000X-0.625000X0*%
%ADD41RoundRect,0.140000X0.170000X-0.140000X0.170000X0.140000X-0.170000X0.140000X-0.170000X-0.140000X0*%
%ADD42RoundRect,0.140000X-0.021213X0.219203X-0.219203X0.021213X0.021213X-0.219203X0.219203X-0.021213X0*%
%ADD43RoundRect,0.150000X0.150000X-0.512500X0.150000X0.512500X-0.150000X0.512500X-0.150000X-0.512500X0*%
%ADD44RoundRect,0.140000X-0.170000X0.140000X-0.170000X-0.140000X0.170000X-0.140000X0.170000X0.140000X0*%
%ADD45RoundRect,0.147500X0.172500X-0.147500X0.172500X0.147500X-0.172500X0.147500X-0.172500X-0.147500X0*%
%ADD46RoundRect,0.200000X-0.600000X0.200000X-0.600000X-0.200000X0.600000X-0.200000X0.600000X0.200000X0*%
%ADD47RoundRect,0.225000X0.250000X-0.225000X0.250000X0.225000X-0.250000X0.225000X-0.250000X-0.225000X0*%
%ADD48RoundRect,0.140000X0.021213X-0.219203X0.219203X-0.021213X-0.021213X0.219203X-0.219203X0.021213X0*%
%ADD49RoundRect,0.062500X0.309359X-0.220971X-0.220971X0.309359X-0.309359X0.220971X0.220971X-0.309359X0*%
%ADD50RoundRect,0.062500X0.309359X0.220971X0.220971X0.309359X-0.309359X-0.220971X-0.220971X-0.309359X0*%
%ADD51RotRect,3.450000X3.450000X135.000000*%
%ADD52RoundRect,0.225000X0.225000X0.250000X-0.225000X0.250000X-0.225000X-0.250000X0.225000X-0.250000X0*%
%ADD53RoundRect,0.147500X-0.017678X0.226274X-0.226274X0.017678X0.017678X-0.226274X0.226274X-0.017678X0*%
%ADD54RoundRect,0.250000X-0.375000X-0.625000X0.375000X-0.625000X0.375000X0.625000X-0.375000X0.625000X0*%
%ADD55R,1.200000X0.900000*%
%ADD56RoundRect,0.150000X0.512500X0.150000X-0.512500X0.150000X-0.512500X-0.150000X0.512500X-0.150000X0*%
%ADD57RoundRect,0.031500X0.430000X0.143500X-0.430000X0.143500X-0.430000X-0.143500X0.430000X-0.143500X0*%
%ADD58RoundRect,0.031500X0.143500X-0.428000X0.143500X0.428000X-0.143500X0.428000X-0.143500X-0.428000X0*%
%ADD59RoundRect,0.031500X-0.430000X-0.143500X0.430000X-0.143500X0.430000X0.143500X-0.430000X0.143500X0*%
%ADD60RoundRect,0.031500X-0.143500X0.428000X-0.143500X-0.428000X0.143500X-0.428000X0.143500X0.428000X0*%
%ADD61RoundRect,0.225000X-0.250000X0.225000X-0.250000X-0.225000X0.250000X-0.225000X0.250000X0.225000X0*%
G04 APERTURE END LIST*
D10*
X14572857Y-18636562D02*
X14939524Y-18636562D01*
X15096667Y-18112752D02*
X14572857Y-18112752D01*
X14572857Y-18112752D02*
X14572857Y-19112752D01*
X14572857Y-19112752D02*
X15096667Y-19112752D01*
X15515714Y-18160372D02*
X15672857Y-18112752D01*
X15672857Y-18112752D02*
X15934762Y-18112752D01*
X15934762Y-18112752D02*
X16039524Y-18160372D01*
X16039524Y-18160372D02*
X16091905Y-18207991D01*
X16091905Y-18207991D02*
X16144286Y-18303229D01*
X16144286Y-18303229D02*
X16144286Y-18398467D01*
X16144286Y-18398467D02*
X16091905Y-18493705D01*
X16091905Y-18493705D02*
X16039524Y-18541324D01*
X16039524Y-18541324D02*
X15934762Y-18588943D01*
X15934762Y-18588943D02*
X15725238Y-18636562D01*
X15725238Y-18636562D02*
X15620476Y-18684181D01*
X15620476Y-18684181D02*
X15568095Y-18731800D01*
X15568095Y-18731800D02*
X15515714Y-18827038D01*
X15515714Y-18827038D02*
X15515714Y-18922276D01*
X15515714Y-18922276D02*
X15568095Y-19017514D01*
X15568095Y-19017514D02*
X15620476Y-19065133D01*
X15620476Y-19065133D02*
X15725238Y-19112752D01*
X15725238Y-19112752D02*
X15987143Y-19112752D01*
X15987143Y-19112752D02*
X16144286Y-19065133D01*
X16615714Y-18112752D02*
X16615714Y-19112752D01*
X16615714Y-19112752D02*
X17034762Y-19112752D01*
X17034762Y-19112752D02*
X17139524Y-19065133D01*
X17139524Y-19065133D02*
X17191905Y-19017514D01*
X17191905Y-19017514D02*
X17244286Y-18922276D01*
X17244286Y-18922276D02*
X17244286Y-18779419D01*
X17244286Y-18779419D02*
X17191905Y-18684181D01*
X17191905Y-18684181D02*
X17139524Y-18636562D01*
X17139524Y-18636562D02*
X17034762Y-18588943D01*
X17034762Y-18588943D02*
X16615714Y-18588943D01*
X17610952Y-19112752D02*
X18291905Y-19112752D01*
X18291905Y-19112752D02*
X17925238Y-18731800D01*
X17925238Y-18731800D02*
X18082381Y-18731800D01*
X18082381Y-18731800D02*
X18187143Y-18684181D01*
X18187143Y-18684181D02*
X18239524Y-18636562D01*
X18239524Y-18636562D02*
X18291905Y-18541324D01*
X18291905Y-18541324D02*
X18291905Y-18303229D01*
X18291905Y-18303229D02*
X18239524Y-18207991D01*
X18239524Y-18207991D02*
X18187143Y-18160372D01*
X18187143Y-18160372D02*
X18082381Y-18112752D01*
X18082381Y-18112752D02*
X17768095Y-18112752D01*
X17768095Y-18112752D02*
X17663333Y-18160372D01*
X17663333Y-18160372D02*
X17610952Y-18207991D01*
X18710952Y-19017514D02*
X18763333Y-19065133D01*
X18763333Y-19065133D02*
X18868095Y-19112752D01*
X18868095Y-19112752D02*
X19130000Y-19112752D01*
X19130000Y-19112752D02*
X19234762Y-19065133D01*
X19234762Y-19065133D02*
X19287143Y-19017514D01*
X19287143Y-19017514D02*
X19339524Y-18922276D01*
X19339524Y-18922276D02*
X19339524Y-18827038D01*
X19339524Y-18827038D02*
X19287143Y-18684181D01*
X19287143Y-18684181D02*
X18658571Y-18112752D01*
X18658571Y-18112752D02*
X19339524Y-18112752D01*
X16746667Y-16598047D02*
X16694286Y-16550428D01*
X16694286Y-16550428D02*
X16537143Y-16502808D01*
X16537143Y-16502808D02*
X16432381Y-16502808D01*
X16432381Y-16502808D02*
X16275238Y-16550428D01*
X16275238Y-16550428D02*
X16170476Y-16645666D01*
X16170476Y-16645666D02*
X16118095Y-16740904D01*
X16118095Y-16740904D02*
X16065714Y-16931380D01*
X16065714Y-16931380D02*
X16065714Y-17074237D01*
X16065714Y-17074237D02*
X16118095Y-17264713D01*
X16118095Y-17264713D02*
X16170476Y-17359951D01*
X16170476Y-17359951D02*
X16275238Y-17455189D01*
X16275238Y-17455189D02*
X16432381Y-17502808D01*
X16432381Y-17502808D02*
X16537143Y-17502808D01*
X16537143Y-17502808D02*
X16694286Y-17455189D01*
X16694286Y-17455189D02*
X16746667Y-17407570D01*
X17113333Y-17502808D02*
X17794286Y-17502808D01*
X17794286Y-17502808D02*
X17427619Y-17121856D01*
X17427619Y-17121856D02*
X17584762Y-17121856D01*
X17584762Y-17121856D02*
X17689524Y-17074237D01*
X17689524Y-17074237D02*
X17741905Y-17026618D01*
X17741905Y-17026618D02*
X17794286Y-16931380D01*
X17794286Y-16931380D02*
X17794286Y-16693285D01*
X17794286Y-16693285D02*
X17741905Y-16598047D01*
X17741905Y-16598047D02*
X17689524Y-16550428D01*
X17689524Y-16550428D02*
X17584762Y-16502808D01*
X17584762Y-16502808D02*
X17270476Y-16502808D01*
X17270476Y-16502808D02*
X17165714Y-16550428D01*
X17165714Y-16550428D02*
X17113333Y-16598047D01*
D11*
X-1228570Y-34034248D02*
X-1171427Y-34096153D01*
X-1171427Y-34096153D02*
X-1057142Y-34158058D01*
X-1057142Y-34158058D02*
X-771427Y-34158058D01*
X-771427Y-34158058D02*
X-657142Y-34096153D01*
X-657142Y-34096153D02*
X-599999Y-34034248D01*
X-599999Y-34034248D02*
X-542856Y-33910439D01*
X-542856Y-33910439D02*
X-542856Y-33786629D01*
X-542856Y-33786629D02*
X-599999Y-33600915D01*
X-599999Y-33600915D02*
X-1285713Y-32858058D01*
X-1285713Y-32858058D02*
X-542856Y-32858058D01*
X200000Y-34158058D02*
X314286Y-34158058D01*
X314286Y-34158058D02*
X428572Y-34096153D01*
X428572Y-34096153D02*
X485715Y-34034248D01*
X485715Y-34034248D02*
X542857Y-33910439D01*
X542857Y-33910439D02*
X600000Y-33662820D01*
X600000Y-33662820D02*
X600000Y-33353296D01*
X600000Y-33353296D02*
X542857Y-33105677D01*
X542857Y-33105677D02*
X485715Y-32981867D01*
X485715Y-32981867D02*
X428572Y-32919963D01*
X428572Y-32919963D02*
X314286Y-32858058D01*
X314286Y-32858058D02*
X200000Y-32858058D01*
X200000Y-32858058D02*
X85715Y-32919963D01*
X85715Y-32919963D02*
X28572Y-32981867D01*
X28572Y-32981867D02*
X-28570Y-33105677D01*
X-28570Y-33105677D02*
X-85713Y-33353296D01*
X-85713Y-33353296D02*
X-85713Y-33662820D01*
X-85713Y-33662820D02*
X-28570Y-33910439D01*
X-28570Y-33910439D02*
X28572Y-34034248D01*
X28572Y-34034248D02*
X85715Y-34096153D01*
X85715Y-34096153D02*
X200000Y-34158058D01*
X1057143Y-34034248D02*
X1114286Y-34096153D01*
X1114286Y-34096153D02*
X1228572Y-34158058D01*
X1228572Y-34158058D02*
X1514286Y-34158058D01*
X1514286Y-34158058D02*
X1628572Y-34096153D01*
X1628572Y-34096153D02*
X1685714Y-34034248D01*
X1685714Y-34034248D02*
X1742857Y-33910439D01*
X1742857Y-33910439D02*
X1742857Y-33786629D01*
X1742857Y-33786629D02*
X1685714Y-33600915D01*
X1685714Y-33600915D02*
X1000000Y-32858058D01*
X1000000Y-32858058D02*
X1742857Y-32858058D01*
X2771429Y-34158058D02*
X2542857Y-34158058D01*
X2542857Y-34158058D02*
X2428571Y-34096153D01*
X2428571Y-34096153D02*
X2371429Y-34034248D01*
X2371429Y-34034248D02*
X2257143Y-33848534D01*
X2257143Y-33848534D02*
X2200000Y-33600915D01*
X2200000Y-33600915D02*
X2200000Y-33105677D01*
X2200000Y-33105677D02*
X2257143Y-32981867D01*
X2257143Y-32981867D02*
X2314286Y-32919963D01*
X2314286Y-32919963D02*
X2428571Y-32858058D01*
X2428571Y-32858058D02*
X2657143Y-32858058D01*
X2657143Y-32858058D02*
X2771429Y-32919963D01*
X2771429Y-32919963D02*
X2828571Y-32981867D01*
X2828571Y-32981867D02*
X2885714Y-33105677D01*
X2885714Y-33105677D02*
X2885714Y-33415201D01*
X2885714Y-33415201D02*
X2828571Y-33539010D01*
X2828571Y-33539010D02*
X2771429Y-33600915D01*
X2771429Y-33600915D02*
X2657143Y-33662820D01*
X2657143Y-33662820D02*
X2428571Y-33662820D01*
X2428571Y-33662820D02*
X2314286Y-33600915D01*
X2314286Y-33600915D02*
X2257143Y-33539010D01*
X2257143Y-33539010D02*
X2200000Y-33415201D01*
X3400000Y-33353296D02*
X4314286Y-33353296D01*
X5114285Y-34158058D02*
X5228571Y-34158058D01*
X5228571Y-34158058D02*
X5342857Y-34096153D01*
X5342857Y-34096153D02*
X5400000Y-34034248D01*
X5400000Y-34034248D02*
X5457142Y-33910439D01*
X5457142Y-33910439D02*
X5514285Y-33662820D01*
X5514285Y-33662820D02*
X5514285Y-33353296D01*
X5514285Y-33353296D02*
X5457142Y-33105677D01*
X5457142Y-33105677D02*
X5400000Y-32981867D01*
X5400000Y-32981867D02*
X5342857Y-32919963D01*
X5342857Y-32919963D02*
X5228571Y-32858058D01*
X5228571Y-32858058D02*
X5114285Y-32858058D01*
X5114285Y-32858058D02*
X5000000Y-32919963D01*
X5000000Y-32919963D02*
X4942857Y-32981867D01*
X4942857Y-32981867D02*
X4885714Y-33105677D01*
X4885714Y-33105677D02*
X4828571Y-33353296D01*
X4828571Y-33353296D02*
X4828571Y-33662820D01*
X4828571Y-33662820D02*
X4885714Y-33910439D01*
X4885714Y-33910439D02*
X4942857Y-34034248D01*
X4942857Y-34034248D02*
X5000000Y-34096153D01*
X5000000Y-34096153D02*
X5114285Y-34158058D01*
X6085714Y-32858058D02*
X6314285Y-32858058D01*
X6314285Y-32858058D02*
X6428571Y-32919963D01*
X6428571Y-32919963D02*
X6485714Y-32981867D01*
X6485714Y-32981867D02*
X6599999Y-33167582D01*
X6599999Y-33167582D02*
X6657142Y-33415201D01*
X6657142Y-33415201D02*
X6657142Y-33910439D01*
X6657142Y-33910439D02*
X6599999Y-34034248D01*
X6599999Y-34034248D02*
X6542857Y-34096153D01*
X6542857Y-34096153D02*
X6428571Y-34158058D01*
X6428571Y-34158058D02*
X6199999Y-34158058D01*
X6199999Y-34158058D02*
X6085714Y-34096153D01*
X6085714Y-34096153D02*
X6028571Y-34034248D01*
X6028571Y-34034248D02*
X5971428Y-33910439D01*
X5971428Y-33910439D02*
X5971428Y-33600915D01*
X5971428Y-33600915D02*
X6028571Y-33477105D01*
X6028571Y-33477105D02*
X6085714Y-33415201D01*
X6085714Y-33415201D02*
X6199999Y-33353296D01*
X6199999Y-33353296D02*
X6428571Y-33353296D01*
X6428571Y-33353296D02*
X6542857Y-33415201D01*
X6542857Y-33415201D02*
X6599999Y-33477105D01*
X6599999Y-33477105D02*
X6657142Y-33600915D01*
X7171428Y-33353296D02*
X8085714Y-33353296D01*
X8599999Y-34034248D02*
X8657142Y-34096153D01*
X8657142Y-34096153D02*
X8771428Y-34158058D01*
X8771428Y-34158058D02*
X9057142Y-34158058D01*
X9057142Y-34158058D02*
X9171428Y-34096153D01*
X9171428Y-34096153D02*
X9228570Y-34034248D01*
X9228570Y-34034248D02*
X9285713Y-33910439D01*
X9285713Y-33910439D02*
X9285713Y-33786629D01*
X9285713Y-33786629D02*
X9228570Y-33600915D01*
X9228570Y-33600915D02*
X8542856Y-32858058D01*
X8542856Y-32858058D02*
X9285713Y-32858058D01*
X10028570Y-34158058D02*
X10142856Y-34158058D01*
X10142856Y-34158058D02*
X10257142Y-34096153D01*
X10257142Y-34096153D02*
X10314285Y-34034248D01*
X10314285Y-34034248D02*
X10371427Y-33910439D01*
X10371427Y-33910439D02*
X10428570Y-33662820D01*
X10428570Y-33662820D02*
X10428570Y-33353296D01*
X10428570Y-33353296D02*
X10371427Y-33105677D01*
X10371427Y-33105677D02*
X10314285Y-32981867D01*
X10314285Y-32981867D02*
X10257142Y-32919963D01*
X10257142Y-32919963D02*
X10142856Y-32858058D01*
X10142856Y-32858058D02*
X10028570Y-32858058D01*
X10028570Y-32858058D02*
X9914285Y-32919963D01*
X9914285Y-32919963D02*
X9857142Y-32981867D01*
X9857142Y-32981867D02*
X9799999Y-33105677D01*
X9799999Y-33105677D02*
X9742856Y-33353296D01*
X9742856Y-33353296D02*
X9742856Y-33662820D01*
X9742856Y-33662820D02*
X9799999Y-33910439D01*
X9799999Y-33910439D02*
X9857142Y-34034248D01*
X9857142Y-34034248D02*
X9914285Y-34096153D01*
X9914285Y-34096153D02*
X10028570Y-34158058D01*
X1400000Y-30765131D02*
X1400000Y-32065131D01*
X1400000Y-31569893D02*
X1514286Y-31631797D01*
X1514286Y-31631797D02*
X1742857Y-31631797D01*
X1742857Y-31631797D02*
X1857143Y-31569893D01*
X1857143Y-31569893D02*
X1914286Y-31507988D01*
X1914286Y-31507988D02*
X1971428Y-31384178D01*
X1971428Y-31384178D02*
X1971428Y-31012750D01*
X1971428Y-31012750D02*
X1914286Y-30888940D01*
X1914286Y-30888940D02*
X1857143Y-30827036D01*
X1857143Y-30827036D02*
X1742857Y-30765131D01*
X1742857Y-30765131D02*
X1514286Y-30765131D01*
X1514286Y-30765131D02*
X1400000Y-30827036D01*
X3000000Y-30765131D02*
X3000000Y-31446083D01*
X3000000Y-31446083D02*
X2942857Y-31569893D01*
X2942857Y-31569893D02*
X2828571Y-31631797D01*
X2828571Y-31631797D02*
X2600000Y-31631797D01*
X2600000Y-31631797D02*
X2485714Y-31569893D01*
X3000000Y-30827036D02*
X2885714Y-30765131D01*
X2885714Y-30765131D02*
X2600000Y-30765131D01*
X2600000Y-30765131D02*
X2485714Y-30827036D01*
X2485714Y-30827036D02*
X2428571Y-30950845D01*
X2428571Y-30950845D02*
X2428571Y-31074655D01*
X2428571Y-31074655D02*
X2485714Y-31198464D01*
X2485714Y-31198464D02*
X2600000Y-31260369D01*
X2600000Y-31260369D02*
X2885714Y-31260369D01*
X2885714Y-31260369D02*
X3000000Y-31322274D01*
X3571428Y-30765131D02*
X3571428Y-31631797D01*
X3571428Y-31384178D02*
X3628571Y-31507988D01*
X3628571Y-31507988D02*
X3685714Y-31569893D01*
X3685714Y-31569893D02*
X3799999Y-31631797D01*
X3799999Y-31631797D02*
X3914285Y-31631797D01*
X4142856Y-31631797D02*
X4599999Y-31631797D01*
X4314285Y-32065131D02*
X4314285Y-30950845D01*
X4314285Y-30950845D02*
X4371428Y-30827036D01*
X4371428Y-30827036D02*
X4485713Y-30765131D01*
X4485713Y-30765131D02*
X4599999Y-30765131D01*
X5457142Y-30827036D02*
X5342856Y-30765131D01*
X5342856Y-30765131D02*
X5114285Y-30765131D01*
X5114285Y-30765131D02*
X4999999Y-30827036D01*
X4999999Y-30827036D02*
X4942856Y-30950845D01*
X4942856Y-30950845D02*
X4942856Y-31446083D01*
X4942856Y-31446083D02*
X4999999Y-31569893D01*
X4999999Y-31569893D02*
X5114285Y-31631797D01*
X5114285Y-31631797D02*
X5342856Y-31631797D01*
X5342856Y-31631797D02*
X5457142Y-31569893D01*
X5457142Y-31569893D02*
X5514285Y-31446083D01*
X5514285Y-31446083D02*
X5514285Y-31322274D01*
X5514285Y-31322274D02*
X4942856Y-31198464D01*
X6028570Y-30765131D02*
X6028570Y-32065131D01*
X6142856Y-31260369D02*
X6485713Y-30765131D01*
X6485713Y-31631797D02*
X6028570Y-31136559D01*
X6999999Y-30765131D02*
X6999999Y-32065131D01*
X6999999Y-32065131D02*
X7399999Y-31136559D01*
X7399999Y-31136559D02*
X7799999Y-32065131D01*
X7799999Y-32065131D02*
X7799999Y-30765131D01*
X-503333Y-7802547D02*
X-303333Y-7740642D01*
X-303333Y-7740642D02*
X-236666Y-7678738D01*
X-236666Y-7678738D02*
X-169999Y-7554928D01*
X-169999Y-7554928D02*
X-169999Y-7369214D01*
X-169999Y-7369214D02*
X-236666Y-7245404D01*
X-236666Y-7245404D02*
X-303333Y-7183500D01*
X-303333Y-7183500D02*
X-436666Y-7121595D01*
X-436666Y-7121595D02*
X-969999Y-7121595D01*
X-969999Y-7121595D02*
X-969999Y-8421595D01*
X-969999Y-8421595D02*
X-503333Y-8421595D01*
X-503333Y-8421595D02*
X-369999Y-8359690D01*
X-369999Y-8359690D02*
X-303333Y-8297785D01*
X-303333Y-8297785D02*
X-236666Y-8173976D01*
X-236666Y-8173976D02*
X-236666Y-8050166D01*
X-236666Y-8050166D02*
X-303333Y-7926357D01*
X-303333Y-7926357D02*
X-369999Y-7864452D01*
X-369999Y-7864452D02*
X-503333Y-7802547D01*
X-503333Y-7802547D02*
X-969999Y-7802547D01*
X363333Y-7493023D02*
X1030000Y-7493023D01*
X230000Y-7121595D02*
X696667Y-8421595D01*
X696667Y-8421595D02*
X1163333Y-7121595D01*
X2430000Y-7121595D02*
X1963333Y-7740642D01*
X1630000Y-7121595D02*
X1630000Y-8421595D01*
X1630000Y-8421595D02*
X2163333Y-8421595D01*
X2163333Y-8421595D02*
X2296667Y-8359690D01*
X2296667Y-8359690D02*
X2363333Y-8297785D01*
X2363333Y-8297785D02*
X2430000Y-8173976D01*
X2430000Y-8173976D02*
X2430000Y-7988261D01*
X2430000Y-7988261D02*
X2363333Y-7864452D01*
X2363333Y-7864452D02*
X2296667Y-7802547D01*
X2296667Y-7802547D02*
X2163333Y-7740642D01*
X2163333Y-7740642D02*
X1630000Y-7740642D01*
X3296667Y-8421595D02*
X3563333Y-8421595D01*
X3563333Y-8421595D02*
X3696667Y-8359690D01*
X3696667Y-8359690D02*
X3830000Y-8235880D01*
X3830000Y-8235880D02*
X3896667Y-7988261D01*
X3896667Y-7988261D02*
X3896667Y-7554928D01*
X3896667Y-7554928D02*
X3830000Y-7307309D01*
X3830000Y-7307309D02*
X3696667Y-7183500D01*
X3696667Y-7183500D02*
X3563333Y-7121595D01*
X3563333Y-7121595D02*
X3296667Y-7121595D01*
X3296667Y-7121595D02*
X3163333Y-7183500D01*
X3163333Y-7183500D02*
X3030000Y-7307309D01*
X3030000Y-7307309D02*
X2963333Y-7554928D01*
X2963333Y-7554928D02*
X2963333Y-7988261D01*
X2963333Y-7988261D02*
X3030000Y-8235880D01*
X3030000Y-8235880D02*
X3163333Y-8359690D01*
X3163333Y-8359690D02*
X3296667Y-8421595D01*
X10216666Y2238404D02*
X10216666Y938404D01*
X10883333Y2238404D02*
X10883333Y938404D01*
X10883333Y938404D02*
X11350000Y1866976D01*
X11350000Y1866976D02*
X11816666Y938404D01*
X11816666Y938404D02*
X11816666Y2238404D01*
X12483333Y938404D02*
X12483333Y1990785D01*
X12483333Y1990785D02*
X12550000Y2114595D01*
X12550000Y2114595D02*
X12616666Y2176500D01*
X12616666Y2176500D02*
X12750000Y2238404D01*
X12750000Y2238404D02*
X13016666Y2238404D01*
X13016666Y2238404D02*
X13150000Y2176500D01*
X13150000Y2176500D02*
X13216666Y2114595D01*
X13216666Y2114595D02*
X13283333Y1990785D01*
X13283333Y1990785D02*
X13283333Y938404D01*
D12*
X20337333Y-8238095D02*
X20337333Y-9761905D01*
X21099238Y-9000000D02*
X19575428Y-9000000D01*
%TO.C,Q5*%
D13*
X17145000Y-5425000D02*
X16495000Y-5425000D01*
X17145000Y-5425000D02*
X18820000Y-5425000D01*
X17145000Y-8545000D02*
X16495000Y-8545000D01*
X17145000Y-8545000D02*
X17795000Y-8545000D01*
%TO.C,R66*%
X20370000Y-7088641D02*
X20370000Y-6781359D01*
X21130000Y-7088641D02*
X21130000Y-6781359D01*
%TO.C,J1*%
X20690000Y-10260000D02*
X20690000Y-16545000D01*
X21236529Y-10260000D02*
X20690000Y-10260000D01*
X21492470Y-16545000D02*
X20690000Y-16545000D01*
X22910000Y-8740000D02*
X21800000Y-8740000D01*
X22910000Y-9500000D02*
X22910000Y-8740000D01*
X22910000Y-10260000D02*
X22363471Y-10260000D01*
X22910000Y-10260000D02*
X22910000Y-16545000D01*
X22910000Y-16545000D02*
X22107530Y-16545000D01*
%TO.C,C70*%
X1407836Y-11150000D02*
X1192164Y-11150000D01*
X1407836Y-11870000D02*
X1192164Y-11870000D01*
%TO.C,R44*%
X4435000Y-37721359D02*
X4435000Y-38028641D01*
X5195000Y-37721359D02*
X5195000Y-38028641D01*
%TO.C,R43*%
X9293641Y-35300000D02*
X8986359Y-35300000D01*
X9293641Y-36060000D02*
X8986359Y-36060000D01*
%TO.C,C5*%
X19539420Y-30270000D02*
X19820580Y-30270000D01*
X19539420Y-31290000D02*
X19820580Y-31290000D01*
%TO.C,R84*%
X1083641Y-21580000D02*
X776359Y-21580000D01*
X1083641Y-22340000D02*
X776359Y-22340000D01*
%TO.C,R54*%
X3853641Y-41870000D02*
X3546359Y-41870000D01*
X3853641Y-42630000D02*
X3546359Y-42630000D01*
%TO.C,C7*%
X19142164Y-28490000D02*
X19357836Y-28490000D01*
X19142164Y-29210000D02*
X19357836Y-29210000D01*
%TO.C,R7*%
X16536359Y-14620000D02*
X16843641Y-14620000D01*
X16536359Y-15380000D02*
X16843641Y-15380000D01*
%TO.C,R14*%
X16556359Y-12620000D02*
X16863641Y-12620000D01*
X16556359Y-13380000D02*
X16863641Y-13380000D01*
%TO.C,C71*%
X-607836Y-11140000D02*
X-392164Y-11140000D01*
X-607836Y-11860000D02*
X-392164Y-11860000D01*
%TO.C,R65*%
X10370000Y-41683641D02*
X10370000Y-41376359D01*
X11130000Y-41683641D02*
X11130000Y-41376359D01*
%TO.C,C24*%
X7227836Y-42640000D02*
X7012164Y-42640000D01*
X7227836Y-43360000D02*
X7012164Y-43360000D01*
%TO.C,R59*%
X8896359Y-21390000D02*
X9203641Y-21390000D01*
X8896359Y-22150000D02*
X9203641Y-22150000D01*
%TO.C,Y2*%
X18840000Y-19340000D02*
X21660000Y-19340000D01*
X18840000Y-21760000D02*
X18840000Y-19340000D01*
%TO.C,U3*%
X3450000Y-4200000D02*
X3450000Y-4050000D01*
X3450000Y-6200000D02*
X3450000Y-6350000D01*
X3450000Y-6350000D02*
X3850000Y-6350000D01*
X5750000Y-4050000D02*
X5350000Y-4050000D01*
X5750000Y-4200000D02*
X5750000Y-4050000D01*
X5750000Y-6200000D02*
X5750000Y-6350000D01*
X5750000Y-6350000D02*
X5350000Y-6350000D01*
%TO.C,Q4*%
X1015000Y-44500000D02*
X1015000Y-42825000D01*
X1015000Y-44500000D02*
X1015000Y-45150000D01*
X4135000Y-44500000D02*
X4135000Y-43850000D01*
X4135000Y-44500000D02*
X4135000Y-45150000D01*
%TO.C,R13*%
X19596359Y-12620000D02*
X19903641Y-12620000D01*
X19596359Y-13380000D02*
X19903641Y-13380000D01*
%TO.C,F2*%
X7092064Y-45540000D02*
X5887936Y-45540000D01*
X7092064Y-47360000D02*
X5887936Y-47360000D01*
%TO.C,C9*%
X18112000Y-20657836D02*
X18112000Y-20442164D01*
X18832000Y-20657836D02*
X18832000Y-20442164D01*
%TO.C,C14*%
X12621693Y-28519190D02*
X12469190Y-28671693D01*
X13130810Y-29028307D02*
X12978307Y-29180810D01*
%TO.C,C56*%
X1792164Y-41890000D02*
X2007836Y-41890000D01*
X1792164Y-42610000D02*
X2007836Y-42610000D01*
%TO.C,U5*%
X-997500Y-13140000D02*
X-997500Y-14960000D01*
X-997500Y-14960000D02*
X-947500Y-14960000D01*
X-947500Y-13140000D02*
X-997500Y-13140000D01*
X952500Y-13140000D02*
X172500Y-13140000D01*
X2072500Y-14960000D02*
X2122500Y-14960000D01*
X2122500Y-13140000D02*
X2072500Y-13140000D01*
X2122500Y-14960000D02*
X2122500Y-13140000D01*
X2072500Y-15500000D02*
X2402500Y-15740000D01*
X2402500Y-15260000D01*
X2072500Y-15500000D01*
G36*
X2402500Y-15740000D02*
G01*
X2072500Y-15500000D01*
X2402500Y-15260000D01*
X2402500Y-15740000D01*
G37*
%TO.C,C17*%
X1618000Y-5178164D02*
X1618000Y-5393836D01*
X2338000Y-5178164D02*
X2338000Y-5393836D01*
%TO.C,R10*%
X19596359Y-13620000D02*
X19903641Y-13620000D01*
X19596359Y-14380000D02*
X19903641Y-14380000D01*
%TO.C,R60*%
X8896359Y-20470000D02*
X9203641Y-20470000D01*
X8896359Y-21230000D02*
X9203641Y-21230000D01*
%TO.C,C11*%
X16042164Y-30140000D02*
X16257836Y-30140000D01*
X16042164Y-30860000D02*
X16257836Y-30860000D01*
%TO.C,R82*%
X1083641Y-26850000D02*
X776359Y-26850000D01*
X1083641Y-27610000D02*
X776359Y-27610000D01*
%TO.C,R36*%
X-1930000Y-16173641D02*
X-1930000Y-15866359D01*
X-1170000Y-16173641D02*
X-1170000Y-15866359D01*
%TO.C,R34*%
X9281000Y-25555641D02*
X9281000Y-25248359D01*
X10041000Y-25555641D02*
X10041000Y-25248359D01*
%TO.C,R62*%
X10370000Y-43302159D02*
X10370000Y-43609441D01*
X11130000Y-43302159D02*
X11130000Y-43609441D01*
%TO.C,Q2*%
X-2460000Y-44500000D02*
X-2460000Y-42825000D01*
X-2460000Y-44500000D02*
X-2460000Y-45150000D01*
X660000Y-44500000D02*
X660000Y-43850000D01*
X660000Y-44500000D02*
X660000Y-45150000D01*
%TO.C,AE1*%
X20631000Y-36708000D02*
X20631000Y-40518000D01*
D10*
X20758000Y-36327000D02*
X22282000Y-36327000D01*
D13*
X22409000Y-36708000D02*
X22409000Y-40518000D01*
%TO.C,C25*%
X3422836Y-3275000D02*
X3207164Y-3275000D01*
X3422836Y-3995000D02*
X3207164Y-3995000D01*
%TO.C,R81*%
X1083641Y-22470000D02*
X776359Y-22470000D01*
X1083641Y-23230000D02*
X776359Y-23230000D01*
%TO.C,C21*%
X5430000Y-1640580D02*
X5430000Y-1359420D01*
X6450000Y-1640580D02*
X6450000Y-1359420D01*
%TO.C,C15*%
X10840000Y-24842164D02*
X10840000Y-25057836D01*
X11560000Y-24842164D02*
X11560000Y-25057836D01*
%TO.C,C3*%
X12269190Y-22621693D02*
X12421693Y-22469190D01*
X12778307Y-23130810D02*
X12930810Y-22978307D01*
%TO.C,R53*%
X253641Y-41870000D02*
X-53641Y-41870000D01*
X253641Y-42630000D02*
X-53641Y-42630000D01*
%TO.C,U1*%
X11908903Y-25000000D02*
X12244778Y-25335876D01*
X12244778Y-24664124D02*
X11908903Y-25000000D01*
X15264124Y-28355222D02*
X15600000Y-28691097D01*
X15600000Y-21308903D02*
X15264124Y-21644778D01*
X15600000Y-28691097D02*
X15935876Y-28355222D01*
X15935876Y-21644778D02*
X15600000Y-21308903D01*
X18955222Y-25335876D02*
X19291097Y-25000000D01*
X19291097Y-25000000D02*
X18955222Y-24664124D01*
X19057752Y-25982878D02*
X19121392Y-26385929D01*
X19460803Y-26046518D01*
X19057752Y-25982878D01*
G36*
X19460803Y-26046518D02*
G01*
X19121392Y-26385929D01*
X19057752Y-25982878D01*
X19460803Y-26046518D01*
G37*
%TO.C,R12*%
X19596359Y-11620000D02*
X19903641Y-11620000D01*
X19596359Y-12380000D02*
X19903641Y-12380000D01*
%TO.C,C20*%
X15862164Y-43470000D02*
X16077836Y-43470000D01*
X15862164Y-44190000D02*
X16077836Y-44190000D01*
%TO.C,C69*%
X1147836Y-16160000D02*
X932164Y-16160000D01*
X1147836Y-16880000D02*
X932164Y-16880000D01*
%TO.C,R69*%
X20370000Y-5183641D02*
X20370000Y-4876359D01*
X21130000Y-5183641D02*
X21130000Y-4876359D01*
%TO.C,R5*%
X15446359Y-20220000D02*
X15753641Y-20220000D01*
X15446359Y-20980000D02*
X15753641Y-20980000D01*
%TO.C,Q6*%
X-2560000Y-40000000D02*
X-2560000Y-38325000D01*
X-2560000Y-40000000D02*
X-2560000Y-40650000D01*
X560000Y-40000000D02*
X560000Y-39350000D01*
X560000Y-40000000D02*
X560000Y-40650000D01*
%TO.C,C44*%
X1010580Y-17110000D02*
X729420Y-17110000D01*
X1010580Y-18130000D02*
X729420Y-18130000D01*
%TO.C,R61*%
X8990000Y-43306359D02*
X8990000Y-43613641D01*
X9750000Y-43306359D02*
X9750000Y-43613641D01*
%TO.C,C13*%
X20392164Y-24890000D02*
X20607836Y-24890000D01*
X20392164Y-25610000D02*
X20607836Y-25610000D01*
%TO.C,R31*%
X15353641Y-7720000D02*
X15046359Y-7720000D01*
X15353641Y-8480000D02*
X15046359Y-8480000D01*
%TO.C,C39*%
X12340000Y-9505836D02*
X12340000Y-9290164D01*
X13060000Y-9505836D02*
X13060000Y-9290164D01*
%TO.C,R33*%
X13361641Y-7748000D02*
X13054359Y-7748000D01*
X13361641Y-8508000D02*
X13054359Y-8508000D01*
%TO.C,R11*%
X19596359Y-14640731D02*
X19903641Y-14640731D01*
X19596359Y-15400731D02*
X19903641Y-15400731D01*
%TO.C,C19*%
X21540000Y-23792164D02*
X21540000Y-24007836D01*
X22260000Y-23792164D02*
X22260000Y-24007836D01*
%TO.C,C1*%
X21157836Y-34780000D02*
X20942164Y-34780000D01*
X21157836Y-35500000D02*
X20942164Y-35500000D01*
%TO.C,C6*%
X19142164Y-29390000D02*
X19357836Y-29390000D01*
X19142164Y-30110000D02*
X19357836Y-30110000D01*
%TO.C,R17*%
X8846359Y1780000D02*
X9153641Y1780000D01*
X8846359Y1020000D02*
X9153641Y1020000D01*
%TO.C,C18*%
X6840000Y142164D02*
X6840000Y357836D01*
X7560000Y142164D02*
X7560000Y357836D01*
%TO.C,R6*%
X15446359Y-19420000D02*
X15753641Y-19420000D01*
X15446359Y-20180000D02*
X15753641Y-20180000D01*
%TO.C,R83*%
X1093641Y-27740000D02*
X786359Y-27740000D01*
X1093641Y-28500000D02*
X786359Y-28500000D01*
%TO.C,C4*%
X11619190Y-21971693D02*
X11771693Y-21819190D01*
X12128307Y-22480810D02*
X12280810Y-22328307D01*
%TO.C,R58*%
X2356359Y-37420000D02*
X2663641Y-37420000D01*
X2356359Y-38180000D02*
X2663641Y-38180000D01*
%TO.C,R8*%
X16536359Y-13620000D02*
X16843641Y-13620000D01*
X16536359Y-14380000D02*
X16843641Y-14380000D01*
%TO.C,R63*%
X8990000Y-41683241D02*
X8990000Y-41375959D01*
X9750000Y-41683241D02*
X9750000Y-41375959D01*
%TO.C,R15*%
X16303641Y-29170000D02*
X15996359Y-29170000D01*
X16303641Y-29930000D02*
X15996359Y-29930000D01*
%TO.C,U6*%
X6069000Y-24490000D02*
X6069000Y-26310000D01*
X6069000Y-26310000D02*
X6119000Y-26310000D01*
X6119000Y-24490000D02*
X6069000Y-24490000D01*
X8019000Y-24490000D02*
X7239000Y-24490000D01*
X9139000Y-26310000D02*
X9189000Y-26310000D01*
X9189000Y-24490000D02*
X9139000Y-24490000D01*
X9189000Y-26310000D02*
X9189000Y-24490000D01*
X9139000Y-26850000D02*
X9469000Y-27090000D01*
X9469000Y-26610000D01*
X9139000Y-26850000D01*
G36*
X9469000Y-27090000D02*
G01*
X9139000Y-26850000D01*
X9469000Y-26610000D01*
X9469000Y-27090000D01*
G37*
%TO.C,F3*%
X12977936Y-45540000D02*
X14182064Y-45540000D01*
X12977936Y-47360000D02*
X14182064Y-47360000D01*
%TO.C,D14*%
X5660000Y-36543000D02*
X5660000Y-39337000D01*
X7660000Y-36543000D02*
X7660000Y-39337000D01*
D14*
X7831990Y-35940000D02*
G75*
G02*
X7488010Y-35940000I-171990J0D01*
G01*
X7488010Y-35940000D02*
G75*
G02*
X7831990Y-35940000I171990J0D01*
G01*
%TO.C,C72*%
D13*
X7488420Y-27430000D02*
X7769580Y-27430000D01*
X7488420Y-28450000D02*
X7769580Y-28450000D01*
%TO.C,R35*%
X-1930000Y-18063641D02*
X-1930000Y-17756359D01*
X-1170000Y-18063641D02*
X-1170000Y-17756359D01*
%TO.C,R57*%
X-1153641Y-37370000D02*
X-846359Y-37370000D01*
X-1153641Y-38130000D02*
X-846359Y-38130000D01*
%TO.C,C23*%
X10405836Y-2675500D02*
X10190164Y-2675500D01*
X10405836Y-3395500D02*
X10190164Y-3395500D01*
%TO.C,Q7*%
X890000Y-40000000D02*
X890000Y-38325000D01*
X890000Y-40000000D02*
X890000Y-40650000D01*
X4010000Y-40000000D02*
X4010000Y-39350000D01*
X4010000Y-40000000D02*
X4010000Y-40650000D01*
%TO.C,C8*%
X19390000Y-27392164D02*
X19390000Y-27607836D01*
X20110000Y-27392164D02*
X20110000Y-27607836D01*
%TO.C,C57*%
X19070000Y-6990580D02*
X19070000Y-6709420D01*
X20090000Y-6990580D02*
X20090000Y-6709420D01*
%TO.C,U11*%
X2690000Y-23570000D02*
X1890000Y-23570000D01*
X2690000Y-23570000D02*
X3579000Y-23570000D01*
X2690000Y-26690000D02*
X1890000Y-26690000D01*
X2690000Y-26690000D02*
X3490000Y-26690000D01*
D14*
X5145971Y-24130000D02*
G75*
G02*
X4801991Y-24130000I-171990J0D01*
G01*
X4801991Y-24130000D02*
G75*
G02*
X5145971Y-24130000I171990J0D01*
G01*
%TO.C,C68*%
D13*
X1260580Y-9930000D02*
X979420Y-9930000D01*
X1260580Y-10950000D02*
X979420Y-10950000D01*
%TO.C,Q1*%
X7667942Y-37293118D02*
X10588764Y-37293118D01*
X10588764Y-38464058D01*
X7667942Y-38464058D01*
X7667942Y-37293118D01*
%TO.C,C22*%
X7260000Y-2562164D02*
X7260000Y-2777836D01*
X7980000Y-2562164D02*
X7980000Y-2777836D01*
%TO.C,R9*%
X16536359Y-11620000D02*
X16843641Y-11620000D01*
X16536359Y-12380000D02*
X16843641Y-12380000D01*
%TO.C,U4*%
D15*
X8500000Y439500D02*
X9005000Y439500D01*
X8500000Y-2060500D02*
X9005000Y-2060500D01*
X11500000Y439500D02*
X10995000Y439500D01*
X11500000Y-2060500D02*
X10995000Y-2060500D01*
D10*
X12200000Y-10500D02*
G75*
G02*
X12000000Y-10500I-100000J0D01*
G01*
X12000000Y-10500D02*
G75*
G02*
X12200000Y-10500I100000J0D01*
G01*
%TO.C,C10*%
D13*
X21668000Y-20657836D02*
X21668000Y-20442164D01*
X22388000Y-20657836D02*
X22388000Y-20442164D01*
%TO.C,C16*%
X2380000Y-5178164D02*
X2380000Y-5393836D01*
X3100000Y-5178164D02*
X3100000Y-5393836D01*
%TO.C,C26*%
X-40000Y-5469420D02*
X-40000Y-5750580D01*
X980000Y-5469420D02*
X980000Y-5750580D01*
%TO.C,R16*%
X4470000Y-7653641D02*
X4470000Y-7346359D01*
X5230000Y-7653641D02*
X5230000Y-7346359D01*
%TO.C,C2*%
X20972164Y-26230000D02*
X21187836Y-26230000D01*
X20972164Y-26950000D02*
X21187836Y-26950000D01*
%TO.C,C55*%
X-1807836Y-41890000D02*
X-1592164Y-41890000D01*
X-1807836Y-42610000D02*
X-1592164Y-42610000D01*
%TO.C,C12*%
X20392164Y-24140000D02*
X20607836Y-24140000D01*
X20392164Y-24860000D02*
X20607836Y-24860000D01*
%TO.C,R32*%
X13336000Y-9244359D02*
X13336000Y-9551641D01*
X14096000Y-9244359D02*
X14096000Y-9551641D01*
%TO.C,C73*%
X7475420Y-22350000D02*
X7756580Y-22350000D01*
X7475420Y-23370000D02*
X7756580Y-23370000D01*
%TD*%
%LPC*%
D16*
%TO.C,J3*%
X6470000Y-49030000D03*
D17*
X9970000Y-49030000D03*
X13470000Y-49030000D03*
%TD*%
D18*
%TO.C,SW1*%
X6850000Y-18300000D03*
X10150000Y-18300000D03*
X6850000Y-15800000D03*
X10150000Y-15800000D03*
X6850000Y-13300000D03*
X10150000Y-13300000D03*
%TD*%
D19*
%TO.C,U2*%
X3830000Y-20730000D03*
D20*
X-350000Y-20730000D03*
D19*
X3830000Y-29370000D03*
D20*
X-350000Y-29370000D03*
%TD*%
D21*
%TO.C,H3*%
X20000000Y0D03*
%TD*%
D22*
%TO.C,LS1*%
X4930000Y-35430000D03*
D23*
X4930000Y-40430000D03*
%TD*%
D21*
%TO.C,H4*%
X0Y0D03*
%TD*%
%TO.C,H2*%
X20000000Y-50000000D03*
%TD*%
D24*
%TO.C,BT1*%
X21000000Y-17900000D03*
X13000000Y-17900000D03*
X21000000Y-32900000D03*
X13000000Y-32900000D03*
D25*
X17000000Y-9900000D03*
D26*
X16000000Y-9900000D03*
D25*
X17000000Y-40900000D03*
D26*
X16000000Y-40900000D03*
%TD*%
D21*
%TO.C,H1*%
X0Y-50000000D03*
%TD*%
D27*
%TO.C,Q5*%
X18345000Y-6035000D03*
X18345000Y-7935000D03*
X15945000Y-6985000D03*
%TD*%
D28*
%TO.C,R66*%
X20750000Y-7445000D03*
X20750000Y-6425000D03*
%TD*%
D29*
%TO.C,J1*%
X21800000Y-9500000D03*
D30*
X21800000Y-10770000D03*
X21800000Y-12040000D03*
X21800000Y-13310000D03*
X21800000Y-14580000D03*
X21800000Y-15850000D03*
%TD*%
D31*
%TO.C,C70*%
X1780000Y-11510000D03*
X820000Y-11510000D03*
%TD*%
D32*
%TO.C,R44*%
X4815000Y-37365000D03*
X4815000Y-38385000D03*
%TD*%
D33*
%TO.C,R43*%
X9650000Y-35680000D03*
X8630000Y-35680000D03*
%TD*%
D34*
%TO.C,C5*%
X18905000Y-30780000D03*
X20455000Y-30780000D03*
%TD*%
D33*
%TO.C,R84*%
X1440000Y-21960000D03*
X420000Y-21960000D03*
%TD*%
%TO.C,R54*%
X4210000Y-42250000D03*
X3190000Y-42250000D03*
%TD*%
D35*
%TO.C,C7*%
X18770000Y-28850000D03*
X19730000Y-28850000D03*
%TD*%
D36*
%TO.C,R7*%
X16180000Y-15000000D03*
X17200000Y-15000000D03*
%TD*%
%TO.C,R14*%
X16200000Y-13000000D03*
X17220000Y-13000000D03*
%TD*%
D35*
%TO.C,C71*%
X-980000Y-11500000D03*
X-20000Y-11500000D03*
%TD*%
D28*
%TO.C,R65*%
X10750000Y-42040000D03*
X10750000Y-41020000D03*
%TD*%
D31*
%TO.C,C24*%
X7600000Y-43000000D03*
X6640000Y-43000000D03*
%TD*%
D36*
%TO.C,R59*%
X8540000Y-21770000D03*
X9560000Y-21770000D03*
%TD*%
D37*
%TO.C,Y2*%
X19550000Y-20000000D03*
X20950000Y-20000000D03*
X20950000Y-21100000D03*
X19550000Y-21100000D03*
%TD*%
D38*
%TO.C,U3*%
X4350000Y-4450000D03*
X4850000Y-4450000D03*
X5375000Y-4700000D03*
X5375000Y-5200000D03*
X5375000Y-5700000D03*
X4850000Y-5950000D03*
X4350000Y-5950000D03*
X3825000Y-5700000D03*
X3825000Y-5200000D03*
X3825000Y-4700000D03*
%TD*%
D39*
%TO.C,Q4*%
X1625000Y-43300000D03*
X3525000Y-43300000D03*
X2575000Y-45700000D03*
%TD*%
D36*
%TO.C,R13*%
X19240000Y-13000000D03*
X20260000Y-13000000D03*
%TD*%
D40*
%TO.C,F2*%
X7890000Y-46450000D03*
X5090000Y-46450000D03*
%TD*%
D41*
%TO.C,C9*%
X18472000Y-21030000D03*
X18472000Y-20070000D03*
%TD*%
D42*
%TO.C,C14*%
X13139411Y-28510589D03*
X12460589Y-29189411D03*
%TD*%
D35*
%TO.C,C56*%
X1420000Y-42250000D03*
X2380000Y-42250000D03*
%TD*%
D43*
%TO.C,U5*%
X1512500Y-15187500D03*
X562500Y-15187500D03*
X-387500Y-15187500D03*
X-387500Y-12912500D03*
X1512500Y-12912500D03*
%TD*%
D44*
%TO.C,C17*%
X1978000Y-4806000D03*
X1978000Y-5766000D03*
%TD*%
D36*
%TO.C,R10*%
X19240000Y-14000000D03*
X20260000Y-14000000D03*
%TD*%
%TO.C,R60*%
X8540000Y-20850000D03*
X9560000Y-20850000D03*
%TD*%
D35*
%TO.C,C11*%
X15670000Y-30500000D03*
X16630000Y-30500000D03*
%TD*%
D33*
%TO.C,R82*%
X1439999Y-27230000D03*
X420001Y-27230000D03*
%TD*%
D28*
%TO.C,R36*%
X-1550000Y-16530000D03*
X-1550000Y-15510000D03*
%TD*%
D45*
%TO.C,L1*%
X21390000Y-29220000D03*
X21390000Y-28250000D03*
%TD*%
D28*
%TO.C,R34*%
X9661000Y-25912000D03*
X9661000Y-24892000D03*
%TD*%
D32*
%TO.C,R62*%
X10750000Y-42945800D03*
X10750000Y-43965800D03*
%TD*%
D39*
%TO.C,Q2*%
X-1850000Y-43300000D03*
X50000Y-43300000D03*
X-900000Y-45700000D03*
%TD*%
D46*
%TO.C,AE1*%
X21520000Y-37013000D03*
X21520000Y-40213000D03*
%TD*%
D31*
%TO.C,C25*%
X3795000Y-3635000D03*
X2835000Y-3635000D03*
%TD*%
D33*
%TO.C,R81*%
X1440000Y-22850000D03*
X420000Y-22850000D03*
%TD*%
D47*
%TO.C,C21*%
X5940000Y-2275000D03*
X5940000Y-725000D03*
%TD*%
D44*
%TO.C,C15*%
X11200000Y-24470000D03*
X11200000Y-25430000D03*
%TD*%
D48*
%TO.C,C3*%
X12260589Y-23139411D03*
X12939411Y-22460589D03*
%TD*%
D33*
%TO.C,R53*%
X610000Y-42250000D03*
X-410000Y-42250000D03*
%TD*%
D49*
%TO.C,U1*%
X18561010Y-25486136D03*
X18207456Y-25839689D03*
X17853903Y-26193243D03*
X17500349Y-26546796D03*
X17146796Y-26900349D03*
X16793243Y-27253903D03*
X16439689Y-27607456D03*
X16086136Y-27961010D03*
D50*
X15113864Y-27961010D03*
X14760311Y-27607456D03*
X14406757Y-27253903D03*
X14053204Y-26900349D03*
X13699651Y-26546796D03*
X13346097Y-26193243D03*
X12992544Y-25839689D03*
X12638990Y-25486136D03*
D49*
X12638990Y-24513864D03*
X12992544Y-24160311D03*
X13346097Y-23806757D03*
X13699651Y-23453204D03*
X14053204Y-23099651D03*
X14406757Y-22746097D03*
X14760311Y-22392544D03*
X15113864Y-22038990D03*
D50*
X16086136Y-22038990D03*
X16439689Y-22392544D03*
X16793243Y-22746097D03*
X17146796Y-23099651D03*
X17500349Y-23453204D03*
X17853903Y-23806757D03*
X18207456Y-24160311D03*
X18561010Y-24513864D03*
D51*
X15600000Y-25000000D03*
%TD*%
D36*
%TO.C,R12*%
X19240000Y-12000000D03*
X20260000Y-12000000D03*
%TD*%
D35*
%TO.C,C20*%
X15490000Y-43830000D03*
X16450000Y-43830000D03*
%TD*%
D31*
%TO.C,C69*%
X1520000Y-16520000D03*
X560000Y-16520000D03*
%TD*%
D28*
%TO.C,R69*%
X20750000Y-5540000D03*
X20750000Y-4520000D03*
%TD*%
D36*
%TO.C,R5*%
X15090001Y-20600000D03*
X16109999Y-20600000D03*
%TD*%
D39*
%TO.C,Q6*%
X-1950000Y-38800000D03*
X-50000Y-38800000D03*
X-1000000Y-41200000D03*
%TD*%
D52*
%TO.C,C44*%
X1645000Y-17620000D03*
X95000Y-17620000D03*
%TD*%
D32*
%TO.C,R61*%
X9370000Y-42950000D03*
X9370000Y-43970000D03*
%TD*%
D35*
%TO.C,C13*%
X20020000Y-25250000D03*
X20980000Y-25250000D03*
%TD*%
D33*
%TO.C,R31*%
X15710000Y-8100000D03*
X14690000Y-8100000D03*
%TD*%
D53*
%TO.C,L3*%
X20592947Y-22157053D03*
X19907053Y-22842947D03*
%TD*%
D41*
%TO.C,C39*%
X12700000Y-9878000D03*
X12700000Y-8918000D03*
%TD*%
D33*
%TO.C,R33*%
X13717999Y-8128000D03*
X12698001Y-8128000D03*
%TD*%
D36*
%TO.C,R11*%
X19240000Y-15020731D03*
X20260000Y-15020731D03*
%TD*%
D45*
%TO.C,L2*%
X18750000Y-27985000D03*
X18750000Y-27015000D03*
%TD*%
D44*
%TO.C,C19*%
X21900000Y-23420000D03*
X21900000Y-24380000D03*
%TD*%
D31*
%TO.C,C1*%
X21530000Y-35140000D03*
X20570000Y-35140000D03*
%TD*%
D35*
%TO.C,C6*%
X18770000Y-29750000D03*
X19730000Y-29750000D03*
%TD*%
D36*
%TO.C,R17*%
X8490000Y1400000D03*
X9510000Y1400000D03*
%TD*%
D41*
%TO.C,C18*%
X7200000Y-230000D03*
X7200000Y730000D03*
%TD*%
D36*
%TO.C,R6*%
X15090001Y-19800000D03*
X16109999Y-19800000D03*
%TD*%
D33*
%TO.C,R83*%
X1450000Y-28120000D03*
X430000Y-28120000D03*
%TD*%
D48*
%TO.C,C4*%
X11610589Y-22489411D03*
X12289411Y-21810589D03*
%TD*%
D36*
%TO.C,R58*%
X2000000Y-37800000D03*
X3020000Y-37800000D03*
%TD*%
%TO.C,R8*%
X16180000Y-14000000D03*
X17200000Y-14000000D03*
%TD*%
D28*
%TO.C,R63*%
X9370000Y-42039600D03*
X9370000Y-41019600D03*
%TD*%
D33*
%TO.C,R15*%
X16660000Y-29550000D03*
X15640000Y-29550000D03*
%TD*%
D43*
%TO.C,U6*%
X8579000Y-26537500D03*
X7629000Y-26537500D03*
X6679000Y-26537500D03*
X6679000Y-24262500D03*
X8579000Y-24262500D03*
%TD*%
D54*
%TO.C,F3*%
X12180000Y-46450000D03*
X14980000Y-46450000D03*
%TD*%
D55*
%TO.C,D14*%
X6660000Y-36290000D03*
X6660000Y-39590000D03*
%TD*%
D34*
%TO.C,C72*%
X6854000Y-27940000D03*
X8404000Y-27940000D03*
%TD*%
D28*
%TO.C,R35*%
X-1550000Y-18420000D03*
X-1550000Y-17400000D03*
%TD*%
D36*
%TO.C,R57*%
X-1510000Y-37750000D03*
X-490000Y-37750000D03*
%TD*%
D31*
%TO.C,C23*%
X10778000Y-3035500D03*
X9818000Y-3035500D03*
%TD*%
D39*
%TO.C,Q7*%
X1500000Y-38800000D03*
X3400000Y-38800000D03*
X2450000Y-41200000D03*
%TD*%
D44*
%TO.C,C8*%
X19750000Y-27020000D03*
X19750000Y-27980000D03*
%TD*%
D47*
%TO.C,C57*%
X19580000Y-7625000D03*
X19580000Y-6075000D03*
%TD*%
D56*
%TO.C,U11*%
X3827500Y-24180000D03*
X3827500Y-25130000D03*
X3827500Y-26080000D03*
X1552500Y-26080000D03*
X1552500Y-25130000D03*
X1552500Y-24180000D03*
%TD*%
D52*
%TO.C,C68*%
X1895000Y-10440000D03*
X345000Y-10440000D03*
%TD*%
D39*
%TO.C,Q1*%
X8190000Y-36680000D03*
X10090000Y-36680000D03*
X9140000Y-39080000D03*
%TD*%
D44*
%TO.C,C22*%
X7620000Y-2190000D03*
X7620000Y-3150000D03*
%TD*%
D36*
%TO.C,R9*%
X16180000Y-12000000D03*
X17200000Y-12000000D03*
%TD*%
D57*
%TO.C,U4*%
X11316500Y-60500D03*
X11316500Y-560500D03*
X11316500Y-1060500D03*
X11316500Y-1560500D03*
D58*
X10500000Y-1875000D03*
X10000000Y-1875000D03*
X9500000Y-1875000D03*
D59*
X8683500Y-1560500D03*
X8683500Y-1060500D03*
X8683500Y-560500D03*
X8683500Y-60500D03*
D60*
X9500000Y254000D03*
X10000000Y254000D03*
X10500000Y254000D03*
%TD*%
D41*
%TO.C,C10*%
X22028000Y-21030000D03*
X22028000Y-20070000D03*
%TD*%
D44*
%TO.C,C16*%
X2740000Y-4806000D03*
X2740000Y-5766000D03*
%TD*%
D61*
%TO.C,C26*%
X470000Y-4835000D03*
X470000Y-6385000D03*
%TD*%
D28*
%TO.C,R16*%
X4850000Y-8010000D03*
X4850000Y-6990000D03*
%TD*%
D35*
%TO.C,C2*%
X20600000Y-26590000D03*
X21560000Y-26590000D03*
%TD*%
%TO.C,C55*%
X-2180000Y-42250000D03*
X-1220000Y-42250000D03*
%TD*%
%TO.C,C12*%
X20020000Y-24500000D03*
X20980000Y-24500000D03*
%TD*%
D32*
%TO.C,R32*%
X13716000Y-8888001D03*
X13716000Y-9907999D03*
%TD*%
D34*
%TO.C,C73*%
X6841000Y-22860000D03*
X8391000Y-22860000D03*
%TD*%
%LPD*%
M02*
