%TF.GenerationSoftware,KiCad,Pcbnew,10.0.5*%
%TF.CreationDate,2026-09-30T21:06:45+02:00*%
%TF.ProjectId,PTR_micro_pcb,5054525f-6d69-4637-926f-5f7063622e6b,rev?*%
%TF.SameCoordinates,Original*%
%TF.FileFunction,Soldermask,Bot*%
%TF.FilePolarity,Negative*%
%FSLAX46Y46*%
G04 Gerber Fmt 4.6, Leading zero omitted, Abs format (unit mm)*
G04 Created by KiCad (PCBNEW 10.0.5) date 2026-09-30 21:06:45*
%MOMM*%
%LPD*%
G01*
G04 APERTURE LIST*
G04 Aperture macros list*
%AMRoundRect*
0 Rectangle with rounded corners*
0 $1 Rounding radius*
0 $2 $3 $4 $5 $6 $7 $8 $9 X,Y pos of 4 corners*
0 Add a 4 corners polygon primitive as box body*
4,1,4,$2,$3,$4,$5,$6,$7,$8,$9,$2,$3,0*
0 Add four circle primitives for the rounded corners*
1,1,$1+$1,$2,$3*
1,1,$1+$1,$4,$5*
1,1,$1+$1,$6,$7*
1,1,$1+$1,$8,$9*
0 Add four rect primitives between the rounded corners*
20,1,$1+$1,$2,$3,$4,$5,0*
20,1,$1+$1,$4,$5,$6,$7,0*
20,1,$1+$1,$6,$7,$8,$9,0*
20,1,$1+$1,$8,$9,$2,$3,0*%
%AMRotRect*
0 Rectangle, with rotation*
0 The origin of the aperture is its center*
0 $1 length*
0 $2 width*
0 $3 Rotation angle, in degrees counterclockwise*
0 Add horizontal line*
21,1,$1,$2,0,0,$3*%
G04 Aperture macros list end*
%ADD10RoundRect,0.250001X-0.949999X-0.949999X0.949999X-0.949999X0.949999X0.949999X-0.949999X0.949999X0*%
%ADD11C,2.400000*%
%ADD12RoundRect,0.190500X0.444500X-0.444500X0.444500X0.444500X-0.444500X0.444500X-0.444500X-0.444500X0*%
%ADD13O,2.100000X1.000000*%
%ADD14O,1.800000X1.000000*%
%ADD15C,6.000000*%
%ADD16R,1.600000X1.600000*%
%ADD17C,1.600000*%
%ADD18C,0.001000*%
%ADD19O,5.000000X2.000000*%
%ADD20O,1.300000X1.300000*%
%ADD21RoundRect,0.175000X0.325000X0.175000X-0.325000X0.175000X-0.325000X-0.175000X0.325000X-0.175000X0*%
%ADD22RoundRect,0.135000X0.185000X-0.135000X0.185000X0.135000X-0.185000X0.135000X-0.185000X-0.135000X0*%
%ADD23R,1.000000X1.000000*%
%ADD24O,1.000000X1.000000*%
%ADD25RoundRect,0.140000X0.140000X0.170000X-0.140000X0.170000X-0.140000X-0.170000X0.140000X-0.170000X0*%
%ADD26RoundRect,0.135000X-0.185000X0.135000X-0.185000X-0.135000X0.185000X-0.135000X0.185000X0.135000X0*%
%ADD27RoundRect,0.135000X0.135000X0.185000X-0.135000X0.185000X-0.135000X-0.185000X0.135000X-0.185000X0*%
%ADD28RoundRect,0.225000X-0.225000X-0.250000X0.225000X-0.250000X0.225000X0.250000X-0.225000X0.250000X0*%
%ADD29RoundRect,0.140000X-0.140000X-0.170000X0.140000X-0.170000X0.140000X0.170000X-0.140000X0.170000X0*%
%ADD30RoundRect,0.135000X-0.135000X-0.185000X0.135000X-0.185000X0.135000X0.185000X-0.135000X0.185000X0*%
%ADD31RoundRect,0.200000X-0.250000X-0.200000X0.250000X-0.200000X0.250000X0.200000X-0.250000X0.200000X0*%
%ADD32R,0.300000X0.300000*%
%ADD33RoundRect,0.175000X-0.175000X0.325000X-0.175000X-0.325000X0.175000X-0.325000X0.175000X0.325000X0*%
%ADD34RoundRect,0.250000X0.375000X0.625000X-0.375000X0.625000X-0.375000X-0.625000X0.375000X-0.625000X0*%
%ADD35RoundRect,0.140000X0.170000X-0.140000X0.170000X0.140000X-0.170000X0.140000X-0.170000X-0.140000X0*%
%ADD36RoundRect,0.140000X-0.021213X0.219203X-0.219203X0.021213X0.021213X-0.219203X0.219203X-0.021213X0*%
%ADD37RoundRect,0.150000X0.150000X-0.512500X0.150000X0.512500X-0.150000X0.512500X-0.150000X-0.512500X0*%
%ADD38RoundRect,0.140000X-0.170000X0.140000X-0.170000X-0.140000X0.170000X-0.140000X0.170000X0.140000X0*%
%ADD39RoundRect,0.147500X0.172500X-0.147500X0.172500X0.147500X-0.172500X0.147500X-0.172500X-0.147500X0*%
%ADD40RoundRect,0.200000X-0.600000X0.200000X-0.600000X-0.200000X0.600000X-0.200000X0.600000X0.200000X0*%
%ADD41RoundRect,0.225000X0.250000X-0.225000X0.250000X0.225000X-0.250000X0.225000X-0.250000X-0.225000X0*%
%ADD42RoundRect,0.140000X0.021213X-0.219203X0.219203X-0.021213X-0.021213X0.219203X-0.219203X0.021213X0*%
%ADD43RoundRect,0.062500X0.309359X-0.220971X-0.220971X0.309359X-0.309359X0.220971X0.220971X-0.309359X0*%
%ADD44RoundRect,0.062500X0.309359X0.220971X0.220971X0.309359X-0.309359X-0.220971X-0.220971X-0.309359X0*%
%ADD45RotRect,3.450000X3.450000X135.000000*%
%ADD46RoundRect,0.225000X0.225000X0.250000X-0.225000X0.250000X-0.225000X-0.250000X0.225000X-0.250000X0*%
%ADD47RoundRect,0.147500X-0.017678X0.226274X-0.226274X0.017678X0.017678X-0.226274X0.226274X-0.017678X0*%
%ADD48RoundRect,0.250000X-0.375000X-0.625000X0.375000X-0.625000X0.375000X0.625000X-0.375000X0.625000X0*%
%ADD49R,1.200000X0.900000*%
%ADD50RoundRect,0.150000X0.512500X0.150000X-0.512500X0.150000X-0.512500X-0.150000X0.512500X-0.150000X0*%
%ADD51RoundRect,0.031500X0.430000X0.143500X-0.430000X0.143500X-0.430000X-0.143500X0.430000X-0.143500X0*%
%ADD52RoundRect,0.031500X0.143500X-0.428000X0.143500X0.428000X-0.143500X0.428000X-0.143500X-0.428000X0*%
%ADD53RoundRect,0.031500X-0.430000X-0.143500X0.430000X-0.143500X0.430000X0.143500X-0.430000X0.143500X0*%
%ADD54RoundRect,0.031500X-0.143500X0.428000X-0.143500X-0.428000X0.143500X-0.428000X0.143500X0.428000X0*%
%ADD55RoundRect,0.225000X-0.250000X0.225000X-0.250000X-0.225000X0.250000X-0.225000X0.250000X0.225000X0*%
G04 APERTURE END LIST*
D10*
%TO.C,J3*%
X6470000Y-49030000D03*
D11*
X9970000Y-49030000D03*
X13470000Y-49030000D03*
%TD*%
D12*
%TO.C,SW1*%
X6850000Y-18300000D03*
X10150000Y-18300000D03*
X6850000Y-15800000D03*
X10150000Y-15800000D03*
X6850000Y-13300000D03*
X10150000Y-13300000D03*
%TD*%
D13*
%TO.C,U2*%
X3830000Y-20730000D03*
D14*
X-350000Y-20730000D03*
D13*
X3830000Y-29370000D03*
D14*
X-350000Y-29370000D03*
%TD*%
D15*
%TO.C,H3*%
X20000000Y0D03*
%TD*%
D16*
%TO.C,LS1*%
X4930000Y-35430000D03*
D17*
X4930000Y-40430000D03*
%TD*%
D15*
%TO.C,H4*%
X0Y0D03*
%TD*%
%TO.C,H2*%
X20000000Y-50000000D03*
%TD*%
D18*
%TO.C,BT1*%
X21000000Y-17900000D03*
X13000000Y-17900000D03*
X21000000Y-32900000D03*
X13000000Y-32900000D03*
D19*
X17000000Y-9900000D03*
D20*
X16000000Y-9900000D03*
D19*
X17000000Y-40900000D03*
D20*
X16000000Y-40900000D03*
%TD*%
D15*
%TO.C,H1*%
X0Y-50000000D03*
%TD*%
D21*
%TO.C,Q5*%
X18345000Y-6035000D03*
X18345000Y-7935000D03*
X15945000Y-6985000D03*
%TD*%
D22*
%TO.C,R66*%
X20750000Y-7445000D03*
X20750000Y-6425000D03*
%TD*%
D23*
%TO.C,J1*%
X21800000Y-9500000D03*
D24*
X21800000Y-10770000D03*
X21800000Y-12040000D03*
X21800000Y-13310000D03*
X21800000Y-14580000D03*
X21800000Y-15850000D03*
%TD*%
D25*
%TO.C,C70*%
X1780000Y-11510000D03*
X820000Y-11510000D03*
%TD*%
D26*
%TO.C,R44*%
X4815000Y-37365000D03*
X4815000Y-38385000D03*
%TD*%
D27*
%TO.C,R43*%
X9650000Y-35680000D03*
X8630000Y-35680000D03*
%TD*%
D28*
%TO.C,C5*%
X18905000Y-30780000D03*
X20455000Y-30780000D03*
%TD*%
D27*
%TO.C,R84*%
X1440000Y-21960000D03*
X420000Y-21960000D03*
%TD*%
%TO.C,R54*%
X4210000Y-42250000D03*
X3190000Y-42250000D03*
%TD*%
D29*
%TO.C,C7*%
X18770000Y-28850000D03*
X19730000Y-28850000D03*
%TD*%
D30*
%TO.C,R7*%
X16180000Y-15000000D03*
X17200000Y-15000000D03*
%TD*%
%TO.C,R14*%
X16200000Y-13000000D03*
X17220000Y-13000000D03*
%TD*%
D29*
%TO.C,C71*%
X-980000Y-11500000D03*
X-20000Y-11500000D03*
%TD*%
D22*
%TO.C,R65*%
X10750000Y-42040000D03*
X10750000Y-41020000D03*
%TD*%
D25*
%TO.C,C24*%
X7600000Y-43000000D03*
X6640000Y-43000000D03*
%TD*%
D30*
%TO.C,R59*%
X8540000Y-21770000D03*
X9560000Y-21770000D03*
%TD*%
D31*
%TO.C,Y2*%
X19550000Y-20000000D03*
X20950000Y-20000000D03*
X20950000Y-21100000D03*
X19550000Y-21100000D03*
%TD*%
D32*
%TO.C,U3*%
X4350000Y-4450000D03*
X4850000Y-4450000D03*
X5375000Y-4700000D03*
X5375000Y-5200000D03*
X5375000Y-5700000D03*
X4850000Y-5950000D03*
X4350000Y-5950000D03*
X3825000Y-5700000D03*
X3825000Y-5200000D03*
X3825000Y-4700000D03*
%TD*%
D33*
%TO.C,Q4*%
X1625000Y-43300000D03*
X3525000Y-43300000D03*
X2575000Y-45700000D03*
%TD*%
D30*
%TO.C,R13*%
X19240000Y-13000000D03*
X20260000Y-13000000D03*
%TD*%
D34*
%TO.C,F2*%
X7890000Y-46450000D03*
X5090000Y-46450000D03*
%TD*%
D35*
%TO.C,C9*%
X18472000Y-21030000D03*
X18472000Y-20070000D03*
%TD*%
D36*
%TO.C,C14*%
X13139411Y-28510589D03*
X12460589Y-29189411D03*
%TD*%
D29*
%TO.C,C56*%
X1420000Y-42250000D03*
X2380000Y-42250000D03*
%TD*%
D37*
%TO.C,U5*%
X1512500Y-15187500D03*
X562500Y-15187500D03*
X-387500Y-15187500D03*
X-387500Y-12912500D03*
X1512500Y-12912500D03*
%TD*%
D38*
%TO.C,C17*%
X1978000Y-4806000D03*
X1978000Y-5766000D03*
%TD*%
D30*
%TO.C,R10*%
X19240000Y-14000000D03*
X20260000Y-14000000D03*
%TD*%
%TO.C,R60*%
X8540000Y-20850000D03*
X9560000Y-20850000D03*
%TD*%
D29*
%TO.C,C11*%
X15670000Y-30500000D03*
X16630000Y-30500000D03*
%TD*%
D27*
%TO.C,R82*%
X1439999Y-27230000D03*
X420001Y-27230000D03*
%TD*%
D22*
%TO.C,R36*%
X-1550000Y-16530000D03*
X-1550000Y-15510000D03*
%TD*%
D39*
%TO.C,L1*%
X21390000Y-29220000D03*
X21390000Y-28250000D03*
%TD*%
D22*
%TO.C,R34*%
X9661000Y-25912000D03*
X9661000Y-24892000D03*
%TD*%
D26*
%TO.C,R62*%
X10750000Y-42945800D03*
X10750000Y-43965800D03*
%TD*%
D33*
%TO.C,Q2*%
X-1850000Y-43300000D03*
X50000Y-43300000D03*
X-900000Y-45700000D03*
%TD*%
D40*
%TO.C,AE1*%
X21520000Y-37013000D03*
X21520000Y-40213000D03*
%TD*%
D25*
%TO.C,C25*%
X3795000Y-3635000D03*
X2835000Y-3635000D03*
%TD*%
D27*
%TO.C,R81*%
X1440000Y-22850000D03*
X420000Y-22850000D03*
%TD*%
D41*
%TO.C,C21*%
X5940000Y-2275000D03*
X5940000Y-725000D03*
%TD*%
D38*
%TO.C,C15*%
X11200000Y-24470000D03*
X11200000Y-25430000D03*
%TD*%
D42*
%TO.C,C3*%
X12260589Y-23139411D03*
X12939411Y-22460589D03*
%TD*%
D27*
%TO.C,R53*%
X610000Y-42250000D03*
X-410000Y-42250000D03*
%TD*%
D43*
%TO.C,U1*%
X18561010Y-25486136D03*
X18207456Y-25839689D03*
X17853903Y-26193243D03*
X17500349Y-26546796D03*
X17146796Y-26900349D03*
X16793243Y-27253903D03*
X16439689Y-27607456D03*
X16086136Y-27961010D03*
D44*
X15113864Y-27961010D03*
X14760311Y-27607456D03*
X14406757Y-27253903D03*
X14053204Y-26900349D03*
X13699651Y-26546796D03*
X13346097Y-26193243D03*
X12992544Y-25839689D03*
X12638990Y-25486136D03*
D43*
X12638990Y-24513864D03*
X12992544Y-24160311D03*
X13346097Y-23806757D03*
X13699651Y-23453204D03*
X14053204Y-23099651D03*
X14406757Y-22746097D03*
X14760311Y-22392544D03*
X15113864Y-22038990D03*
D44*
X16086136Y-22038990D03*
X16439689Y-22392544D03*
X16793243Y-22746097D03*
X17146796Y-23099651D03*
X17500349Y-23453204D03*
X17853903Y-23806757D03*
X18207456Y-24160311D03*
X18561010Y-24513864D03*
D45*
X15600000Y-25000000D03*
%TD*%
D30*
%TO.C,R12*%
X19240000Y-12000000D03*
X20260000Y-12000000D03*
%TD*%
D29*
%TO.C,C20*%
X15490000Y-43830000D03*
X16450000Y-43830000D03*
%TD*%
D25*
%TO.C,C69*%
X1520000Y-16520000D03*
X560000Y-16520000D03*
%TD*%
D22*
%TO.C,R69*%
X20750000Y-5540000D03*
X20750000Y-4520000D03*
%TD*%
D30*
%TO.C,R5*%
X15090001Y-20600000D03*
X16109999Y-20600000D03*
%TD*%
D33*
%TO.C,Q6*%
X-1950000Y-38800000D03*
X-50000Y-38800000D03*
X-1000000Y-41200000D03*
%TD*%
D46*
%TO.C,C44*%
X1645000Y-17620000D03*
X95000Y-17620000D03*
%TD*%
D26*
%TO.C,R61*%
X9370000Y-42950000D03*
X9370000Y-43970000D03*
%TD*%
D29*
%TO.C,C13*%
X20020000Y-25250000D03*
X20980000Y-25250000D03*
%TD*%
D27*
%TO.C,R31*%
X15710000Y-8100000D03*
X14690000Y-8100000D03*
%TD*%
D47*
%TO.C,L3*%
X20592947Y-22157053D03*
X19907053Y-22842947D03*
%TD*%
D35*
%TO.C,C39*%
X12700000Y-9878000D03*
X12700000Y-8918000D03*
%TD*%
D27*
%TO.C,R33*%
X13717999Y-8128000D03*
X12698001Y-8128000D03*
%TD*%
D30*
%TO.C,R11*%
X19240000Y-15020731D03*
X20260000Y-15020731D03*
%TD*%
D39*
%TO.C,L2*%
X18750000Y-27985000D03*
X18750000Y-27015000D03*
%TD*%
D38*
%TO.C,C19*%
X21900000Y-23420000D03*
X21900000Y-24380000D03*
%TD*%
D25*
%TO.C,C1*%
X21530000Y-35140000D03*
X20570000Y-35140000D03*
%TD*%
D29*
%TO.C,C6*%
X18770000Y-29750000D03*
X19730000Y-29750000D03*
%TD*%
D30*
%TO.C,R17*%
X8490000Y1400000D03*
X9510000Y1400000D03*
%TD*%
D35*
%TO.C,C18*%
X7200000Y-230000D03*
X7200000Y730000D03*
%TD*%
D30*
%TO.C,R6*%
X15090001Y-19800000D03*
X16109999Y-19800000D03*
%TD*%
D27*
%TO.C,R83*%
X1450000Y-28120000D03*
X430000Y-28120000D03*
%TD*%
D42*
%TO.C,C4*%
X11610589Y-22489411D03*
X12289411Y-21810589D03*
%TD*%
D30*
%TO.C,R58*%
X2000000Y-37800000D03*
X3020000Y-37800000D03*
%TD*%
%TO.C,R8*%
X16180000Y-14000000D03*
X17200000Y-14000000D03*
%TD*%
D22*
%TO.C,R63*%
X9370000Y-42039600D03*
X9370000Y-41019600D03*
%TD*%
D27*
%TO.C,R15*%
X16660000Y-29550000D03*
X15640000Y-29550000D03*
%TD*%
D37*
%TO.C,U6*%
X8579000Y-26537500D03*
X7629000Y-26537500D03*
X6679000Y-26537500D03*
X6679000Y-24262500D03*
X8579000Y-24262500D03*
%TD*%
D48*
%TO.C,F3*%
X12180000Y-46450000D03*
X14980000Y-46450000D03*
%TD*%
D49*
%TO.C,D14*%
X6660000Y-36290000D03*
X6660000Y-39590000D03*
%TD*%
D28*
%TO.C,C72*%
X6854000Y-27940000D03*
X8404000Y-27940000D03*
%TD*%
D22*
%TO.C,R35*%
X-1550000Y-18420000D03*
X-1550000Y-17400000D03*
%TD*%
D30*
%TO.C,R57*%
X-1510000Y-37750000D03*
X-490000Y-37750000D03*
%TD*%
D25*
%TO.C,C23*%
X10778000Y-3035500D03*
X9818000Y-3035500D03*
%TD*%
D33*
%TO.C,Q7*%
X1500000Y-38800000D03*
X3400000Y-38800000D03*
X2450000Y-41200000D03*
%TD*%
D38*
%TO.C,C8*%
X19750000Y-27020000D03*
X19750000Y-27980000D03*
%TD*%
D41*
%TO.C,C57*%
X19580000Y-7625000D03*
X19580000Y-6075000D03*
%TD*%
D50*
%TO.C,U11*%
X3827500Y-24180000D03*
X3827500Y-25130000D03*
X3827500Y-26080000D03*
X1552500Y-26080000D03*
X1552500Y-25130000D03*
X1552500Y-24180000D03*
%TD*%
D46*
%TO.C,C68*%
X1895000Y-10440000D03*
X345000Y-10440000D03*
%TD*%
D33*
%TO.C,Q1*%
X8190000Y-36680000D03*
X10090000Y-36680000D03*
X9140000Y-39080000D03*
%TD*%
D38*
%TO.C,C22*%
X7620000Y-2190000D03*
X7620000Y-3150000D03*
%TD*%
D30*
%TO.C,R9*%
X16180000Y-12000000D03*
X17200000Y-12000000D03*
%TD*%
D51*
%TO.C,U4*%
X11316500Y-60500D03*
X11316500Y-560500D03*
X11316500Y-1060500D03*
X11316500Y-1560500D03*
D52*
X10500000Y-1875000D03*
X10000000Y-1875000D03*
X9500000Y-1875000D03*
D53*
X8683500Y-1560500D03*
X8683500Y-1060500D03*
X8683500Y-560500D03*
X8683500Y-60500D03*
D54*
X9500000Y254000D03*
X10000000Y254000D03*
X10500000Y254000D03*
%TD*%
D35*
%TO.C,C10*%
X22028000Y-21030000D03*
X22028000Y-20070000D03*
%TD*%
D38*
%TO.C,C16*%
X2740000Y-4806000D03*
X2740000Y-5766000D03*
%TD*%
D55*
%TO.C,C26*%
X470000Y-4835000D03*
X470000Y-6385000D03*
%TD*%
D22*
%TO.C,R16*%
X4850000Y-8010000D03*
X4850000Y-6990000D03*
%TD*%
D29*
%TO.C,C2*%
X20600000Y-26590000D03*
X21560000Y-26590000D03*
%TD*%
%TO.C,C55*%
X-2180000Y-42250000D03*
X-1220000Y-42250000D03*
%TD*%
%TO.C,C12*%
X20020000Y-24500000D03*
X20980000Y-24500000D03*
%TD*%
D26*
%TO.C,R32*%
X13716000Y-8888001D03*
X13716000Y-9907999D03*
%TD*%
D28*
%TO.C,C73*%
X6841000Y-22860000D03*
X8391000Y-22860000D03*
%TD*%
M02*
