%TF.GenerationSoftware,KiCad,Pcbnew,10.0.5*%
%TF.CreationDate,2026-09-30T21:06:45+02:00*%
%TF.ProjectId,PTR_micro_pcb,5054525f-6d69-4637-926f-5f7063622e6b,rev?*%
%TF.SameCoordinates,Original*%
%TF.FileFunction,Soldermask,Top*%
%TF.FilePolarity,Negative*%
%FSLAX46Y46*%
G04 Gerber Fmt 4.6, Leading zero omitted, Abs format (unit mm)*
G04 Created by KiCad (PCBNEW 10.0.5) date 2026-09-30 21:06:45*
%MOMM*%
%LPD*%
G01*
G04 APERTURE LIST*
G04 Aperture macros list*
%AMRoundRect*
0 Rectangle with rounded corners*
0 $1 Rounding radius*
0 $2 $3 $4 $5 $6 $7 $8 $9 X,Y pos of 4 corners*
0 Add a 4 corners polygon primitive as box body*
4,1,4,$2,$3,$4,$5,$6,$7,$8,$9,$2,$3,0*
0 Add four circle primitives for the rounded corners*
1,1,$1+$1,$2,$3*
1,1,$1+$1,$4,$5*
1,1,$1+$1,$6,$7*
1,1,$1+$1,$8,$9*
0 Add four rect primitives between the rounded corners*
20,1,$1+$1,$2,$3,$4,$5,0*
20,1,$1+$1,$4,$5,$6,$7,0*
20,1,$1+$1,$6,$7,$8,$9,0*
20,1,$1+$1,$8,$9,$2,$3,0*%
G04 Aperture macros list end*
%ADD10RoundRect,0.250001X-0.949999X-0.949999X0.949999X-0.949999X0.949999X0.949999X-0.949999X0.949999X0*%
%ADD11C,2.400000*%
%ADD12RoundRect,0.190500X0.444500X-0.444500X0.444500X0.444500X-0.444500X0.444500X-0.444500X-0.444500X0*%
%ADD13R,1.150000X0.600000*%
%ADD14R,1.150000X0.300000*%
%ADD15O,2.100000X1.000000*%
%ADD16O,1.800000X1.000000*%
%ADD17R,0.736600X0.609600*%
%ADD18RoundRect,0.218750X0.218750X0.256250X-0.218750X0.256250X-0.218750X-0.256250X0.218750X-0.256250X0*%
%ADD19C,6.000000*%
%ADD20R,1.600000X1.600000*%
%ADD21C,1.600000*%
%ADD22R,0.609600X0.736600*%
%ADD23C,0.001000*%
%ADD24O,5.000000X2.000000*%
%ADD25O,1.300000X1.300000*%
%ADD26RoundRect,0.218750X-0.218750X-0.256250X0.218750X-0.256250X0.218750X0.256250X-0.218750X0.256250X0*%
%ADD27R,1.000000X1.000000*%
%ADD28O,1.000000X1.000000*%
G04 APERTURE END LIST*
D10*
%TO.C,J3*%
X6470000Y-49030000D03*
D11*
X9970000Y-49030000D03*
X13470000Y-49030000D03*
%TD*%
D12*
%TO.C,SW1*%
X6850000Y-18300000D03*
X10150000Y-18300000D03*
X6850000Y-15800000D03*
X10150000Y-15800000D03*
X6850000Y-13300000D03*
X10150000Y-13300000D03*
%TD*%
D13*
%TO.C,U2*%
X4405000Y-21850000D03*
X4405000Y-22650000D03*
D14*
X4405000Y-23800000D03*
X4405000Y-24800000D03*
X4405000Y-25300000D03*
X4405000Y-26300000D03*
D13*
X4405000Y-28250000D03*
X4405000Y-27450000D03*
D14*
X4405000Y-26800000D03*
X4405000Y-25800000D03*
X4405000Y-24300000D03*
X4405000Y-23300000D03*
D15*
X3830000Y-20730000D03*
D16*
X-350000Y-20730000D03*
D15*
X3830000Y-29370000D03*
D16*
X-350000Y-29370000D03*
%TD*%
D17*
%TO.C,D3*%
X11626200Y-43850000D03*
X11626200Y-44849998D03*
X14013800Y-44849998D03*
X14013800Y-43850000D03*
%TD*%
%TO.C,D1*%
X11193800Y-999999D03*
X11193800Y-1D03*
X8806200Y-1D03*
X8806200Y-999999D03*
%TD*%
D18*
%TO.C,D9*%
X25500Y-18542000D03*
X-1549500Y-18542000D03*
%TD*%
D19*
%TO.C,H3*%
X20000000Y0D03*
%TD*%
D20*
%TO.C,LS1*%
X4930000Y-35430000D03*
D21*
X4930000Y-40430000D03*
%TD*%
D19*
%TO.C,H4*%
X0Y0D03*
%TD*%
D17*
%TO.C,D4*%
X5876200Y-43850001D03*
X5876200Y-44849999D03*
X8263800Y-44849999D03*
X8263800Y-43850001D03*
%TD*%
D22*
%TO.C,D2*%
X21250002Y-26250000D03*
X22250000Y-26250000D03*
X22250000Y-23862400D03*
X21250002Y-23862400D03*
%TD*%
D19*
%TO.C,H2*%
X20000000Y-50000000D03*
%TD*%
D23*
%TO.C,BT1*%
X21000000Y-17900000D03*
X13000000Y-17900000D03*
X21000000Y-32900000D03*
X13000000Y-32900000D03*
D24*
X17000000Y-9900000D03*
D25*
X16000000Y-9900000D03*
D24*
X17000000Y-40900000D03*
D25*
X16000000Y-40900000D03*
%TD*%
D18*
%TO.C,D10*%
X25500Y-31496000D03*
X-1549500Y-31496000D03*
%TD*%
D26*
%TO.C,D8*%
X8850000Y-23400000D03*
X10425000Y-23400000D03*
%TD*%
D19*
%TO.C,H1*%
X0Y-50000000D03*
%TD*%
D27*
%TO.C,J1*%
X21800000Y-9500000D03*
D28*
X21800000Y-10770000D03*
X21800000Y-12040000D03*
X21800000Y-13310000D03*
X21800000Y-14580000D03*
X21800000Y-15850000D03*
%TD*%
M02*
