%TF.GenerationSoftware,KiCad,Pcbnew,10.0.5*%
%TF.CreationDate,2026-09-30T21:06:45+02:00*%
%TF.ProjectId,PTR_micro_pcb,5054525f-6d69-4637-926f-5f7063622e6b,rev?*%
%TF.SameCoordinates,Original*%
%TF.FileFunction,Copper,L1,Top*%
%TF.FilePolarity,Positive*%
%FSLAX46Y46*%
G04 Gerber Fmt 4.6, Leading zero omitted, Abs format (unit mm)*
G04 Created by KiCad (PCBNEW 10.0.5) date 2026-09-30 21:06:45*
%MOMM*%
%LPD*%
G01*
G04 APERTURE LIST*
G04 Aperture macros list*
%AMRoundRect*
0 Rectangle with rounded corners*
0 $1 Rounding radius*
0 $2 $3 $4 $5 $6 $7 $8 $9 X,Y pos of 4 corners*
0 Add a 4 corners polygon primitive as box body*
4,1,4,$2,$3,$4,$5,$6,$7,$8,$9,$2,$3,0*
0 Add four circle primitives for the rounded corners*
1,1,$1+$1,$2,$3*
1,1,$1+$1,$4,$5*
1,1,$1+$1,$6,$7*
1,1,$1+$1,$8,$9*
0 Add four rect primitives between the rounded corners*
20,1,$1+$1,$2,$3,$4,$5,0*
20,1,$1+$1,$4,$5,$6,$7,0*
20,1,$1+$1,$6,$7,$8,$9,0*
20,1,$1+$1,$8,$9,$2,$3,0*%
G04 Aperture macros list end*
%TA.AperFunction,ComponentPad*%
%ADD10RoundRect,0.250001X-0.949999X-0.949999X0.949999X-0.949999X0.949999X0.949999X-0.949999X0.949999X0*%
%TD*%
%TA.AperFunction,ComponentPad*%
%ADD11C,2.400000*%
%TD*%
%TA.AperFunction,ComponentPad*%
%ADD12RoundRect,0.190500X0.444500X-0.444500X0.444500X0.444500X-0.444500X0.444500X-0.444500X-0.444500X0*%
%TD*%
%TA.AperFunction,SMDPad,CuDef*%
%ADD13R,1.150000X0.600000*%
%TD*%
%TA.AperFunction,SMDPad,CuDef*%
%ADD14R,1.150000X0.300000*%
%TD*%
%TA.AperFunction,ComponentPad*%
%ADD15O,2.100000X1.000000*%
%TD*%
%TA.AperFunction,ComponentPad*%
%ADD16O,1.800000X1.000000*%
%TD*%
%TA.AperFunction,SMDPad,CuDef*%
%ADD17R,0.736600X0.609600*%
%TD*%
%TA.AperFunction,SMDPad,CuDef*%
%ADD18RoundRect,0.218750X0.218750X0.256250X-0.218750X0.256250X-0.218750X-0.256250X0.218750X-0.256250X0*%
%TD*%
%TA.AperFunction,ComponentPad*%
%ADD19C,6.000000*%
%TD*%
%TA.AperFunction,ComponentPad*%
%ADD20R,1.600000X1.600000*%
%TD*%
%TA.AperFunction,ComponentPad*%
%ADD21C,1.600000*%
%TD*%
%TA.AperFunction,SMDPad,CuDef*%
%ADD22R,0.609600X0.736600*%
%TD*%
%TA.AperFunction,ComponentPad*%
%ADD23O,5.000000X2.000000*%
%TD*%
%TA.AperFunction,ComponentPad*%
%ADD24O,1.300000X1.300000*%
%TD*%
%TA.AperFunction,SMDPad,CuDef*%
%ADD25RoundRect,0.218750X-0.218750X-0.256250X0.218750X-0.256250X0.218750X0.256250X-0.218750X0.256250X0*%
%TD*%
%TA.AperFunction,ComponentPad*%
%ADD26R,1.000000X1.000000*%
%TD*%
%TA.AperFunction,ComponentPad*%
%ADD27O,1.000000X1.000000*%
%TD*%
%TA.AperFunction,ComponentPad*%
%ADD28C,0.700000*%
%TD*%
%TA.AperFunction,ViaPad*%
%ADD29C,0.700000*%
%TD*%
%TA.AperFunction,Conductor*%
%ADD30C,0.200000*%
%TD*%
%TA.AperFunction,Conductor*%
%ADD31C,0.400000*%
%TD*%
%TA.AperFunction,Conductor*%
%ADD32C,0.800000*%
%TD*%
G04 APERTURE END LIST*
D10*
%TO.P,J3,1,Pin_1_1*%
%TO.N,Net-(J3-Pin_1)*%
X6470000Y-49030000D03*
D11*
%TO.P,J3,2,Pin_2_2*%
%TO.N,Earth*%
X9970000Y-49030000D03*
%TO.P,J3,3,Pin_3_3*%
%TO.N,Net-(J3-Pin_3)*%
X13470000Y-49030000D03*
%TD*%
D12*
%TO.P,SW1,1,C_1*%
%TO.N,Net-(SW1-C)*%
X6850000Y-18300000D03*
X10150000Y-18300000D03*
%TO.P,SW1,2,B_2*%
%TO.N,Earth*%
X6850000Y-15800000D03*
X10150000Y-15800000D03*
%TO.P,SW1,3,A_3*%
%TO.N,unconnected-(SW1-A-Pad3)_1*%
X6850000Y-13300000D03*
%TO.N,unconnected-(SW1-A-Pad3)*%
X10150000Y-13300000D03*
%TD*%
D13*
%TO.P,U2,A1B12,GND_A1B12*%
%TO.N,Earth*%
X4405000Y-21850000D03*
%TO.P,U2,A4B9,VBUS_A4B9*%
%TO.N,VBUS*%
X4405000Y-22650000D03*
D14*
%TO.P,U2,A5,CC1_A5*%
%TO.N,Net-(U2-CC1)*%
X4405000Y-23800000D03*
%TO.P,U2,A6,D+_A6*%
%TO.N,Net-(U11-I{slash}O2-Pad3)*%
X4405000Y-24800000D03*
%TO.P,U2,A7,D-_A7*%
%TO.N,Net-(U11-I{slash}O1-Pad1)*%
X4405000Y-25300000D03*
%TO.P,U2,A8,SBU1_A8*%
%TO.N,unconnected-(U2-SBU1-PadA8)*%
X4405000Y-26300000D03*
D13*
%TO.P,U2,B1A12,GND_B1A12*%
%TO.N,Earth*%
X4405000Y-28250000D03*
%TO.P,U2,B4A9,VBUS_B4A9*%
%TO.N,VBUS*%
X4405000Y-27450000D03*
D14*
%TO.P,U2,B5,CC2_B5*%
%TO.N,Net-(U2-CC2)*%
X4405000Y-26800000D03*
%TO.P,U2,B6,D+_B6*%
%TO.N,Net-(U11-I{slash}O2-Pad3)*%
X4405000Y-25800000D03*
%TO.P,U2,B7,D-_B7*%
%TO.N,Net-(U11-I{slash}O1-Pad1)*%
X4405000Y-24300000D03*
%TO.P,U2,B8,SBU2_B8*%
%TO.N,unconnected-(U2-SBU2-PadB8)*%
X4405000Y-23300000D03*
D15*
%TO.P,U2,SH,SHIELD_SH*%
%TO.N,Earth*%
X3830000Y-20730000D03*
D16*
X-350000Y-20730000D03*
D15*
X3830000Y-29370000D03*
D16*
X-350000Y-29370000D03*
%TD*%
D17*
%TO.P,D3,1,DOUT_1*%
%TO.N,Net-(D3-DOUT)*%
X11626200Y-43850000D03*
%TO.P,D3,2,GND_2*%
%TO.N,Earth*%
X11626200Y-44849998D03*
%TO.P,D3,3,DIN_3*%
%TO.N,Net-(D2-DOUT)*%
X14013800Y-44849998D03*
%TO.P,D3,4,VDD_4*%
%TO.N,+3V3*%
X14013800Y-43850000D03*
%TD*%
%TO.P,D1,1,DOUT_1*%
%TO.N,Net-(D1-DOUT)*%
X11193800Y-999999D03*
%TO.P,D1,2,GND_2*%
%TO.N,Earth*%
X11193800Y-1D03*
%TO.P,D1,3,DIN_3*%
%TO.N,LED*%
X8806200Y-1D03*
%TO.P,D1,4,VDD_4*%
%TO.N,+3V3*%
X8806200Y-999999D03*
%TD*%
D18*
%TO.P,D9,1,K_1*%
%TO.N,Earth*%
X25500Y-18542000D03*
%TO.P,D9,2,A_2*%
%TO.N,Net-(D10-A)*%
X-1549500Y-18542000D03*
%TD*%
D19*
%TO.P,H3,1,1_1*%
%TO.N,Earth*%
X20000000Y0D03*
%TD*%
D20*
%TO.P,LS1,1,+_1*%
%TO.N,+3V3*%
X4930000Y-35430000D03*
D21*
%TO.P,LS1,2,-_2*%
%TO.N,Net-(D14-A)*%
X4930000Y-40430000D03*
%TD*%
D19*
%TO.P,H4,1,1_1*%
%TO.N,Earth*%
X0Y0D03*
%TD*%
D17*
%TO.P,D4,1,DOUT_1*%
%TO.N,unconnected-(D4-DOUT-Pad1)*%
X5876200Y-43850001D03*
%TO.P,D4,2,GND_2*%
%TO.N,Earth*%
X5876200Y-44849999D03*
%TO.P,D4,3,DIN_3*%
%TO.N,Net-(D3-DOUT)*%
X8263800Y-44849999D03*
%TO.P,D4,4,VDD_4*%
%TO.N,+3V3*%
X8263800Y-43850001D03*
%TD*%
D22*
%TO.P,D2,1,DOUT_1*%
%TO.N,Net-(D2-DOUT)*%
X21250002Y-26250000D03*
%TO.P,D2,2,GND_2*%
%TO.N,Earth*%
X22250000Y-26250000D03*
%TO.P,D2,3,DIN_3*%
%TO.N,Net-(D1-DOUT)*%
X22250000Y-23862400D03*
%TO.P,D2,4,VDD_4*%
%TO.N,+3V3*%
X21250002Y-23862400D03*
%TD*%
D19*
%TO.P,H2,1,1_1*%
%TO.N,Earth*%
X20000000Y-50000000D03*
%TD*%
D23*
%TO.P,BT1,1,+_1*%
%TO.N,VBAT*%
X17000000Y-9900000D03*
D24*
X16000000Y-9900000D03*
D23*
%TO.P,BT1,2,-_2*%
%TO.N,Earth*%
X17000000Y-40900000D03*
D24*
X16000000Y-40900000D03*
%TD*%
D18*
%TO.P,D10,1,K_1*%
%TO.N,Net-(D10-K)*%
X25500Y-31496000D03*
%TO.P,D10,2,A_2*%
%TO.N,Net-(D10-A)*%
X-1549500Y-31496000D03*
%TD*%
D25*
%TO.P,D8,1,K_1*%
%TO.N,Net-(D8-K)*%
X8850000Y-23400000D03*
%TO.P,D8,2,A_2*%
%TO.N,+3V3*%
X10425000Y-23400000D03*
%TD*%
D19*
%TO.P,H1,1,1_1*%
%TO.N,Earth*%
X0Y-50000000D03*
%TD*%
D26*
%TO.P,J1,1,3V3_1*%
%TO.N,+3V3*%
X21800000Y-9500000D03*
D27*
%TO.P,J1,2,RX0_2*%
%TO.N,U0RXD*%
X21800000Y-10770000D03*
%TO.P,J1,3,TX0_3*%
%TO.N,U0TXD*%
X21800000Y-12040000D03*
%TO.P,J1,4,BOOT_4*%
%TO.N,BOOT_PIN*%
X21800000Y-13310000D03*
%TO.P,J1,5,EN_5*%
%TO.N,Net-(J1-EN)*%
X21800000Y-14580000D03*
%TO.P,J1,6,GND_6*%
%TO.N,Earth*%
X21800000Y-15850000D03*
%TD*%
D28*
%TO.P,U1,33,GND_33*%
%TO.N,Earth*%
X15600000Y-26414214D03*
X16307107Y-25707107D03*
X17014214Y-25000000D03*
X14892893Y-25707107D03*
X15600000Y-25000000D03*
X16307107Y-24292893D03*
X14185786Y-25000000D03*
X14892893Y-24292893D03*
X15600000Y-23585786D03*
%TD*%
D29*
%TO.N,Earth*%
X22250000Y-27300000D03*
X17170000Y-43830000D03*
X-260000Y-16480000D03*
X12300000Y-950000D03*
X950000Y-18550000D03*
X10750000Y-40250000D03*
X22047754Y-19251300D03*
X550000Y-12600000D03*
X7600000Y-21250000D03*
X9050000Y-3000000D03*
X-450000Y-10430000D03*
X400000Y-37700000D03*
X10490000Y-35680000D03*
X15000000Y-30500000D03*
X13550000Y-21850000D03*
X6320000Y-45920000D03*
X18680000Y-36120000D03*
X20570000Y-29690000D03*
X2852500Y-25130000D03*
X2100000Y-3650000D03*
X8550000Y-29000000D03*
X3900000Y-37800000D03*
X18620000Y-38040000D03*
X7650000Y-25450000D03*
X6050735Y-4449265D03*
X7200000Y-3900000D03*
X12530000Y-44860000D03*
X11900000Y-8100000D03*
X2350000Y-6450000D03*
X18910000Y-21832000D03*
X20570000Y-27890000D03*
X20570000Y-28790000D03*
X19670000Y-35150000D03*
X12000000Y-29650000D03*
X3550000Y-6450000D03*
X5950000Y-42945199D03*
X22350000Y-35180000D03*
X470000Y-7140000D03*
X21800000Y-25150000D03*
X9390000Y-40280000D03*
X5420000Y320000D03*
X6400000Y740000D03*
X11200000Y-26050000D03*
%TO.N,Net-(SW1-C)*%
X10800000Y-8100000D03*
X13250000Y-5850000D03*
%TO.N,VBUS*%
X5380000Y-27420000D03*
X552500Y-25130000D03*
X5420000Y-22650000D03*
X-1540000Y-14860000D03*
X6340000Y-21720000D03*
%TO.N,Net-(U2-CC1)*%
X2280000Y-21970000D03*
%TO.N,Net-(U11-I{slash}O2-Pad3)*%
X2840000Y-26090000D03*
%TO.N,Net-(U11-I{slash}O1-Pad1)*%
X2770000Y-24280000D03*
%TO.N,Net-(U2-CC2)*%
X2250000Y-28100000D03*
%TO.N,+3V3*%
X8250000Y-43000000D03*
X14820000Y-43830000D03*
X19020000Y-31740000D03*
X7200000Y-1000000D03*
X21800000Y-22750000D03*
X6809094Y-2300000D03*
X1830000Y-9460000D03*
X7246512Y1510000D03*
X19250000Y-25250000D03*
X1250000Y-4800000D03*
X11200000Y-23900000D03*
X11550000Y-3050000D03*
X3800000Y-2900000D03*
X4850000Y-8750000D03*
X13600000Y-28050000D03*
X15000000Y-29550000D03*
%TO.N,LED*%
X15400000Y-14000000D03*
%TO.N,Net-(D10-A)*%
X-1850000Y-19320000D03*
%TO.N,VBAT*%
X7550000Y-29100000D03*
X8300000Y-13300000D03*
%TO.N,Net-(D10-K)*%
X9400000Y-27550000D03*
%TO.N,Net-(D8-K)*%
X9600000Y-22600000D03*
%TO.N,VCC*%
X2850000Y-16850000D03*
X2850000Y-17600000D03*
X50000Y-44200000D03*
X3550000Y-44200000D03*
X-2150000Y-41450000D03*
%TO.N,SPI_CS_LSM*%
X9800000Y-6050000D03*
X15450000Y-15000000D03*
%TO.N,IO9*%
X8500000Y-11900000D03*
X10694645Y-27996166D03*
%TO.N,BMP_INT*%
X4950000Y-10100000D03*
X8128249Y-11071751D03*
%TO.N,IO20*%
X16000000Y-17300000D03*
X18250000Y-12000000D03*
%TO.N,SPI_SCK*%
X4850000Y-3550000D03*
X15650000Y-28700000D03*
X8216722Y-5714555D03*
%TO.N,SPI_MOSI*%
X6500000Y-5500000D03*
X10400000Y-28800000D03*
%TO.N,SPI_MISO*%
X5900000Y-7000000D03*
X8850000Y-4400000D03*
X8850000Y-6550000D03*
X10800000Y-27150000D03*
%TO.N,SPI_CS_MS*%
X15700000Y-32350000D03*
X7150000Y-7850000D03*
%TO.N,IO21*%
X18300000Y-13000000D03*
X16700000Y-16750000D03*
%TO.N,Net-(Q2-D)*%
X7110000Y-43960000D03*
X4000000Y-47500000D03*
%TO.N,CHIP_PU*%
X15650000Y-31310000D03*
X18400000Y-15100000D03*
%TO.N,VBAT_MEAS*%
X18150000Y-32270000D03*
X11800000Y-8950000D03*
%TO.N,LSM_INT*%
X15350000Y-12000000D03*
X10250000Y-3800000D03*
%TD*%
%TO.N,Earth*%
D30*
X942000Y-18542000D02*
X950000Y-18550000D01*
X22200000Y-26300000D02*
X22250000Y-26250000D01*
X22250000Y-26250000D02*
X22250000Y-27300000D01*
X25500Y-18542000D02*
X942000Y-18542000D01*
%TO.N,Net-(SW1-C)*%
X11000000Y-8100000D02*
X13250000Y-5850000D01*
X10800000Y-8100000D02*
X11000000Y-8100000D01*
%TO.N,VBUS*%
D31*
X4405000Y-27450000D02*
X5350000Y-27450000D01*
X5350000Y-27450000D02*
X5380000Y-27420000D01*
D30*
X-1540000Y-14860000D02*
X3020000Y-14860000D01*
X3020000Y-14860000D02*
X5010000Y-16850000D01*
D31*
X4405000Y-22650000D02*
X5420000Y-22650000D01*
D30*
X5010000Y-16850000D02*
X5010000Y-19400000D01*
X5010000Y-19400000D02*
X6340000Y-20730000D01*
X6340000Y-20730000D02*
X6340000Y-21720000D01*
%TO.N,Net-(U2-CC1)*%
X3350000Y-23800000D02*
X4405000Y-23800000D01*
X2280000Y-22730000D02*
X3350000Y-23800000D01*
X2280000Y-21970000D02*
X2280000Y-22730000D01*
%TO.N,Net-(U11-I{slash}O2-Pad3)*%
X3612842Y-25917158D02*
X3557157Y-25972843D01*
X4405000Y-25800000D02*
X3895685Y-25800000D01*
X5400000Y-25400000D02*
X5400000Y-25200000D01*
X3274315Y-26090000D02*
X2840000Y-26090000D01*
X4405000Y-25800000D02*
X5000000Y-25800000D01*
X5000000Y-24800000D02*
X4405000Y-24800000D01*
X5400000Y-25200000D02*
G75*
G03*
X5000000Y-24800000I-400000J0D01*
G01*
X3274315Y-26090000D02*
G75*
G03*
X3557150Y-25972836I-15J400000D01*
G01*
X3895685Y-25800000D02*
G75*
G03*
X3612849Y-25917165I15J-400000D01*
G01*
X5400000Y-25400000D02*
G75*
G02*
X5000000Y-25800000I-400000J0D01*
G01*
%TO.N,Net-(U11-I{slash}O1-Pad1)*%
X2920000Y-24280000D02*
X2940000Y-24300000D01*
X4405000Y-25300000D02*
X3960000Y-25300000D01*
X4405000Y-24300000D02*
X3560000Y-24300000D01*
X2940000Y-24300000D02*
X3560000Y-24300000D01*
X2770000Y-24280000D02*
X2920000Y-24280000D01*
X3560000Y-24900000D02*
X3560000Y-24300000D01*
X3560000Y-24900000D02*
G75*
G03*
X3960000Y-25300000I400000J0D01*
G01*
%TO.N,Net-(U2-CC2)*%
X2250000Y-27300000D02*
X2250000Y-28100000D01*
X4405000Y-26800000D02*
X2750000Y-26800000D01*
X2750000Y-26800000D02*
X2250000Y-27300000D01*
%TO.N,Net-(D3-DOUT)*%
X10340000Y-43850000D02*
X11626200Y-43850000D01*
X9340001Y-44849999D02*
X10340000Y-43850000D01*
X8263800Y-44849999D02*
X9340001Y-44849999D01*
%TO.N,Net-(D2-DOUT)*%
X14013800Y-44849998D02*
X13719998Y-44849998D01*
X13310000Y-44440000D02*
X13310000Y-38138528D01*
X19670000Y-33270000D02*
X19670000Y-31990000D01*
X16148528Y-35300000D02*
X17640000Y-35300000D01*
X21410000Y-26409998D02*
X21250002Y-26250000D01*
X17640000Y-35300000D02*
X19670000Y-33270000D01*
X21250002Y-26313500D02*
X21250002Y-26250000D01*
X21410000Y-30250000D02*
X21410000Y-26409998D01*
X19670000Y-31990000D02*
X21410000Y-30250000D01*
X13719998Y-44849998D02*
X13310000Y-44440000D01*
X13310000Y-38138528D02*
X16148528Y-35300000D01*
%TO.N,+3V3*%
X8806200Y-999999D02*
X7200000Y-1000000D01*
X21750000Y-23250000D02*
X21250002Y-23749998D01*
X21250002Y-23749998D02*
X21250002Y-23862400D01*
X10700000Y-23400000D02*
X11200000Y-23900000D01*
X21750000Y-22800000D02*
X21750000Y-23250000D01*
X8263800Y-43850001D02*
X8263800Y-43013800D01*
X8243800Y-43006200D02*
X8250000Y-43000000D01*
X10425000Y-23400000D02*
X10700000Y-23400000D01*
X14800000Y-43850000D02*
X14820000Y-43830000D01*
X21800000Y-22750000D02*
X21750000Y-22800000D01*
X14013800Y-43850000D02*
X14800000Y-43850000D01*
X8263800Y-43013800D02*
X8250000Y-43000000D01*
%TO.N,Net-(D1-DOUT)*%
X14100000Y-6400000D02*
X15250000Y-7550000D01*
X19900000Y-7550000D02*
X20750000Y-8400000D01*
X20550000Y-22623471D02*
X19350000Y-21423471D01*
X10493799Y-1700000D02*
X6650000Y-1700000D01*
X21804802Y-24480700D02*
X20580700Y-24480700D01*
X20750000Y-14594974D02*
X20750000Y-8400000D01*
X11193800Y-999999D02*
X10493799Y-1700000D01*
X20550000Y-24450000D02*
X20550000Y-22623471D01*
X22250000Y-24035502D02*
X21804802Y-24480700D01*
X13294975Y1050000D02*
X14100000Y244975D01*
X19350000Y-21423471D02*
X19350000Y-15994974D01*
X22250000Y-23862400D02*
X22250000Y-23750000D01*
X15250000Y-7550000D02*
X19900000Y-7550000D01*
X6650000Y-1700000D02*
X6450000Y-1500000D01*
X6450000Y-400000D02*
X7900000Y1050000D01*
X22250000Y-23862400D02*
X22250000Y-24035502D01*
X14100000Y244975D02*
X14100000Y-6400000D01*
X20580700Y-24480700D02*
X20550000Y-24450000D01*
X19350000Y-15994974D02*
X20750000Y-14594974D01*
X6450000Y-1500000D02*
X6450000Y-400000D01*
X7900000Y1050000D02*
X13294975Y1050000D01*
%TO.N,LED*%
X16050000Y-13350000D02*
X15400000Y-14000000D01*
X13550000Y300000D02*
X13550000Y-4300000D01*
X13550000Y-4300000D02*
X10000000Y-7850000D01*
X15498529Y-11300000D02*
X16050000Y-11851471D01*
X16050000Y-11851471D02*
X16050000Y-13350000D01*
X10000000Y-7850000D02*
X10000000Y-8500000D01*
X8806200Y-1D02*
X9549999Y-1D01*
X13150000Y700000D02*
X13550000Y300000D01*
X9549999Y-1D02*
X10250000Y700000D01*
X10000000Y-8500000D02*
X12800000Y-11300000D01*
X12800000Y-11300000D02*
X15498529Y-11300000D01*
X10250000Y700000D02*
X13150000Y700000D01*
%TO.N,Net-(D10-A)*%
X-1850000Y-19320000D02*
X-1850000Y-31195500D01*
X-1850000Y-19320000D02*
X-1850000Y-18842500D01*
X-1850000Y-31195500D02*
X-1549500Y-31496000D01*
X-1549500Y-31496000D02*
X-1740000Y-31305500D01*
X-1850000Y-18842500D02*
X-1549500Y-18542000D01*
%TO.N,VBAT*%
D31*
X8300000Y-22350000D02*
X8300000Y-13300000D01*
X6700000Y-23950000D02*
X8300000Y-22350000D01*
X7550000Y-29100000D02*
X6700000Y-28250000D01*
X6700000Y-28250000D02*
X6700000Y-23950000D01*
%TO.N,Net-(D10-K)*%
D30*
X25500Y-31496000D02*
X7354000Y-31496000D01*
X7354000Y-31496000D02*
X9400000Y-29450000D01*
X9400000Y-29450000D02*
X9400000Y-27550000D01*
%TO.N,Net-(D8-K)*%
X8850000Y-23400000D02*
X8850000Y-23350000D01*
X8850000Y-23350000D02*
X9600000Y-22600000D01*
%TO.N,VCC*%
D32*
X2850000Y-17600000D02*
X2850000Y-16850000D01*
%TO.N,SPI_CS_LSM*%
D30*
X12200000Y-14050000D02*
X13150000Y-15000000D01*
X13150000Y-15000000D02*
X15450000Y-15000000D01*
X9800000Y-6750000D02*
X8800000Y-7750000D01*
X8800000Y-8750000D02*
X12200000Y-12150000D01*
X12200000Y-12150000D02*
X12200000Y-14050000D01*
X9800000Y-6050000D02*
X9800000Y-6750000D01*
X8800000Y-7750000D02*
X8800000Y-8750000D01*
%TO.N,IO9*%
X10694645Y-27996166D02*
X10200000Y-27501521D01*
X11800000Y-24148529D02*
X11800000Y-23600000D01*
X10200000Y-27501521D02*
X10200000Y-25748529D01*
X10200000Y-25748529D02*
X11800000Y-24148529D01*
X8900000Y-20700000D02*
X8900000Y-12300000D01*
X11800000Y-23600000D02*
X8900000Y-20700000D01*
X8900000Y-12300000D02*
X8500000Y-11900000D01*
%TO.N,BMP_INT*%
X8128249Y-11071751D02*
X5921751Y-11071751D01*
X5921751Y-11071751D02*
X4950000Y-10100000D01*
%TO.N,IO20*%
X16350000Y-13900000D02*
X18250000Y-12000000D01*
X16350000Y-14900000D02*
X16350000Y-13900000D01*
X16000000Y-17300000D02*
X16000000Y-15250000D01*
X16000000Y-15250000D02*
X16350000Y-14900000D01*
%TO.N,SPI_SCK*%
X8216722Y-5714555D02*
X8200000Y-5731277D01*
X13400000Y-22850000D02*
X13400000Y-26450000D01*
X11850000Y-21300000D02*
X13400000Y-22850000D01*
X8216722Y-5714555D02*
X8164555Y-5714555D01*
X8200000Y-8700002D02*
X11850000Y-12350002D01*
X8164555Y-5714555D02*
X6000000Y-3550000D01*
X6000000Y-3550000D02*
X4850000Y-3550000D01*
X13400000Y-26450000D02*
X15650000Y-28700000D01*
X11850000Y-12350002D02*
X11850000Y-21300000D01*
X8200000Y-5731277D02*
X8200000Y-8700002D01*
%TO.N,SPI_MOSI*%
X6500000Y-8099998D02*
X11100000Y-12700000D01*
X10739340Y-28800000D02*
X10400000Y-28800000D01*
X11100000Y-12700000D02*
X11100000Y-21750000D01*
X11100000Y-21750000D02*
X12550000Y-23200000D01*
X12550000Y-23200000D02*
X12550000Y-26989340D01*
X12550000Y-26989340D02*
X10739340Y-28800000D01*
X6500000Y-5500000D02*
X6500000Y-8099998D01*
%TO.N,SPI_MISO*%
X5900000Y-8000000D02*
X7499998Y-9599998D01*
X8850000Y-6550000D02*
X8850000Y-4400000D01*
X12150000Y-25948529D02*
X12150000Y-23294974D01*
X7499998Y-9599998D02*
X7505026Y-9599998D01*
X5900000Y-7000000D02*
X5900000Y-8000000D01*
X10948529Y-27150000D02*
X12150000Y-25948529D01*
X9265000Y-11359972D02*
X7505026Y-9599998D01*
X9265000Y-20409974D02*
X9265000Y-11359972D01*
X10800000Y-27150000D02*
X10948529Y-27150000D01*
X12150000Y-23294974D02*
X9265000Y-20409974D01*
%TO.N,SPI_CS_MS*%
X11500000Y-12550002D02*
X7150000Y-8200002D01*
X12900000Y-26500000D02*
X12900000Y-23000000D01*
X12900000Y-23000000D02*
X11500000Y-21600000D01*
X11500000Y-21600000D02*
X11500000Y-12550002D01*
X14400000Y-28000000D02*
X12900000Y-26500000D01*
X15700000Y-32350000D02*
X14400000Y-31050000D01*
X14400000Y-31050000D02*
X14400000Y-28000000D01*
X7150000Y-8200002D02*
X7150000Y-7850000D01*
%TO.N,IO21*%
X16700000Y-16750000D02*
X16700000Y-14600000D01*
X16700000Y-14600000D02*
X18300000Y-13000000D01*
%TO.N,Net-(Q2-D)*%
X6518529Y-46730000D02*
X7110000Y-46138529D01*
X4820000Y-46730000D02*
X6518529Y-46730000D01*
X4000000Y-47550000D02*
X4820000Y-46730000D01*
X7110000Y-46138529D02*
X7110000Y-43960000D01*
X4000000Y-47500000D02*
X4000000Y-47550000D01*
%TO.N,CHIP_PU*%
X16650000Y-30310000D02*
X16650000Y-26212743D01*
X17700000Y-15800000D02*
X18400000Y-15100000D01*
X17700000Y-25162743D02*
X17700000Y-15800000D01*
X15650000Y-31310000D02*
X16650000Y-30310000D01*
X16650000Y-26212743D02*
X17700000Y-25162743D01*
%TO.N,VBAT_MEAS*%
X18150000Y-25207717D02*
X18150000Y-16700000D01*
X19400000Y-8350000D02*
X13700000Y-8350000D01*
X20200000Y-9150000D02*
X19400000Y-8350000D01*
X20200000Y-14650000D02*
X20200000Y-9150000D01*
X17350000Y-30200000D02*
X17350000Y-26007717D01*
X18150000Y-16700000D02*
X20200000Y-14650000D01*
X17350000Y-26007717D02*
X18150000Y-25207717D01*
X18150000Y-32270000D02*
X18150000Y-31000000D01*
X13100000Y-8950000D02*
X11800000Y-8950000D01*
X13700000Y-8350000D02*
X13100000Y-8950000D01*
X18150000Y-31000000D02*
X17350000Y-30200000D01*
%TO.N,LSM_INT*%
X10250000Y-4700000D02*
X10550000Y-5000000D01*
X10550000Y-6600000D02*
X9500000Y-7650000D01*
X12650000Y-12000000D02*
X15350000Y-12000000D01*
X9500000Y-8850000D02*
X12650000Y-12000000D01*
X10550000Y-5000000D02*
X10550000Y-6600000D01*
X9500000Y-7650000D02*
X9500000Y-8850000D01*
X10250000Y-3800000D02*
X10250000Y-4700000D01*
%TD*%
%TA.AperFunction,Conductor*%
%TO.N,Earth*%
G36*
X18868834Y-16650073D02*
G01*
X18924767Y-16691945D01*
X18949184Y-16757409D01*
X18949500Y-16766255D01*
X18949500Y-21476197D01*
X18976793Y-21578060D01*
X19003155Y-21623719D01*
X19029520Y-21669384D01*
X19029522Y-21669386D01*
X20113181Y-22753045D01*
X20146666Y-22814368D01*
X20149500Y-22840726D01*
X20149500Y-24397273D01*
X20149500Y-24502727D01*
X20149975Y-24504499D01*
X20176793Y-24604589D01*
X20203156Y-24650250D01*
X20229520Y-24695913D01*
X20260219Y-24726612D01*
X20260220Y-24726613D01*
X20334787Y-24801180D01*
X20426113Y-24853907D01*
X20527973Y-24881200D01*
X20527975Y-24881200D01*
X21857527Y-24881200D01*
X21857529Y-24881200D01*
X21959390Y-24853907D01*
X22050715Y-24801180D01*
X22284377Y-24567516D01*
X22345698Y-24534033D01*
X22372057Y-24531199D01*
X22575500Y-24531199D01*
X22642539Y-24550884D01*
X22688294Y-24603688D01*
X22699500Y-24655199D01*
X22699500Y-35536000D01*
X22679815Y-35603039D01*
X22627011Y-35648794D01*
X22575500Y-35660000D01*
X19060000Y-35660000D01*
X19060000Y-42480000D01*
X22575500Y-42480000D01*
X22642539Y-42499685D01*
X22688294Y-42552489D01*
X22699500Y-42604000D01*
X22699500Y-49996519D01*
X22699305Y-50003472D01*
X22682916Y-50295296D01*
X22681359Y-50309114D01*
X22632984Y-50593827D01*
X22629890Y-50607384D01*
X22549939Y-50884899D01*
X22545346Y-50898024D01*
X22434830Y-51164834D01*
X22428797Y-51177362D01*
X22289100Y-51430124D01*
X22281702Y-51441898D01*
X22114580Y-51677435D01*
X22105909Y-51688307D01*
X21913473Y-51903641D01*
X21903641Y-51913473D01*
X21688307Y-52105909D01*
X21677435Y-52114580D01*
X21441898Y-52281702D01*
X21430124Y-52289100D01*
X21177362Y-52428797D01*
X21164834Y-52434830D01*
X20898024Y-52545346D01*
X20884899Y-52549939D01*
X20607384Y-52629890D01*
X20593827Y-52632984D01*
X20309114Y-52681359D01*
X20295296Y-52682916D01*
X20003472Y-52699305D01*
X19996519Y-52699500D01*
X3481Y-52699500D01*
X-3472Y-52699305D01*
X-295296Y-52682916D01*
X-309114Y-52681359D01*
X-593827Y-52632984D01*
X-607384Y-52629890D01*
X-884899Y-52549939D01*
X-898024Y-52545346D01*
X-1164834Y-52434830D01*
X-1177362Y-52428797D01*
X-1430124Y-52289100D01*
X-1441898Y-52281702D01*
X-1677435Y-52114580D01*
X-1688307Y-52105909D01*
X-1903641Y-51913473D01*
X-1913473Y-51903641D01*
X-2105909Y-51688307D01*
X-2114580Y-51677435D01*
X-2281702Y-51441898D01*
X-2289100Y-51430124D01*
X-2428797Y-51177362D01*
X-2434830Y-51164834D01*
X-2545346Y-50898024D01*
X-2549939Y-50884899D01*
X-2629890Y-50607384D01*
X-2632984Y-50593827D01*
X-2681359Y-50309114D01*
X-2682916Y-50295296D01*
X-2699305Y-50003472D01*
X-2699500Y-49996519D01*
X-2699500Y-47564071D01*
X3349499Y-47564071D01*
X3374497Y-47689738D01*
X3374499Y-47689744D01*
X3423533Y-47808124D01*
X3423538Y-47808133D01*
X3494723Y-47914668D01*
X3494726Y-47914672D01*
X3585327Y-48005273D01*
X3585331Y-48005276D01*
X3691866Y-48076461D01*
X3691872Y-48076464D01*
X3691873Y-48076465D01*
X3810256Y-48125501D01*
X3810260Y-48125501D01*
X3810261Y-48125502D01*
X3935928Y-48150500D01*
X3935931Y-48150500D01*
X4064071Y-48150500D01*
X4148615Y-48133682D01*
X4189744Y-48125501D01*
X4308127Y-48076465D01*
X4367340Y-48036900D01*
X4969500Y-48036900D01*
X4969500Y-50023091D01*
X4980123Y-50111562D01*
X5035639Y-50252342D01*
X5035640Y-50252344D01*
X5127077Y-50372922D01*
X5189908Y-50420568D01*
X5247658Y-50464361D01*
X5388436Y-50519876D01*
X5476901Y-50530500D01*
X7463098Y-50530499D01*
X7551564Y-50519876D01*
X7692342Y-50464361D01*
X7812922Y-50372922D01*
X7904361Y-50252342D01*
X7959876Y-50111564D01*
X7970500Y-50023099D01*
X7970499Y-48911902D01*
X11969500Y-48911902D01*
X11969500Y-49148097D01*
X12006446Y-49381368D01*
X12079433Y-49605996D01*
X12186657Y-49816433D01*
X12325483Y-50007510D01*
X12492490Y-50174517D01*
X12683567Y-50313343D01*
X12782991Y-50364002D01*
X12894003Y-50420566D01*
X12894005Y-50420566D01*
X12894008Y-50420568D01*
X13014412Y-50459689D01*
X13118631Y-50493553D01*
X13351903Y-50530500D01*
X13351908Y-50530500D01*
X13588097Y-50530500D01*
X13821368Y-50493553D01*
X13911211Y-50464361D01*
X14045992Y-50420568D01*
X14256433Y-50313343D01*
X14447510Y-50174517D01*
X14614517Y-50007510D01*
X14753343Y-49816433D01*
X14860568Y-49605992D01*
X14933553Y-49381368D01*
X14970500Y-49148097D01*
X14970500Y-48911902D01*
X14933553Y-48678631D01*
X14860566Y-48454003D01*
X14753342Y-48243566D01*
X14614517Y-48052490D01*
X14447510Y-47885483D01*
X14256433Y-47746657D01*
X14045996Y-47639433D01*
X13821368Y-47566446D01*
X13588097Y-47529500D01*
X13588092Y-47529500D01*
X13351908Y-47529500D01*
X13351903Y-47529500D01*
X13118631Y-47566446D01*
X12894003Y-47639433D01*
X12683566Y-47746657D01*
X12598965Y-47808124D01*
X12492490Y-47885483D01*
X12492488Y-47885485D01*
X12492487Y-47885485D01*
X12325485Y-48052487D01*
X12325485Y-48052488D01*
X12325483Y-48052490D01*
X12272438Y-48125500D01*
X12186657Y-48243566D01*
X12079433Y-48454003D01*
X12006446Y-48678631D01*
X11969500Y-48911902D01*
X7970499Y-48911902D01*
X7970499Y-48036902D01*
X7959876Y-47948436D01*
X7904361Y-47807658D01*
X7904359Y-47807655D01*
X7812922Y-47687077D01*
X7692344Y-47595640D01*
X7692342Y-47595639D01*
X7551564Y-47540124D01*
X7551561Y-47540123D01*
X7463099Y-47529500D01*
X5476908Y-47529500D01*
X5388437Y-47540123D01*
X5247657Y-47595639D01*
X5247655Y-47595640D01*
X5127077Y-47687077D01*
X5035640Y-47807655D01*
X5035639Y-47807658D01*
X4981277Y-47945514D01*
X4980124Y-47948437D01*
X4980123Y-47948438D01*
X4969500Y-48036900D01*
X4367340Y-48036900D01*
X4414669Y-48005276D01*
X4414672Y-48005273D01*
X4474432Y-47945514D01*
X4505273Y-47914672D01*
X4505276Y-47914669D01*
X4576465Y-47808127D01*
X4625501Y-47689744D01*
X4650027Y-47566447D01*
X4650500Y-47564071D01*
X4650500Y-47517255D01*
X4670185Y-47450216D01*
X4686819Y-47429574D01*
X4949574Y-47166819D01*
X5010897Y-47133334D01*
X5037255Y-47130500D01*
X6571254Y-47130500D01*
X6571256Y-47130500D01*
X6673117Y-47103207D01*
X6764442Y-47050480D01*
X7430480Y-46384442D01*
X7446443Y-46356793D01*
X7483207Y-46293116D01*
X7510500Y-46191256D01*
X7510500Y-45494132D01*
X7530185Y-45427093D01*
X7582989Y-45381338D01*
X7652147Y-45371394D01*
X7715703Y-45400419D01*
X7722181Y-45406451D01*
X7722735Y-45407005D01*
X7825509Y-45452384D01*
X7850635Y-45455299D01*
X8676964Y-45455298D01*
X8676979Y-45455296D01*
X8676982Y-45455296D01*
X8702087Y-45452385D01*
X8702088Y-45452384D01*
X8702091Y-45452384D01*
X8804865Y-45407005D01*
X8884306Y-45327564D01*
X8885696Y-45324414D01*
X8889754Y-45319610D01*
X8890802Y-45318081D01*
X8890956Y-45318186D01*
X8930781Y-45271038D01*
X8997567Y-45250509D01*
X8999132Y-45250499D01*
X9392726Y-45250499D01*
X9392728Y-45250499D01*
X9494589Y-45223206D01*
X9585914Y-45170479D01*
X10469574Y-44286819D01*
X10530897Y-44253334D01*
X10557255Y-44250500D01*
X10890868Y-44250500D01*
X10957907Y-44270185D01*
X11003662Y-44322989D01*
X11004282Y-44324368D01*
X11005694Y-44327565D01*
X11085135Y-44407006D01*
X11187909Y-44452385D01*
X11213035Y-44455300D01*
X12039364Y-44455299D01*
X12039379Y-44455297D01*
X12039382Y-44455297D01*
X12064487Y-44452386D01*
X12064488Y-44452385D01*
X12064491Y-44452385D01*
X12167265Y-44407006D01*
X12246706Y-44327565D01*
X12292085Y-44224791D01*
X12295000Y-44199665D01*
X12294999Y-43500336D01*
X12294997Y-43500317D01*
X12292086Y-43475212D01*
X12292085Y-43475210D01*
X12292085Y-43475209D01*
X12246706Y-43372435D01*
X12167265Y-43292994D01*
X12167263Y-43292993D01*
X12064492Y-43247615D01*
X12039365Y-43244700D01*
X11213043Y-43244700D01*
X11213017Y-43244702D01*
X11187912Y-43247613D01*
X11187908Y-43247615D01*
X11085135Y-43292993D01*
X11005695Y-43372433D01*
X11005694Y-43372435D01*
X11004304Y-43375584D01*
X11000245Y-43380388D01*
X10999198Y-43381918D01*
X10999043Y-43381812D01*
X10959219Y-43428961D01*
X10892433Y-43449490D01*
X10890868Y-43449500D01*
X10287273Y-43449500D01*
X10185410Y-43476793D01*
X10094087Y-43529520D01*
X10094084Y-43529522D01*
X9210427Y-44413180D01*
X9149104Y-44446665D01*
X9122746Y-44449499D01*
X9020768Y-44449499D01*
X8953729Y-44429814D01*
X8907974Y-44377010D01*
X8898030Y-44307852D01*
X8907334Y-44275412D01*
X8912343Y-44264069D01*
X8929685Y-44224792D01*
X8932600Y-44199666D01*
X8932599Y-43500337D01*
X8932597Y-43500317D01*
X8929686Y-43475213D01*
X8929685Y-43475211D01*
X8929685Y-43475210D01*
X8884306Y-43372436D01*
X8883157Y-43371287D01*
X8881735Y-43368683D01*
X8877812Y-43362956D01*
X8878391Y-43362559D01*
X8849672Y-43309964D01*
X8854656Y-43240272D01*
X8856255Y-43236205D01*
X8875501Y-43189744D01*
X8900500Y-43064069D01*
X8900500Y-42935931D01*
X8900500Y-42935928D01*
X8875502Y-42810261D01*
X8875501Y-42810260D01*
X8875501Y-42810256D01*
X8826465Y-42691873D01*
X8826464Y-42691872D01*
X8826461Y-42691866D01*
X8755276Y-42585331D01*
X8755273Y-42585327D01*
X8664672Y-42494726D01*
X8664668Y-42494723D01*
X8558133Y-42423538D01*
X8558124Y-42423533D01*
X8439744Y-42374499D01*
X8439738Y-42374497D01*
X8314071Y-42349500D01*
X8314069Y-42349500D01*
X8185931Y-42349500D01*
X8185929Y-42349500D01*
X8060261Y-42374497D01*
X8060255Y-42374499D01*
X7941875Y-42423533D01*
X7941866Y-42423538D01*
X7835331Y-42494723D01*
X7835327Y-42494726D01*
X7744726Y-42585327D01*
X7744723Y-42585331D01*
X7673538Y-42691866D01*
X7673533Y-42691875D01*
X7624499Y-42810255D01*
X7624497Y-42810261D01*
X7599500Y-42935928D01*
X7599500Y-42935931D01*
X7599500Y-43064069D01*
X7599500Y-43064071D01*
X7599499Y-43064071D01*
X7624497Y-43189738D01*
X7624498Y-43189740D01*
X7624499Y-43189744D01*
X7650923Y-43253538D01*
X7653022Y-43258604D01*
X7660491Y-43328074D01*
X7646653Y-43361785D01*
X7647776Y-43362285D01*
X7647666Y-43362532D01*
X7645114Y-43365532D01*
X7640767Y-43376125D01*
X7636807Y-43381907D01*
X7633259Y-43379477D01*
X7602411Y-43415765D01*
X7535560Y-43436080D01*
X7468338Y-43417029D01*
X7465500Y-43415188D01*
X7418133Y-43383538D01*
X7418124Y-43383533D01*
X7299744Y-43334499D01*
X7299738Y-43334497D01*
X7174071Y-43309500D01*
X7174069Y-43309500D01*
X7045931Y-43309500D01*
X7045929Y-43309500D01*
X6920261Y-43334497D01*
X6920255Y-43334499D01*
X6801875Y-43383533D01*
X6801861Y-43383541D01*
X6692723Y-43456465D01*
X6626046Y-43477343D01*
X6558666Y-43458858D01*
X6511976Y-43406879D01*
X6510425Y-43403507D01*
X6496706Y-43372436D01*
X6417265Y-43292995D01*
X6417260Y-43292993D01*
X6314492Y-43247616D01*
X6289365Y-43244701D01*
X5463043Y-43244701D01*
X5463017Y-43244703D01*
X5437912Y-43247614D01*
X5437908Y-43247616D01*
X5335135Y-43292994D01*
X5255694Y-43372435D01*
X5210315Y-43475207D01*
X5210315Y-43475209D01*
X5207400Y-43500332D01*
X5207400Y-44199657D01*
X5207402Y-44199683D01*
X5210313Y-44224788D01*
X5210315Y-44224792D01*
X5255693Y-44327565D01*
X5255694Y-44327566D01*
X5335135Y-44407007D01*
X5437909Y-44452386D01*
X5463035Y-44455301D01*
X6289364Y-44455300D01*
X6289379Y-44455298D01*
X6289382Y-44455298D01*
X6314487Y-44452387D01*
X6314488Y-44452386D01*
X6314491Y-44452386D01*
X6417265Y-44407007D01*
X6439484Y-44384787D01*
X6500803Y-44351304D01*
X6570495Y-44356288D01*
X6614844Y-44384789D01*
X6673181Y-44443126D01*
X6706666Y-44504449D01*
X6709500Y-44530807D01*
X6709500Y-45921274D01*
X6689815Y-45988313D01*
X6673181Y-46008955D01*
X6388955Y-46293181D01*
X6327632Y-46326666D01*
X6301274Y-46329500D01*
X4767273Y-46329500D01*
X4665410Y-46356793D01*
X4574087Y-46409520D01*
X4574084Y-46409522D01*
X4169297Y-46814309D01*
X4107974Y-46847794D01*
X4069464Y-46850031D01*
X4064072Y-46849500D01*
X4064069Y-46849500D01*
X3935931Y-46849500D01*
X3935929Y-46849500D01*
X3810261Y-46874497D01*
X3810255Y-46874499D01*
X3691875Y-46923533D01*
X3691866Y-46923538D01*
X3585331Y-46994723D01*
X3585327Y-46994726D01*
X3494726Y-47085327D01*
X3494723Y-47085331D01*
X3423538Y-47191866D01*
X3423533Y-47191875D01*
X3374499Y-47310255D01*
X3374497Y-47310261D01*
X3349500Y-47435928D01*
X3349500Y-47435931D01*
X3349500Y-47564069D01*
X3349500Y-47564071D01*
X3349499Y-47564071D01*
X-2699500Y-47564071D01*
X-2699500Y-44135928D01*
X-600500Y-44135928D01*
X-600500Y-44264071D01*
X-598244Y-44275412D01*
X-575501Y-44389744D01*
X-526465Y-44508127D01*
X-455276Y-44614669D01*
X-364669Y-44705276D01*
X-258127Y-44776465D01*
X-139744Y-44825501D01*
X-98615Y-44833682D01*
X-14071Y-44850500D01*
X-14069Y-44850500D01*
X114071Y-44850500D01*
X198615Y-44833682D01*
X239744Y-44825501D01*
X358127Y-44776465D01*
X464669Y-44705276D01*
X555276Y-44614669D01*
X626465Y-44508127D01*
X675501Y-44389744D01*
X698244Y-44275412D01*
X700500Y-44264071D01*
X2899499Y-44264071D01*
X2924497Y-44389738D01*
X2924499Y-44389744D01*
X2973533Y-44508124D01*
X2973538Y-44508133D01*
X3044723Y-44614668D01*
X3044726Y-44614672D01*
X3135327Y-44705273D01*
X3135331Y-44705276D01*
X3241866Y-44776461D01*
X3241872Y-44776464D01*
X3241873Y-44776465D01*
X3360256Y-44825501D01*
X3360260Y-44825501D01*
X3360261Y-44825502D01*
X3485928Y-44850500D01*
X3485931Y-44850500D01*
X3614071Y-44850500D01*
X3698615Y-44833682D01*
X3739744Y-44825501D01*
X3858127Y-44776465D01*
X3964669Y-44705276D01*
X4055276Y-44614669D01*
X4126465Y-44508127D01*
X4175501Y-44389744D01*
X4198244Y-44275412D01*
X4200500Y-44264071D01*
X4200500Y-44135928D01*
X4175502Y-44010261D01*
X4175501Y-44010260D01*
X4175501Y-44010256D01*
X4137574Y-43918692D01*
X4126466Y-43891875D01*
X4126461Y-43891866D01*
X4055276Y-43785331D01*
X4055273Y-43785327D01*
X3964672Y-43694726D01*
X3964668Y-43694723D01*
X3858133Y-43623538D01*
X3858124Y-43623533D01*
X3739744Y-43574499D01*
X3739738Y-43574497D01*
X3614071Y-43549500D01*
X3614069Y-43549500D01*
X3485931Y-43549500D01*
X3485929Y-43549500D01*
X3360261Y-43574497D01*
X3360255Y-43574499D01*
X3241875Y-43623533D01*
X3241866Y-43623538D01*
X3135331Y-43694723D01*
X3135327Y-43694726D01*
X3044726Y-43785327D01*
X3044723Y-43785331D01*
X2973538Y-43891866D01*
X2973533Y-43891875D01*
X2924499Y-44010255D01*
X2924497Y-44010261D01*
X2899500Y-44135928D01*
X2899500Y-44135931D01*
X2899500Y-44264069D01*
X2899500Y-44264071D01*
X2899499Y-44264071D01*
X700500Y-44264071D01*
X700500Y-44135928D01*
X675502Y-44010261D01*
X675501Y-44010260D01*
X675501Y-44010256D01*
X637574Y-43918692D01*
X626466Y-43891875D01*
X626461Y-43891866D01*
X555276Y-43785331D01*
X555273Y-43785327D01*
X464672Y-43694726D01*
X464668Y-43694723D01*
X358133Y-43623538D01*
X358124Y-43623533D01*
X239744Y-43574499D01*
X239738Y-43574497D01*
X114071Y-43549500D01*
X114069Y-43549500D01*
X-14069Y-43549500D01*
X-14071Y-43549500D01*
X-139738Y-43574497D01*
X-139744Y-43574499D01*
X-258124Y-43623533D01*
X-258133Y-43623538D01*
X-364668Y-43694723D01*
X-364672Y-43694726D01*
X-455273Y-43785327D01*
X-455276Y-43785331D01*
X-526461Y-43891866D01*
X-526466Y-43891875D01*
X-537574Y-43918692D01*
X-575501Y-44010256D01*
X-575501Y-44010260D01*
X-575502Y-44010261D01*
X-600500Y-44135928D01*
X-2699500Y-44135928D01*
X-2699500Y-42097172D01*
X-2679815Y-42030133D01*
X-2627011Y-41984378D01*
X-2557853Y-41974434D01*
X-2506608Y-41994071D01*
X-2458135Y-42026460D01*
X-2458132Y-42026461D01*
X-2458127Y-42026465D01*
X-2339744Y-42075501D01*
X-2298615Y-42083682D01*
X-2214071Y-42100500D01*
X-2214069Y-42100500D01*
X-2085928Y-42100500D01*
X-1960261Y-42075502D01*
X-1960260Y-42075501D01*
X-1960256Y-42075501D01*
X-1841873Y-42026465D01*
X-1841872Y-42026464D01*
X-1841866Y-42026461D01*
X-1735331Y-41955276D01*
X-1735327Y-41955273D01*
X-1644726Y-41864672D01*
X-1644723Y-41864668D01*
X-1573538Y-41758133D01*
X-1573533Y-41758124D01*
X-1524499Y-41639744D01*
X-1524497Y-41639738D01*
X-1499500Y-41514071D01*
X-1499500Y-41385928D01*
X-1499499Y-41385928D01*
X-1524497Y-41260261D01*
X-1524499Y-41260255D01*
X-1573533Y-41141875D01*
X-1573538Y-41141866D01*
X-1644723Y-41035331D01*
X-1644726Y-41035327D01*
X-1735327Y-40944726D01*
X-1735331Y-40944723D01*
X-1841866Y-40873538D01*
X-1841875Y-40873533D01*
X-1960255Y-40824499D01*
X-1960261Y-40824497D01*
X-2085929Y-40799500D01*
X-2085931Y-40799500D01*
X-2214069Y-40799500D01*
X-2214071Y-40799500D01*
X-2339738Y-40824497D01*
X-2339744Y-40824499D01*
X-2458124Y-40873533D01*
X-2458133Y-40873538D01*
X-2506609Y-40905929D01*
X-2573287Y-40926807D01*
X-2640667Y-40908322D01*
X-2687357Y-40856344D01*
X-2699500Y-40802827D01*
X-2699500Y-40343389D01*
X3829500Y-40343389D01*
X3829500Y-40516610D01*
X3856597Y-40687697D01*
X3910128Y-40852447D01*
X3948016Y-40926807D01*
X3988768Y-41006788D01*
X4090586Y-41146928D01*
X4213072Y-41269414D01*
X4353212Y-41371232D01*
X4507555Y-41449873D01*
X4672299Y-41503402D01*
X4843389Y-41530500D01*
X4843390Y-41530500D01*
X5016610Y-41530500D01*
X5016611Y-41530500D01*
X5187701Y-41503402D01*
X5352445Y-41449873D01*
X5506788Y-41371232D01*
X5646928Y-41269414D01*
X5769414Y-41146928D01*
X5871232Y-41006788D01*
X5949873Y-40852445D01*
X6003402Y-40687701D01*
X6030500Y-40516611D01*
X6030500Y-40343389D01*
X6003402Y-40172299D01*
X5949873Y-40007555D01*
X5871232Y-39853212D01*
X5769414Y-39713072D01*
X5646928Y-39590586D01*
X5506788Y-39488768D01*
X5352445Y-39410127D01*
X5187701Y-39356598D01*
X5187699Y-39356597D01*
X5187698Y-39356597D01*
X5056271Y-39335781D01*
X5016611Y-39329500D01*
X4843389Y-39329500D01*
X4803728Y-39335781D01*
X4672302Y-39356597D01*
X4507552Y-39410128D01*
X4353211Y-39488768D01*
X4273256Y-39546859D01*
X4213072Y-39590586D01*
X4213070Y-39590588D01*
X4213069Y-39590588D01*
X4090588Y-39713069D01*
X4090588Y-39713070D01*
X4090586Y-39713072D01*
X4046859Y-39773256D01*
X3988768Y-39853211D01*
X3910128Y-40007552D01*
X3856597Y-40172302D01*
X3829500Y-40343389D01*
X-2699500Y-40343389D01*
X-2699500Y-34585131D01*
X3829500Y-34585131D01*
X3829500Y-36274856D01*
X3829502Y-36274882D01*
X3832413Y-36299987D01*
X3832415Y-36299991D01*
X3877793Y-36402764D01*
X3877794Y-36402765D01*
X3957235Y-36482206D01*
X4060009Y-36527585D01*
X4085135Y-36530500D01*
X5774864Y-36530499D01*
X5774879Y-36530497D01*
X5774882Y-36530497D01*
X5799987Y-36527586D01*
X5799988Y-36527585D01*
X5799991Y-36527585D01*
X5902765Y-36482206D01*
X5982206Y-36402765D01*
X6027585Y-36299991D01*
X6030500Y-36274865D01*
X6030499Y-34585136D01*
X6030497Y-34585117D01*
X6027586Y-34560012D01*
X6027585Y-34560010D01*
X6027585Y-34560009D01*
X5982206Y-34457235D01*
X5902765Y-34377794D01*
X5902763Y-34377793D01*
X5799992Y-34332415D01*
X5774865Y-34329500D01*
X4085143Y-34329500D01*
X4085117Y-34329502D01*
X4060012Y-34332413D01*
X4060008Y-34332415D01*
X3957235Y-34377793D01*
X3877794Y-34457234D01*
X3832415Y-34560006D01*
X3832415Y-34560008D01*
X3829500Y-34585131D01*
X-2699500Y-34585131D01*
X-2699500Y-32296530D01*
X11949500Y-32296530D01*
X11949500Y-33503469D01*
X11989868Y-33706412D01*
X11989870Y-33706420D01*
X12069058Y-33897596D01*
X12184024Y-34069657D01*
X12330342Y-34215975D01*
X12330345Y-34215977D01*
X12502402Y-34330941D01*
X12693580Y-34410130D01*
X12896530Y-34450499D01*
X12896534Y-34450500D01*
X12896535Y-34450500D01*
X13103466Y-34450500D01*
X13103467Y-34450499D01*
X13306420Y-34410130D01*
X13497598Y-34330941D01*
X13669655Y-34215977D01*
X13815977Y-34069655D01*
X13930941Y-33897598D01*
X14010130Y-33706420D01*
X14050500Y-33503465D01*
X14050500Y-32296535D01*
X14010130Y-32093580D01*
X13930941Y-31902402D01*
X13815977Y-31730345D01*
X13815975Y-31730342D01*
X13669657Y-31584024D01*
X13583626Y-31526541D01*
X13497598Y-31469059D01*
X13306420Y-31389870D01*
X13306412Y-31389868D01*
X13103469Y-31349500D01*
X13103465Y-31349500D01*
X12896535Y-31349500D01*
X12896530Y-31349500D01*
X12693587Y-31389868D01*
X12693579Y-31389870D01*
X12502403Y-31469058D01*
X12330342Y-31584024D01*
X12184024Y-31730342D01*
X12069058Y-31902403D01*
X11989870Y-32093579D01*
X11989868Y-32093587D01*
X11949500Y-32296530D01*
X-2699500Y-32296530D01*
X-2699500Y-19592352D01*
X-2679815Y-19525313D01*
X-2627011Y-19479558D01*
X-2557853Y-19469614D01*
X-2494297Y-19498639D01*
X-2460938Y-19544900D01*
X-2426465Y-19628127D01*
X-2355276Y-19734669D01*
X-2286817Y-19803127D01*
X-2253334Y-19864448D01*
X-2250500Y-19890807D01*
X-2250500Y-31023672D01*
X-2259145Y-31069161D01*
X-2277479Y-31115654D01*
X-2277479Y-31115655D01*
X-2286923Y-31194297D01*
X-2287500Y-31199098D01*
X-2287500Y-31792902D01*
X-2277479Y-31876346D01*
X-2225115Y-32009132D01*
X-2138867Y-32122867D01*
X-2025132Y-32209115D01*
X-1892346Y-32261479D01*
X-1808902Y-32271500D01*
X-1290098Y-32271500D01*
X-1206654Y-32261479D01*
X-1073868Y-32209115D01*
X-1009444Y-32160261D01*
X-960132Y-32122867D01*
X-873886Y-32009134D01*
X-870088Y-32002378D01*
X-820075Y-31953589D01*
X-751624Y-31939583D01*
X-686466Y-31964808D01*
X-653912Y-32002378D01*
X-650117Y-32009126D01*
X-650115Y-32009132D01*
X-563867Y-32122867D01*
X-450132Y-32209115D01*
X-317346Y-32261479D01*
X-233902Y-32271500D01*
X284902Y-32271500D01*
X368346Y-32261479D01*
X501132Y-32209115D01*
X614867Y-32122867D01*
X701115Y-32009132D01*
X714570Y-31975009D01*
X757476Y-31919867D01*
X823383Y-31896673D01*
X829925Y-31896500D01*
X7406725Y-31896500D01*
X7406727Y-31896500D01*
X7508588Y-31869207D01*
X7599913Y-31816480D01*
X9720480Y-29695913D01*
X9773207Y-29604588D01*
X9800500Y-29502727D01*
X9800500Y-29413763D01*
X9820185Y-29346724D01*
X9872989Y-29300969D01*
X9942147Y-29291025D01*
X9993389Y-29310660D01*
X10091873Y-29376465D01*
X10210256Y-29425501D01*
X10210260Y-29425501D01*
X10210261Y-29425502D01*
X10335928Y-29450500D01*
X10335931Y-29450500D01*
X10464071Y-29450500D01*
X10548615Y-29433682D01*
X10589744Y-29425501D01*
X10708127Y-29376465D01*
X10814669Y-29305276D01*
X10905276Y-29214669D01*
X10941446Y-29160536D01*
X10978856Y-29125501D01*
X10978802Y-29125430D01*
X10979526Y-29124874D01*
X10982555Y-29122037D01*
X10985253Y-29120480D01*
X12870480Y-27235253D01*
X12870484Y-27235245D01*
X12870530Y-27235187D01*
X12870589Y-27235143D01*
X12876227Y-27229506D01*
X12877105Y-27230384D01*
X12926955Y-27193980D01*
X12996700Y-27189820D01*
X13056592Y-27222985D01*
X13194593Y-27360986D01*
X13228078Y-27422309D01*
X13223094Y-27492001D01*
X13188983Y-27539761D01*
X13189638Y-27540416D01*
X13185712Y-27544341D01*
X13185595Y-27544506D01*
X13185332Y-27544721D01*
X13094726Y-27635327D01*
X13094723Y-27635331D01*
X13023538Y-27741866D01*
X13023533Y-27741875D01*
X12974499Y-27860255D01*
X12974497Y-27860261D01*
X12949500Y-27985928D01*
X12949500Y-27985931D01*
X12949500Y-28114069D01*
X12949500Y-28114071D01*
X12949499Y-28114071D01*
X12974497Y-28239738D01*
X12974499Y-28239744D01*
X13023533Y-28358124D01*
X13023538Y-28358133D01*
X13094723Y-28464668D01*
X13094726Y-28464672D01*
X13185327Y-28555273D01*
X13185331Y-28555276D01*
X13291866Y-28626461D01*
X13291872Y-28626464D01*
X13291873Y-28626465D01*
X13410256Y-28675501D01*
X13410260Y-28675501D01*
X13410261Y-28675502D01*
X13535928Y-28700500D01*
X13535931Y-28700500D01*
X13664071Y-28700500D01*
X13749828Y-28683441D01*
X13789744Y-28675501D01*
X13828048Y-28659634D01*
X13897516Y-28652166D01*
X13959996Y-28683441D01*
X13995648Y-28743530D01*
X13999500Y-28774196D01*
X13999500Y-30997273D01*
X13999500Y-31102727D01*
X14008295Y-31135552D01*
X14026793Y-31204589D01*
X14044192Y-31234724D01*
X14079520Y-31295913D01*
X14079522Y-31295915D01*
X15013181Y-32229574D01*
X15046666Y-32290897D01*
X15049500Y-32317255D01*
X15049500Y-32414069D01*
X15049500Y-32414071D01*
X15049499Y-32414071D01*
X15074497Y-32539738D01*
X15074499Y-32539744D01*
X15123533Y-32658124D01*
X15123538Y-32658133D01*
X15194723Y-32764668D01*
X15194726Y-32764672D01*
X15285327Y-32855273D01*
X15285331Y-32855276D01*
X15391866Y-32926461D01*
X15391872Y-32926464D01*
X15391873Y-32926465D01*
X15510256Y-32975501D01*
X15510260Y-32975501D01*
X15510261Y-32975502D01*
X15635928Y-33000500D01*
X15635931Y-33000500D01*
X15764071Y-33000500D01*
X15848615Y-32983682D01*
X15889744Y-32975501D01*
X16008127Y-32926465D01*
X16114669Y-32855276D01*
X16205276Y-32764669D01*
X16276465Y-32658127D01*
X16325501Y-32539744D01*
X16333791Y-32498069D01*
X16350500Y-32414071D01*
X16350500Y-32285928D01*
X16325502Y-32160261D01*
X16325501Y-32160260D01*
X16325501Y-32160256D01*
X16276465Y-32041873D01*
X16276464Y-32041872D01*
X16276461Y-32041866D01*
X16205276Y-31935331D01*
X16205273Y-31935327D01*
X16162326Y-31892380D01*
X16128841Y-31831057D01*
X16133825Y-31761365D01*
X16151991Y-31729800D01*
X16151892Y-31729734D01*
X16152887Y-31728244D01*
X16154171Y-31726014D01*
X16155266Y-31724678D01*
X16155276Y-31724669D01*
X16226465Y-31618127D01*
X16275501Y-31499744D01*
X16297357Y-31389870D01*
X16300500Y-31374071D01*
X16300500Y-31277253D01*
X16320185Y-31210214D01*
X16336815Y-31189576D01*
X16885703Y-30640687D01*
X16885708Y-30640684D01*
X16895911Y-30630480D01*
X16895913Y-30630480D01*
X16967319Y-30559074D01*
X17028642Y-30525589D01*
X17098334Y-30530573D01*
X17142681Y-30559074D01*
X17713181Y-31129574D01*
X17746666Y-31190897D01*
X17749500Y-31217255D01*
X17749500Y-31699192D01*
X17729815Y-31766231D01*
X17713181Y-31786873D01*
X17644726Y-31855327D01*
X17644723Y-31855331D01*
X17573538Y-31961866D01*
X17573533Y-31961875D01*
X17524499Y-32080255D01*
X17524497Y-32080261D01*
X17499500Y-32205928D01*
X17499500Y-32205931D01*
X17499500Y-32334069D01*
X17499500Y-32334071D01*
X17499499Y-32334071D01*
X17524497Y-32459738D01*
X17524499Y-32459744D01*
X17573533Y-32578124D01*
X17573538Y-32578133D01*
X17644723Y-32684668D01*
X17644726Y-32684672D01*
X17735327Y-32775273D01*
X17735331Y-32775276D01*
X17841866Y-32846461D01*
X17841875Y-32846466D01*
X17868692Y-32857574D01*
X17960256Y-32895501D01*
X17960260Y-32895501D01*
X17960261Y-32895502D01*
X18085928Y-32920500D01*
X18085931Y-32920500D01*
X18214071Y-32920500D01*
X18298615Y-32903682D01*
X18339744Y-32895501D01*
X18458127Y-32846465D01*
X18564669Y-32775276D01*
X18655276Y-32684669D01*
X18726465Y-32578127D01*
X18775501Y-32459744D01*
X18775501Y-32459741D01*
X18776790Y-32456631D01*
X18820630Y-32402227D01*
X18886924Y-32380162D01*
X18915541Y-32382465D01*
X18939989Y-32387328D01*
X18955930Y-32390500D01*
X18955931Y-32390500D01*
X19084069Y-32390500D01*
X19121309Y-32383092D01*
X19190897Y-32389318D01*
X19246076Y-32432180D01*
X19269322Y-32498069D01*
X19269500Y-32504709D01*
X19269500Y-33052745D01*
X19249815Y-33119784D01*
X19233181Y-33140426D01*
X17510426Y-34863181D01*
X17449103Y-34896666D01*
X17422745Y-34899500D01*
X16095801Y-34899500D01*
X15993938Y-34926793D01*
X15902615Y-34979520D01*
X15902612Y-34979522D01*
X12989522Y-37892612D01*
X12989518Y-37892618D01*
X12936792Y-37983940D01*
X12936793Y-37983941D01*
X12909500Y-38085801D01*
X12909500Y-44387273D01*
X12909500Y-44492727D01*
X12913628Y-44508133D01*
X12936793Y-44594589D01*
X12963156Y-44640250D01*
X12989520Y-44685913D01*
X12989522Y-44685915D01*
X13308681Y-45005074D01*
X13342166Y-45066397D01*
X13345000Y-45092754D01*
X13345000Y-45199654D01*
X13345002Y-45199679D01*
X13347914Y-45224786D01*
X13347915Y-45224789D01*
X13393293Y-45327562D01*
X13393294Y-45327563D01*
X13472735Y-45407004D01*
X13575509Y-45452383D01*
X13600635Y-45455298D01*
X14426964Y-45455297D01*
X14426979Y-45455295D01*
X14426982Y-45455295D01*
X14452087Y-45452384D01*
X14452088Y-45452383D01*
X14452091Y-45452383D01*
X14554865Y-45407004D01*
X14634306Y-45327563D01*
X14679685Y-45224789D01*
X14682600Y-45199663D01*
X14682599Y-44604499D01*
X14702283Y-44537461D01*
X14755087Y-44491706D01*
X14806599Y-44480500D01*
X14884071Y-44480500D01*
X14968615Y-44463682D01*
X15009744Y-44455501D01*
X15128127Y-44406465D01*
X15234669Y-44335276D01*
X15325276Y-44244669D01*
X15396465Y-44138127D01*
X15445501Y-44019744D01*
X15470500Y-43894069D01*
X15470500Y-43765931D01*
X15470500Y-43765928D01*
X15445502Y-43640261D01*
X15445501Y-43640260D01*
X15445501Y-43640256D01*
X15396465Y-43521873D01*
X15396464Y-43521872D01*
X15396461Y-43521866D01*
X15325276Y-43415331D01*
X15325273Y-43415327D01*
X15234672Y-43324726D01*
X15234668Y-43324723D01*
X15128133Y-43253538D01*
X15128124Y-43253533D01*
X15009744Y-43204499D01*
X15009738Y-43204497D01*
X14884071Y-43179500D01*
X14884069Y-43179500D01*
X14755931Y-43179500D01*
X14755929Y-43179500D01*
X14630261Y-43204497D01*
X14630251Y-43204500D01*
X14535932Y-43243568D01*
X14466462Y-43251037D01*
X14455933Y-43248659D01*
X14452098Y-43247616D01*
X14452091Y-43247615D01*
X14443287Y-43246593D01*
X14426968Y-43244700D01*
X14426965Y-43244700D01*
X13834500Y-43244700D01*
X13767461Y-43225015D01*
X13721706Y-43172211D01*
X13710500Y-43120700D01*
X13710500Y-38355783D01*
X13730185Y-38288744D01*
X13746819Y-38268102D01*
X16278102Y-35736819D01*
X16339425Y-35703334D01*
X16365783Y-35700500D01*
X17692725Y-35700500D01*
X17692727Y-35700500D01*
X17794588Y-35673207D01*
X17885913Y-35620480D01*
X19803027Y-33703363D01*
X19864348Y-33669880D01*
X19934039Y-33674864D01*
X19989973Y-33716735D01*
X20005267Y-33743593D01*
X20069057Y-33897595D01*
X20184024Y-34069657D01*
X20330342Y-34215975D01*
X20330345Y-34215977D01*
X20502402Y-34330941D01*
X20693580Y-34410130D01*
X20896530Y-34450499D01*
X20896534Y-34450500D01*
X20896535Y-34450500D01*
X21103466Y-34450500D01*
X21103467Y-34450499D01*
X21306420Y-34410130D01*
X21497598Y-34330941D01*
X21669655Y-34215977D01*
X21815977Y-34069655D01*
X21930941Y-33897598D01*
X22010130Y-33706420D01*
X22050500Y-33503465D01*
X22050500Y-32296535D01*
X22010130Y-32093580D01*
X21930941Y-31902402D01*
X21815977Y-31730345D01*
X21815975Y-31730342D01*
X21669657Y-31584024D01*
X21583626Y-31526541D01*
X21497598Y-31469059D01*
X21306420Y-31389870D01*
X21306412Y-31389868D01*
X21142012Y-31357167D01*
X21080101Y-31324782D01*
X21045527Y-31264067D01*
X21049266Y-31194297D01*
X21078520Y-31147870D01*
X21645703Y-30580687D01*
X21645708Y-30580684D01*
X21655911Y-30570480D01*
X21655913Y-30570480D01*
X21730480Y-30495913D01*
X21783207Y-30404587D01*
X21810501Y-30302727D01*
X21810501Y-30197273D01*
X21810501Y-30189678D01*
X21810500Y-30189660D01*
X21810500Y-26809312D01*
X21821065Y-26759227D01*
X21852387Y-26688291D01*
X21855302Y-26663165D01*
X21855301Y-25836836D01*
X21855299Y-25836817D01*
X21852388Y-25811712D01*
X21852387Y-25811710D01*
X21852387Y-25811709D01*
X21807008Y-25708935D01*
X21727567Y-25629494D01*
X21653246Y-25596678D01*
X21624794Y-25584115D01*
X21599667Y-25581200D01*
X20900345Y-25581200D01*
X20900319Y-25581202D01*
X20875214Y-25584113D01*
X20875210Y-25584115D01*
X20772437Y-25629493D01*
X20692996Y-25708934D01*
X20647617Y-25811706D01*
X20647617Y-25811708D01*
X20644702Y-25836831D01*
X20644702Y-26663156D01*
X20644704Y-26663182D01*
X20647615Y-26688287D01*
X20647617Y-26688291D01*
X20692995Y-26791064D01*
X20692996Y-26791065D01*
X20772437Y-26870506D01*
X20875211Y-26915885D01*
X20899790Y-26918736D01*
X20964113Y-26946014D01*
X21003479Y-27003739D01*
X21009500Y-27041910D01*
X21009500Y-30032744D01*
X20989815Y-30099783D01*
X20973181Y-30120425D01*
X19729447Y-31364158D01*
X19668124Y-31397643D01*
X19598432Y-31392659D01*
X19542499Y-31350787D01*
X19538663Y-31345366D01*
X19525277Y-31325332D01*
X19525273Y-31325327D01*
X19434672Y-31234726D01*
X19434668Y-31234723D01*
X19328133Y-31163538D01*
X19328124Y-31163533D01*
X19209744Y-31114499D01*
X19209738Y-31114497D01*
X19084071Y-31089500D01*
X19084069Y-31089500D01*
X18955931Y-31089500D01*
X18955929Y-31089500D01*
X18830261Y-31114497D01*
X18830251Y-31114500D01*
X18721952Y-31159359D01*
X18652483Y-31166828D01*
X18590004Y-31135552D01*
X18554352Y-31075463D01*
X18550500Y-31044798D01*
X18550500Y-30947275D01*
X18550500Y-30947273D01*
X18523207Y-30845413D01*
X18523207Y-30845412D01*
X18470480Y-30754087D01*
X17786819Y-30070426D01*
X17753334Y-30009103D01*
X17750500Y-29982745D01*
X17750500Y-26224972D01*
X17770185Y-26157933D01*
X17786819Y-26137291D01*
X18112404Y-25811706D01*
X18452232Y-25471877D01*
X18513553Y-25438394D01*
X18583244Y-25443378D01*
X18639178Y-25485249D01*
X18654472Y-25512106D01*
X18664036Y-25535194D01*
X18667960Y-25544669D01*
X18673535Y-25558126D01*
X18673538Y-25558133D01*
X18744723Y-25664668D01*
X18744726Y-25664672D01*
X18835327Y-25755273D01*
X18835331Y-25755276D01*
X18941866Y-25826461D01*
X18941872Y-25826464D01*
X18941873Y-25826465D01*
X19060256Y-25875501D01*
X19060260Y-25875501D01*
X19060261Y-25875502D01*
X19185928Y-25900500D01*
X19185931Y-25900500D01*
X19314071Y-25900500D01*
X19426668Y-25878102D01*
X19439744Y-25875501D01*
X19558127Y-25826465D01*
X19664669Y-25755276D01*
X19755276Y-25664669D01*
X19826465Y-25558127D01*
X19875501Y-25439744D01*
X19898917Y-25322028D01*
X19900500Y-25314071D01*
X19900500Y-25185928D01*
X19875502Y-25060261D01*
X19875501Y-25060260D01*
X19875501Y-25060256D01*
X19829252Y-24948601D01*
X19826466Y-24941875D01*
X19826461Y-24941866D01*
X19755276Y-24835331D01*
X19755273Y-24835327D01*
X19664672Y-24744726D01*
X19664668Y-24744723D01*
X19558133Y-24673538D01*
X19558124Y-24673533D01*
X19439744Y-24624499D01*
X19439738Y-24624497D01*
X19314071Y-24599500D01*
X19314069Y-24599500D01*
X19185931Y-24599500D01*
X19185929Y-24599500D01*
X19060261Y-24624497D01*
X19060255Y-24624499D01*
X18941875Y-24673533D01*
X18941866Y-24673538D01*
X18835331Y-24744723D01*
X18835327Y-24744726D01*
X18762181Y-24817873D01*
X18700858Y-24851358D01*
X18631166Y-24846374D01*
X18575233Y-24804502D01*
X18550816Y-24739038D01*
X18550500Y-24730192D01*
X18550500Y-16917255D01*
X18570185Y-16850216D01*
X18586819Y-16829574D01*
X18737819Y-16678574D01*
X18799142Y-16645089D01*
X18868834Y-16650073D01*
G37*
%TD.AperFunction*%
%TA.AperFunction,Conductor*%
G36*
X20003472Y2699305D02*
G01*
X20295296Y2682916D01*
X20309114Y2681359D01*
X20593827Y2632984D01*
X20607384Y2629890D01*
X20884899Y2549939D01*
X20898024Y2545346D01*
X21164834Y2434830D01*
X21177362Y2428797D01*
X21430124Y2289100D01*
X21441898Y2281702D01*
X21677435Y2114580D01*
X21688307Y2105909D01*
X21903641Y1913473D01*
X21913473Y1903641D01*
X22105909Y1688307D01*
X22114580Y1677435D01*
X22281702Y1441898D01*
X22289100Y1430124D01*
X22428797Y1177362D01*
X22434830Y1164834D01*
X22545346Y898024D01*
X22549939Y884899D01*
X22629890Y607384D01*
X22632984Y593827D01*
X22681359Y309114D01*
X22682916Y295296D01*
X22699305Y3473D01*
X22699500Y-3480D01*
X22699500Y-8675167D01*
X22679815Y-8742206D01*
X22627011Y-8787961D01*
X22557853Y-8797905D01*
X22494297Y-8768880D01*
X22487819Y-8762848D01*
X22472765Y-8747794D01*
X22369992Y-8702415D01*
X22344868Y-8699500D01*
X21274500Y-8699500D01*
X21207461Y-8679815D01*
X21161706Y-8627011D01*
X21150500Y-8575500D01*
X21150500Y-8462729D01*
X21150501Y-8462716D01*
X21150501Y-8347276D01*
X21150501Y-8347274D01*
X21123207Y-8245413D01*
X21110386Y-8223207D01*
X21070480Y-8154087D01*
X20995913Y-8079520D01*
X20995912Y-8079519D01*
X20991582Y-8075189D01*
X20991571Y-8075179D01*
X20145915Y-7229522D01*
X20145914Y-7229521D01*
X20145913Y-7229520D01*
X20077020Y-7189744D01*
X20054589Y-7176793D01*
X19957388Y-7150749D01*
X19952727Y-7149500D01*
X19952726Y-7149500D01*
X15467254Y-7149500D01*
X15400215Y-7129815D01*
X15379573Y-7113181D01*
X14536819Y-6270426D01*
X14503334Y-6209103D01*
X14500500Y-6182745D01*
X14500500Y297700D01*
X14500500Y297702D01*
X14473207Y399562D01*
X14473207Y399563D01*
X14420480Y490888D01*
X13540888Y1370480D01*
X13449563Y1423207D01*
X13347702Y1450500D01*
X13347700Y1450500D01*
X8021012Y1450500D01*
X7953973Y1470185D01*
X7908218Y1522989D01*
X7898406Y1568087D01*
X7897609Y1568009D01*
X7897012Y1574071D01*
X7875322Y1683110D01*
X7872013Y1699744D01*
X7822977Y1818127D01*
X7751788Y1924669D01*
X7661181Y2015276D01*
X7554639Y2086465D01*
X7436256Y2135501D01*
X7395127Y2143682D01*
X7310583Y2160500D01*
X7310581Y2160500D01*
X7182443Y2160500D01*
X7182441Y2160500D01*
X7056773Y2135502D01*
X7056768Y2135501D01*
X6985327Y2105909D01*
X6938387Y2086466D01*
X6938378Y2086461D01*
X6831843Y2015276D01*
X6831839Y2015273D01*
X6741238Y1924672D01*
X6741235Y1924668D01*
X6670050Y1818133D01*
X6670045Y1818124D01*
X6621011Y1699744D01*
X6621009Y1699738D01*
X6596012Y1574071D01*
X6596012Y1445928D01*
X6596011Y1445928D01*
X6621009Y1320261D01*
X6621011Y1320255D01*
X6670045Y1201875D01*
X6670050Y1201866D01*
X6741235Y1095331D01*
X6741238Y1095327D01*
X6831839Y1004726D01*
X6831843Y1004723D01*
X6938378Y933538D01*
X6938387Y933533D01*
X6964046Y922905D01*
X7018448Y879062D01*
X7040511Y812768D01*
X7023230Y745069D01*
X7004271Y720664D01*
X6129522Y-154084D01*
X6129520Y-154087D01*
X6076793Y-245410D01*
X6072207Y-262527D01*
X6069914Y-271085D01*
X6069914Y-271086D01*
X6069913Y-271085D01*
X6049500Y-347271D01*
X6049500Y-347273D01*
X6049500Y-1447273D01*
X6049500Y-1552727D01*
X6062805Y-1602383D01*
X6076793Y-1654589D01*
X6129522Y-1745916D01*
X6217888Y-1834282D01*
X6251373Y-1895605D01*
X6246389Y-1965297D01*
X6233316Y-1990844D01*
X6232629Y-1991872D01*
X6183593Y-2110255D01*
X6183591Y-2110261D01*
X6158594Y-2235928D01*
X6158594Y-2235931D01*
X6158594Y-2364069D01*
X6158594Y-2364071D01*
X6158593Y-2364071D01*
X6183591Y-2489738D01*
X6183593Y-2489744D01*
X6232627Y-2608124D01*
X6232632Y-2608133D01*
X6303817Y-2714668D01*
X6303820Y-2714672D01*
X6394421Y-2805273D01*
X6394425Y-2805276D01*
X6500960Y-2876461D01*
X6500966Y-2876464D01*
X6500967Y-2876465D01*
X6619350Y-2925501D01*
X6619354Y-2925501D01*
X6619355Y-2925502D01*
X6745022Y-2950500D01*
X6745025Y-2950500D01*
X6873165Y-2950500D01*
X6957709Y-2933682D01*
X6998838Y-2925501D01*
X7117221Y-2876465D01*
X7223763Y-2805276D01*
X7314370Y-2714669D01*
X7385559Y-2608127D01*
X7434595Y-2489744D01*
X7442776Y-2448615D01*
X7459594Y-2364071D01*
X7459594Y-2229839D01*
X7460958Y-2229839D01*
X7472682Y-2168011D01*
X7520746Y-2117300D01*
X7583068Y-2100500D01*
X10546524Y-2100500D01*
X10546526Y-2100500D01*
X10648387Y-2073207D01*
X10739712Y-2020480D01*
X11118574Y-1641616D01*
X11179897Y-1608132D01*
X11206255Y-1605298D01*
X11606956Y-1605298D01*
X11606964Y-1605298D01*
X11606979Y-1605296D01*
X11606982Y-1605296D01*
X11632087Y-1602385D01*
X11632088Y-1602384D01*
X11632091Y-1602384D01*
X11734865Y-1557005D01*
X11814306Y-1477564D01*
X11859685Y-1374790D01*
X11862600Y-1349664D01*
X11862599Y-650335D01*
X11862597Y-650316D01*
X11859686Y-625211D01*
X11859685Y-625209D01*
X11859685Y-625208D01*
X11814306Y-522434D01*
X11734865Y-442993D01*
X11695050Y-425413D01*
X11632092Y-397614D01*
X11606965Y-394699D01*
X10780643Y-394699D01*
X10780617Y-394701D01*
X10755512Y-397612D01*
X10755508Y-397614D01*
X10652735Y-442992D01*
X10573294Y-522433D01*
X10527915Y-625205D01*
X10527915Y-625207D01*
X10525000Y-650330D01*
X10525000Y-1051043D01*
X10505315Y-1118082D01*
X10488685Y-1138719D01*
X10364223Y-1263182D01*
X10302903Y-1296666D01*
X10276544Y-1299500D01*
X9599000Y-1299500D01*
X9531961Y-1279815D01*
X9486206Y-1227011D01*
X9475000Y-1175500D01*
X9474999Y-650342D01*
X9474999Y-650335D01*
X9474997Y-650316D01*
X9472086Y-625211D01*
X9472085Y-625209D01*
X9472085Y-625208D01*
X9449734Y-574587D01*
X9440662Y-505309D01*
X9470486Y-442124D01*
X9529735Y-405093D01*
X9563168Y-400501D01*
X9602724Y-400501D01*
X9602726Y-400501D01*
X9704587Y-373208D01*
X9795912Y-320481D01*
X10379574Y263181D01*
X10440897Y296666D01*
X10467255Y299500D01*
X12932745Y299500D01*
X12999784Y279815D01*
X13020426Y263181D01*
X13113181Y170426D01*
X13146666Y109103D01*
X13149500Y82745D01*
X13149500Y-4082745D01*
X13129815Y-4149784D01*
X13113181Y-4170426D01*
X11162181Y-6121426D01*
X11100858Y-6154911D01*
X11031166Y-6149927D01*
X10975233Y-6108055D01*
X10950816Y-6042591D01*
X10950500Y-6033745D01*
X10950500Y-4947273D01*
X10950140Y-4945929D01*
X10950136Y-4945913D01*
X10923207Y-4845412D01*
X10870480Y-4754087D01*
X10686819Y-4570426D01*
X10653334Y-4509103D01*
X10650500Y-4482745D01*
X10650500Y-4370807D01*
X10670185Y-4303768D01*
X10686814Y-4283130D01*
X10755276Y-4214669D01*
X10826465Y-4108127D01*
X10875501Y-3989744D01*
X10894402Y-3894724D01*
X10900500Y-3864071D01*
X10900500Y-3735928D01*
X10877081Y-3618198D01*
X10883308Y-3548606D01*
X10926170Y-3493429D01*
X10992060Y-3470184D01*
X11060057Y-3486251D01*
X11086379Y-3506325D01*
X11135327Y-3555273D01*
X11135331Y-3555276D01*
X11241866Y-3626461D01*
X11241872Y-3626464D01*
X11241873Y-3626465D01*
X11360256Y-3675501D01*
X11360260Y-3675501D01*
X11360261Y-3675502D01*
X11485928Y-3700500D01*
X11485931Y-3700500D01*
X11614071Y-3700500D01*
X11698615Y-3683682D01*
X11739744Y-3675501D01*
X11858127Y-3626465D01*
X11964669Y-3555276D01*
X12055276Y-3464669D01*
X12126465Y-3358127D01*
X12175501Y-3239744D01*
X12188023Y-3176793D01*
X12200500Y-3114071D01*
X12200500Y-2985928D01*
X12175502Y-2860261D01*
X12175501Y-2860260D01*
X12175501Y-2860256D01*
X12126465Y-2741873D01*
X12126464Y-2741872D01*
X12126461Y-2741866D01*
X12055276Y-2635331D01*
X12055273Y-2635327D01*
X11964672Y-2544726D01*
X11964668Y-2544723D01*
X11858133Y-2473538D01*
X11858124Y-2473533D01*
X11739744Y-2424499D01*
X11739738Y-2424497D01*
X11614071Y-2399500D01*
X11614069Y-2399500D01*
X11485931Y-2399500D01*
X11485929Y-2399500D01*
X11360261Y-2424497D01*
X11360255Y-2424499D01*
X11241875Y-2473533D01*
X11241866Y-2473538D01*
X11135331Y-2544723D01*
X11135327Y-2544726D01*
X11044726Y-2635327D01*
X11044723Y-2635331D01*
X10973538Y-2741866D01*
X10973533Y-2741875D01*
X10924499Y-2860255D01*
X10924497Y-2860261D01*
X10899500Y-2985928D01*
X10899500Y-3114073D01*
X10922918Y-3231802D01*
X10916691Y-3301393D01*
X10873828Y-3356571D01*
X10807938Y-3379815D01*
X10739941Y-3363747D01*
X10713620Y-3343674D01*
X10664672Y-3294726D01*
X10664668Y-3294723D01*
X10558133Y-3223538D01*
X10558124Y-3223533D01*
X10439744Y-3174499D01*
X10439738Y-3174497D01*
X10314071Y-3149500D01*
X10314069Y-3149500D01*
X10185931Y-3149500D01*
X10185929Y-3149500D01*
X10060261Y-3174497D01*
X10060255Y-3174499D01*
X9941875Y-3223533D01*
X9941866Y-3223538D01*
X9835331Y-3294723D01*
X9835327Y-3294726D01*
X9744726Y-3385327D01*
X9744723Y-3385331D01*
X9673538Y-3491866D01*
X9673533Y-3491875D01*
X9624499Y-3610255D01*
X9624497Y-3610261D01*
X9599500Y-3735928D01*
X9599500Y-3864073D01*
X9615748Y-3945757D01*
X9609521Y-4015348D01*
X9566658Y-4070526D01*
X9500768Y-4093770D01*
X9432771Y-4077702D01*
X9391029Y-4038838D01*
X9355279Y-3985335D01*
X9355273Y-3985327D01*
X9264672Y-3894726D01*
X9264668Y-3894723D01*
X9158133Y-3823538D01*
X9158124Y-3823533D01*
X9039744Y-3774499D01*
X9039738Y-3774497D01*
X8914071Y-3749500D01*
X8914069Y-3749500D01*
X8785931Y-3749500D01*
X8785929Y-3749500D01*
X8660261Y-3774497D01*
X8660255Y-3774499D01*
X8541875Y-3823533D01*
X8541866Y-3823538D01*
X8435331Y-3894723D01*
X8435327Y-3894726D01*
X8344726Y-3985327D01*
X8344723Y-3985331D01*
X8273538Y-4091866D01*
X8273533Y-4091875D01*
X8224499Y-4210255D01*
X8224497Y-4210261D01*
X8199500Y-4335928D01*
X8199500Y-4335931D01*
X8199500Y-4464069D01*
X8199500Y-4464071D01*
X8199499Y-4464071D01*
X8224497Y-4589738D01*
X8224499Y-4589744D01*
X8273533Y-4708124D01*
X8273538Y-4708133D01*
X8344723Y-4814668D01*
X8344726Y-4814672D01*
X8383287Y-4853233D01*
X8416772Y-4914556D01*
X8411788Y-4984248D01*
X8369916Y-5040181D01*
X8304452Y-5064598D01*
X8283454Y-5064317D01*
X8280793Y-5064055D01*
X8280791Y-5064055D01*
X8152653Y-5064055D01*
X8146591Y-5064652D01*
X8146342Y-5062132D01*
X8087739Y-5056836D01*
X8045560Y-5029167D01*
X6245915Y-3229522D01*
X6245913Y-3229520D01*
X6200250Y-3203156D01*
X6154589Y-3176793D01*
X6103657Y-3163146D01*
X6052727Y-3149500D01*
X6052726Y-3149500D01*
X5420807Y-3149500D01*
X5353768Y-3129815D01*
X5333130Y-3113185D01*
X5264669Y-3044724D01*
X5264668Y-3044723D01*
X5264667Y-3044722D01*
X5158133Y-2973538D01*
X5158124Y-2973533D01*
X5039744Y-2924499D01*
X5039738Y-2924497D01*
X4914071Y-2899500D01*
X4914069Y-2899500D01*
X4785931Y-2899500D01*
X4785929Y-2899500D01*
X4660261Y-2924497D01*
X4660252Y-2924500D01*
X4621568Y-2940523D01*
X4552099Y-2947990D01*
X4489620Y-2916714D01*
X4453969Y-2856625D01*
X4450715Y-2838111D01*
X4450500Y-2835929D01*
X4425502Y-2710261D01*
X4425501Y-2710260D01*
X4425501Y-2710256D01*
X4376465Y-2591873D01*
X4376464Y-2591872D01*
X4376461Y-2591866D01*
X4305276Y-2485331D01*
X4305273Y-2485327D01*
X4214672Y-2394726D01*
X4214668Y-2394723D01*
X4108133Y-2323538D01*
X4108124Y-2323533D01*
X3989744Y-2274499D01*
X3989738Y-2274497D01*
X3864071Y-2249500D01*
X3864069Y-2249500D01*
X3735931Y-2249500D01*
X3735929Y-2249500D01*
X3610261Y-2274497D01*
X3610255Y-2274499D01*
X3491875Y-2323533D01*
X3491866Y-2323538D01*
X3385331Y-2394723D01*
X3385327Y-2394726D01*
X3294726Y-2485327D01*
X3294723Y-2485331D01*
X3223538Y-2591866D01*
X3223533Y-2591875D01*
X3174499Y-2710255D01*
X3174497Y-2710261D01*
X3149500Y-2835928D01*
X3149500Y-2835929D01*
X3149500Y-2835931D01*
X3149500Y-2964069D01*
X3149500Y-2964071D01*
X3149499Y-2964071D01*
X3174497Y-3089738D01*
X3174499Y-3089744D01*
X3223533Y-3208124D01*
X3223538Y-3208133D01*
X3294723Y-3314668D01*
X3294726Y-3314672D01*
X3385327Y-3405273D01*
X3385331Y-3405276D01*
X3491866Y-3476461D01*
X3491872Y-3476464D01*
X3491873Y-3476465D01*
X3610256Y-3525501D01*
X3610260Y-3525501D01*
X3610261Y-3525502D01*
X3735928Y-3550500D01*
X3735931Y-3550500D01*
X3864071Y-3550500D01*
X3950627Y-3533282D01*
X3989744Y-3525501D01*
X4028430Y-3509476D01*
X4097897Y-3502008D01*
X4160376Y-3533282D01*
X4196029Y-3593371D01*
X4199283Y-3611874D01*
X4199499Y-3614067D01*
X4224497Y-3739738D01*
X4224499Y-3739744D01*
X4273533Y-3858124D01*
X4273538Y-3858133D01*
X4344723Y-3964668D01*
X4344726Y-3964672D01*
X4435327Y-4055273D01*
X4435331Y-4055276D01*
X4541866Y-4126461D01*
X4541872Y-4126464D01*
X4541873Y-4126465D01*
X4660256Y-4175501D01*
X4660260Y-4175501D01*
X4660261Y-4175502D01*
X4785928Y-4200500D01*
X4785931Y-4200500D01*
X4914071Y-4200500D01*
X4998615Y-4183682D01*
X5039744Y-4175501D01*
X5158127Y-4126465D01*
X5264669Y-4055276D01*
X5333127Y-3986817D01*
X5394448Y-3953334D01*
X5420807Y-3950500D01*
X5782745Y-3950500D01*
X5849784Y-3970185D01*
X5870426Y-3986819D01*
X6521426Y-4637819D01*
X6554911Y-4699142D01*
X6549927Y-4768834D01*
X6508055Y-4824767D01*
X6442591Y-4849184D01*
X6437171Y-4849377D01*
X6435928Y-4849499D01*
X6310261Y-4874497D01*
X6310255Y-4874499D01*
X6191875Y-4923533D01*
X6191866Y-4923538D01*
X6085331Y-4994723D01*
X6085327Y-4994726D01*
X5994726Y-5085327D01*
X5994723Y-5085331D01*
X5923538Y-5191866D01*
X5923533Y-5191875D01*
X5874499Y-5310255D01*
X5874497Y-5310261D01*
X5849500Y-5435928D01*
X5849500Y-5435931D01*
X5849500Y-5564069D01*
X5849500Y-5564071D01*
X5849499Y-5564071D01*
X5874497Y-5689738D01*
X5874499Y-5689744D01*
X5923533Y-5808124D01*
X5923538Y-5808133D01*
X5994722Y-5914667D01*
X5994723Y-5914668D01*
X5994724Y-5914669D01*
X6063182Y-5983127D01*
X6096666Y-6044448D01*
X6099500Y-6070807D01*
X6099500Y-6226025D01*
X6079815Y-6293064D01*
X6027011Y-6338819D01*
X5970161Y-6348296D01*
X5970161Y-6349500D01*
X5835929Y-6349500D01*
X5710261Y-6374497D01*
X5710255Y-6374499D01*
X5591875Y-6423533D01*
X5591866Y-6423538D01*
X5485331Y-6494723D01*
X5485327Y-6494726D01*
X5394726Y-6585327D01*
X5394723Y-6585331D01*
X5323538Y-6691866D01*
X5323533Y-6691875D01*
X5274499Y-6810255D01*
X5274497Y-6810261D01*
X5249500Y-6935928D01*
X5249500Y-6935931D01*
X5249500Y-7064069D01*
X5249500Y-7064071D01*
X5249499Y-7064071D01*
X5274497Y-7189738D01*
X5274499Y-7189744D01*
X5323533Y-7308124D01*
X5323538Y-7308133D01*
X5394722Y-7414667D01*
X5394723Y-7414668D01*
X5394724Y-7414669D01*
X5463182Y-7483127D01*
X5496666Y-7544448D01*
X5499500Y-7570807D01*
X5499500Y-7947273D01*
X5499500Y-8052727D01*
X5506679Y-8079520D01*
X5526793Y-8154589D01*
X5528836Y-8158127D01*
X5579520Y-8245913D01*
X7254085Y-9920478D01*
X7254087Y-9920479D01*
X7260536Y-9925428D01*
X7260330Y-9925696D01*
X7277526Y-9938891D01*
X7722035Y-10383400D01*
X7755520Y-10444723D01*
X7750536Y-10514415D01*
X7717036Y-10561315D01*
X7717888Y-10562167D01*
X7713580Y-10566474D01*
X7713580Y-10566475D01*
X7645121Y-10634933D01*
X7583801Y-10668417D01*
X7557442Y-10671251D01*
X6139006Y-10671251D01*
X6071967Y-10651566D01*
X6051325Y-10634932D01*
X5636819Y-10220426D01*
X5603334Y-10159103D01*
X5600500Y-10132745D01*
X5600500Y-10035928D01*
X5575502Y-9910261D01*
X5575501Y-9910260D01*
X5575501Y-9910256D01*
X5528857Y-9797648D01*
X5526466Y-9791875D01*
X5526461Y-9791866D01*
X5455276Y-9685331D01*
X5455273Y-9685327D01*
X5364672Y-9594726D01*
X5364668Y-9594723D01*
X5258133Y-9523538D01*
X5258123Y-9523533D01*
X5228655Y-9511327D01*
X5174252Y-9467486D01*
X5152187Y-9401192D01*
X5169466Y-9333492D01*
X5207216Y-9293664D01*
X5264669Y-9255276D01*
X5355276Y-9164669D01*
X5426465Y-9058127D01*
X5475501Y-8939744D01*
X5500500Y-8814069D01*
X5500500Y-8685931D01*
X5500500Y-8685928D01*
X5475502Y-8560261D01*
X5475501Y-8560260D01*
X5475501Y-8560256D01*
X5435104Y-8462729D01*
X5426466Y-8441875D01*
X5426464Y-8441872D01*
X5424385Y-8438760D01*
X5424384Y-8438759D01*
X5355276Y-8335331D01*
X5334968Y-8315023D01*
X5334966Y-8315020D01*
X5264672Y-8244726D01*
X5264668Y-8244723D01*
X5158133Y-8173538D01*
X5158124Y-8173533D01*
X5039744Y-8124499D01*
X5039738Y-8124497D01*
X4914071Y-8099500D01*
X4914069Y-8099500D01*
X4785931Y-8099500D01*
X4785929Y-8099500D01*
X4660261Y-8124497D01*
X4660255Y-8124499D01*
X4541875Y-8173533D01*
X4541866Y-8173538D01*
X4435331Y-8244723D01*
X4435327Y-8244726D01*
X4344726Y-8335327D01*
X4344723Y-8335331D01*
X4273538Y-8441866D01*
X4273533Y-8441875D01*
X4224499Y-8560255D01*
X4224497Y-8560261D01*
X4199500Y-8685928D01*
X4199500Y-8685931D01*
X4199500Y-8814069D01*
X4199500Y-8814071D01*
X4199499Y-8814071D01*
X4224497Y-8939738D01*
X4224499Y-8939744D01*
X4273533Y-9058124D01*
X4273538Y-9058133D01*
X4344723Y-9164668D01*
X4344726Y-9164672D01*
X4435327Y-9255273D01*
X4435331Y-9255276D01*
X4541866Y-9326461D01*
X4541873Y-9326465D01*
X4571343Y-9338672D01*
X4625746Y-9382512D01*
X4647812Y-9448806D01*
X4630534Y-9516505D01*
X4592783Y-9556334D01*
X4535333Y-9594721D01*
X4535327Y-9594726D01*
X4444726Y-9685327D01*
X4444723Y-9685331D01*
X4373538Y-9791866D01*
X4373533Y-9791875D01*
X4324499Y-9910255D01*
X4324497Y-9910261D01*
X4299500Y-10035928D01*
X4299500Y-10035931D01*
X4299500Y-10164069D01*
X4299500Y-10164071D01*
X4299499Y-10164071D01*
X4324497Y-10289738D01*
X4324499Y-10289744D01*
X4373533Y-10408124D01*
X4373538Y-10408133D01*
X4444723Y-10514668D01*
X4444726Y-10514672D01*
X4535327Y-10605273D01*
X4535331Y-10605276D01*
X4641866Y-10676461D01*
X4641875Y-10676466D01*
X4668692Y-10687574D01*
X4760256Y-10725501D01*
X4760260Y-10725501D01*
X4760261Y-10725502D01*
X4885928Y-10750500D01*
X4982745Y-10750500D01*
X5049784Y-10770185D01*
X5070426Y-10786819D01*
X5601270Y-11317663D01*
X5601271Y-11317664D01*
X5675838Y-11392231D01*
X5767164Y-11444958D01*
X5869024Y-11472251D01*
X5974478Y-11472251D01*
X7557442Y-11472251D01*
X7624481Y-11491936D01*
X7645118Y-11508565D01*
X7713580Y-11577027D01*
X7810121Y-11641534D01*
X7854926Y-11695144D01*
X7863633Y-11764469D01*
X7862847Y-11768826D01*
X7849500Y-11835926D01*
X7849500Y-11835931D01*
X7849500Y-11964069D01*
X7849500Y-11964071D01*
X7849499Y-11964071D01*
X7874497Y-12089738D01*
X7874499Y-12089744D01*
X7923533Y-12208124D01*
X7923538Y-12208133D01*
X7994723Y-12314668D01*
X7994726Y-12314672D01*
X8085330Y-12405276D01*
X8152627Y-12450242D01*
X8197432Y-12503854D01*
X8206139Y-12573179D01*
X8175985Y-12636206D01*
X8116542Y-12672926D01*
X8111564Y-12674102D01*
X8110255Y-12674499D01*
X7991875Y-12723533D01*
X7991868Y-12723537D01*
X7944024Y-12755506D01*
X7877347Y-12776383D01*
X7809967Y-12757898D01*
X7763277Y-12705919D01*
X7758957Y-12695749D01*
X7729872Y-12617769D01*
X7645260Y-12504740D01*
X7532231Y-12420128D01*
X7532230Y-12420127D01*
X7532231Y-12420127D01*
X7399949Y-12370788D01*
X7399944Y-12370787D01*
X7341480Y-12364500D01*
X7341464Y-12364500D01*
X6358536Y-12364500D01*
X6358519Y-12364500D01*
X6300055Y-12370787D01*
X6300050Y-12370788D01*
X6167769Y-12420127D01*
X6054740Y-12504740D01*
X5970127Y-12617769D01*
X5920788Y-12750050D01*
X5920787Y-12750055D01*
X5914500Y-12808519D01*
X5914500Y-13791480D01*
X5920787Y-13849944D01*
X5920788Y-13849949D01*
X5970127Y-13982230D01*
X5970128Y-13982231D01*
X6054740Y-14095260D01*
X6167769Y-14179872D01*
X6167768Y-14179872D01*
X6300050Y-14229211D01*
X6300053Y-14229211D01*
X6300057Y-14229213D01*
X6328513Y-14232272D01*
X6358519Y-14235499D01*
X6358536Y-14235500D01*
X7341464Y-14235500D01*
X7341480Y-14235499D01*
X7367587Y-14232691D01*
X7399943Y-14229213D01*
X7399947Y-14229211D01*
X7399949Y-14229211D01*
X7452795Y-14209500D01*
X7532231Y-14179872D01*
X7601191Y-14128249D01*
X7666653Y-14103833D01*
X7734926Y-14118684D01*
X7784332Y-14168089D01*
X7799500Y-14227517D01*
X7799500Y-17372482D01*
X7779815Y-17439521D01*
X7727011Y-17485276D01*
X7657853Y-17495220D01*
X7601190Y-17471749D01*
X7532233Y-17420129D01*
X7532231Y-17420127D01*
X7399949Y-17370788D01*
X7399944Y-17370787D01*
X7341480Y-17364500D01*
X7341464Y-17364500D01*
X6358536Y-17364500D01*
X6358519Y-17364500D01*
X6300055Y-17370787D01*
X6300050Y-17370788D01*
X6167769Y-17420127D01*
X6054740Y-17504740D01*
X5970127Y-17617769D01*
X5920788Y-17750050D01*
X5920787Y-17750055D01*
X5914500Y-17808519D01*
X5914500Y-18791480D01*
X5920787Y-18849944D01*
X5920788Y-18849949D01*
X5970127Y-18982230D01*
X5970128Y-18982231D01*
X6054740Y-19095260D01*
X6167769Y-19179872D01*
X6167768Y-19179872D01*
X6300050Y-19229211D01*
X6300053Y-19229211D01*
X6300057Y-19229213D01*
X6328513Y-19232272D01*
X6358519Y-19235499D01*
X6358536Y-19235500D01*
X7341464Y-19235500D01*
X7341480Y-19235499D01*
X7367587Y-19232691D01*
X7399943Y-19229213D01*
X7399947Y-19229211D01*
X7399949Y-19229211D01*
X7453860Y-19209103D01*
X7532231Y-19179872D01*
X7601191Y-19128249D01*
X7666653Y-19103833D01*
X7734926Y-19118684D01*
X7784332Y-19168089D01*
X7799500Y-19227517D01*
X7799500Y-22091324D01*
X7779815Y-22158363D01*
X7763181Y-22179005D01*
X6299502Y-23642683D01*
X6299500Y-23642686D01*
X6233608Y-23756812D01*
X6199500Y-23884108D01*
X6199500Y-27075220D01*
X6179815Y-27142259D01*
X6127011Y-27188014D01*
X6057853Y-27197958D01*
X5994297Y-27168933D01*
X5960940Y-27122675D01*
X5956467Y-27111878D01*
X5956461Y-27111866D01*
X5885276Y-27005331D01*
X5885273Y-27005327D01*
X5794672Y-26914726D01*
X5794668Y-26914723D01*
X5688133Y-26843538D01*
X5688124Y-26843533D01*
X5569744Y-26794499D01*
X5569738Y-26794497D01*
X5444071Y-26769500D01*
X5444069Y-26769500D01*
X5404499Y-26769500D01*
X5337460Y-26749815D01*
X5291705Y-26697011D01*
X5280499Y-26645500D01*
X5280499Y-26605143D01*
X5280499Y-26605136D01*
X5280497Y-26605117D01*
X5276511Y-26570742D01*
X5278280Y-26570536D01*
X5278282Y-26529460D01*
X5276510Y-26529255D01*
X5278115Y-26515421D01*
X5280500Y-26494865D01*
X5280499Y-26233121D01*
X5300183Y-26166083D01*
X5352987Y-26120328D01*
X5357008Y-26118577D01*
X5379179Y-26109394D01*
X5510289Y-26021789D01*
X5621789Y-25910289D01*
X5709394Y-25779179D01*
X5769737Y-25633497D01*
X5800500Y-25478842D01*
X5800500Y-25399999D01*
X5800500Y-25375322D01*
X5800500Y-25147273D01*
X5800500Y-25121158D01*
X5800500Y-25121155D01*
X5800499Y-25121153D01*
X5769737Y-24966503D01*
X5762322Y-24948601D01*
X5709397Y-24820827D01*
X5709390Y-24820814D01*
X5621789Y-24689711D01*
X5621786Y-24689707D01*
X5510292Y-24578213D01*
X5510288Y-24578210D01*
X5379182Y-24490607D01*
X5379177Y-24490604D01*
X5357045Y-24481437D01*
X5302642Y-24437596D01*
X5280578Y-24371301D01*
X5280499Y-24366877D01*
X5280499Y-24105143D01*
X5280499Y-24105136D01*
X5278774Y-24090261D01*
X5276511Y-24070742D01*
X5278280Y-24070536D01*
X5278282Y-24029460D01*
X5276510Y-24029255D01*
X5277585Y-24019991D01*
X5280500Y-23994865D01*
X5280499Y-23605136D01*
X5280497Y-23605117D01*
X5276511Y-23570742D01*
X5278280Y-23570536D01*
X5278282Y-23529460D01*
X5276510Y-23529255D01*
X5279110Y-23506842D01*
X5280500Y-23494865D01*
X5280500Y-23424500D01*
X5300185Y-23357461D01*
X5352989Y-23311706D01*
X5404500Y-23300500D01*
X5484071Y-23300500D01*
X5568615Y-23283682D01*
X5609744Y-23275501D01*
X5728127Y-23226465D01*
X5834669Y-23155276D01*
X5925276Y-23064669D01*
X5996465Y-22958127D01*
X6045501Y-22839744D01*
X6053950Y-22797269D01*
X6070500Y-22714071D01*
X6070500Y-22585928D01*
X6053624Y-22501092D01*
X6059851Y-22431501D01*
X6102713Y-22376323D01*
X6168603Y-22353078D01*
X6199431Y-22355282D01*
X6249723Y-22365286D01*
X6275930Y-22370500D01*
X6275931Y-22370500D01*
X6404071Y-22370500D01*
X6491653Y-22353078D01*
X6529744Y-22345501D01*
X6648127Y-22296465D01*
X6754669Y-22225276D01*
X6845276Y-22134669D01*
X6916465Y-22028127D01*
X6965501Y-21909744D01*
X6978052Y-21846648D01*
X6990500Y-21784071D01*
X6990500Y-21655928D01*
X6965502Y-21530261D01*
X6965501Y-21530260D01*
X6965501Y-21530256D01*
X6916465Y-21411873D01*
X6916464Y-21411872D01*
X6916461Y-21411866D01*
X6845276Y-21305331D01*
X6845273Y-21305327D01*
X6776819Y-21236873D01*
X6743334Y-21175550D01*
X6740500Y-21149192D01*
X6740500Y-20677275D01*
X6740500Y-20677273D01*
X6713207Y-20575413D01*
X6713207Y-20575412D01*
X6660480Y-20484087D01*
X5446819Y-19270426D01*
X5413334Y-19209103D01*
X5410500Y-19182745D01*
X5410500Y-16797275D01*
X5410500Y-16797273D01*
X5383207Y-16695413D01*
X5383207Y-16695412D01*
X5330480Y-16604087D01*
X3265913Y-14539520D01*
X3199469Y-14501158D01*
X3174589Y-14486793D01*
X3123657Y-14473146D01*
X3072727Y-14459500D01*
X3072726Y-14459500D01*
X-969193Y-14459500D01*
X-1036232Y-14439815D01*
X-1056869Y-14423185D01*
X-1091103Y-14388951D01*
X-1125332Y-14354722D01*
X-1231866Y-14283538D01*
X-1231875Y-14283533D01*
X-1350255Y-14234499D01*
X-1350261Y-14234497D01*
X-1475929Y-14209500D01*
X-1475931Y-14209500D01*
X-1604069Y-14209500D01*
X-1604071Y-14209500D01*
X-1729738Y-14234497D01*
X-1729744Y-14234499D01*
X-1848124Y-14283533D01*
X-1848133Y-14283538D01*
X-1954668Y-14354723D01*
X-1954672Y-14354726D01*
X-2045273Y-14445327D01*
X-2045276Y-14445331D01*
X-2116461Y-14551866D01*
X-2116464Y-14551872D01*
X-2116465Y-14551873D01*
X-2165501Y-14670256D01*
X-2165501Y-14670260D01*
X-2165502Y-14670261D01*
X-2190500Y-14795928D01*
X-2190500Y-14924071D01*
X-2176109Y-14996414D01*
X-2165501Y-15049744D01*
X-2116465Y-15168127D01*
X-2045276Y-15274669D01*
X-1954669Y-15365276D01*
X-1848127Y-15436465D01*
X-1729744Y-15485501D01*
X-1688615Y-15493682D01*
X-1604071Y-15510500D01*
X-1604069Y-15510500D01*
X-1475928Y-15510500D01*
X-1350261Y-15485502D01*
X-1350260Y-15485501D01*
X-1350256Y-15485501D01*
X-1258692Y-15447574D01*
X-1231875Y-15436466D01*
X-1231866Y-15436461D01*
X-1125332Y-15365277D01*
X-1109790Y-15349735D01*
X-1056872Y-15296817D01*
X-995552Y-15263334D01*
X-969193Y-15260500D01*
X2802745Y-15260500D01*
X2869784Y-15280185D01*
X2890426Y-15296819D01*
X4573181Y-16979574D01*
X4606666Y-17040897D01*
X4609500Y-17067255D01*
X4609500Y-19452726D01*
X4636793Y-19554589D01*
X4658596Y-19592352D01*
X4689520Y-19645913D01*
X4689522Y-19645915D01*
X5903181Y-20859574D01*
X5936666Y-20920897D01*
X5939500Y-20947255D01*
X5939500Y-21149192D01*
X5919815Y-21216231D01*
X5903181Y-21236873D01*
X5834726Y-21305327D01*
X5834723Y-21305331D01*
X5763538Y-21411866D01*
X5763533Y-21411875D01*
X5714499Y-21530255D01*
X5714497Y-21530261D01*
X5689500Y-21655928D01*
X5689500Y-21784073D01*
X5706375Y-21868908D01*
X5700148Y-21938499D01*
X5657285Y-21993677D01*
X5591395Y-22016921D01*
X5560566Y-22014716D01*
X5484071Y-21999500D01*
X5484069Y-21999500D01*
X5355931Y-21999500D01*
X5355929Y-21999500D01*
X5230261Y-22024497D01*
X5230256Y-22024499D01*
X5153632Y-22056237D01*
X5084163Y-22063705D01*
X5056098Y-22055111D01*
X5049992Y-22052415D01*
X5024868Y-22049500D01*
X5024865Y-22049500D01*
X3991342Y-22049500D01*
X3924303Y-22029815D01*
X3878548Y-21977011D01*
X3871567Y-21957594D01*
X3866281Y-21937865D01*
X3790515Y-21806635D01*
X3683365Y-21699485D01*
X3607928Y-21655931D01*
X3552136Y-21623719D01*
X3478950Y-21604109D01*
X3405766Y-21584500D01*
X3254234Y-21584500D01*
X3107863Y-21623719D01*
X3052072Y-21655931D01*
X3008631Y-21681011D01*
X2940734Y-21697484D01*
X2874707Y-21674632D01*
X2843531Y-21642515D01*
X2785276Y-21555331D01*
X2785273Y-21555327D01*
X2694672Y-21464726D01*
X2694668Y-21464723D01*
X2588133Y-21393538D01*
X2588124Y-21393533D01*
X2469744Y-21344499D01*
X2469738Y-21344497D01*
X2344071Y-21319500D01*
X2344069Y-21319500D01*
X2215931Y-21319500D01*
X2215929Y-21319500D01*
X2090261Y-21344497D01*
X2090255Y-21344499D01*
X1971875Y-21393533D01*
X1971866Y-21393538D01*
X1865331Y-21464723D01*
X1865327Y-21464726D01*
X1774726Y-21555327D01*
X1774723Y-21555331D01*
X1703538Y-21661866D01*
X1703533Y-21661875D01*
X1654499Y-21780255D01*
X1654497Y-21780261D01*
X1629500Y-21905928D01*
X1629500Y-21905931D01*
X1629500Y-22034069D01*
X1629500Y-22034071D01*
X1629499Y-22034071D01*
X1654497Y-22159738D01*
X1654499Y-22159744D01*
X1703533Y-22278124D01*
X1703538Y-22278133D01*
X1774722Y-22384667D01*
X1774723Y-22384668D01*
X1774724Y-22384669D01*
X1843182Y-22453127D01*
X1876666Y-22514448D01*
X1879500Y-22540807D01*
X1879500Y-22677273D01*
X1879500Y-22782727D01*
X1887978Y-22814368D01*
X1906793Y-22884589D01*
X1924619Y-22915463D01*
X1959520Y-22975913D01*
X2284107Y-23300500D01*
X2490450Y-23506842D01*
X2523935Y-23568165D01*
X2518951Y-23637856D01*
X2477080Y-23693790D01*
X2463940Y-23702152D01*
X2355331Y-23774723D01*
X2355327Y-23774726D01*
X2264726Y-23865327D01*
X2264723Y-23865331D01*
X2193538Y-23971866D01*
X2193533Y-23971875D01*
X2144499Y-24090255D01*
X2144497Y-24090261D01*
X2119500Y-24215928D01*
X2119500Y-24215931D01*
X2119500Y-24344069D01*
X2119500Y-24344071D01*
X2119499Y-24344071D01*
X2144497Y-24469738D01*
X2144499Y-24469744D01*
X2193533Y-24588124D01*
X2193538Y-24588133D01*
X2264723Y-24694668D01*
X2264726Y-24694672D01*
X2355327Y-24785273D01*
X2355331Y-24785276D01*
X2461866Y-24856461D01*
X2461872Y-24856464D01*
X2461873Y-24856465D01*
X2580256Y-24905501D01*
X2580260Y-24905501D01*
X2580261Y-24905502D01*
X2705928Y-24930500D01*
X2705931Y-24930500D01*
X2834071Y-24930500D01*
X2918615Y-24913682D01*
X2959744Y-24905501D01*
X2991224Y-24892461D01*
X3060688Y-24884992D01*
X3123168Y-24916265D01*
X3158822Y-24976353D01*
X3160292Y-24982830D01*
X3190261Y-25133491D01*
X3190264Y-25133501D01*
X3250602Y-25279172D01*
X3250609Y-25279185D01*
X3279236Y-25322028D01*
X3300114Y-25388706D01*
X3281629Y-25456086D01*
X3229650Y-25502776D01*
X3160680Y-25513952D01*
X3128681Y-25505480D01*
X3029744Y-25464499D01*
X3029738Y-25464497D01*
X2904071Y-25439500D01*
X2904069Y-25439500D01*
X2775931Y-25439500D01*
X2775929Y-25439500D01*
X2650261Y-25464497D01*
X2650255Y-25464499D01*
X2531875Y-25513533D01*
X2531866Y-25513538D01*
X2425331Y-25584723D01*
X2425327Y-25584726D01*
X2334726Y-25675327D01*
X2334723Y-25675331D01*
X2263538Y-25781866D01*
X2263533Y-25781875D01*
X2214499Y-25900255D01*
X2214497Y-25900261D01*
X2189500Y-26025928D01*
X2189500Y-26025931D01*
X2189500Y-26154069D01*
X2189500Y-26154071D01*
X2189499Y-26154071D01*
X2214497Y-26279738D01*
X2214499Y-26279744D01*
X2263533Y-26398124D01*
X2263538Y-26398133D01*
X2335950Y-26506505D01*
X2356828Y-26573183D01*
X2338343Y-26640563D01*
X2320529Y-26663077D01*
X1929522Y-27054084D01*
X1929520Y-27054087D01*
X1876791Y-27145413D01*
X1861436Y-27202726D01*
X1861436Y-27202727D01*
X1849500Y-27247273D01*
X1849500Y-27529192D01*
X1829815Y-27596231D01*
X1813181Y-27616873D01*
X1744726Y-27685327D01*
X1744723Y-27685331D01*
X1673538Y-27791866D01*
X1673533Y-27791875D01*
X1624499Y-27910255D01*
X1624497Y-27910261D01*
X1599500Y-28035928D01*
X1599500Y-28035931D01*
X1599500Y-28164069D01*
X1599500Y-28164071D01*
X1599499Y-28164071D01*
X1624497Y-28289738D01*
X1624499Y-28289744D01*
X1673533Y-28408124D01*
X1673538Y-28408133D01*
X1744723Y-28514668D01*
X1744726Y-28514672D01*
X1835327Y-28605273D01*
X1835331Y-28605276D01*
X1941866Y-28676461D01*
X1941875Y-28676466D01*
X1963268Y-28685327D01*
X2060256Y-28725501D01*
X2060260Y-28725501D01*
X2060261Y-28725502D01*
X2185928Y-28750500D01*
X2185931Y-28750500D01*
X2314071Y-28750500D01*
X2398615Y-28733682D01*
X2439744Y-28725501D01*
X2558127Y-28676465D01*
X2664669Y-28605276D01*
X2755276Y-28514669D01*
X2807417Y-28436634D01*
X2861026Y-28391830D01*
X2930351Y-28383121D01*
X2972519Y-28398138D01*
X2976633Y-28400513D01*
X2976635Y-28400515D01*
X3061479Y-28449500D01*
X3087752Y-28464669D01*
X3107865Y-28476281D01*
X3254234Y-28515500D01*
X3254236Y-28515500D01*
X3405764Y-28515500D01*
X3405766Y-28515500D01*
X3552135Y-28476281D01*
X3683365Y-28400515D01*
X3790515Y-28293365D01*
X3866281Y-28162135D01*
X3871567Y-28142405D01*
X3907932Y-28082745D01*
X3970779Y-28052216D01*
X3991342Y-28050499D01*
X5024856Y-28050499D01*
X5024864Y-28050499D01*
X5024879Y-28050497D01*
X5024882Y-28050497D01*
X5049986Y-28047586D01*
X5049987Y-28047585D01*
X5049991Y-28047585D01*
X5071790Y-28037959D01*
X5141064Y-28028887D01*
X5169326Y-28036831D01*
X5190256Y-28045501D01*
X5190260Y-28045501D01*
X5190261Y-28045502D01*
X5315928Y-28070500D01*
X5315931Y-28070500D01*
X5444071Y-28070500D01*
X5559267Y-28047585D01*
X5569744Y-28045501D01*
X5688127Y-27996465D01*
X5794669Y-27925276D01*
X5885276Y-27834669D01*
X5956465Y-27728127D01*
X5960939Y-27717327D01*
X6004779Y-27662923D01*
X6071073Y-27640858D01*
X6138773Y-27658137D01*
X6186384Y-27709274D01*
X6199500Y-27764779D01*
X6199500Y-28315891D01*
X6233608Y-28443187D01*
X6266554Y-28500250D01*
X6299500Y-28557314D01*
X6299502Y-28557316D01*
X6871224Y-29129038D01*
X6904709Y-29190361D01*
X6905160Y-29192527D01*
X6924497Y-29289738D01*
X6924499Y-29289744D01*
X6973533Y-29408124D01*
X6973538Y-29408133D01*
X7044723Y-29514668D01*
X7044726Y-29514672D01*
X7135327Y-29605273D01*
X7135331Y-29605276D01*
X7241866Y-29676461D01*
X7241872Y-29676464D01*
X7241873Y-29676465D01*
X7360256Y-29725501D01*
X7360260Y-29725501D01*
X7360261Y-29725502D01*
X7485928Y-29750500D01*
X7485931Y-29750500D01*
X7614071Y-29750500D01*
X7698615Y-29733682D01*
X7739744Y-29725501D01*
X7858127Y-29676465D01*
X7964669Y-29605276D01*
X8055276Y-29514669D01*
X8126465Y-29408127D01*
X8175501Y-29289744D01*
X8200500Y-29164069D01*
X8200500Y-29035931D01*
X8200500Y-29035928D01*
X8175502Y-28910261D01*
X8175501Y-28910260D01*
X8175501Y-28910256D01*
X8126465Y-28791873D01*
X8126464Y-28791872D01*
X8126461Y-28791866D01*
X8055276Y-28685331D01*
X8055273Y-28685327D01*
X7964672Y-28594726D01*
X7964668Y-28594723D01*
X7858133Y-28523538D01*
X7858124Y-28523533D01*
X7739744Y-28474499D01*
X7739738Y-28474497D01*
X7642527Y-28455160D01*
X7580616Y-28422774D01*
X7579038Y-28421224D01*
X7236819Y-28079005D01*
X7203334Y-28017682D01*
X7200500Y-27991324D01*
X7200500Y-24208676D01*
X7220185Y-24141637D01*
X7236819Y-24120995D01*
X7900319Y-23457495D01*
X7961642Y-23424010D01*
X8031334Y-23428994D01*
X8087267Y-23470866D01*
X8111684Y-23536330D01*
X8112000Y-23545176D01*
X8112000Y-23696902D01*
X8122020Y-23780343D01*
X8122020Y-23780344D01*
X8122021Y-23780346D01*
X8162939Y-23884108D01*
X8174386Y-23913134D01*
X8260632Y-24026867D01*
X8344230Y-24090261D01*
X8374368Y-24113115D01*
X8507154Y-24165479D01*
X8590598Y-24175500D01*
X9109402Y-24175500D01*
X9192846Y-24165479D01*
X9325632Y-24113115D01*
X9439367Y-24026867D01*
X9525615Y-23913132D01*
X9525617Y-23913126D01*
X9529412Y-23906378D01*
X9579425Y-23857589D01*
X9647876Y-23843583D01*
X9713034Y-23868808D01*
X9745588Y-23906378D01*
X9749386Y-23913134D01*
X9835632Y-24026867D01*
X9919230Y-24090261D01*
X9949368Y-24113115D01*
X10082154Y-24165479D01*
X10165598Y-24175500D01*
X10535455Y-24175500D01*
X10602494Y-24195185D01*
X10638557Y-24230610D01*
X10694720Y-24314664D01*
X10694726Y-24314672D01*
X10789638Y-24409584D01*
X10788675Y-24410546D01*
X10824107Y-24462572D01*
X10825971Y-24532417D01*
X10793785Y-24588350D01*
X9879522Y-25502613D01*
X9879520Y-25502616D01*
X9829406Y-25589416D01*
X9826793Y-25593941D01*
X9812059Y-25648930D01*
X9812059Y-25648931D01*
X9812058Y-25648930D01*
X9799500Y-25695800D01*
X9799500Y-26825803D01*
X9779815Y-26892842D01*
X9727011Y-26938597D01*
X9657853Y-26948541D01*
X9628049Y-26940365D01*
X9607081Y-26931680D01*
X9589744Y-26924499D01*
X9589742Y-26924498D01*
X9589738Y-26924497D01*
X9464071Y-26899500D01*
X9464069Y-26899500D01*
X9335931Y-26899500D01*
X9335929Y-26899500D01*
X9210261Y-26924497D01*
X9210255Y-26924499D01*
X9091875Y-26973533D01*
X9091866Y-26973538D01*
X8985331Y-27044723D01*
X8985327Y-27044726D01*
X8894726Y-27135327D01*
X8894723Y-27135331D01*
X8823538Y-27241866D01*
X8823533Y-27241875D01*
X8774499Y-27360255D01*
X8774497Y-27360261D01*
X8749500Y-27485928D01*
X8749500Y-27485931D01*
X8749500Y-27614069D01*
X8749500Y-27614071D01*
X8749499Y-27614071D01*
X8774497Y-27739738D01*
X8774499Y-27739744D01*
X8823533Y-27858124D01*
X8823538Y-27858133D01*
X8894722Y-27964667D01*
X8894723Y-27964668D01*
X8894724Y-27964669D01*
X8963182Y-28033127D01*
X8996666Y-28094448D01*
X8999500Y-28120807D01*
X8999500Y-29232745D01*
X8979815Y-29299784D01*
X8963181Y-29320426D01*
X7224426Y-31059181D01*
X7163103Y-31092666D01*
X7136745Y-31095500D01*
X829925Y-31095500D01*
X762886Y-31075815D01*
X717131Y-31023011D01*
X714570Y-31016989D01*
X713441Y-31014125D01*
X701115Y-30982868D01*
X701113Y-30982865D01*
X614867Y-30869132D01*
X501134Y-30782886D01*
X501132Y-30782885D01*
X368346Y-30730521D01*
X368345Y-30730520D01*
X368343Y-30730520D01*
X284902Y-30720500D01*
X-233902Y-30720500D01*
X-317343Y-30730520D01*
X-317344Y-30730520D01*
X-324984Y-30733533D01*
X-450132Y-30782885D01*
X-450134Y-30782886D01*
X-563867Y-30869132D01*
X-650115Y-30982868D01*
X-653914Y-30989624D01*
X-703928Y-31038412D01*
X-772380Y-31052416D01*
X-837537Y-31027188D01*
X-870086Y-30989624D01*
X-873884Y-30982868D01*
X-960132Y-30869132D01*
X-1073865Y-30782886D01*
X-1206656Y-30730520D01*
X-1290098Y-30720500D01*
X-1325500Y-30720500D01*
X-1392539Y-30700815D01*
X-1438294Y-30648011D01*
X-1449500Y-30596500D01*
X-1449500Y-25065928D01*
X-98000Y-25065928D01*
X-98000Y-25065931D01*
X-98000Y-25194069D01*
X-73001Y-25319744D01*
X-23965Y-25438127D01*
X-23961Y-25438132D01*
X-23961Y-25438133D01*
X47223Y-25544668D01*
X47226Y-25544672D01*
X137827Y-25635273D01*
X137831Y-25635276D01*
X244366Y-25706461D01*
X244375Y-25706466D01*
X250336Y-25708935D01*
X362756Y-25755501D01*
X362760Y-25755501D01*
X362761Y-25755502D01*
X488428Y-25780500D01*
X488431Y-25780500D01*
X616571Y-25780500D01*
X701115Y-25763682D01*
X742244Y-25755501D01*
X860627Y-25706465D01*
X967169Y-25635276D01*
X1057776Y-25544669D01*
X1128965Y-25438127D01*
X1178001Y-25319744D01*
X1203000Y-25194069D01*
X1203000Y-25065931D01*
X1203000Y-25065928D01*
X1178002Y-24940261D01*
X1178001Y-24940260D01*
X1178001Y-24940256D01*
X1128965Y-24821873D01*
X1128964Y-24821872D01*
X1128961Y-24821866D01*
X1057776Y-24715331D01*
X1057773Y-24715327D01*
X967172Y-24624726D01*
X967168Y-24624723D01*
X860633Y-24553538D01*
X860624Y-24553533D01*
X742244Y-24504499D01*
X742238Y-24504497D01*
X616571Y-24479500D01*
X616569Y-24479500D01*
X488431Y-24479500D01*
X488429Y-24479500D01*
X362761Y-24504497D01*
X362755Y-24504499D01*
X244375Y-24553533D01*
X244366Y-24553538D01*
X137831Y-24624723D01*
X137827Y-24624726D01*
X47226Y-24715327D01*
X47223Y-24715331D01*
X-23961Y-24821866D01*
X-23964Y-24821872D01*
X-23965Y-24821873D01*
X-73001Y-24940256D01*
X-73001Y-24940260D01*
X-73002Y-24940261D01*
X-98000Y-25065928D01*
X-1449500Y-25065928D01*
X-1449500Y-19890807D01*
X-1429815Y-19823768D01*
X-1413185Y-19803130D01*
X-1344724Y-19734669D01*
X-1344723Y-19734668D01*
X-1344722Y-19734667D01*
X-1273538Y-19628133D01*
X-1273533Y-19628124D01*
X-1224499Y-19509744D01*
X-1224497Y-19509738D01*
X-1199499Y-19384071D01*
X-1198903Y-19378009D01*
X-1196332Y-19378262D01*
X-1179815Y-19322012D01*
X-1127011Y-19276257D01*
X-1121001Y-19273701D01*
X-1073868Y-19255115D01*
X-1062779Y-19246706D01*
X-960132Y-19168867D01*
X-873886Y-19055134D01*
X-821520Y-18922344D01*
X-821520Y-18922343D01*
X-811500Y-18838902D01*
X-811500Y-18245097D01*
X-821520Y-18161656D01*
X-821520Y-18161655D01*
X-873886Y-18028865D01*
X-960132Y-17915132D01*
X-1073865Y-17828886D01*
X-1206656Y-17776520D01*
X-1290098Y-17766500D01*
X-1808902Y-17766500D01*
X-1892343Y-17776520D01*
X-1892344Y-17776520D01*
X-1958739Y-17802703D01*
X-2025132Y-17828885D01*
X-2025134Y-17828886D01*
X-2138867Y-17915132D01*
X-2165687Y-17950500D01*
X-2225115Y-18028868D01*
X-2270562Y-18144114D01*
X-2277479Y-18161655D01*
X-2277479Y-18161656D01*
X-2287500Y-18245097D01*
X-2287500Y-18786192D01*
X-2307185Y-18853231D01*
X-2323819Y-18873873D01*
X-2355273Y-18905327D01*
X-2355276Y-18905331D01*
X-2426461Y-19011866D01*
X-2426463Y-19011870D01*
X-2426465Y-19011873D01*
X-2444384Y-19055134D01*
X-2460939Y-19095100D01*
X-2504780Y-19149503D01*
X-2571074Y-19171568D01*
X-2638774Y-19154289D01*
X-2686384Y-19103151D01*
X-2699500Y-19047647D01*
X-2699500Y-17668995D01*
X2149499Y-17668995D01*
X2176418Y-17804322D01*
X2176421Y-17804332D01*
X2229221Y-17931804D01*
X2229228Y-17931817D01*
X2305885Y-18046541D01*
X2305888Y-18046545D01*
X2403454Y-18144111D01*
X2403458Y-18144114D01*
X2518182Y-18220771D01*
X2518195Y-18220778D01*
X2645667Y-18273578D01*
X2645672Y-18273580D01*
X2645676Y-18273580D01*
X2645677Y-18273581D01*
X2781004Y-18300500D01*
X2781007Y-18300500D01*
X2918995Y-18300500D01*
X3010041Y-18282389D01*
X3054328Y-18273580D01*
X3181811Y-18220775D01*
X3296542Y-18144114D01*
X3394114Y-18046542D01*
X3470775Y-17931811D01*
X3523580Y-17804328D01*
X3541414Y-17714672D01*
X3550500Y-17668995D01*
X3550500Y-16781004D01*
X3523581Y-16645677D01*
X3523580Y-16645676D01*
X3523580Y-16645672D01*
X3498045Y-16584024D01*
X3470778Y-16518195D01*
X3470771Y-16518182D01*
X3394114Y-16403458D01*
X3394111Y-16403454D01*
X3296545Y-16305888D01*
X3296541Y-16305885D01*
X3181817Y-16229228D01*
X3181804Y-16229221D01*
X3054332Y-16176421D01*
X3054322Y-16176418D01*
X2918995Y-16149500D01*
X2918993Y-16149500D01*
X2781007Y-16149500D01*
X2781005Y-16149500D01*
X2645677Y-16176418D01*
X2645667Y-16176421D01*
X2518195Y-16229221D01*
X2518182Y-16229228D01*
X2403458Y-16305885D01*
X2403454Y-16305888D01*
X2305888Y-16403454D01*
X2305885Y-16403458D01*
X2229228Y-16518182D01*
X2229221Y-16518195D01*
X2176421Y-16645667D01*
X2176418Y-16645677D01*
X2149500Y-16781004D01*
X2149500Y-16781007D01*
X2149500Y-17668993D01*
X2149500Y-17668995D01*
X2149499Y-17668995D01*
X-2699500Y-17668995D01*
X-2699500Y-9524071D01*
X1179499Y-9524071D01*
X1204497Y-9649738D01*
X1204499Y-9649744D01*
X1253533Y-9768124D01*
X1253538Y-9768133D01*
X1324723Y-9874668D01*
X1324726Y-9874672D01*
X1415327Y-9965273D01*
X1415331Y-9965276D01*
X1521866Y-10036461D01*
X1521872Y-10036464D01*
X1521873Y-10036465D01*
X1640256Y-10085501D01*
X1640260Y-10085501D01*
X1640261Y-10085502D01*
X1765928Y-10110500D01*
X1765931Y-10110500D01*
X1894071Y-10110500D01*
X1978615Y-10093682D01*
X2019744Y-10085501D01*
X2138127Y-10036465D01*
X2244669Y-9965276D01*
X2335276Y-9874669D01*
X2406465Y-9768127D01*
X2455501Y-9649744D01*
X2466445Y-9594726D01*
X2480500Y-9524071D01*
X2480500Y-9395928D01*
X2455502Y-9270261D01*
X2455501Y-9270260D01*
X2455501Y-9270256D01*
X2406465Y-9151873D01*
X2406464Y-9151872D01*
X2406461Y-9151866D01*
X2335276Y-9045331D01*
X2335273Y-9045327D01*
X2244672Y-8954726D01*
X2244668Y-8954723D01*
X2138133Y-8883538D01*
X2138124Y-8883533D01*
X2019744Y-8834499D01*
X2019738Y-8834497D01*
X1894071Y-8809500D01*
X1894069Y-8809500D01*
X1765931Y-8809500D01*
X1765929Y-8809500D01*
X1640261Y-8834497D01*
X1640255Y-8834499D01*
X1521875Y-8883533D01*
X1521866Y-8883538D01*
X1415331Y-8954723D01*
X1415327Y-8954726D01*
X1324726Y-9045327D01*
X1324723Y-9045331D01*
X1253538Y-9151866D01*
X1253533Y-9151875D01*
X1204499Y-9270255D01*
X1204497Y-9270261D01*
X1179500Y-9395928D01*
X1179500Y-9395931D01*
X1179500Y-9524069D01*
X1179500Y-9524071D01*
X1179499Y-9524071D01*
X-2699500Y-9524071D01*
X-2699500Y-4864071D01*
X599499Y-4864071D01*
X624497Y-4989738D01*
X624499Y-4989744D01*
X673533Y-5108124D01*
X673538Y-5108133D01*
X744723Y-5214668D01*
X744726Y-5214672D01*
X835327Y-5305273D01*
X835331Y-5305276D01*
X941866Y-5376461D01*
X941872Y-5376464D01*
X941873Y-5376465D01*
X1060256Y-5425501D01*
X1060260Y-5425501D01*
X1060261Y-5425502D01*
X1185928Y-5450500D01*
X1185931Y-5450500D01*
X1314071Y-5450500D01*
X1424652Y-5428503D01*
X1439744Y-5425501D01*
X1558127Y-5376465D01*
X1664669Y-5305276D01*
X1755276Y-5214669D01*
X1826465Y-5108127D01*
X1875501Y-4989744D01*
X1892603Y-4903768D01*
X1900500Y-4864071D01*
X1900500Y-4735928D01*
X1875502Y-4610261D01*
X1875501Y-4610260D01*
X1875501Y-4610256D01*
X1826465Y-4491873D01*
X1826464Y-4491872D01*
X1826461Y-4491866D01*
X1755276Y-4385331D01*
X1755273Y-4385327D01*
X1664672Y-4294726D01*
X1664668Y-4294723D01*
X1558133Y-4223538D01*
X1558124Y-4223533D01*
X1439744Y-4174499D01*
X1439738Y-4174497D01*
X1314071Y-4149500D01*
X1314069Y-4149500D01*
X1185931Y-4149500D01*
X1185929Y-4149500D01*
X1060261Y-4174497D01*
X1060255Y-4174499D01*
X941875Y-4223533D01*
X941866Y-4223538D01*
X835331Y-4294723D01*
X835327Y-4294726D01*
X744726Y-4385327D01*
X744723Y-4385331D01*
X673538Y-4491866D01*
X673533Y-4491875D01*
X624499Y-4610255D01*
X624497Y-4610261D01*
X599500Y-4735928D01*
X599500Y-4735931D01*
X599500Y-4864069D01*
X599500Y-4864071D01*
X599499Y-4864071D01*
X-2699500Y-4864071D01*
X-2699500Y-3480D01*
X-2699305Y3473D01*
X-2682916Y295296D01*
X-2681359Y309114D01*
X-2632984Y593830D01*
X-2629890Y607386D01*
X-2549941Y884897D01*
X-2545348Y898023D01*
X-2434831Y1164835D01*
X-2428798Y1177363D01*
X-2289101Y1430125D01*
X-2281703Y1441899D01*
X-2114581Y1677436D01*
X-2105910Y1688308D01*
X-1913474Y1903642D01*
X-1903642Y1913474D01*
X-1688308Y2105910D01*
X-1677436Y2114581D01*
X-1441899Y2281703D01*
X-1430125Y2289101D01*
X-1177363Y2428798D01*
X-1164835Y2434831D01*
X-898023Y2545348D01*
X-884897Y2549941D01*
X-607386Y2629890D01*
X-593830Y2632984D01*
X-309114Y2681359D01*
X-295296Y2682916D01*
X-3472Y2699305D01*
X3481Y2699500D01*
X47594Y2699500D01*
X19952405Y2699500D01*
X19996519Y2699500D01*
X20003472Y2699305D01*
G37*
%TD.AperFunction*%
%TA.AperFunction,Conductor*%
G36*
X16190666Y-29208267D02*
G01*
X16237357Y-29260246D01*
X16249500Y-29313763D01*
X16249500Y-30092744D01*
X16229815Y-30159783D01*
X16213181Y-30180425D01*
X15770425Y-30623181D01*
X15709102Y-30656666D01*
X15682744Y-30659500D01*
X15585929Y-30659500D01*
X15460261Y-30684497D01*
X15460255Y-30684499D01*
X15341875Y-30733533D01*
X15341866Y-30733538D01*
X15235331Y-30804723D01*
X15235327Y-30804726D01*
X15144723Y-30895330D01*
X15095286Y-30969320D01*
X15041674Y-31014125D01*
X14972349Y-31022832D01*
X14909322Y-30992678D01*
X14904503Y-30988110D01*
X14836819Y-30920426D01*
X14803334Y-30859103D01*
X14800500Y-30832745D01*
X14800500Y-30323974D01*
X14820185Y-30256935D01*
X14872989Y-30211180D01*
X14929839Y-30201707D01*
X14929839Y-30200500D01*
X15064071Y-30200500D01*
X15164990Y-30180425D01*
X15189744Y-30175501D01*
X15308127Y-30126465D01*
X15414669Y-30055276D01*
X15505276Y-29964669D01*
X15576465Y-29858127D01*
X15625501Y-29739744D01*
X15650500Y-29614069D01*
X15650500Y-29485931D01*
X15650500Y-29485928D01*
X15649903Y-29479866D01*
X15652078Y-29479651D01*
X15657412Y-29419874D01*
X15700260Y-29364686D01*
X15748622Y-29343627D01*
X15795851Y-29334231D01*
X15839744Y-29325501D01*
X15958127Y-29276465D01*
X16056610Y-29210660D01*
X16123286Y-29189783D01*
X16190666Y-29208267D01*
G37*
%TD.AperFunction*%
%TA.AperFunction,Conductor*%
G36*
X12455703Y-14872542D02*
G01*
X12462181Y-14878574D01*
X12904087Y-15320480D01*
X12995412Y-15373207D01*
X13097273Y-15400500D01*
X14879193Y-15400500D01*
X14946232Y-15420185D01*
X14966869Y-15436814D01*
X15015555Y-15485500D01*
X15035332Y-15505277D01*
X15141866Y-15576461D01*
X15141872Y-15576464D01*
X15141873Y-15576465D01*
X15260256Y-15625501D01*
X15260260Y-15625501D01*
X15260261Y-15625502D01*
X15385928Y-15650500D01*
X15475500Y-15650500D01*
X15542539Y-15670185D01*
X15588294Y-15722989D01*
X15599500Y-15774500D01*
X15599500Y-16729192D01*
X15579815Y-16796231D01*
X15563181Y-16816873D01*
X15494726Y-16885327D01*
X15494723Y-16885331D01*
X15423538Y-16991866D01*
X15423533Y-16991875D01*
X15374499Y-17110255D01*
X15374497Y-17110261D01*
X15349500Y-17235928D01*
X15349500Y-17235931D01*
X15349500Y-17364069D01*
X15349500Y-17364071D01*
X15349499Y-17364071D01*
X15374497Y-17489738D01*
X15374499Y-17489744D01*
X15423533Y-17608124D01*
X15423538Y-17608133D01*
X15494723Y-17714668D01*
X15494726Y-17714672D01*
X15585327Y-17805273D01*
X15585331Y-17805276D01*
X15691866Y-17876461D01*
X15691872Y-17876464D01*
X15691873Y-17876465D01*
X15810256Y-17925501D01*
X15810260Y-17925501D01*
X15810261Y-17925502D01*
X15935928Y-17950500D01*
X15935931Y-17950500D01*
X16064071Y-17950500D01*
X16158022Y-17931811D01*
X16189744Y-17925501D01*
X16308127Y-17876465D01*
X16414669Y-17805276D01*
X16505276Y-17714669D01*
X16576465Y-17608127D01*
X16625501Y-17489744D01*
X16625502Y-17489738D01*
X16625880Y-17488495D01*
X16626255Y-17487922D01*
X16627832Y-17484116D01*
X16628554Y-17484415D01*
X16664183Y-17430059D01*
X16727997Y-17401608D01*
X16744538Y-17400500D01*
X16764071Y-17400500D01*
X16848615Y-17383682D01*
X16889744Y-17375501D01*
X17008127Y-17326465D01*
X17106610Y-17260660D01*
X17173286Y-17239783D01*
X17240666Y-17258267D01*
X17287357Y-17310246D01*
X17299500Y-17363763D01*
X17299500Y-24945488D01*
X17279815Y-25012527D01*
X17263181Y-25033169D01*
X16329522Y-25966827D01*
X16329520Y-25966830D01*
X16276794Y-26058153D01*
X16252444Y-26149029D01*
X16249500Y-26160016D01*
X16249500Y-28086236D01*
X16229815Y-28153275D01*
X16177011Y-28199030D01*
X16107853Y-28208974D01*
X16056609Y-28189338D01*
X15958133Y-28123538D01*
X15958124Y-28123533D01*
X15839744Y-28074499D01*
X15839738Y-28074497D01*
X15714071Y-28049500D01*
X15714069Y-28049500D01*
X15617254Y-28049500D01*
X15550215Y-28029815D01*
X15529573Y-28013181D01*
X13836819Y-26320426D01*
X13803334Y-26259103D01*
X13800500Y-26232745D01*
X13800500Y-22797276D01*
X13800499Y-22797269D01*
X13789063Y-22754588D01*
X13773207Y-22695412D01*
X13720480Y-22604087D01*
X12286819Y-21170426D01*
X12253334Y-21109103D01*
X12250500Y-21082745D01*
X12250500Y-19394613D01*
X12270185Y-19327574D01*
X12322989Y-19281819D01*
X12392147Y-19271875D01*
X12443389Y-19291510D01*
X12502402Y-19330941D01*
X12693580Y-19410130D01*
X12896530Y-19450499D01*
X12896534Y-19450500D01*
X12896535Y-19450500D01*
X13103466Y-19450500D01*
X13103467Y-19450499D01*
X13306420Y-19410130D01*
X13497598Y-19330941D01*
X13669655Y-19215977D01*
X13815977Y-19069655D01*
X13930941Y-18897598D01*
X14010130Y-18706420D01*
X14050500Y-18503465D01*
X14050500Y-17296535D01*
X14010130Y-17093580D01*
X13930941Y-16902402D01*
X13815977Y-16730345D01*
X13815975Y-16730342D01*
X13669657Y-16584024D01*
X13560189Y-16510881D01*
X13497598Y-16469059D01*
X13339214Y-16403454D01*
X13306420Y-16389870D01*
X13306412Y-16389868D01*
X13103469Y-16349500D01*
X13103465Y-16349500D01*
X12896535Y-16349500D01*
X12896530Y-16349500D01*
X12693587Y-16389868D01*
X12693579Y-16389870D01*
X12502403Y-16469058D01*
X12443390Y-16508489D01*
X12376712Y-16529366D01*
X12309332Y-16510881D01*
X12262643Y-16458901D01*
X12250500Y-16405386D01*
X12250500Y-14966255D01*
X12270185Y-14899216D01*
X12322989Y-14853461D01*
X12392147Y-14843517D01*
X12455703Y-14872542D01*
G37*
%TD.AperFunction*%
%TA.AperFunction,Conductor*%
G36*
X11668834Y-24948601D02*
G01*
X11724767Y-24990473D01*
X11749184Y-25055937D01*
X11749500Y-25064783D01*
X11749500Y-25731273D01*
X11729815Y-25798312D01*
X11713181Y-25818954D01*
X11051534Y-26480600D01*
X10990211Y-26514085D01*
X10939661Y-26514536D01*
X10864071Y-26499500D01*
X10864069Y-26499500D01*
X10735931Y-26499500D01*
X10729839Y-26499500D01*
X10729839Y-26498139D01*
X10667991Y-26486400D01*
X10617288Y-26438327D01*
X10600500Y-26376025D01*
X10600500Y-25965783D01*
X10620185Y-25898744D01*
X10636819Y-25878102D01*
X11537819Y-24977102D01*
X11599142Y-24943617D01*
X11668834Y-24948601D01*
G37*
%TD.AperFunction*%
%TA.AperFunction,Conductor*%
G36*
X21059338Y-14954542D02*
G01*
X21115271Y-14996414D01*
X21119106Y-15001833D01*
X21178210Y-15090288D01*
X21178213Y-15090292D01*
X21289707Y-15201786D01*
X21289711Y-15201789D01*
X21420814Y-15289390D01*
X21420827Y-15289397D01*
X21566498Y-15349735D01*
X21566503Y-15349737D01*
X21684489Y-15373206D01*
X21721153Y-15380499D01*
X21721156Y-15380500D01*
X21721158Y-15380500D01*
X21878844Y-15380500D01*
X21878845Y-15380499D01*
X22033497Y-15349737D01*
X22179179Y-15289394D01*
X22310289Y-15201789D01*
X22421789Y-15090289D01*
X22472398Y-15014548D01*
X22526010Y-14969743D01*
X22595335Y-14961036D01*
X22658363Y-14991190D01*
X22695082Y-15050634D01*
X22699500Y-15083439D01*
X22699500Y-23069600D01*
X22679815Y-23136639D01*
X22627011Y-23182394D01*
X22575500Y-23193600D01*
X22505930Y-23193600D01*
X22438891Y-23173915D01*
X22393136Y-23121111D01*
X22383192Y-23051953D01*
X22391369Y-23022148D01*
X22425499Y-22939748D01*
X22425501Y-22939744D01*
X22442529Y-22854140D01*
X22450500Y-22814071D01*
X22450500Y-22685928D01*
X22425502Y-22560261D01*
X22425501Y-22560260D01*
X22425501Y-22560256D01*
X22376465Y-22441873D01*
X22376464Y-22441872D01*
X22376461Y-22441866D01*
X22305276Y-22335331D01*
X22305273Y-22335327D01*
X22214672Y-22244726D01*
X22214668Y-22244723D01*
X22108133Y-22173538D01*
X22108124Y-22173533D01*
X21989744Y-22124499D01*
X21989738Y-22124497D01*
X21864071Y-22099500D01*
X21864069Y-22099500D01*
X21735931Y-22099500D01*
X21735929Y-22099500D01*
X21610261Y-22124497D01*
X21610255Y-22124499D01*
X21491875Y-22173533D01*
X21491866Y-22173538D01*
X21385331Y-22244723D01*
X21385327Y-22244726D01*
X21294726Y-22335327D01*
X21294723Y-22335331D01*
X21223538Y-22441866D01*
X21223533Y-22441875D01*
X21176570Y-22555256D01*
X21132729Y-22609659D01*
X21066435Y-22631724D01*
X20998735Y-22614445D01*
X20951125Y-22563308D01*
X20942234Y-22539896D01*
X20935415Y-22514448D01*
X20923207Y-22468884D01*
X20923207Y-22468883D01*
X20870480Y-22377558D01*
X19786819Y-21293897D01*
X19753334Y-21232574D01*
X19750500Y-21206216D01*
X19750500Y-18751919D01*
X19770185Y-18684880D01*
X19822989Y-18639125D01*
X19892147Y-18629181D01*
X19955703Y-18658206D01*
X19989061Y-18704466D01*
X19989869Y-18706418D01*
X19989870Y-18706420D01*
X20022913Y-18786192D01*
X20049319Y-18849943D01*
X20069059Y-18897598D01*
X20074226Y-18905331D01*
X20184024Y-19069657D01*
X20330342Y-19215975D01*
X20330345Y-19215977D01*
X20502402Y-19330941D01*
X20693580Y-19410130D01*
X20896530Y-19450499D01*
X20896534Y-19450500D01*
X20896535Y-19450500D01*
X21103466Y-19450500D01*
X21103467Y-19450499D01*
X21306420Y-19410130D01*
X21497598Y-19330941D01*
X21669655Y-19215977D01*
X21815977Y-19069655D01*
X21930941Y-18897598D01*
X22010130Y-18706420D01*
X22050500Y-18503465D01*
X22050500Y-17296535D01*
X22010130Y-17093580D01*
X21930941Y-16902402D01*
X21815977Y-16730345D01*
X21815975Y-16730342D01*
X21669657Y-16584024D01*
X21560189Y-16510881D01*
X21497598Y-16469059D01*
X21339214Y-16403454D01*
X21306420Y-16389870D01*
X21306412Y-16389868D01*
X21103469Y-16349500D01*
X21103465Y-16349500D01*
X20896535Y-16349500D01*
X20896530Y-16349500D01*
X20693587Y-16389868D01*
X20693579Y-16389870D01*
X20502403Y-16469058D01*
X20330342Y-16584024D01*
X20184024Y-16730342D01*
X20069057Y-16902403D01*
X19989061Y-17095533D01*
X19945220Y-17149936D01*
X19878926Y-17172001D01*
X19811226Y-17154722D01*
X19763616Y-17103584D01*
X19750500Y-17048080D01*
X19750500Y-16212228D01*
X19770185Y-16145189D01*
X19786814Y-16124552D01*
X20928323Y-14983042D01*
X20989646Y-14949558D01*
X21059338Y-14954542D01*
G37*
%TD.AperFunction*%
%TA.AperFunction,Conductor*%
G36*
X10642539Y-14255185D02*
G01*
X10688294Y-14307989D01*
X10699500Y-14359500D01*
X10699500Y-17240500D01*
X10679815Y-17307539D01*
X10627011Y-17353294D01*
X10575500Y-17364500D01*
X9789500Y-17364500D01*
X9722461Y-17344815D01*
X9676706Y-17292011D01*
X9665500Y-17240500D01*
X9665500Y-14359500D01*
X9685185Y-14292461D01*
X9737989Y-14246706D01*
X9789500Y-14235500D01*
X10575500Y-14235500D01*
X10642539Y-14255185D01*
G37*
%TD.AperFunction*%
%TA.AperFunction,Conductor*%
G36*
X13680358Y-6454295D02*
G01*
X13715638Y-6512956D01*
X13726793Y-6554589D01*
X13753156Y-6600250D01*
X13779520Y-6645913D01*
X14340514Y-7206907D01*
X14871427Y-7737819D01*
X14904912Y-7799142D01*
X14899928Y-7868834D01*
X14858056Y-7924767D01*
X14792592Y-7949184D01*
X14783746Y-7949500D01*
X13647273Y-7949500D01*
X13545410Y-7976793D01*
X13454087Y-8029520D01*
X13454084Y-8029522D01*
X12970426Y-8513181D01*
X12909103Y-8546666D01*
X12882745Y-8549500D01*
X12370807Y-8549500D01*
X12303768Y-8529815D01*
X12283130Y-8513185D01*
X12214669Y-8444724D01*
X12214668Y-8444723D01*
X12214667Y-8444722D01*
X12108133Y-8373538D01*
X12108124Y-8373533D01*
X11989744Y-8324499D01*
X11989738Y-8324497D01*
X11864071Y-8299500D01*
X11864069Y-8299500D01*
X11735931Y-8299500D01*
X11735926Y-8299500D01*
X11676176Y-8311385D01*
X11606584Y-8305158D01*
X11551407Y-8262294D01*
X11528163Y-8196404D01*
X11544231Y-8128408D01*
X11564301Y-8102090D01*
X13129572Y-6536818D01*
X13190895Y-6503334D01*
X13217253Y-6500500D01*
X13314071Y-6500500D01*
X13398615Y-6483682D01*
X13439744Y-6475501D01*
X13548413Y-6430488D01*
X13617879Y-6423020D01*
X13680358Y-6454295D01*
G37*
%TD.AperFunction*%
%TD*%
M02*
