M48
; DRILL file KiCad 10.0.5 date 2026-09-30T21:06:45
; FORMAT={-:-/ absolute / inch / decimal}
; #@! TF.CreationDate,2026-09-30T21:06:45+02:00
; #@! TF.GenerationSoftware,Kicad,Pcbnew,10.0.5
; #@! TF.FileFunction,Plated,1,4,PTH
FMAT,2
INCH
; #@! TA.AperFunction,Plated,PTH,ViaDrill
T1C0.0118
; #@! TA.AperFunction,Plated,PTH,ComponentDrill
T2C0.0118
; #@! TA.AperFunction,Plated,PTH,ComponentDrill
T3C0.0236
; #@! TA.AperFunction,Plated,PTH,ComponentDrill
T4C0.0256
; #@! TA.AperFunction,Plated,PTH,ComponentDrill
T5C0.0354
; #@! TA.AperFunction,Plated,PTH,ComponentDrill
T6C0.0472
; #@! TA.AperFunction,Plated,PTH,ComponentDrill
T7C0.1260
%
G90
G05
T1
X-0.0846Y-1.6319
X-0.0728Y-0.7606
X-0.0606Y-0.585
X-0.0177Y-0.4106
X-0.0102Y-0.6488
X0.002Y-1.7402
X0.0157Y-1.4843
X0.0185Y-0.2811
X0.0217Y-0.4961
X0.0218Y-0.9894
X0.0374Y-0.7303
X0.0492Y-0.189
X0.072Y-0.3724
X0.0827Y-0.1437
X0.0886Y-1.1063
X0.0898Y-0.865
X0.0925Y-0.2539
X0.1091Y-0.9559
X0.1118Y-1.0272
X0.1122Y-0.6634
X0.1122Y-0.6929
X0.1123Y-0.9894
X0.1398Y-0.2539
X0.1398Y-1.7402
X0.1496Y-0.1142
X0.1535Y-1.4882
X0.1575Y-1.8701
X0.1909Y-0.1398
X0.1909Y-0.3445
X0.1949Y-0.3976
X0.2118Y-1.0795
X0.2134Y0.0126
X0.2134Y-0.8917
X0.2323Y-0.2756
X0.2343Y-1.6908
X0.2382Y-0.1752
X0.2488Y-1.8079
X0.2496Y-0.8551
X0.252Y0.0291
X0.2559Y-0.2165
X0.2681Y-0.0906
X0.2799Y-1.7307
X0.2815Y-0.3091
X0.2835Y-0.0394
X0.2835Y-0.1535
X0.2853Y0.0594
X0.2972Y-1.1457
X0.2992Y-0.8366
X0.3012Y-1.002
X0.32Y-0.4359
X0.3235Y-0.225
X0.3248Y-1.6929
X0.3268Y-0.5236
X0.3346Y-0.4685
X0.3366Y-1.1417
X0.3484Y-0.1732
X0.3484Y-0.2579
X0.3563Y-0.1181
X0.3697Y-1.5858
X0.3701Y-1.0846
X0.378Y-0.8898
X0.3858Y-0.2382
X0.4035Y-0.1496
X0.4094Y-1.1339
X0.413Y-1.4047
X0.421Y-1.1022
X0.4232Y-1.5846
X0.4252Y-0.3189
X0.4252Y-1.0689
X0.4409Y-0.9409
X0.4409Y-1.0256
X0.4547Y-0.1201
X0.4646Y-0.3524
X0.4685Y-0.3189
X0.4724Y-1.1673
X0.4843Y-0.0374
X0.4933Y-1.7661
X0.5217Y-0.2303
X0.5335Y-0.8602
X0.5354Y-1.1043
X0.5835Y-1.7256
X0.5906Y-1.1634
X0.5906Y-1.2008
X0.6043Y-0.4724
X0.6063Y-0.5512
X0.6083Y-0.5906
X0.6161Y-1.1299
X0.6161Y-1.2327
X0.6181Y-1.2736
X0.6299Y-0.6811
X0.6575Y-0.6594
X0.676Y-1.7256
X0.7146Y-1.2705
X0.7185Y-0.4724
X0.7205Y-0.5118
X0.7244Y-0.5945
X0.7331Y-1.4976
X0.7354Y-1.422
X0.7445Y-0.8595
X0.7488Y-1.2496
X0.7579Y-0.9941
X0.7744Y-1.3839
X0.8098Y-1.098
X0.8098Y-1.1335
X0.8098Y-1.1689
X0.8583Y-0.8957
X0.8583Y-0.9902
X0.868Y-0.7579
X0.876Y-1.0748
X0.8799Y-1.385
T2
X0.5585Y-0.9843
X0.5863Y-0.9564
X0.5863Y-1.0121
X0.6142Y-0.9286
X0.6142Y-0.9843
X0.6142Y-1.0399
X0.642Y-0.9564
X0.642Y-1.0121
X0.6699Y-0.9843
T4
X0.8583Y-0.374
X0.8583Y-0.424
X0.8583Y-0.474
X0.8583Y-0.524
X0.8583Y-0.574
X0.8583Y-0.624
T5
X0.1941Y-1.3949
X0.1941Y-1.5917
X0.2697Y-0.5236
X0.2697Y-0.622
X0.2697Y-0.7205
X0.3996Y-0.5236
X0.3996Y-0.622
X0.3996Y-0.7205
T6
X0.2547Y-1.9303
X0.3925Y-1.9303
X0.5303Y-1.9303
X0.6299Y-0.3898
X0.6299Y-1.6102
X0.7087Y-0.3898
X0.7087Y-1.6102
T7
X0.0Y0.0
X0.0Y-1.9685
X0.7874Y0.0
X0.7874Y-1.9685
T3
G00X0.002Y-0.8161
M15
G01X-0.0295Y-0.8161
M16
G05
G00X0.002Y-1.1563
M15
G01X-0.0295Y-1.1563
M16
G05
G00X0.1724Y-0.8161
M15
G01X0.1291Y-0.8161
M16
G05
G00X0.1724Y-1.1563
M15
G01X0.1291Y-1.1563
M16
G05
M30
