%TF.GenerationSoftware,KiCad,Pcbnew,10.0.5*%
%TF.CreationDate,2026-09-28T22:33:39+02:00*%
%TF.ProjectId,kp-ptr,6b702d70-7472-42e6-9b69-6361645f7063,rev?*%
%TF.SameCoordinates,Original*%
%TF.FileFunction,Copper,L3,Inr*%
%TF.FilePolarity,Positive*%
%FSLAX46Y46*%
G04 Gerber Fmt 4.6, Leading zero omitted, Abs format (unit mm)*
G04 Created by KiCad (PCBNEW 10.0.5) date 2026-09-28 22:33:39*
%MOMM*%
%LPD*%
G01*
G04 APERTURE LIST*
%TA.AperFunction,ComponentPad*%
%ADD10O,2.100000X1.000000*%
%TD*%
%TA.AperFunction,ComponentPad*%
%ADD11O,1.800000X1.000000*%
%TD*%
%TA.AperFunction,ComponentPad*%
%ADD12R,1.600000X1.600000*%
%TD*%
%TA.AperFunction,ComponentPad*%
%ADD13O,5.000000X2.000000*%
%TD*%
%TA.AperFunction,ComponentPad*%
%ADD14O,1.300000X1.300000*%
%TD*%
%TA.AperFunction,ComponentPad*%
%ADD15R,1.000000X1.000000*%
%TD*%
%TA.AperFunction,ViaPad*%
%ADD16C,0.700000*%
%TD*%
%TA.AperFunction,Conductor*%
%ADD17C,0.400000*%
%TD*%
%TA.AperFunction,Conductor*%
%ADD18C,0.800000*%
%TD*%
%TA.AperFunction,Conductor*%
%ADD19C,0.700000*%
%TD*%
%TA.AperFunction,Conductor*%
%ADD20C,0.200000*%
%TD*%
G04 APERTURE END LIST*
D10*
%TO.N,Earth*%
%TO.C,U2*%
X3830000Y-20730000D03*
D11*
X-350000Y-20730000D03*
D10*
X3830000Y-29370000D03*
D11*
X-350000Y-29370000D03*
%TD*%
D12*
%TO.N,+3V3*%
%TO.C,LS1*%
X4930000Y-35430000D03*
%TD*%
D13*
%TO.N,VBAT*%
%TO.C,BT1*%
X17000000Y-9900000D03*
D14*
X16000000Y-9900000D03*
D13*
%TO.N,Earth*%
X17000000Y-40900000D03*
D14*
X16000000Y-40900000D03*
%TD*%
D15*
%TO.N,+3V3*%
%TO.C,J1*%
X21800000Y-9500000D03*
%TD*%
D16*
%TO.N,VBUS*%
X5380000Y-27420000D03*
X552500Y-25130000D03*
X5420000Y-22650000D03*
X-1540000Y-14860000D03*
X6340000Y-21720000D03*
%TO.N,Net-(U2-CC1)*%
X2280000Y-21970000D03*
%TO.N,Net-(U11-I{slash}O2-Pad3)*%
X2840000Y-26090000D03*
%TO.N,Net-(U11-I{slash}O1-Pad1)*%
X2770000Y-24280000D03*
%TO.N,Net-(U2-CC2)*%
X2250000Y-28100000D03*
%TO.N,+3V3*%
X8250000Y-43000000D03*
X14820000Y-43830000D03*
X19020000Y-31740000D03*
X7200000Y-1000000D03*
X21800000Y-22750000D03*
X6809094Y-2300000D03*
X1830000Y-9460000D03*
X7246512Y1510000D03*
X19250000Y-25250000D03*
X1250000Y-4800000D03*
X11200000Y-23900000D03*
X11550000Y-3050000D03*
X3800000Y-2900000D03*
X4850000Y-8750000D03*
X13600000Y-28050000D03*
X15000000Y-29550000D03*
%TO.N,VBAT*%
X8300000Y-13300000D03*
%TO.N,VCC*%
X2850000Y-16850000D03*
X2850000Y-17600000D03*
X50000Y-44200000D03*
X3550000Y-44200000D03*
X-2150000Y-41450000D03*
%TD*%
%TO.N,VBUS*%
D17*
X552500Y-25130000D02*
X552500Y-26062500D01*
X1460000Y-26970000D02*
X3930000Y-26970000D01*
X5420000Y-27380000D02*
X5380000Y-27420000D01*
X552500Y-24467500D02*
X1710000Y-23310000D01*
X3640000Y-23310000D02*
X5230000Y-21720000D01*
X3930000Y-26970000D02*
X4380000Y-27420000D01*
X552500Y-25130000D02*
X552500Y-24467500D01*
X4380000Y-27420000D02*
X5380000Y-27420000D01*
X5230000Y-21720000D02*
X6340000Y-21720000D01*
X1710000Y-23310000D02*
X3640000Y-23310000D01*
X5420000Y-22650000D02*
X5420000Y-27380000D01*
X552500Y-26062500D02*
X1460000Y-26970000D01*
%TO.N,VBAT*%
X8300000Y-13300000D02*
X11700000Y-9900000D01*
X11700000Y-9900000D02*
X17000000Y-9900000D01*
%TO.N,VCC*%
D18*
X2850000Y-43500000D02*
X3550000Y-44200000D01*
X2850000Y-16850000D02*
X2850000Y-17600000D01*
D19*
X50000Y-44200000D02*
X2150000Y-44200000D01*
D18*
X1490000Y-28840000D02*
X1490000Y-37920000D01*
X-890000Y-26460000D02*
X1490000Y-28840000D01*
X2850000Y-18440000D02*
X1490000Y-19800000D01*
D20*
X-2150000Y-42900000D02*
X-850000Y-44200000D01*
D18*
X-890000Y-23630000D02*
X-890000Y-26460000D01*
X1490000Y-21250000D02*
X-890000Y-23630000D01*
X2850000Y-39280000D02*
X2850000Y-43500000D01*
D20*
X-850000Y-44200000D02*
X50000Y-44200000D01*
D18*
X1490000Y-37920000D02*
X2850000Y-39280000D01*
X1490000Y-19800000D02*
X1490000Y-21250000D01*
X2850000Y-17600000D02*
X2850000Y-18440000D01*
D20*
X-2150000Y-41450000D02*
X-2150000Y-42900000D01*
D19*
X2150000Y-44200000D02*
X2850000Y-43500000D01*
%TD*%
%TA.AperFunction,Conductor*%
%TO.N,+3V3*%
G36*
X20003472Y2699305D02*
G01*
X20295296Y2682916D01*
X20309114Y2681359D01*
X20593827Y2632984D01*
X20607384Y2629890D01*
X20884899Y2549939D01*
X20898024Y2545346D01*
X21164834Y2434830D01*
X21177362Y2428797D01*
X21430124Y2289100D01*
X21441898Y2281702D01*
X21677435Y2114580D01*
X21688307Y2105909D01*
X21903641Y1913473D01*
X21913473Y1903641D01*
X22105909Y1688307D01*
X22114580Y1677435D01*
X22281702Y1441898D01*
X22289100Y1430124D01*
X22428797Y1177362D01*
X22434830Y1164834D01*
X22545346Y898024D01*
X22549939Y884899D01*
X22629890Y607384D01*
X22632984Y593827D01*
X22681359Y309114D01*
X22682916Y295296D01*
X22699305Y3473D01*
X22699500Y-3480D01*
X22699500Y-19016383D01*
X22679815Y-19083422D01*
X22627011Y-19129177D01*
X22557853Y-19139121D01*
X22494297Y-19110096D01*
X22468113Y-19078384D01*
X22447907Y-19043387D01*
X22408243Y-18974687D01*
X22324367Y-18890811D01*
X22273003Y-18861156D01*
X22221641Y-18831501D01*
X22109392Y-18801424D01*
X22049731Y-18765058D01*
X22019203Y-18702211D01*
X22019869Y-18657458D01*
X22020258Y-18655501D01*
X22050500Y-18503465D01*
X22050500Y-17296535D01*
X22010130Y-17093580D01*
X21930941Y-16902402D01*
X21815977Y-16730345D01*
X21815975Y-16730342D01*
X21772814Y-16687181D01*
X21739329Y-16625858D01*
X21744313Y-16556166D01*
X21786185Y-16500233D01*
X21851649Y-16475816D01*
X21860495Y-16475500D01*
X21861607Y-16475500D01*
X21861608Y-16475499D01*
X21982452Y-16451463D01*
X22096286Y-16404311D01*
X22198733Y-16335858D01*
X22285858Y-16248733D01*
X22354311Y-16146286D01*
X22401463Y-16032452D01*
X22425500Y-15911606D01*
X22425500Y-15788394D01*
X22401463Y-15667548D01*
X22354311Y-15553714D01*
X22354310Y-15553713D01*
X22354307Y-15553707D01*
X22285858Y-15451267D01*
X22285855Y-15451263D01*
X22198736Y-15364144D01*
X22198732Y-15364141D01*
X22129830Y-15318102D01*
X22085025Y-15264490D01*
X22076318Y-15195165D01*
X22106472Y-15132137D01*
X22129830Y-15111898D01*
X22156345Y-15094180D01*
X22198733Y-15065858D01*
X22285858Y-14978733D01*
X22354311Y-14876286D01*
X22401463Y-14762452D01*
X22425500Y-14641606D01*
X22425500Y-14518394D01*
X22401463Y-14397548D01*
X22354311Y-14283714D01*
X22354310Y-14283713D01*
X22354307Y-14283707D01*
X22285858Y-14181267D01*
X22285855Y-14181263D01*
X22198736Y-14094144D01*
X22198732Y-14094141D01*
X22129830Y-14048102D01*
X22085025Y-13994490D01*
X22076318Y-13925165D01*
X22106472Y-13862137D01*
X22129830Y-13841898D01*
X22156345Y-13824180D01*
X22198733Y-13795858D01*
X22285858Y-13708733D01*
X22354311Y-13606286D01*
X22401463Y-13492452D01*
X22425500Y-13371606D01*
X22425500Y-13248394D01*
X22401463Y-13127548D01*
X22354311Y-13013714D01*
X22354310Y-13013713D01*
X22354307Y-13013707D01*
X22285858Y-12911267D01*
X22285855Y-12911263D01*
X22198736Y-12824144D01*
X22198732Y-12824141D01*
X22129830Y-12778102D01*
X22085025Y-12724490D01*
X22076318Y-12655165D01*
X22106472Y-12592137D01*
X22129830Y-12571898D01*
X22174000Y-12542384D01*
X22198733Y-12525858D01*
X22285858Y-12438733D01*
X22354311Y-12336286D01*
X22401463Y-12222452D01*
X22425500Y-12101606D01*
X22425500Y-11978394D01*
X22401463Y-11857548D01*
X22354311Y-11743714D01*
X22354310Y-11743713D01*
X22354307Y-11743707D01*
X22285858Y-11641267D01*
X22285855Y-11641263D01*
X22198736Y-11554144D01*
X22198732Y-11554141D01*
X22129830Y-11508102D01*
X22085025Y-11454490D01*
X22076318Y-11385165D01*
X22106472Y-11322137D01*
X22129830Y-11301898D01*
X22163165Y-11279624D01*
X22198733Y-11255858D01*
X22285858Y-11168733D01*
X22354311Y-11066286D01*
X22401463Y-10952452D01*
X22425500Y-10831606D01*
X22425500Y-10708394D01*
X22401463Y-10587548D01*
X22360771Y-10489309D01*
X22354312Y-10473716D01*
X22354307Y-10473707D01*
X22285858Y-10371267D01*
X22285855Y-10371263D01*
X22198736Y-10284144D01*
X22198732Y-10284141D01*
X22096292Y-10215692D01*
X22096283Y-10215687D01*
X21982454Y-10168538D01*
X21982455Y-10168538D01*
X21982452Y-10168537D01*
X21982448Y-10168536D01*
X21982444Y-10168535D01*
X21861610Y-10144500D01*
X21861606Y-10144500D01*
X21738394Y-10144500D01*
X21738389Y-10144500D01*
X21617555Y-10168535D01*
X21617545Y-10168538D01*
X21503716Y-10215687D01*
X21503707Y-10215692D01*
X21401267Y-10284141D01*
X21401263Y-10284144D01*
X21314144Y-10371263D01*
X21314141Y-10371267D01*
X21245692Y-10473707D01*
X21245687Y-10473716D01*
X21198538Y-10587545D01*
X21198535Y-10587555D01*
X21174500Y-10708389D01*
X21174500Y-10831610D01*
X21198535Y-10952444D01*
X21198538Y-10952454D01*
X21245687Y-11066283D01*
X21245692Y-11066292D01*
X21314141Y-11168732D01*
X21314144Y-11168736D01*
X21401263Y-11255855D01*
X21470170Y-11301898D01*
X21514974Y-11355511D01*
X21523681Y-11424836D01*
X21493526Y-11487863D01*
X21470170Y-11508102D01*
X21401263Y-11554144D01*
X21314144Y-11641263D01*
X21314141Y-11641267D01*
X21245692Y-11743707D01*
X21245687Y-11743716D01*
X21198538Y-11857545D01*
X21198535Y-11857555D01*
X21174500Y-11978389D01*
X21174500Y-12101610D01*
X21198535Y-12222444D01*
X21198538Y-12222454D01*
X21245687Y-12336283D01*
X21245692Y-12336292D01*
X21314141Y-12438732D01*
X21314144Y-12438736D01*
X21401263Y-12525855D01*
X21470170Y-12571898D01*
X21514974Y-12625511D01*
X21523681Y-12694836D01*
X21493526Y-12757863D01*
X21470170Y-12778102D01*
X21401263Y-12824144D01*
X21314144Y-12911263D01*
X21314141Y-12911267D01*
X21245692Y-13013707D01*
X21245687Y-13013716D01*
X21198538Y-13127545D01*
X21198535Y-13127555D01*
X21174500Y-13248389D01*
X21174500Y-13371610D01*
X21198535Y-13492444D01*
X21198538Y-13492454D01*
X21245687Y-13606283D01*
X21245692Y-13606292D01*
X21314141Y-13708732D01*
X21314144Y-13708736D01*
X21401263Y-13795855D01*
X21470170Y-13841898D01*
X21514974Y-13895511D01*
X21523681Y-13964836D01*
X21493526Y-14027863D01*
X21470170Y-14048102D01*
X21401263Y-14094144D01*
X21314144Y-14181263D01*
X21314141Y-14181267D01*
X21245692Y-14283707D01*
X21245687Y-14283716D01*
X21198538Y-14397545D01*
X21198535Y-14397555D01*
X21174500Y-14518389D01*
X21174500Y-14641610D01*
X21198535Y-14762444D01*
X21198538Y-14762454D01*
X21245687Y-14876283D01*
X21245692Y-14876292D01*
X21314141Y-14978732D01*
X21314144Y-14978736D01*
X21401263Y-15065855D01*
X21470170Y-15111898D01*
X21514974Y-15165511D01*
X21523681Y-15234836D01*
X21493526Y-15297863D01*
X21470170Y-15318102D01*
X21401263Y-15364144D01*
X21314144Y-15451263D01*
X21314141Y-15451267D01*
X21245692Y-15553707D01*
X21245687Y-15553716D01*
X21198538Y-15667545D01*
X21198535Y-15667555D01*
X21174500Y-15788389D01*
X21174500Y-15911610D01*
X21198535Y-16032444D01*
X21198538Y-16032454D01*
X21245687Y-16146283D01*
X21245690Y-16146288D01*
X21257769Y-16164366D01*
X21278645Y-16231044D01*
X21260159Y-16298424D01*
X21208179Y-16345113D01*
X21139209Y-16356288D01*
X21130474Y-16354872D01*
X21103468Y-16349500D01*
X21103465Y-16349500D01*
X20896535Y-16349500D01*
X20896530Y-16349500D01*
X20693587Y-16389868D01*
X20693579Y-16389870D01*
X20502403Y-16469058D01*
X20330342Y-16584024D01*
X20184024Y-16730342D01*
X20069058Y-16902403D01*
X19989870Y-17093579D01*
X19989868Y-17093587D01*
X19949500Y-17296530D01*
X19949500Y-18503469D01*
X19989868Y-18706412D01*
X19989870Y-18706420D01*
X20066248Y-18890813D01*
X20069059Y-18897598D01*
X20117302Y-18969799D01*
X20184024Y-19069657D01*
X20330342Y-19215975D01*
X20330345Y-19215977D01*
X20502402Y-19330941D01*
X20693580Y-19410130D01*
X20872203Y-19445660D01*
X20896530Y-19450499D01*
X20896534Y-19450500D01*
X20896535Y-19450500D01*
X21103466Y-19450500D01*
X21103467Y-19450499D01*
X21306420Y-19410130D01*
X21461571Y-19345863D01*
X21531039Y-19338395D01*
X21593519Y-19369670D01*
X21622884Y-19418494D01*
X21624847Y-19417682D01*
X21627954Y-19425185D01*
X21642570Y-19450500D01*
X21687265Y-19527913D01*
X21771141Y-19611789D01*
X21873868Y-19671099D01*
X21988445Y-19701800D01*
X21988448Y-19701800D01*
X22107060Y-19701800D01*
X22107063Y-19701800D01*
X22221640Y-19671099D01*
X22324367Y-19611789D01*
X22408243Y-19527913D01*
X22467553Y-19425186D01*
X22467553Y-19425185D01*
X22468113Y-19424216D01*
X22518680Y-19376000D01*
X22587287Y-19362778D01*
X22652152Y-19388746D01*
X22692680Y-19445660D01*
X22699500Y-19486216D01*
X22699500Y-26824553D01*
X22679815Y-26891592D01*
X22627011Y-26937347D01*
X22557853Y-26947291D01*
X22513500Y-26931940D01*
X22423886Y-26880201D01*
X22309309Y-26849500D01*
X22190691Y-26849500D01*
X22076114Y-26880201D01*
X22076112Y-26880201D01*
X22076112Y-26880202D01*
X21973387Y-26939511D01*
X21973384Y-26939513D01*
X21889513Y-27023384D01*
X21889511Y-27023387D01*
X21838423Y-27111874D01*
X21830201Y-27126114D01*
X21799500Y-27240691D01*
X21799500Y-27359309D01*
X21830201Y-27473886D01*
X21889511Y-27576613D01*
X21973387Y-27660489D01*
X22076114Y-27719799D01*
X22190691Y-27750500D01*
X22190694Y-27750500D01*
X22309306Y-27750500D01*
X22309309Y-27750500D01*
X22423886Y-27719799D01*
X22513501Y-27668059D01*
X22581398Y-27651586D01*
X22647426Y-27674437D01*
X22690617Y-27729358D01*
X22699500Y-27775446D01*
X22699500Y-34647363D01*
X22679815Y-34714402D01*
X22627011Y-34760157D01*
X22557853Y-34770101D01*
X22528055Y-34761927D01*
X22523893Y-34760203D01*
X22523886Y-34760201D01*
X22409309Y-34729500D01*
X22290691Y-34729500D01*
X22176114Y-34760201D01*
X22176112Y-34760201D01*
X22176112Y-34760202D01*
X22073387Y-34819511D01*
X22073384Y-34819513D01*
X21989513Y-34903384D01*
X21989511Y-34903387D01*
X21930201Y-35006114D01*
X21899500Y-35120691D01*
X21899500Y-35239309D01*
X21930201Y-35353886D01*
X21989511Y-35456613D01*
X21989515Y-35456617D01*
X21992502Y-35460509D01*
X22017699Y-35525678D01*
X22003663Y-35594123D01*
X21954851Y-35644115D01*
X21894129Y-35660000D01*
X20096464Y-35660000D01*
X20029425Y-35640315D01*
X19983670Y-35587511D01*
X19973726Y-35518353D01*
X20002751Y-35454797D01*
X20008783Y-35448319D01*
X20030489Y-35426613D01*
X20089799Y-35323886D01*
X20120500Y-35209309D01*
X20120500Y-35090691D01*
X20089799Y-34976114D01*
X20030489Y-34873387D01*
X19946613Y-34789511D01*
X19843886Y-34730201D01*
X19729309Y-34699500D01*
X19610691Y-34699500D01*
X19496114Y-34730201D01*
X19496112Y-34730201D01*
X19496112Y-34730202D01*
X19393387Y-34789511D01*
X19393384Y-34789513D01*
X19309513Y-34873384D01*
X19309511Y-34873387D01*
X19250201Y-34976114D01*
X19219500Y-35090691D01*
X19219500Y-35209309D01*
X19250201Y-35323886D01*
X19309511Y-35426613D01*
X19309513Y-35426615D01*
X19331217Y-35448319D01*
X19364702Y-35509642D01*
X19359718Y-35579334D01*
X19317846Y-35635267D01*
X19252382Y-35659684D01*
X19243536Y-35660000D01*
X19060000Y-35660000D01*
X19026350Y-35693650D01*
X18965026Y-35727134D01*
X18895335Y-35722149D01*
X18876667Y-35713354D01*
X18853888Y-35700202D01*
X18853887Y-35700201D01*
X18853886Y-35700201D01*
X18739309Y-35669500D01*
X18620691Y-35669500D01*
X18506114Y-35700201D01*
X18506112Y-35700201D01*
X18506112Y-35700202D01*
X18403387Y-35759511D01*
X18403384Y-35759513D01*
X18319513Y-35843384D01*
X18319511Y-35843387D01*
X18260201Y-35946114D01*
X18229500Y-36060691D01*
X18229500Y-36179309D01*
X18260201Y-36293886D01*
X18319511Y-36396613D01*
X18403387Y-36480489D01*
X18506114Y-36539799D01*
X18620691Y-36570500D01*
X18620694Y-36570500D01*
X18739306Y-36570500D01*
X18739309Y-36570500D01*
X18853886Y-36539799D01*
X18873998Y-36528186D01*
X18941897Y-36511713D01*
X19007925Y-36534564D01*
X19051117Y-36589484D01*
X19060000Y-36635573D01*
X19060000Y-37559068D01*
X19040315Y-37626107D01*
X18987511Y-37671862D01*
X18918353Y-37681806D01*
X18874000Y-37666455D01*
X18793886Y-37620201D01*
X18679309Y-37589500D01*
X18560691Y-37589500D01*
X18446114Y-37620201D01*
X18446112Y-37620201D01*
X18446112Y-37620202D01*
X18343387Y-37679511D01*
X18343384Y-37679513D01*
X18259513Y-37763384D01*
X18259511Y-37763387D01*
X18204132Y-37859306D01*
X18200201Y-37866114D01*
X18169500Y-37980691D01*
X18169500Y-38099309D01*
X18200201Y-38213886D01*
X18259511Y-38316613D01*
X18343387Y-38400489D01*
X18446114Y-38459799D01*
X18560691Y-38490500D01*
X18560694Y-38490500D01*
X18679306Y-38490500D01*
X18679309Y-38490500D01*
X18793886Y-38459799D01*
X18874000Y-38413544D01*
X18941898Y-38397071D01*
X19007926Y-38419922D01*
X19051117Y-38474843D01*
X19060000Y-38520931D01*
X19060000Y-39543857D01*
X19040315Y-39610896D01*
X18987511Y-39656651D01*
X18918353Y-39666595D01*
X18897682Y-39661788D01*
X18804536Y-39631523D01*
X18669746Y-39610174D01*
X18602352Y-39599500D01*
X15397648Y-39599500D01*
X15373329Y-39603351D01*
X15195465Y-39631522D01*
X15000776Y-39694781D01*
X14818386Y-39787715D01*
X14652786Y-39908028D01*
X14508028Y-40052786D01*
X14387715Y-40218386D01*
X14294781Y-40400776D01*
X14231522Y-40595465D01*
X14199500Y-40797648D01*
X14199500Y-41002351D01*
X14231522Y-41204534D01*
X14294781Y-41399223D01*
X14387715Y-41581613D01*
X14508028Y-41747213D01*
X14652786Y-41891971D01*
X14807749Y-42004556D01*
X14818390Y-42012287D01*
X14934607Y-42071503D01*
X15000776Y-42105218D01*
X15000778Y-42105218D01*
X15000781Y-42105220D01*
X15096174Y-42136215D01*
X15195465Y-42168477D01*
X15296557Y-42184488D01*
X15397648Y-42200500D01*
X15397649Y-42200500D01*
X18602351Y-42200500D01*
X18602352Y-42200500D01*
X18804534Y-42168477D01*
X18897683Y-42138210D01*
X18967522Y-42136215D01*
X19027355Y-42172295D01*
X19058184Y-42234996D01*
X19060000Y-42256142D01*
X19060000Y-42480000D01*
X22575500Y-42480000D01*
X22642539Y-42499685D01*
X22688294Y-42552489D01*
X22699500Y-42604000D01*
X22699500Y-49996519D01*
X22699305Y-50003472D01*
X22682916Y-50295296D01*
X22681359Y-50309114D01*
X22632984Y-50593827D01*
X22629890Y-50607384D01*
X22549939Y-50884899D01*
X22545346Y-50898024D01*
X22434830Y-51164834D01*
X22428797Y-51177362D01*
X22289100Y-51430124D01*
X22281702Y-51441898D01*
X22114580Y-51677435D01*
X22105909Y-51688307D01*
X21913473Y-51903641D01*
X21903641Y-51913473D01*
X21688307Y-52105909D01*
X21677435Y-52114580D01*
X21441898Y-52281702D01*
X21430124Y-52289100D01*
X21177362Y-52428797D01*
X21164834Y-52434830D01*
X20898024Y-52545346D01*
X20884899Y-52549939D01*
X20607384Y-52629890D01*
X20593827Y-52632984D01*
X20309114Y-52681359D01*
X20295296Y-52682916D01*
X20003472Y-52699305D01*
X19996519Y-52699500D01*
X3481Y-52699500D01*
X-3472Y-52699305D01*
X-295296Y-52682916D01*
X-309114Y-52681359D01*
X-593827Y-52632984D01*
X-607384Y-52629890D01*
X-884899Y-52549939D01*
X-898024Y-52545346D01*
X-1164834Y-52434830D01*
X-1177362Y-52428797D01*
X-1430124Y-52289100D01*
X-1441898Y-52281702D01*
X-1677435Y-52114580D01*
X-1688307Y-52105909D01*
X-1903641Y-51913473D01*
X-1913473Y-51903641D01*
X-2105909Y-51688307D01*
X-2114580Y-51677435D01*
X-2281702Y-51441898D01*
X-2289100Y-51430124D01*
X-2428797Y-51177362D01*
X-2434830Y-51164834D01*
X-2545346Y-50898024D01*
X-2549939Y-50884899D01*
X-2629890Y-50607384D01*
X-2632984Y-50593827D01*
X-2681359Y-50309114D01*
X-2682916Y-50295296D01*
X-2699305Y-50003472D01*
X-2699500Y-49996519D01*
X-2699500Y-49875435D01*
X-1900500Y-49875435D01*
X-1900500Y-50124565D01*
X-1867982Y-50371565D01*
X-1803502Y-50612207D01*
X-1708164Y-50842373D01*
X-1583599Y-51058127D01*
X-1431938Y-51255776D01*
X-1255776Y-51431938D01*
X-1058127Y-51583599D01*
X-842373Y-51708164D01*
X-612207Y-51803502D01*
X-371565Y-51867982D01*
X-124565Y-51900500D01*
X-124558Y-51900500D01*
X124558Y-51900500D01*
X124565Y-51900500D01*
X371565Y-51867982D01*
X612207Y-51803502D01*
X842373Y-51708164D01*
X1058127Y-51583599D01*
X1255776Y-51431938D01*
X1431938Y-51255776D01*
X1583599Y-51058127D01*
X1708164Y-50842373D01*
X1803502Y-50612207D01*
X1867982Y-50371565D01*
X1900500Y-50124565D01*
X1900500Y-49875435D01*
X1867982Y-49628435D01*
X1803502Y-49387793D01*
X1708164Y-49157627D01*
X1685684Y-49118691D01*
X1615552Y-48997217D01*
X1583599Y-48941873D01*
X1583162Y-48941304D01*
X5569500Y-48941304D01*
X5569500Y-49118695D01*
X5604103Y-49292658D01*
X5604106Y-49292667D01*
X5671983Y-49456540D01*
X5671990Y-49456553D01*
X5770535Y-49604034D01*
X5770538Y-49604038D01*
X5895961Y-49729461D01*
X5895965Y-49729464D01*
X6043446Y-49828009D01*
X6043459Y-49828016D01*
X6166363Y-49878923D01*
X6207334Y-49895894D01*
X6207336Y-49895894D01*
X6207341Y-49895896D01*
X6381304Y-49930499D01*
X6381307Y-49930500D01*
X6381309Y-49930500D01*
X6558693Y-49930500D01*
X6558694Y-49930499D01*
X6616682Y-49918964D01*
X6732658Y-49895896D01*
X6732661Y-49895894D01*
X6732666Y-49895894D01*
X6896547Y-49828013D01*
X7044035Y-49729464D01*
X7169464Y-49604035D01*
X7268013Y-49456547D01*
X7335894Y-49292666D01*
X7370500Y-49118691D01*
X7370500Y-48941309D01*
X7370500Y-48941306D01*
X7370499Y-48941304D01*
X9069500Y-48941304D01*
X9069500Y-49118695D01*
X9104103Y-49292658D01*
X9104106Y-49292667D01*
X9171983Y-49456540D01*
X9171990Y-49456553D01*
X9270535Y-49604034D01*
X9270538Y-49604038D01*
X9395961Y-49729461D01*
X9395965Y-49729464D01*
X9543446Y-49828009D01*
X9543459Y-49828016D01*
X9666363Y-49878923D01*
X9707334Y-49895894D01*
X9707336Y-49895894D01*
X9707341Y-49895896D01*
X9881304Y-49930499D01*
X9881307Y-49930500D01*
X9881309Y-49930500D01*
X10058693Y-49930500D01*
X10058694Y-49930499D01*
X10116682Y-49918964D01*
X10232658Y-49895896D01*
X10232661Y-49895894D01*
X10232666Y-49895894D01*
X10396547Y-49828013D01*
X10544035Y-49729464D01*
X10669464Y-49604035D01*
X10768013Y-49456547D01*
X10835894Y-49292666D01*
X10870500Y-49118691D01*
X10870500Y-48941309D01*
X10870500Y-48941306D01*
X10870499Y-48941304D01*
X12569500Y-48941304D01*
X12569500Y-49118695D01*
X12604103Y-49292658D01*
X12604106Y-49292667D01*
X12671983Y-49456540D01*
X12671990Y-49456553D01*
X12770535Y-49604034D01*
X12770538Y-49604038D01*
X12895961Y-49729461D01*
X12895965Y-49729464D01*
X13043446Y-49828009D01*
X13043459Y-49828016D01*
X13166363Y-49878923D01*
X13207334Y-49895894D01*
X13207336Y-49895894D01*
X13207341Y-49895896D01*
X13381304Y-49930499D01*
X13381307Y-49930500D01*
X13381309Y-49930500D01*
X13558693Y-49930500D01*
X13558694Y-49930499D01*
X13616682Y-49918964D01*
X13732658Y-49895896D01*
X13732661Y-49895894D01*
X13732666Y-49895894D01*
X13782044Y-49875441D01*
X18099500Y-49875441D01*
X18099500Y-50124558D01*
X18099501Y-50124575D01*
X18132017Y-50371561D01*
X18196498Y-50612207D01*
X18291830Y-50842361D01*
X18291837Y-50842376D01*
X18416400Y-51058126D01*
X18568060Y-51255774D01*
X18568066Y-51255781D01*
X18744218Y-51431933D01*
X18744225Y-51431939D01*
X18941873Y-51583599D01*
X19157623Y-51708162D01*
X19157638Y-51708169D01*
X19256825Y-51749253D01*
X19387793Y-51803502D01*
X19628435Y-51867982D01*
X19875435Y-51900500D01*
X19875442Y-51900500D01*
X20124558Y-51900500D01*
X20124565Y-51900500D01*
X20371565Y-51867982D01*
X20612207Y-51803502D01*
X20842373Y-51708164D01*
X21058127Y-51583599D01*
X21255776Y-51431938D01*
X21431938Y-51255776D01*
X21583599Y-51058127D01*
X21708164Y-50842373D01*
X21803502Y-50612207D01*
X21867982Y-50371565D01*
X21900500Y-50124565D01*
X21900500Y-49875435D01*
X21867982Y-49628435D01*
X21803502Y-49387793D01*
X21708164Y-49157627D01*
X21685684Y-49118691D01*
X21583599Y-48941873D01*
X21431939Y-48744225D01*
X21431933Y-48744218D01*
X21255781Y-48568066D01*
X21255774Y-48568060D01*
X21058126Y-48416400D01*
X20842376Y-48291837D01*
X20842361Y-48291830D01*
X20612207Y-48196498D01*
X20491319Y-48164106D01*
X20371565Y-48132018D01*
X20371564Y-48132017D01*
X20371561Y-48132017D01*
X20124575Y-48099501D01*
X20124570Y-48099500D01*
X20124565Y-48099500D01*
X19875435Y-48099500D01*
X19875429Y-48099500D01*
X19875424Y-48099501D01*
X19628438Y-48132017D01*
X19387792Y-48196498D01*
X19157638Y-48291830D01*
X19157623Y-48291837D01*
X18941873Y-48416400D01*
X18744225Y-48568060D01*
X18744218Y-48568066D01*
X18568066Y-48744218D01*
X18568060Y-48744225D01*
X18416400Y-48941873D01*
X18291837Y-49157623D01*
X18291830Y-49157638D01*
X18196498Y-49387792D01*
X18132017Y-49628438D01*
X18099501Y-49875424D01*
X18099500Y-49875441D01*
X13782044Y-49875441D01*
X13896547Y-49828013D01*
X13896553Y-49828009D01*
X13985953Y-49768274D01*
X14013062Y-49750159D01*
X14044035Y-49729464D01*
X14169464Y-49604035D01*
X14268013Y-49456547D01*
X14335894Y-49292666D01*
X14370500Y-49118691D01*
X14370500Y-48941309D01*
X14370500Y-48941306D01*
X14370499Y-48941304D01*
X14335896Y-48767341D01*
X14335893Y-48767332D01*
X14268016Y-48603459D01*
X14268009Y-48603446D01*
X14169464Y-48455965D01*
X14169461Y-48455961D01*
X14044038Y-48330538D01*
X14044034Y-48330535D01*
X13896553Y-48231990D01*
X13896540Y-48231983D01*
X13732667Y-48164106D01*
X13732658Y-48164103D01*
X13558694Y-48129500D01*
X13558691Y-48129500D01*
X13381309Y-48129500D01*
X13381306Y-48129500D01*
X13207341Y-48164103D01*
X13207332Y-48164106D01*
X13043459Y-48231983D01*
X13043446Y-48231990D01*
X12895965Y-48330535D01*
X12895961Y-48330538D01*
X12770538Y-48455961D01*
X12770535Y-48455965D01*
X12671990Y-48603446D01*
X12671983Y-48603459D01*
X12604106Y-48767332D01*
X12604103Y-48767341D01*
X12569500Y-48941304D01*
X10870499Y-48941304D01*
X10835896Y-48767341D01*
X10835893Y-48767332D01*
X10768016Y-48603459D01*
X10768009Y-48603446D01*
X10669464Y-48455965D01*
X10669461Y-48455961D01*
X10544038Y-48330538D01*
X10544034Y-48330535D01*
X10396553Y-48231990D01*
X10396540Y-48231983D01*
X10232667Y-48164106D01*
X10232658Y-48164103D01*
X10058694Y-48129500D01*
X10058691Y-48129500D01*
X9881309Y-48129500D01*
X9881306Y-48129500D01*
X9707341Y-48164103D01*
X9707332Y-48164106D01*
X9543459Y-48231983D01*
X9543446Y-48231990D01*
X9395965Y-48330535D01*
X9395961Y-48330538D01*
X9270538Y-48455961D01*
X9270535Y-48455965D01*
X9171990Y-48603446D01*
X9171983Y-48603459D01*
X9104106Y-48767332D01*
X9104103Y-48767341D01*
X9069500Y-48941304D01*
X7370499Y-48941304D01*
X7335896Y-48767341D01*
X7335893Y-48767332D01*
X7268016Y-48603459D01*
X7268009Y-48603446D01*
X7169464Y-48455965D01*
X7169461Y-48455961D01*
X7044038Y-48330538D01*
X7044034Y-48330535D01*
X6896553Y-48231990D01*
X6896540Y-48231983D01*
X6732667Y-48164106D01*
X6732658Y-48164103D01*
X6558694Y-48129500D01*
X6558691Y-48129500D01*
X6381309Y-48129500D01*
X6381306Y-48129500D01*
X6207341Y-48164103D01*
X6207332Y-48164106D01*
X6043459Y-48231983D01*
X6043446Y-48231990D01*
X5895965Y-48330535D01*
X5895961Y-48330538D01*
X5770538Y-48455961D01*
X5770535Y-48455965D01*
X5671990Y-48603446D01*
X5671983Y-48603459D01*
X5604106Y-48767332D01*
X5604103Y-48767341D01*
X5569500Y-48941304D01*
X1583162Y-48941304D01*
X1431939Y-48744225D01*
X1431933Y-48744218D01*
X1255781Y-48568066D01*
X1255774Y-48568060D01*
X1058126Y-48416400D01*
X842376Y-48291837D01*
X842361Y-48291830D01*
X612207Y-48196498D01*
X491319Y-48164106D01*
X371565Y-48132018D01*
X371564Y-48132017D01*
X371561Y-48132017D01*
X124575Y-48099501D01*
X124570Y-48099500D01*
X124565Y-48099500D01*
X-124565Y-48099500D01*
X-124570Y-48099500D01*
X-124575Y-48099501D01*
X-371561Y-48132017D01*
X-371564Y-48132017D01*
X-371565Y-48132018D01*
X-491319Y-48164106D01*
X-612207Y-48196498D01*
X-842361Y-48291830D01*
X-842376Y-48291837D01*
X-1058126Y-48416400D01*
X-1255774Y-48568060D01*
X-1255781Y-48568066D01*
X-1431933Y-48744218D01*
X-1431939Y-48744225D01*
X-1583599Y-48941873D01*
X-1685684Y-49118691D01*
X-1708164Y-49157627D01*
X-1803502Y-49387793D01*
X-1867982Y-49628435D01*
X-1900500Y-49875435D01*
X-2699500Y-49875435D01*
X-2699500Y-47440691D01*
X3549500Y-47440691D01*
X3549500Y-47559309D01*
X3580201Y-47673886D01*
X3639511Y-47776613D01*
X3723387Y-47860489D01*
X3826114Y-47919799D01*
X3940691Y-47950500D01*
X3940694Y-47950500D01*
X4059306Y-47950500D01*
X4059309Y-47950500D01*
X4173886Y-47919799D01*
X4276613Y-47860489D01*
X4360489Y-47776613D01*
X4419799Y-47673886D01*
X4450500Y-47559309D01*
X4450500Y-47440691D01*
X4419799Y-47326114D01*
X4360489Y-47223387D01*
X4276613Y-47139511D01*
X4173886Y-47080201D01*
X4059309Y-47049500D01*
X3940691Y-47049500D01*
X3826114Y-47080201D01*
X3826112Y-47080201D01*
X3826112Y-47080202D01*
X3723387Y-47139511D01*
X3723384Y-47139513D01*
X3639513Y-47223384D01*
X3639511Y-47223387D01*
X3580201Y-47326114D01*
X3549500Y-47440691D01*
X-2699500Y-47440691D01*
X-2699500Y-45860691D01*
X5869500Y-45860691D01*
X5869500Y-45979309D01*
X5900201Y-46093886D01*
X5959511Y-46196613D01*
X6043387Y-46280489D01*
X6146114Y-46339799D01*
X6260691Y-46370500D01*
X6260694Y-46370500D01*
X6379306Y-46370500D01*
X6379309Y-46370500D01*
X6493886Y-46339799D01*
X6596613Y-46280489D01*
X6680489Y-46196613D01*
X6739799Y-46093886D01*
X6770500Y-45979309D01*
X6770500Y-45860691D01*
X6739799Y-45746114D01*
X6680489Y-45643387D01*
X6596613Y-45559511D01*
X6493886Y-45500201D01*
X6379309Y-45469500D01*
X6260691Y-45469500D01*
X6146114Y-45500201D01*
X6146112Y-45500201D01*
X6146112Y-45500202D01*
X6043387Y-45559511D01*
X6043384Y-45559513D01*
X5959513Y-45643384D01*
X5959511Y-45643387D01*
X5900201Y-45746114D01*
X5869500Y-45860691D01*
X-2699500Y-45860691D01*
X-2699500Y-43212012D01*
X-2679815Y-43144973D01*
X-2627011Y-43099218D01*
X-2557853Y-43089274D01*
X-2494297Y-43118299D01*
X-2476282Y-43140119D01*
X-2475428Y-43139464D01*
X-2470484Y-43145905D01*
X-2470480Y-43145913D01*
X-1180687Y-44435703D01*
X-1180684Y-44435708D01*
X-1170480Y-44445911D01*
X-1170480Y-44445913D01*
X-1095913Y-44520480D01*
X-1026615Y-44560489D01*
X-1004587Y-44573207D01*
X-902727Y-44600501D01*
X-902725Y-44600501D01*
X-789677Y-44600501D01*
X-789661Y-44600500D01*
X-520807Y-44600500D01*
X-453768Y-44620185D01*
X-433130Y-44636814D01*
X-364669Y-44705276D01*
X-258127Y-44776465D01*
X-139744Y-44825501D01*
X-98615Y-44833682D01*
X-14071Y-44850500D01*
X-14069Y-44850500D01*
X2214071Y-44850500D01*
X2298615Y-44833682D01*
X2339744Y-44825501D01*
X2458127Y-44776465D01*
X2564669Y-44705277D01*
X2726964Y-44542980D01*
X2788285Y-44509497D01*
X2857977Y-44514481D01*
X2902325Y-44542982D01*
X3103453Y-44744110D01*
X3103461Y-44744116D01*
X3188132Y-44800691D01*
X3218188Y-44820774D01*
X3345671Y-44873580D01*
X3481006Y-44900499D01*
X3481008Y-44900499D01*
X3618991Y-44900499D01*
X3618993Y-44900499D01*
X3754328Y-44873580D01*
X3881811Y-44820774D01*
X3911868Y-44800691D01*
X12079500Y-44800691D01*
X12079500Y-44919309D01*
X12110201Y-45033886D01*
X12169511Y-45136613D01*
X12253387Y-45220489D01*
X12356114Y-45279799D01*
X12470691Y-45310500D01*
X12470694Y-45310500D01*
X12589306Y-45310500D01*
X12589309Y-45310500D01*
X12703886Y-45279799D01*
X12806613Y-45220489D01*
X12890489Y-45136613D01*
X12949799Y-45033886D01*
X12980500Y-44919309D01*
X12980500Y-44800691D01*
X12949799Y-44686114D01*
X12890489Y-44583387D01*
X12806613Y-44499511D01*
X12703886Y-44440201D01*
X12589309Y-44409500D01*
X12470691Y-44409500D01*
X12356114Y-44440201D01*
X12356112Y-44440201D01*
X12356112Y-44440202D01*
X12253387Y-44499511D01*
X12253384Y-44499513D01*
X12169513Y-44583384D01*
X12169511Y-44583387D01*
X12133048Y-44646543D01*
X12110201Y-44686114D01*
X12079500Y-44800691D01*
X3911868Y-44800691D01*
X3948131Y-44776461D01*
X3996543Y-44744113D01*
X3996546Y-44744110D01*
X4035774Y-44704883D01*
X4094110Y-44646546D01*
X4094113Y-44646543D01*
X4170770Y-44531817D01*
X4170770Y-44531816D01*
X4170774Y-44531811D01*
X4223580Y-44404328D01*
X4250499Y-44268993D01*
X4250499Y-44131006D01*
X4223580Y-43995671D01*
X4184237Y-43900691D01*
X6659500Y-43900691D01*
X6659500Y-44019309D01*
X6690201Y-44133886D01*
X6749511Y-44236613D01*
X6833387Y-44320489D01*
X6936114Y-44379799D01*
X7050691Y-44410500D01*
X7050694Y-44410500D01*
X7169306Y-44410500D01*
X7169309Y-44410500D01*
X7283886Y-44379799D01*
X7386613Y-44320489D01*
X7470489Y-44236613D01*
X7529799Y-44133886D01*
X7560500Y-44019309D01*
X7560500Y-43900691D01*
X7529799Y-43786114D01*
X7520894Y-43770691D01*
X16719500Y-43770691D01*
X16719500Y-43889309D01*
X16750201Y-44003886D01*
X16809511Y-44106613D01*
X16893387Y-44190489D01*
X16996114Y-44249799D01*
X17110691Y-44280500D01*
X17110694Y-44280500D01*
X17229306Y-44280500D01*
X17229309Y-44280500D01*
X17343886Y-44249799D01*
X17446613Y-44190489D01*
X17530489Y-44106613D01*
X17589799Y-44003886D01*
X17620500Y-43889309D01*
X17620500Y-43770691D01*
X17589799Y-43656114D01*
X17530489Y-43553387D01*
X17446613Y-43469511D01*
X17343886Y-43410201D01*
X17229309Y-43379500D01*
X17110691Y-43379500D01*
X16996114Y-43410201D01*
X16996112Y-43410201D01*
X16996112Y-43410202D01*
X16893387Y-43469511D01*
X16893384Y-43469513D01*
X16809513Y-43553384D01*
X16809511Y-43553387D01*
X16750201Y-43656114D01*
X16719500Y-43770691D01*
X7520894Y-43770691D01*
X7470489Y-43683387D01*
X7386613Y-43599511D01*
X7283886Y-43540201D01*
X7169309Y-43509500D01*
X7050691Y-43509500D01*
X6936114Y-43540201D01*
X6936112Y-43540201D01*
X6936112Y-43540202D01*
X6833387Y-43599511D01*
X6833384Y-43599513D01*
X6749513Y-43683384D01*
X6749511Y-43683387D01*
X6699106Y-43770691D01*
X6690201Y-43786114D01*
X6659500Y-43900691D01*
X4184237Y-43900691D01*
X4170774Y-43868188D01*
X4124878Y-43799500D01*
X4094116Y-43753461D01*
X4094110Y-43753453D01*
X3586819Y-43246162D01*
X3553334Y-43184839D01*
X3550500Y-43158481D01*
X3550500Y-42885890D01*
X5499500Y-42885890D01*
X5499500Y-43004508D01*
X5530201Y-43119085D01*
X5589511Y-43221812D01*
X5673387Y-43305688D01*
X5776114Y-43364998D01*
X5890691Y-43395699D01*
X5890694Y-43395699D01*
X6009306Y-43395699D01*
X6009309Y-43395699D01*
X6123886Y-43364998D01*
X6226613Y-43305688D01*
X6310489Y-43221812D01*
X6369799Y-43119085D01*
X6400500Y-43004508D01*
X6400500Y-42885890D01*
X6369799Y-42771313D01*
X6310489Y-42668586D01*
X6226613Y-42584710D01*
X6123886Y-42525400D01*
X6009309Y-42494699D01*
X5890691Y-42494699D01*
X5776114Y-42525400D01*
X5776112Y-42525400D01*
X5776112Y-42525401D01*
X5673387Y-42584710D01*
X5673384Y-42584712D01*
X5589513Y-42668583D01*
X5589511Y-42668586D01*
X5530201Y-42771313D01*
X5499500Y-42885890D01*
X3550500Y-42885890D01*
X3550500Y-40503920D01*
X4179499Y-40503920D01*
X4208340Y-40648907D01*
X4208343Y-40648917D01*
X4264912Y-40785488D01*
X4264919Y-40785501D01*
X4347048Y-40908415D01*
X4347051Y-40908419D01*
X4451580Y-41012948D01*
X4451584Y-41012951D01*
X4574498Y-41095080D01*
X4574511Y-41095087D01*
X4711082Y-41151656D01*
X4711087Y-41151658D01*
X4711091Y-41151658D01*
X4711092Y-41151659D01*
X4856079Y-41180500D01*
X4856082Y-41180500D01*
X5003920Y-41180500D01*
X5101462Y-41161096D01*
X5148913Y-41151658D01*
X5285495Y-41095084D01*
X5408416Y-41012951D01*
X5512951Y-40908416D01*
X5595084Y-40785495D01*
X5651658Y-40648913D01*
X5680500Y-40503918D01*
X5680500Y-40356082D01*
X5680500Y-40356079D01*
X5656765Y-40236761D01*
X5653568Y-40220691D01*
X8939500Y-40220691D01*
X8939500Y-40339309D01*
X8970201Y-40453886D01*
X9029511Y-40556613D01*
X9113387Y-40640489D01*
X9216114Y-40699799D01*
X9330691Y-40730500D01*
X9330694Y-40730500D01*
X9449306Y-40730500D01*
X9449309Y-40730500D01*
X9563886Y-40699799D01*
X9666613Y-40640489D01*
X9750489Y-40556613D01*
X9809799Y-40453886D01*
X9840500Y-40339309D01*
X9840500Y-40220691D01*
X9832461Y-40190691D01*
X10299500Y-40190691D01*
X10299500Y-40309309D01*
X10330201Y-40423886D01*
X10389511Y-40526613D01*
X10473387Y-40610489D01*
X10576114Y-40669799D01*
X10690691Y-40700500D01*
X10690694Y-40700500D01*
X10809306Y-40700500D01*
X10809309Y-40700500D01*
X10923886Y-40669799D01*
X11026613Y-40610489D01*
X11110489Y-40526613D01*
X11169799Y-40423886D01*
X11200500Y-40309309D01*
X11200500Y-40190691D01*
X11169799Y-40076114D01*
X11110489Y-39973387D01*
X11026613Y-39889511D01*
X10923886Y-39830201D01*
X10809309Y-39799500D01*
X10690691Y-39799500D01*
X10576114Y-39830201D01*
X10576112Y-39830201D01*
X10576112Y-39830202D01*
X10473387Y-39889511D01*
X10473384Y-39889513D01*
X10389513Y-39973384D01*
X10389511Y-39973387D01*
X10331127Y-40074511D01*
X10330201Y-40076114D01*
X10299500Y-40190691D01*
X9832461Y-40190691D01*
X9809799Y-40106114D01*
X9750489Y-40003387D01*
X9666613Y-39919511D01*
X9563886Y-39860201D01*
X9449309Y-39829500D01*
X9330691Y-39829500D01*
X9216114Y-39860201D01*
X9216112Y-39860201D01*
X9216112Y-39860202D01*
X9113387Y-39919511D01*
X9113384Y-39919513D01*
X9029513Y-40003384D01*
X9029511Y-40003387D01*
X8970201Y-40106114D01*
X8939500Y-40220691D01*
X5653568Y-40220691D01*
X5651658Y-40211087D01*
X5608176Y-40106112D01*
X5595087Y-40074511D01*
X5595080Y-40074498D01*
X5512951Y-39951584D01*
X5512948Y-39951580D01*
X5408419Y-39847051D01*
X5408415Y-39847048D01*
X5285501Y-39764919D01*
X5285488Y-39764912D01*
X5148917Y-39708343D01*
X5148907Y-39708340D01*
X5003920Y-39679500D01*
X5003918Y-39679500D01*
X4856082Y-39679500D01*
X4856080Y-39679500D01*
X4711092Y-39708340D01*
X4711082Y-39708343D01*
X4574511Y-39764912D01*
X4574498Y-39764919D01*
X4451584Y-39847048D01*
X4451580Y-39847051D01*
X4347051Y-39951580D01*
X4347048Y-39951584D01*
X4264919Y-40074498D01*
X4264912Y-40074511D01*
X4208343Y-40211082D01*
X4208340Y-40211092D01*
X4179500Y-40356079D01*
X4179500Y-40356082D01*
X4179500Y-40503918D01*
X4179500Y-40503920D01*
X4179499Y-40503920D01*
X3550500Y-40503920D01*
X3550500Y-39211004D01*
X3523581Y-39075677D01*
X3523580Y-39075676D01*
X3523580Y-39075672D01*
X3523578Y-39075667D01*
X3470778Y-38948195D01*
X3470771Y-38948182D01*
X3394115Y-38833459D01*
X3394114Y-38833458D01*
X3296542Y-38735886D01*
X2877268Y-38316612D01*
X2380902Y-37820245D01*
X2301348Y-37740691D01*
X3449500Y-37740691D01*
X3449500Y-37859309D01*
X3480201Y-37973886D01*
X3539511Y-38076613D01*
X3623387Y-38160489D01*
X3726114Y-38219799D01*
X3840691Y-38250500D01*
X3840694Y-38250500D01*
X3959306Y-38250500D01*
X3959309Y-38250500D01*
X4073886Y-38219799D01*
X4176613Y-38160489D01*
X4260489Y-38076613D01*
X4319799Y-37973886D01*
X4350500Y-37859309D01*
X4350500Y-37740691D01*
X4319799Y-37626114D01*
X4260489Y-37523387D01*
X4176613Y-37439511D01*
X4073886Y-37380201D01*
X3959309Y-37349500D01*
X3840691Y-37349500D01*
X3726114Y-37380201D01*
X3726112Y-37380201D01*
X3726112Y-37380202D01*
X3623387Y-37439511D01*
X3623384Y-37439513D01*
X3539513Y-37523384D01*
X3539511Y-37523387D01*
X3480201Y-37626114D01*
X3449500Y-37740691D01*
X2301348Y-37740691D01*
X2226819Y-37666162D01*
X2193334Y-37604839D01*
X2190500Y-37578481D01*
X2190500Y-35620691D01*
X10039500Y-35620691D01*
X10039500Y-35739309D01*
X10070201Y-35853886D01*
X10129511Y-35956613D01*
X10213387Y-36040489D01*
X10316114Y-36099799D01*
X10430691Y-36130500D01*
X10430694Y-36130500D01*
X10549306Y-36130500D01*
X10549309Y-36130500D01*
X10663886Y-36099799D01*
X10766613Y-36040489D01*
X10850489Y-35956613D01*
X10909799Y-35853886D01*
X10940500Y-35739309D01*
X10940500Y-35620691D01*
X10909799Y-35506114D01*
X10850489Y-35403387D01*
X10766613Y-35319511D01*
X10663886Y-35260201D01*
X10549309Y-35229500D01*
X10430691Y-35229500D01*
X10316114Y-35260201D01*
X10316112Y-35260201D01*
X10316112Y-35260202D01*
X10213387Y-35319511D01*
X10213384Y-35319513D01*
X10129513Y-35403384D01*
X10129511Y-35403387D01*
X10070201Y-35506114D01*
X10039500Y-35620691D01*
X2190500Y-35620691D01*
X2190500Y-32296530D01*
X11949500Y-32296530D01*
X11949500Y-33503469D01*
X11989868Y-33706412D01*
X11989870Y-33706420D01*
X12069058Y-33897596D01*
X12184024Y-34069657D01*
X12330342Y-34215975D01*
X12330345Y-34215977D01*
X12502402Y-34330941D01*
X12693580Y-34410130D01*
X12896530Y-34450499D01*
X12896534Y-34450500D01*
X12896535Y-34450500D01*
X13103466Y-34450500D01*
X13103467Y-34450499D01*
X13306420Y-34410130D01*
X13497598Y-34330941D01*
X13669655Y-34215977D01*
X13815977Y-34069655D01*
X13930941Y-33897598D01*
X14010130Y-33706420D01*
X14050500Y-33503465D01*
X14050500Y-32296535D01*
X14010130Y-32093580D01*
X13930941Y-31902402D01*
X13815977Y-31730345D01*
X13815975Y-31730342D01*
X13669657Y-31584024D01*
X13583626Y-31526541D01*
X13497598Y-31469059D01*
X13306420Y-31389870D01*
X13306412Y-31389868D01*
X13103469Y-31349500D01*
X13103465Y-31349500D01*
X12896535Y-31349500D01*
X12896530Y-31349500D01*
X12693587Y-31389868D01*
X12693579Y-31389870D01*
X12502403Y-31469058D01*
X12330342Y-31584024D01*
X12184024Y-31730342D01*
X12069058Y-31902403D01*
X11989870Y-32093579D01*
X11989868Y-32093587D01*
X11949500Y-32296530D01*
X2190500Y-32296530D01*
X2190500Y-30440691D01*
X14549500Y-30440691D01*
X14549500Y-30559309D01*
X14580201Y-30673886D01*
X14639511Y-30776613D01*
X14723387Y-30860489D01*
X14826114Y-30919799D01*
X14940691Y-30950500D01*
X14940694Y-30950500D01*
X15059307Y-30950500D01*
X15059309Y-30950500D01*
X15099092Y-30939840D01*
X15168938Y-30941501D01*
X15226801Y-30980662D01*
X15254307Y-31044890D01*
X15242722Y-31113793D01*
X15238573Y-31121610D01*
X15230203Y-31136106D01*
X15230202Y-31136109D01*
X15230201Y-31136114D01*
X15199500Y-31250691D01*
X15199500Y-31369309D01*
X15230201Y-31483886D01*
X15289511Y-31586613D01*
X15373387Y-31670489D01*
X15476114Y-31729799D01*
X15483153Y-31733863D01*
X15482349Y-31735254D01*
X15529420Y-31773174D01*
X15551494Y-31839465D01*
X15534225Y-31907167D01*
X15489576Y-31951295D01*
X15423390Y-31989509D01*
X15423384Y-31989513D01*
X15339513Y-32073384D01*
X15339511Y-32073387D01*
X15280201Y-32176114D01*
X15249500Y-32290691D01*
X15249500Y-32409309D01*
X15280201Y-32523886D01*
X15339511Y-32626613D01*
X15423387Y-32710489D01*
X15526114Y-32769799D01*
X15640691Y-32800500D01*
X15640694Y-32800500D01*
X15759306Y-32800500D01*
X15759309Y-32800500D01*
X15873886Y-32769799D01*
X15976613Y-32710489D01*
X16060489Y-32626613D01*
X16119799Y-32523886D01*
X16150500Y-32409309D01*
X16150500Y-32290691D01*
X16129064Y-32210691D01*
X17699500Y-32210691D01*
X17699500Y-32329309D01*
X17730201Y-32443886D01*
X17789511Y-32546613D01*
X17873387Y-32630489D01*
X17976114Y-32689799D01*
X18090691Y-32720500D01*
X18090694Y-32720500D01*
X18209306Y-32720500D01*
X18209309Y-32720500D01*
X18323886Y-32689799D01*
X18426613Y-32630489D01*
X18510489Y-32546613D01*
X18569799Y-32443886D01*
X18600500Y-32329309D01*
X18600500Y-32296530D01*
X19949500Y-32296530D01*
X19949500Y-33503469D01*
X19989868Y-33706412D01*
X19989870Y-33706420D01*
X20069058Y-33897596D01*
X20184024Y-34069657D01*
X20330342Y-34215975D01*
X20330345Y-34215977D01*
X20502402Y-34330941D01*
X20693580Y-34410130D01*
X20896530Y-34450499D01*
X20896534Y-34450500D01*
X20896535Y-34450500D01*
X21103466Y-34450500D01*
X21103467Y-34450499D01*
X21306420Y-34410130D01*
X21497598Y-34330941D01*
X21669655Y-34215977D01*
X21815977Y-34069655D01*
X21930941Y-33897598D01*
X22010130Y-33706420D01*
X22050500Y-33503465D01*
X22050500Y-32296535D01*
X22010130Y-32093580D01*
X21930941Y-31902402D01*
X21815977Y-31730345D01*
X21815975Y-31730342D01*
X21669657Y-31584024D01*
X21583626Y-31526541D01*
X21497598Y-31469059D01*
X21306420Y-31389870D01*
X21306412Y-31389868D01*
X21103469Y-31349500D01*
X21103465Y-31349500D01*
X20896535Y-31349500D01*
X20896530Y-31349500D01*
X20693587Y-31389868D01*
X20693579Y-31389870D01*
X20502403Y-31469058D01*
X20330342Y-31584024D01*
X20184024Y-31730342D01*
X20069058Y-31902403D01*
X19989870Y-32093579D01*
X19989868Y-32093587D01*
X19949500Y-32296530D01*
X18600500Y-32296530D01*
X18600500Y-32210691D01*
X18569799Y-32096114D01*
X18510489Y-31993387D01*
X18426613Y-31909511D01*
X18323886Y-31850201D01*
X18209309Y-31819500D01*
X18090691Y-31819500D01*
X17976114Y-31850201D01*
X17976112Y-31850201D01*
X17976112Y-31850202D01*
X17873387Y-31909511D01*
X17873384Y-31909513D01*
X17789513Y-31993384D01*
X17789511Y-31993387D01*
X17731665Y-32093579D01*
X17730201Y-32096114D01*
X17699500Y-32210691D01*
X16129064Y-32210691D01*
X16119799Y-32176114D01*
X16060489Y-32073387D01*
X15976613Y-31989511D01*
X15873886Y-31930201D01*
X15873885Y-31930200D01*
X15866847Y-31926137D01*
X15867649Y-31924747D01*
X15820573Y-31886817D01*
X15798504Y-31820524D01*
X15815779Y-31752824D01*
X15860425Y-31708703D01*
X15926613Y-31670489D01*
X16010489Y-31586613D01*
X16069799Y-31483886D01*
X16100500Y-31369309D01*
X16100500Y-31250691D01*
X16069799Y-31136114D01*
X16010489Y-31033387D01*
X15926613Y-30949511D01*
X15823886Y-30890201D01*
X15709309Y-30859500D01*
X15590691Y-30859500D01*
X15550908Y-30870160D01*
X15481058Y-30868497D01*
X15423196Y-30829334D01*
X15395692Y-30765106D01*
X15407279Y-30696203D01*
X15411429Y-30688383D01*
X15419799Y-30673886D01*
X15450500Y-30559309D01*
X15450500Y-30440691D01*
X15419799Y-30326114D01*
X15360489Y-30223387D01*
X15276613Y-30139511D01*
X15173886Y-30080201D01*
X15059309Y-30049500D01*
X14940691Y-30049500D01*
X14826114Y-30080201D01*
X14826112Y-30080201D01*
X14826112Y-30080202D01*
X14723387Y-30139511D01*
X14723384Y-30139513D01*
X14639513Y-30223384D01*
X14639511Y-30223387D01*
X14580201Y-30326114D01*
X14549500Y-30440691D01*
X2190500Y-30440691D01*
X2190500Y-28874500D01*
X2210185Y-28807461D01*
X2262989Y-28761706D01*
X2308087Y-28751894D01*
X2308009Y-28751097D01*
X2314071Y-28750500D01*
X2398615Y-28733682D01*
X2439744Y-28725501D01*
X2488151Y-28705449D01*
X2557619Y-28697981D01*
X2620098Y-28729256D01*
X2655751Y-28789344D01*
X2653258Y-28859169D01*
X2638705Y-28888901D01*
X2570612Y-28990809D01*
X2570602Y-28990827D01*
X2510264Y-29136498D01*
X2510261Y-29136510D01*
X2479500Y-29291153D01*
X2479500Y-29448846D01*
X2510261Y-29603489D01*
X2510264Y-29603501D01*
X2570602Y-29749172D01*
X2570609Y-29749185D01*
X2658210Y-29880288D01*
X2658213Y-29880292D01*
X2769707Y-29991786D01*
X2769711Y-29991789D01*
X2900814Y-30079390D01*
X2900827Y-30079397D01*
X3045957Y-30139511D01*
X3046503Y-30139737D01*
X3201153Y-30170499D01*
X3201156Y-30170500D01*
X3201158Y-30170500D01*
X4458844Y-30170500D01*
X4458845Y-30170499D01*
X4613497Y-30139737D01*
X4726166Y-30093067D01*
X4759172Y-30079397D01*
X4759172Y-30079396D01*
X4759179Y-30079394D01*
X4890289Y-29991789D01*
X5001789Y-29880289D01*
X5089394Y-29749179D01*
X5149737Y-29603497D01*
X5152284Y-29590691D01*
X11549500Y-29590691D01*
X11549500Y-29709309D01*
X11580201Y-29823886D01*
X11639511Y-29926613D01*
X11723387Y-30010489D01*
X11826114Y-30069799D01*
X11940691Y-30100500D01*
X11940694Y-30100500D01*
X12059306Y-30100500D01*
X12059309Y-30100500D01*
X12173886Y-30069799D01*
X12276613Y-30010489D01*
X12360489Y-29926613D01*
X12419799Y-29823886D01*
X12450500Y-29709309D01*
X12450500Y-29590691D01*
X12419799Y-29476114D01*
X12360489Y-29373387D01*
X12276613Y-29289511D01*
X12173886Y-29230201D01*
X12059309Y-29199500D01*
X11940691Y-29199500D01*
X11826114Y-29230201D01*
X11826112Y-29230201D01*
X11826112Y-29230202D01*
X11723387Y-29289511D01*
X11723384Y-29289513D01*
X11639513Y-29373384D01*
X11639511Y-29373387D01*
X11616419Y-29413384D01*
X11580201Y-29476114D01*
X11549500Y-29590691D01*
X5152284Y-29590691D01*
X5180500Y-29448842D01*
X5180500Y-29291158D01*
X5180500Y-29291155D01*
X5180499Y-29291153D01*
X5175567Y-29266358D01*
X5149737Y-29136503D01*
X5142817Y-29119797D01*
X5126340Y-29080016D01*
X5110051Y-29040691D01*
X7099500Y-29040691D01*
X7099500Y-29159309D01*
X7130201Y-29273886D01*
X7189511Y-29376613D01*
X7273387Y-29460489D01*
X7376114Y-29519799D01*
X7490691Y-29550500D01*
X7490694Y-29550500D01*
X7609306Y-29550500D01*
X7609309Y-29550500D01*
X7723886Y-29519799D01*
X7826613Y-29460489D01*
X7910489Y-29376613D01*
X7969799Y-29273886D01*
X7969799Y-29273884D01*
X7971481Y-29270972D01*
X8022048Y-29222757D01*
X8090656Y-29209535D01*
X8155520Y-29235503D01*
X8186253Y-29270971D01*
X8189511Y-29276613D01*
X8273387Y-29360489D01*
X8376114Y-29419799D01*
X8490691Y-29450500D01*
X8490694Y-29450500D01*
X8609306Y-29450500D01*
X8609309Y-29450500D01*
X8723886Y-29419799D01*
X8826613Y-29360489D01*
X8910489Y-29276613D01*
X8969799Y-29173886D01*
X9000500Y-29059309D01*
X9000500Y-28940691D01*
X8969799Y-28826114D01*
X8920480Y-28740691D01*
X9949500Y-28740691D01*
X9949500Y-28859309D01*
X9980201Y-28973886D01*
X10039511Y-29076613D01*
X10123387Y-29160489D01*
X10226114Y-29219799D01*
X10340691Y-29250500D01*
X10340694Y-29250500D01*
X10459306Y-29250500D01*
X10459309Y-29250500D01*
X10573886Y-29219799D01*
X10676613Y-29160489D01*
X10760489Y-29076613D01*
X10819799Y-28973886D01*
X10850500Y-28859309D01*
X10850500Y-28740691D01*
X10823705Y-28640691D01*
X15199500Y-28640691D01*
X15199500Y-28759309D01*
X15230201Y-28873886D01*
X15289511Y-28976613D01*
X15373387Y-29060489D01*
X15476114Y-29119799D01*
X15590691Y-29150500D01*
X15590694Y-29150500D01*
X15709306Y-29150500D01*
X15709309Y-29150500D01*
X15823886Y-29119799D01*
X15926613Y-29060489D01*
X16010489Y-28976613D01*
X16069799Y-28873886D01*
X16100500Y-28759309D01*
X16100500Y-28640691D01*
X16069799Y-28526114D01*
X16010489Y-28423387D01*
X15926613Y-28339511D01*
X15823886Y-28280201D01*
X15709309Y-28249500D01*
X15590691Y-28249500D01*
X15476114Y-28280201D01*
X15476112Y-28280201D01*
X15476112Y-28280202D01*
X15373387Y-28339511D01*
X15373384Y-28339513D01*
X15289513Y-28423384D01*
X15289511Y-28423387D01*
X15252962Y-28486692D01*
X15230201Y-28526114D01*
X15199500Y-28640691D01*
X10823705Y-28640691D01*
X10819799Y-28626114D01*
X10797760Y-28587941D01*
X10794567Y-28580118D01*
X10791839Y-28553434D01*
X10785514Y-28527365D01*
X10788339Y-28519201D01*
X10787461Y-28510611D01*
X10799590Y-28486692D01*
X10808365Y-28461337D01*
X10815210Y-28455887D01*
X10819061Y-28448295D01*
X10840649Y-28435637D01*
X10861930Y-28418698D01*
X10868518Y-28415968D01*
X10868531Y-28415965D01*
X10971258Y-28356655D01*
X11055134Y-28272779D01*
X11114444Y-28170052D01*
X11145145Y-28055475D01*
X11145145Y-27936857D01*
X11116698Y-27830691D01*
X20119500Y-27830691D01*
X20119500Y-27949309D01*
X20150201Y-28063886D01*
X20209511Y-28166613D01*
X20209513Y-28166615D01*
X20295217Y-28252319D01*
X20328702Y-28313642D01*
X20323718Y-28383334D01*
X20295217Y-28427681D01*
X20209513Y-28513384D01*
X20209511Y-28513387D01*
X20170936Y-28580201D01*
X20150201Y-28616114D01*
X20119500Y-28730691D01*
X20119500Y-28849309D01*
X20150201Y-28963886D01*
X20209511Y-29066613D01*
X20209513Y-29066615D01*
X20295217Y-29152319D01*
X20328702Y-29213642D01*
X20323718Y-29283334D01*
X20295217Y-29327681D01*
X20209513Y-29413384D01*
X20209511Y-29413387D01*
X20189039Y-29448846D01*
X20150201Y-29516114D01*
X20119500Y-29630691D01*
X20119500Y-29749309D01*
X20150201Y-29863886D01*
X20209511Y-29966613D01*
X20293387Y-30050489D01*
X20396114Y-30109799D01*
X20510691Y-30140500D01*
X20510694Y-30140500D01*
X20629306Y-30140500D01*
X20629309Y-30140500D01*
X20743886Y-30109799D01*
X20846613Y-30050489D01*
X20930489Y-29966613D01*
X20989799Y-29863886D01*
X21020500Y-29749309D01*
X21020500Y-29630691D01*
X20989799Y-29516114D01*
X20930489Y-29413387D01*
X20846613Y-29329511D01*
X20844783Y-29327681D01*
X20811298Y-29266358D01*
X20816282Y-29196666D01*
X20844783Y-29152319D01*
X20877305Y-29119797D01*
X20930489Y-29066613D01*
X20989799Y-28963886D01*
X21020500Y-28849309D01*
X21020500Y-28730691D01*
X20989799Y-28616114D01*
X20930489Y-28513387D01*
X20846613Y-28429511D01*
X20844783Y-28427681D01*
X20811298Y-28366358D01*
X20816282Y-28296666D01*
X20844783Y-28252319D01*
X20847602Y-28249500D01*
X20930489Y-28166613D01*
X20989799Y-28063886D01*
X21020500Y-27949309D01*
X21020500Y-27830691D01*
X20989799Y-27716114D01*
X20930489Y-27613387D01*
X20846613Y-27529511D01*
X20743886Y-27470201D01*
X20629309Y-27439500D01*
X20510691Y-27439500D01*
X20396114Y-27470201D01*
X20396112Y-27470201D01*
X20396112Y-27470202D01*
X20293387Y-27529511D01*
X20293384Y-27529513D01*
X20209513Y-27613384D01*
X20209511Y-27613387D01*
X20180519Y-27663603D01*
X20150201Y-27716114D01*
X20119500Y-27830691D01*
X11116698Y-27830691D01*
X11114444Y-27822280D01*
X11055134Y-27719553D01*
X11032231Y-27696650D01*
X11023726Y-27681170D01*
X11019856Y-27663603D01*
X11011237Y-27647818D01*
X11012497Y-27630193D01*
X11008696Y-27612936D01*
X11014937Y-27596066D01*
X11016221Y-27578126D01*
X11026811Y-27563979D01*
X11032943Y-27547408D01*
X11047314Y-27536591D01*
X11058093Y-27522193D01*
X11070389Y-27514082D01*
X11076613Y-27510489D01*
X11160489Y-27426613D01*
X11219799Y-27323886D01*
X11250500Y-27209309D01*
X11250500Y-27090691D01*
X11219799Y-26976114D01*
X11160489Y-26873387D01*
X11076613Y-26789511D01*
X10973886Y-26730201D01*
X10859309Y-26699500D01*
X10740691Y-26699500D01*
X10626114Y-26730201D01*
X10626112Y-26730201D01*
X10626112Y-26730202D01*
X10523387Y-26789511D01*
X10523384Y-26789513D01*
X10439513Y-26873384D01*
X10439511Y-26873387D01*
X10380201Y-26976114D01*
X10349500Y-27090691D01*
X10349500Y-27209309D01*
X10380201Y-27323886D01*
X10439511Y-27426613D01*
X10439513Y-27426615D01*
X10449922Y-27437024D01*
X10483407Y-27498347D01*
X10478423Y-27568039D01*
X10436551Y-27623972D01*
X10424243Y-27632091D01*
X10418035Y-27635675D01*
X10418029Y-27635679D01*
X10334158Y-27719550D01*
X10334156Y-27719553D01*
X10274846Y-27822280D01*
X10244145Y-27936857D01*
X10244145Y-28055475D01*
X10274846Y-28170052D01*
X10274847Y-28170053D01*
X10292657Y-28200901D01*
X10309130Y-28268801D01*
X10286278Y-28334828D01*
X10232724Y-28377463D01*
X10226114Y-28380200D01*
X10123387Y-28439511D01*
X10123384Y-28439513D01*
X10039513Y-28523384D01*
X10039511Y-28523387D01*
X9985975Y-28616114D01*
X9980201Y-28626114D01*
X9949500Y-28740691D01*
X8920480Y-28740691D01*
X8910489Y-28723387D01*
X8826613Y-28639511D01*
X8723886Y-28580201D01*
X8609309Y-28549500D01*
X8490691Y-28549500D01*
X8376114Y-28580201D01*
X8376112Y-28580201D01*
X8376112Y-28580202D01*
X8273387Y-28639511D01*
X8273384Y-28639513D01*
X8189513Y-28723384D01*
X8189509Y-28723390D01*
X8128517Y-28829028D01*
X8077949Y-28877242D01*
X8009342Y-28890464D01*
X7944478Y-28864495D01*
X7913745Y-28829026D01*
X7910489Y-28823387D01*
X7826613Y-28739511D01*
X7723886Y-28680201D01*
X7609309Y-28649500D01*
X7490691Y-28649500D01*
X7376114Y-28680201D01*
X7376112Y-28680201D01*
X7376112Y-28680202D01*
X7273387Y-28739511D01*
X7273384Y-28739513D01*
X7189513Y-28823384D01*
X7189511Y-28823387D01*
X7158418Y-28877242D01*
X7130201Y-28926114D01*
X7099500Y-29040691D01*
X5110051Y-29040691D01*
X5089397Y-28990827D01*
X5089390Y-28990814D01*
X5001789Y-28859711D01*
X5001786Y-28859707D01*
X4890292Y-28748213D01*
X4890288Y-28748210D01*
X4759185Y-28660609D01*
X4759172Y-28660602D01*
X4613501Y-28600264D01*
X4613489Y-28600261D01*
X4458845Y-28569500D01*
X4458842Y-28569500D01*
X3813742Y-28569500D01*
X3746703Y-28549815D01*
X3700948Y-28497011D01*
X3691004Y-28427853D01*
X3720029Y-28364297D01*
X3726061Y-28357819D01*
X3749052Y-28334828D01*
X3790515Y-28293365D01*
X3866281Y-28162135D01*
X3905500Y-28015766D01*
X3905500Y-27938749D01*
X3925185Y-27871710D01*
X3977989Y-27825955D01*
X4047147Y-27816011D01*
X4091497Y-27831360D01*
X4186814Y-27886392D01*
X4314107Y-27920500D01*
X4314108Y-27920500D01*
X4920568Y-27920500D01*
X4987607Y-27940185D01*
X4989459Y-27941398D01*
X5071866Y-27996461D01*
X5071872Y-27996464D01*
X5071873Y-27996465D01*
X5190256Y-28045501D01*
X5190260Y-28045501D01*
X5190261Y-28045502D01*
X5315928Y-28070500D01*
X5315931Y-28070500D01*
X5444071Y-28070500D01*
X5528615Y-28053682D01*
X5569744Y-28045501D01*
X5688127Y-27996465D01*
X5794669Y-27925276D01*
X5885276Y-27834669D01*
X5956465Y-27728127D01*
X6005501Y-27609744D01*
X6017901Y-27547408D01*
X6029183Y-27490691D01*
X8949500Y-27490691D01*
X8949500Y-27609309D01*
X8980201Y-27723886D01*
X9039511Y-27826613D01*
X9123387Y-27910489D01*
X9226114Y-27969799D01*
X9340691Y-28000500D01*
X9340694Y-28000500D01*
X9459306Y-28000500D01*
X9459309Y-28000500D01*
X9573886Y-27969799D01*
X9676613Y-27910489D01*
X9760489Y-27826613D01*
X9819799Y-27723886D01*
X9850500Y-27609309D01*
X9850500Y-27490691D01*
X9819799Y-27376114D01*
X9760489Y-27273387D01*
X9676613Y-27189511D01*
X9573886Y-27130201D01*
X9459309Y-27099500D01*
X9340691Y-27099500D01*
X9226114Y-27130201D01*
X9226112Y-27130201D01*
X9226112Y-27130202D01*
X9123387Y-27189511D01*
X9123384Y-27189513D01*
X9039513Y-27273384D01*
X9039511Y-27273387D01*
X9010355Y-27323887D01*
X8980201Y-27376114D01*
X8949500Y-27490691D01*
X6029183Y-27490691D01*
X6030500Y-27484071D01*
X6030500Y-27355928D01*
X6005502Y-27230261D01*
X6005501Y-27230260D01*
X6005501Y-27230256D01*
X5956465Y-27111873D01*
X5941396Y-27089321D01*
X5920520Y-27022644D01*
X5920500Y-27020432D01*
X5920500Y-25990691D01*
X10749500Y-25990691D01*
X10749500Y-26109309D01*
X10780201Y-26223886D01*
X10839511Y-26326613D01*
X10923387Y-26410489D01*
X11026114Y-26469799D01*
X11140691Y-26500500D01*
X11140694Y-26500500D01*
X11259306Y-26500500D01*
X11259309Y-26500500D01*
X11373886Y-26469799D01*
X11476613Y-26410489D01*
X11560489Y-26326613D01*
X11619799Y-26223886D01*
X11650500Y-26109309D01*
X11650500Y-25990691D01*
X11619799Y-25876114D01*
X11560489Y-25773387D01*
X11476613Y-25689511D01*
X11373886Y-25630201D01*
X11259309Y-25599500D01*
X11140691Y-25599500D01*
X11026114Y-25630201D01*
X11026112Y-25630201D01*
X11026112Y-25630202D01*
X10923387Y-25689511D01*
X10923384Y-25689513D01*
X10839513Y-25773384D01*
X10839511Y-25773387D01*
X10818091Y-25810488D01*
X10780201Y-25876114D01*
X10749500Y-25990691D01*
X5920500Y-25990691D01*
X5920500Y-25390691D01*
X7199500Y-25390691D01*
X7199500Y-25509309D01*
X7230201Y-25623886D01*
X7289511Y-25726613D01*
X7373387Y-25810489D01*
X7476114Y-25869799D01*
X7590691Y-25900500D01*
X7590694Y-25900500D01*
X7709306Y-25900500D01*
X7709309Y-25900500D01*
X7823886Y-25869799D01*
X7926613Y-25810489D01*
X8010489Y-25726613D01*
X8069799Y-25623886D01*
X8100500Y-25509309D01*
X8100500Y-25390691D01*
X8069799Y-25276114D01*
X8010489Y-25173387D01*
X7926613Y-25089511D01*
X7823886Y-25030201D01*
X7709309Y-24999500D01*
X7590691Y-24999500D01*
X7476114Y-25030201D01*
X7476112Y-25030201D01*
X7476112Y-25030202D01*
X7373387Y-25089511D01*
X7373384Y-25089513D01*
X7289513Y-25173384D01*
X7289511Y-25173387D01*
X7231863Y-25273236D01*
X7230201Y-25276114D01*
X7199500Y-25390691D01*
X5920500Y-25390691D01*
X5920500Y-24940691D01*
X13735286Y-24940691D01*
X13735286Y-25059309D01*
X13765987Y-25173886D01*
X13825297Y-25276613D01*
X13909173Y-25360489D01*
X14011900Y-25419799D01*
X14126477Y-25450500D01*
X14126480Y-25450500D01*
X14245093Y-25450500D01*
X14245095Y-25450500D01*
X14307154Y-25433871D01*
X14377002Y-25435532D01*
X14434865Y-25474694D01*
X14462370Y-25538922D01*
X14459021Y-25585738D01*
X14442393Y-25647798D01*
X14442393Y-25766416D01*
X14473094Y-25880993D01*
X14532404Y-25983720D01*
X14616280Y-26067596D01*
X14719007Y-26126906D01*
X14833584Y-26157607D01*
X14833587Y-26157607D01*
X14952200Y-26157607D01*
X14952202Y-26157607D01*
X15014261Y-26140978D01*
X15084109Y-26142639D01*
X15141972Y-26181801D01*
X15169477Y-26246029D01*
X15166128Y-26292845D01*
X15149500Y-26354905D01*
X15149500Y-26473523D01*
X15180201Y-26588100D01*
X15239511Y-26690827D01*
X15323387Y-26774703D01*
X15426114Y-26834013D01*
X15540691Y-26864714D01*
X15540694Y-26864714D01*
X15659306Y-26864714D01*
X15659309Y-26864714D01*
X15773886Y-26834013D01*
X15876613Y-26774703D01*
X15960489Y-26690827D01*
X16019799Y-26588100D01*
X16050500Y-26473523D01*
X16050500Y-26354905D01*
X16033870Y-26292841D01*
X16035533Y-26222997D01*
X16074695Y-26165134D01*
X16138923Y-26137629D01*
X16185732Y-26140976D01*
X16247798Y-26157607D01*
X16247802Y-26157607D01*
X16366413Y-26157607D01*
X16366416Y-26157607D01*
X16480993Y-26126906D01*
X16583720Y-26067596D01*
X16667596Y-25983720D01*
X16726906Y-25880993D01*
X16757607Y-25766416D01*
X16757607Y-25647798D01*
X16740977Y-25585734D01*
X16742640Y-25515890D01*
X16781802Y-25458027D01*
X16846030Y-25430522D01*
X16892839Y-25433869D01*
X16954905Y-25450500D01*
X16954909Y-25450500D01*
X17073520Y-25450500D01*
X17073523Y-25450500D01*
X17188100Y-25419799D01*
X17290827Y-25360489D01*
X17374703Y-25276613D01*
X17434013Y-25173886D01*
X17456305Y-25090691D01*
X21349500Y-25090691D01*
X21349500Y-25209309D01*
X21380201Y-25323886D01*
X21439511Y-25426613D01*
X21523387Y-25510489D01*
X21626114Y-25569799D01*
X21740691Y-25600500D01*
X21740694Y-25600500D01*
X21859306Y-25600500D01*
X21859309Y-25600500D01*
X21973886Y-25569799D01*
X22076613Y-25510489D01*
X22160489Y-25426613D01*
X22219799Y-25323886D01*
X22250500Y-25209309D01*
X22250500Y-25090691D01*
X22219799Y-24976114D01*
X22160489Y-24873387D01*
X22076613Y-24789511D01*
X21973886Y-24730201D01*
X21859309Y-24699500D01*
X21740691Y-24699500D01*
X21626114Y-24730201D01*
X21626112Y-24730201D01*
X21626112Y-24730202D01*
X21523387Y-24789511D01*
X21523384Y-24789513D01*
X21439513Y-24873384D01*
X21439511Y-24873387D01*
X21400652Y-24940693D01*
X21380201Y-24976114D01*
X21349500Y-25090691D01*
X17456305Y-25090691D01*
X17464714Y-25059309D01*
X17464714Y-24940691D01*
X17434013Y-24826114D01*
X17374703Y-24723387D01*
X17290827Y-24639511D01*
X17188100Y-24580201D01*
X17073523Y-24549500D01*
X16954905Y-24549500D01*
X16892845Y-24566129D01*
X16822995Y-24564466D01*
X16765133Y-24525303D01*
X16737629Y-24461075D01*
X16740978Y-24414261D01*
X16757607Y-24352202D01*
X16757607Y-24233584D01*
X16726906Y-24119007D01*
X16667596Y-24016280D01*
X16583720Y-23932404D01*
X16480993Y-23873094D01*
X16366416Y-23842393D01*
X16247798Y-23842393D01*
X16185738Y-23859022D01*
X16115888Y-23857359D01*
X16058026Y-23818196D01*
X16030522Y-23753968D01*
X16033871Y-23707154D01*
X16050500Y-23645095D01*
X16050500Y-23526477D01*
X16019799Y-23411900D01*
X15960489Y-23309173D01*
X15876613Y-23225297D01*
X15773886Y-23165987D01*
X15659309Y-23135286D01*
X15540691Y-23135286D01*
X15426114Y-23165987D01*
X15426112Y-23165987D01*
X15426112Y-23165988D01*
X15323387Y-23225297D01*
X15323384Y-23225299D01*
X15239513Y-23309170D01*
X15239511Y-23309173D01*
X15180201Y-23411900D01*
X15149500Y-23526477D01*
X15149500Y-23645095D01*
X15166128Y-23707152D01*
X15166129Y-23707154D01*
X15164466Y-23777003D01*
X15125304Y-23834866D01*
X15061075Y-23862370D01*
X15014262Y-23859022D01*
X14952202Y-23842393D01*
X14833584Y-23842393D01*
X14719007Y-23873094D01*
X14719005Y-23873094D01*
X14719005Y-23873095D01*
X14616280Y-23932404D01*
X14616277Y-23932406D01*
X14532406Y-24016277D01*
X14532404Y-24016280D01*
X14489694Y-24090256D01*
X14473094Y-24119007D01*
X14442393Y-24233584D01*
X14442393Y-24352202D01*
X14459021Y-24414259D01*
X14459022Y-24414261D01*
X14457359Y-24484110D01*
X14418197Y-24541973D01*
X14353968Y-24569477D01*
X14307155Y-24566129D01*
X14245095Y-24549500D01*
X14126477Y-24549500D01*
X14011900Y-24580201D01*
X14011898Y-24580201D01*
X14011898Y-24580202D01*
X13909173Y-24639511D01*
X13909170Y-24639513D01*
X13825299Y-24723384D01*
X13825297Y-24723387D01*
X13768436Y-24821873D01*
X13765987Y-24826114D01*
X13735286Y-24940691D01*
X5920500Y-24940691D01*
X5920500Y-23109432D01*
X5940185Y-23042393D01*
X5941398Y-23040541D01*
X5996461Y-22958133D01*
X5996461Y-22958132D01*
X5996465Y-22958127D01*
X6045501Y-22839744D01*
X6063597Y-22748773D01*
X6070500Y-22714071D01*
X6070500Y-22585928D01*
X6064697Y-22556757D01*
X6061501Y-22540691D01*
X9149500Y-22540691D01*
X9149500Y-22659309D01*
X9180201Y-22773886D01*
X9239511Y-22876613D01*
X9323387Y-22960489D01*
X9426114Y-23019799D01*
X9540691Y-23050500D01*
X9540694Y-23050500D01*
X9659306Y-23050500D01*
X9659309Y-23050500D01*
X9773886Y-23019799D01*
X9876613Y-22960489D01*
X9960489Y-22876613D01*
X10019799Y-22773886D01*
X10050500Y-22659309D01*
X10050500Y-22540691D01*
X10019799Y-22426114D01*
X9960489Y-22323387D01*
X9876613Y-22239511D01*
X9773886Y-22180201D01*
X9659309Y-22149500D01*
X9540691Y-22149500D01*
X9426114Y-22180201D01*
X9426112Y-22180201D01*
X9426112Y-22180202D01*
X9323387Y-22239511D01*
X9323384Y-22239513D01*
X9239513Y-22323384D01*
X9239511Y-22323387D01*
X9205593Y-22382135D01*
X9180201Y-22426114D01*
X9149500Y-22540691D01*
X6061501Y-22540691D01*
X6054996Y-22507990D01*
X6053624Y-22501092D01*
X6059851Y-22431501D01*
X6102713Y-22376323D01*
X6168602Y-22353078D01*
X6199431Y-22355282D01*
X6249723Y-22365286D01*
X6275930Y-22370500D01*
X6275931Y-22370500D01*
X6404071Y-22370500D01*
X6491653Y-22353078D01*
X6529744Y-22345501D01*
X6648127Y-22296465D01*
X6754669Y-22225276D01*
X6845276Y-22134669D01*
X6916465Y-22028127D01*
X6965501Y-21909744D01*
X6973682Y-21868615D01*
X6989183Y-21790691D01*
X13099500Y-21790691D01*
X13099500Y-21909309D01*
X13130201Y-22023886D01*
X13189511Y-22126613D01*
X13273387Y-22210489D01*
X13376114Y-22269799D01*
X13490691Y-22300500D01*
X13490694Y-22300500D01*
X13609306Y-22300500D01*
X13609309Y-22300500D01*
X13723886Y-22269799D01*
X13826613Y-22210489D01*
X13910489Y-22126613D01*
X13969799Y-22023886D01*
X14000500Y-21909309D01*
X14000500Y-21790691D01*
X13995677Y-21772691D01*
X18459500Y-21772691D01*
X18459500Y-21891309D01*
X18490201Y-22005886D01*
X18549511Y-22108613D01*
X18633387Y-22192489D01*
X18736114Y-22251799D01*
X18850691Y-22282500D01*
X18850694Y-22282500D01*
X18969306Y-22282500D01*
X18969309Y-22282500D01*
X19083886Y-22251799D01*
X19186613Y-22192489D01*
X19270489Y-22108613D01*
X19329799Y-22005886D01*
X19360500Y-21891309D01*
X19360500Y-21772691D01*
X19329799Y-21658114D01*
X19270489Y-21555387D01*
X19186613Y-21471511D01*
X19083886Y-21412201D01*
X18969309Y-21381500D01*
X18850691Y-21381500D01*
X18736114Y-21412201D01*
X18736112Y-21412201D01*
X18736112Y-21412202D01*
X18633387Y-21471511D01*
X18633384Y-21471513D01*
X18549513Y-21555384D01*
X18549511Y-21555387D01*
X18491463Y-21655929D01*
X18490201Y-21658114D01*
X18459500Y-21772691D01*
X13995677Y-21772691D01*
X13969799Y-21676114D01*
X13910489Y-21573387D01*
X13826613Y-21489511D01*
X13723886Y-21430201D01*
X13609309Y-21399500D01*
X13490691Y-21399500D01*
X13376114Y-21430201D01*
X13376112Y-21430201D01*
X13376112Y-21430202D01*
X13273387Y-21489511D01*
X13273384Y-21489513D01*
X13189513Y-21573384D01*
X13189511Y-21573387D01*
X13140595Y-21658112D01*
X13130201Y-21676114D01*
X13099500Y-21790691D01*
X6989183Y-21790691D01*
X6990500Y-21784071D01*
X6990500Y-21655929D01*
X6981461Y-21610489D01*
X6965501Y-21530256D01*
X6927863Y-21439390D01*
X6916468Y-21411879D01*
X6916461Y-21411866D01*
X6845276Y-21305331D01*
X6845273Y-21305327D01*
X6754672Y-21214726D01*
X6754668Y-21214723D01*
X6718702Y-21190691D01*
X7149500Y-21190691D01*
X7149500Y-21309309D01*
X7180201Y-21423886D01*
X7200913Y-21459760D01*
X7200917Y-21459770D01*
X7239506Y-21526606D01*
X7239509Y-21526610D01*
X7239511Y-21526613D01*
X7323387Y-21610489D01*
X7426114Y-21669799D01*
X7540691Y-21700500D01*
X7540694Y-21700500D01*
X7659306Y-21700500D01*
X7659309Y-21700500D01*
X7773886Y-21669799D01*
X7876613Y-21610489D01*
X7960489Y-21526613D01*
X8019799Y-21423886D01*
X8050500Y-21309309D01*
X8050500Y-21190691D01*
X8019799Y-21076114D01*
X7960489Y-20973387D01*
X7876613Y-20889511D01*
X7773886Y-20830201D01*
X7659309Y-20799500D01*
X7540691Y-20799500D01*
X7426114Y-20830201D01*
X7426112Y-20830201D01*
X7426112Y-20830202D01*
X7323387Y-20889511D01*
X7323384Y-20889513D01*
X7239513Y-20973384D01*
X7239511Y-20973387D01*
X7184020Y-21069500D01*
X7180201Y-21076114D01*
X7149500Y-21190691D01*
X6718702Y-21190691D01*
X6648133Y-21143538D01*
X6648124Y-21143533D01*
X6529744Y-21094499D01*
X6529738Y-21094497D01*
X6404071Y-21069500D01*
X6404069Y-21069500D01*
X6275931Y-21069500D01*
X6275929Y-21069500D01*
X6150261Y-21094497D01*
X6150255Y-21094499D01*
X6031875Y-21143533D01*
X6031866Y-21143538D01*
X5949459Y-21198602D01*
X5882782Y-21219480D01*
X5880568Y-21219500D01*
X5229277Y-21219500D01*
X5162238Y-21199815D01*
X5116483Y-21147011D01*
X5106539Y-21077853D01*
X5114716Y-21048048D01*
X5149735Y-20963501D01*
X5149737Y-20963497D01*
X5180500Y-20808842D01*
X5180500Y-20651158D01*
X5180500Y-20651155D01*
X5180499Y-20651153D01*
X5149738Y-20496510D01*
X5149737Y-20496503D01*
X5119500Y-20423503D01*
X5089397Y-20350827D01*
X5089390Y-20350814D01*
X5001789Y-20219711D01*
X5001786Y-20219707D01*
X4890292Y-20108213D01*
X4890288Y-20108210D01*
X4759185Y-20020609D01*
X4759172Y-20020602D01*
X4613501Y-19960264D01*
X4613489Y-19960261D01*
X4458845Y-19929500D01*
X4458842Y-19929500D01*
X3201158Y-19929500D01*
X3201155Y-19929500D01*
X3046510Y-19960261D01*
X3046498Y-19960264D01*
X2900827Y-20020602D01*
X2900814Y-20020609D01*
X2769711Y-20108210D01*
X2769707Y-20108213D01*
X2658213Y-20219707D01*
X2658210Y-20219711D01*
X2570609Y-20350814D01*
X2570602Y-20350827D01*
X2510264Y-20496498D01*
X2510261Y-20496510D01*
X2479500Y-20651153D01*
X2479500Y-20808846D01*
X2510261Y-20963489D01*
X2510264Y-20963501D01*
X2570602Y-21109172D01*
X2570609Y-21109185D01*
X2601085Y-21154795D01*
X2621963Y-21221473D01*
X2603478Y-21288853D01*
X2551500Y-21335543D01*
X2482530Y-21346719D01*
X2473792Y-21345303D01*
X2344072Y-21319500D01*
X2344069Y-21319500D01*
X2314500Y-21319500D01*
X2247461Y-21299815D01*
X2201706Y-21247011D01*
X2190500Y-21195500D01*
X2190500Y-20141518D01*
X2210185Y-20074479D01*
X2226819Y-20053837D01*
X3394110Y-18886546D01*
X3394113Y-18886543D01*
X3466362Y-18778416D01*
X3470775Y-18771811D01*
X3501707Y-18697134D01*
X3523580Y-18644329D01*
X3530546Y-18609309D01*
X3550500Y-18508993D01*
X3550500Y-18373920D01*
X6099499Y-18373920D01*
X6128340Y-18518907D01*
X6128343Y-18518917D01*
X6184912Y-18655488D01*
X6184919Y-18655501D01*
X6267047Y-18778414D01*
X6267051Y-18778419D01*
X6371580Y-18882948D01*
X6371584Y-18882951D01*
X6494498Y-18965080D01*
X6494511Y-18965087D01*
X6618352Y-19016383D01*
X6631087Y-19021658D01*
X6631091Y-19021658D01*
X6631092Y-19021659D01*
X6776079Y-19050500D01*
X6776082Y-19050500D01*
X6923920Y-19050500D01*
X7021462Y-19031096D01*
X7068913Y-19021658D01*
X7205495Y-18965084D01*
X7328416Y-18882951D01*
X7432951Y-18778416D01*
X7432953Y-18778414D01*
X7515080Y-18655501D01*
X7515080Y-18655500D01*
X7515084Y-18655495D01*
X7519708Y-18644333D01*
X7571656Y-18518917D01*
X7571658Y-18518913D01*
X7581096Y-18471462D01*
X7600500Y-18373920D01*
X9399499Y-18373920D01*
X9428340Y-18518907D01*
X9428343Y-18518917D01*
X9484912Y-18655488D01*
X9484919Y-18655501D01*
X9567047Y-18778414D01*
X9567051Y-18778419D01*
X9671580Y-18882948D01*
X9671584Y-18882951D01*
X9794498Y-18965080D01*
X9794511Y-18965087D01*
X9918352Y-19016383D01*
X9931087Y-19021658D01*
X9931091Y-19021658D01*
X9931092Y-19021659D01*
X10076079Y-19050500D01*
X10076082Y-19050500D01*
X10223920Y-19050500D01*
X10321462Y-19031096D01*
X10368913Y-19021658D01*
X10505495Y-18965084D01*
X10628416Y-18882951D01*
X10732951Y-18778416D01*
X10732953Y-18778414D01*
X10815080Y-18655501D01*
X10815080Y-18655500D01*
X10815084Y-18655495D01*
X10819708Y-18644333D01*
X10871656Y-18518917D01*
X10871658Y-18518913D01*
X10881096Y-18471462D01*
X10900500Y-18373920D01*
X10900500Y-18226079D01*
X10871659Y-18081092D01*
X10871658Y-18081091D01*
X10871658Y-18081087D01*
X10871656Y-18081082D01*
X10815087Y-17944511D01*
X10815080Y-17944498D01*
X10732951Y-17821584D01*
X10732948Y-17821580D01*
X10628419Y-17717051D01*
X10628415Y-17717048D01*
X10505501Y-17634919D01*
X10505488Y-17634912D01*
X10368917Y-17578343D01*
X10368907Y-17578340D01*
X10223920Y-17549500D01*
X10223918Y-17549500D01*
X10076082Y-17549500D01*
X10076080Y-17549500D01*
X9931092Y-17578340D01*
X9931082Y-17578343D01*
X9794511Y-17634912D01*
X9794498Y-17634919D01*
X9671584Y-17717048D01*
X9671580Y-17717051D01*
X9567051Y-17821580D01*
X9567048Y-17821584D01*
X9484919Y-17944498D01*
X9484912Y-17944511D01*
X9428343Y-18081082D01*
X9428340Y-18081092D01*
X9399500Y-18226079D01*
X9399500Y-18226082D01*
X9399500Y-18373918D01*
X9399500Y-18373920D01*
X9399499Y-18373920D01*
X7600500Y-18373920D01*
X7600500Y-18226079D01*
X7571659Y-18081092D01*
X7571658Y-18081091D01*
X7571658Y-18081087D01*
X7571656Y-18081082D01*
X7515087Y-17944511D01*
X7515080Y-17944498D01*
X7432951Y-17821584D01*
X7432948Y-17821580D01*
X7328419Y-17717051D01*
X7328415Y-17717048D01*
X7205501Y-17634919D01*
X7205488Y-17634912D01*
X7068917Y-17578343D01*
X7068907Y-17578340D01*
X6923920Y-17549500D01*
X6923918Y-17549500D01*
X6776082Y-17549500D01*
X6776080Y-17549500D01*
X6631092Y-17578340D01*
X6631082Y-17578343D01*
X6494511Y-17634912D01*
X6494498Y-17634919D01*
X6371584Y-17717048D01*
X6371580Y-17717051D01*
X6267051Y-17821580D01*
X6267048Y-17821584D01*
X6184919Y-17944498D01*
X6184912Y-17944511D01*
X6128343Y-18081082D01*
X6128340Y-18081092D01*
X6099500Y-18226079D01*
X6099500Y-18226082D01*
X6099500Y-18373918D01*
X6099500Y-18373920D01*
X6099499Y-18373920D01*
X3550500Y-18373920D01*
X3550500Y-17531007D01*
X3550500Y-17296530D01*
X11949500Y-17296530D01*
X11949500Y-18503469D01*
X11989868Y-18706412D01*
X11989870Y-18706420D01*
X12066248Y-18890813D01*
X12069059Y-18897598D01*
X12117302Y-18969799D01*
X12184024Y-19069657D01*
X12330342Y-19215975D01*
X12330345Y-19215977D01*
X12502402Y-19330941D01*
X12693580Y-19410130D01*
X12872203Y-19445660D01*
X12896530Y-19450499D01*
X12896534Y-19450500D01*
X12896535Y-19450500D01*
X13103466Y-19450500D01*
X13103467Y-19450499D01*
X13306420Y-19410130D01*
X13497598Y-19330941D01*
X13669655Y-19215977D01*
X13815977Y-19069655D01*
X13930941Y-18897598D01*
X14010130Y-18706420D01*
X14050500Y-18503465D01*
X14050500Y-17296535D01*
X14050436Y-17296215D01*
X14042588Y-17256755D01*
X14039393Y-17240691D01*
X15549500Y-17240691D01*
X15549500Y-17359309D01*
X15580201Y-17473886D01*
X15639511Y-17576613D01*
X15723387Y-17660489D01*
X15826114Y-17719799D01*
X15940691Y-17750500D01*
X15940694Y-17750500D01*
X16059306Y-17750500D01*
X16059309Y-17750500D01*
X16173886Y-17719799D01*
X16276613Y-17660489D01*
X16360489Y-17576613D01*
X16419799Y-17473886D01*
X16450500Y-17359309D01*
X16450500Y-17311138D01*
X16470185Y-17244099D01*
X16522989Y-17198344D01*
X16592147Y-17188400D01*
X16606583Y-17191360D01*
X16640691Y-17200500D01*
X16640694Y-17200500D01*
X16759306Y-17200500D01*
X16759309Y-17200500D01*
X16873886Y-17169799D01*
X16976613Y-17110489D01*
X17060489Y-17026613D01*
X17119799Y-16923886D01*
X17150500Y-16809309D01*
X17150500Y-16690691D01*
X17119799Y-16576114D01*
X17060489Y-16473387D01*
X16976613Y-16389511D01*
X16873886Y-16330201D01*
X16759309Y-16299500D01*
X16640691Y-16299500D01*
X16526114Y-16330201D01*
X16526112Y-16330201D01*
X16526112Y-16330202D01*
X16423387Y-16389511D01*
X16423384Y-16389513D01*
X16339513Y-16473384D01*
X16339511Y-16473387D01*
X16301451Y-16539309D01*
X16280201Y-16576114D01*
X16249500Y-16690691D01*
X16249500Y-16690693D01*
X16249500Y-16738861D01*
X16229815Y-16805900D01*
X16177011Y-16851655D01*
X16107853Y-16861599D01*
X16093409Y-16858636D01*
X16059313Y-16849500D01*
X16059309Y-16849500D01*
X15940691Y-16849500D01*
X15826114Y-16880201D01*
X15826112Y-16880201D01*
X15826112Y-16880202D01*
X15723387Y-16939511D01*
X15723384Y-16939513D01*
X15639513Y-17023384D01*
X15639511Y-17023387D01*
X15606448Y-17080654D01*
X15580201Y-17126114D01*
X15549500Y-17240691D01*
X14039393Y-17240691D01*
X14010131Y-17093587D01*
X14010130Y-17093580D01*
X13930941Y-16902402D01*
X13815977Y-16730345D01*
X13815975Y-16730342D01*
X13669657Y-16584024D01*
X13576320Y-16521659D01*
X13497598Y-16469059D01*
X13341283Y-16404311D01*
X13306420Y-16389870D01*
X13306412Y-16389868D01*
X13103469Y-16349500D01*
X13103465Y-16349500D01*
X12896535Y-16349500D01*
X12896530Y-16349500D01*
X12693587Y-16389868D01*
X12693579Y-16389870D01*
X12502403Y-16469058D01*
X12330342Y-16584024D01*
X12184024Y-16730342D01*
X12069058Y-16902403D01*
X11989870Y-17093579D01*
X11989868Y-17093587D01*
X11949500Y-17296530D01*
X3550500Y-17296530D01*
X3550500Y-16781007D01*
X3550500Y-16781004D01*
X3523581Y-16645677D01*
X3523580Y-16645676D01*
X3523580Y-16645672D01*
X3498045Y-16584024D01*
X3470778Y-16518195D01*
X3470771Y-16518182D01*
X3394114Y-16403458D01*
X3394111Y-16403454D01*
X3296545Y-16305888D01*
X3296541Y-16305885D01*
X3181817Y-16229228D01*
X3181804Y-16229221D01*
X3054332Y-16176421D01*
X3054322Y-16176418D01*
X2918995Y-16149500D01*
X2918993Y-16149500D01*
X2781007Y-16149500D01*
X2781005Y-16149500D01*
X2645677Y-16176418D01*
X2645667Y-16176421D01*
X2518195Y-16229221D01*
X2518182Y-16229228D01*
X2403458Y-16305885D01*
X2403454Y-16305888D01*
X2305888Y-16403454D01*
X2305885Y-16403458D01*
X2229228Y-16518182D01*
X2229221Y-16518195D01*
X2176421Y-16645667D01*
X2176418Y-16645677D01*
X2149500Y-16781004D01*
X2149500Y-18098480D01*
X2129815Y-18165519D01*
X2113181Y-18186161D01*
X1612181Y-18687161D01*
X1550858Y-18720646D01*
X1481166Y-18715662D01*
X1425233Y-18673790D01*
X1400816Y-18608326D01*
X1400500Y-18599480D01*
X1400500Y-18490693D01*
X1400500Y-18490691D01*
X1369799Y-18376114D01*
X1310489Y-18273387D01*
X1226613Y-18189511D01*
X1123886Y-18130201D01*
X1009309Y-18099500D01*
X890691Y-18099500D01*
X776114Y-18130201D01*
X776112Y-18130201D01*
X776112Y-18130202D01*
X673387Y-18189511D01*
X673384Y-18189513D01*
X589513Y-18273384D01*
X589511Y-18273387D01*
X530201Y-18376114D01*
X499500Y-18490691D01*
X499500Y-18609309D01*
X530201Y-18723886D01*
X589511Y-18826613D01*
X673387Y-18910489D01*
X776114Y-18969799D01*
X890691Y-19000500D01*
X890694Y-19000500D01*
X999480Y-19000500D01*
X1066519Y-19020185D01*
X1112274Y-19072989D01*
X1122218Y-19142147D01*
X1093193Y-19205703D01*
X1087161Y-19212181D01*
X945888Y-19353453D01*
X945887Y-19353454D01*
X869223Y-19468192D01*
X816421Y-19595668D01*
X816421Y-19595669D01*
X816420Y-19595672D01*
X801417Y-19671099D01*
X801417Y-19671100D01*
X789500Y-19731005D01*
X789500Y-20038059D01*
X769815Y-20105098D01*
X717011Y-20150853D01*
X647853Y-20160797D01*
X584297Y-20131772D01*
X577819Y-20125740D01*
X560292Y-20108213D01*
X560288Y-20108210D01*
X429185Y-20020609D01*
X429172Y-20020602D01*
X283501Y-19960264D01*
X283489Y-19960261D01*
X128845Y-19929500D01*
X128842Y-19929500D01*
X-828842Y-19929500D01*
X-828845Y-19929500D01*
X-983489Y-19960261D01*
X-983501Y-19960264D01*
X-1129172Y-20020602D01*
X-1129185Y-20020609D01*
X-1260288Y-20108210D01*
X-1260292Y-20108213D01*
X-1371786Y-20219707D01*
X-1371789Y-20219711D01*
X-1459390Y-20350814D01*
X-1459397Y-20350827D01*
X-1489500Y-20423503D01*
X-1519737Y-20496503D01*
X-1519738Y-20496510D01*
X-1550499Y-20651153D01*
X-1550500Y-20651155D01*
X-1550500Y-20651158D01*
X-1550500Y-20808842D01*
X-1519737Y-20963497D01*
X-1459394Y-21109179D01*
X-1371789Y-21240289D01*
X-1260289Y-21351789D01*
X-1129179Y-21439394D01*
X-983497Y-21499737D01*
X-828845Y-21530499D01*
X-828844Y-21530500D01*
X-80520Y-21530500D01*
X-13481Y-21550185D01*
X32274Y-21602989D01*
X42218Y-21672147D01*
X13193Y-21735703D01*
X7161Y-21742181D01*
X-1434109Y-23183451D01*
X-1434115Y-23183458D01*
X-1474639Y-23244107D01*
X-1474639Y-23244108D01*
X-1510776Y-23298191D01*
X-1510777Y-23298193D01*
X-1563578Y-23425667D01*
X-1563580Y-23425672D01*
X-1563580Y-23425676D01*
X-1563581Y-23425677D01*
X-1590500Y-23561004D01*
X-1590500Y-26528996D01*
X-1578743Y-26588100D01*
X-1563580Y-26664328D01*
X-1563578Y-26664332D01*
X-1517862Y-26774703D01*
X-1510775Y-26791811D01*
X-1434114Y-26906543D01*
X-1434112Y-26906545D01*
X17162Y-28357819D01*
X50647Y-28419142D01*
X45663Y-28488834D01*
X3791Y-28544767D01*
X-61673Y-28569184D01*
X-70519Y-28569500D01*
X-828845Y-28569500D01*
X-983489Y-28600261D01*
X-983501Y-28600264D01*
X-1129172Y-28660602D01*
X-1129185Y-28660609D01*
X-1260288Y-28748210D01*
X-1260292Y-28748213D01*
X-1371786Y-28859707D01*
X-1371789Y-28859711D01*
X-1459390Y-28990814D01*
X-1459397Y-28990827D01*
X-1512817Y-29119797D01*
X-1519737Y-29136503D01*
X-1545567Y-29266358D01*
X-1550499Y-29291153D01*
X-1550500Y-29291155D01*
X-1550500Y-29291158D01*
X-1550500Y-29448842D01*
X-1519737Y-29603497D01*
X-1459394Y-29749179D01*
X-1371789Y-29880289D01*
X-1260289Y-29991789D01*
X-1129179Y-30079394D01*
X-1129172Y-30079396D01*
X-1129172Y-30079397D01*
X-1096166Y-30093067D01*
X-983497Y-30139737D01*
X-828845Y-30170499D01*
X-828844Y-30170500D01*
X-828842Y-30170500D01*
X128844Y-30170500D01*
X128845Y-30170499D01*
X283497Y-30139737D01*
X396166Y-30093067D01*
X429172Y-30079397D01*
X429172Y-30079396D01*
X429179Y-30079394D01*
X560289Y-29991789D01*
X564447Y-29987631D01*
X577819Y-29974260D01*
X639142Y-29940775D01*
X708834Y-29945759D01*
X764767Y-29987631D01*
X789184Y-30053095D01*
X789500Y-30061941D01*
X789500Y-37189911D01*
X769815Y-37256950D01*
X717011Y-37302705D01*
X647853Y-37312649D01*
X603500Y-37297298D01*
X573889Y-37280202D01*
X573890Y-37280202D01*
X564494Y-37277684D01*
X459309Y-37249500D01*
X340691Y-37249500D01*
X226114Y-37280201D01*
X226112Y-37280201D01*
X226112Y-37280202D01*
X123387Y-37339511D01*
X123384Y-37339513D01*
X39513Y-37423384D01*
X39511Y-37423387D01*
X-19799Y-37526114D01*
X-50500Y-37640691D01*
X-50500Y-37759309D01*
X-19799Y-37873886D01*
X39511Y-37976613D01*
X123387Y-38060489D01*
X226114Y-38119799D01*
X340691Y-38150500D01*
X340694Y-38150500D01*
X459306Y-38150500D01*
X459309Y-38150500D01*
X573886Y-38119799D01*
X573888Y-38119797D01*
X573890Y-38119797D01*
X573891Y-38119796D01*
X645646Y-38078368D01*
X713546Y-38061894D01*
X779573Y-38084746D01*
X822208Y-38138302D01*
X869222Y-38251807D01*
X945887Y-38366545D01*
X945888Y-38366546D01*
X2113181Y-39533837D01*
X2146666Y-39595160D01*
X2149500Y-39621518D01*
X2149500Y-43229192D01*
X2129815Y-43296231D01*
X2113181Y-43316873D01*
X1916873Y-43513181D01*
X1855550Y-43546666D01*
X1829192Y-43549500D01*
X-14071Y-43549500D01*
X-139738Y-43574497D01*
X-139744Y-43574499D01*
X-258124Y-43623533D01*
X-258133Y-43623538D01*
X-364667Y-43694722D01*
X-364668Y-43694723D01*
X-364669Y-43694724D01*
X-433127Y-43763182D01*
X-494448Y-43796666D01*
X-520807Y-43799500D01*
X-632746Y-43799500D01*
X-699785Y-43779815D01*
X-720427Y-43763181D01*
X-1713181Y-42770426D01*
X-1746666Y-42709103D01*
X-1749500Y-42682745D01*
X-1749500Y-42020807D01*
X-1729815Y-41953768D01*
X-1713185Y-41933130D01*
X-1644724Y-41864669D01*
X-1644723Y-41864668D01*
X-1644722Y-41864667D01*
X-1573538Y-41758133D01*
X-1573533Y-41758124D01*
X-1524499Y-41639744D01*
X-1524497Y-41639738D01*
X-1499500Y-41514071D01*
X-1499500Y-41385928D01*
X-1499499Y-41385928D01*
X-1524497Y-41260261D01*
X-1524499Y-41260255D01*
X-1573533Y-41141875D01*
X-1573538Y-41141866D01*
X-1644723Y-41035331D01*
X-1644726Y-41035327D01*
X-1735327Y-40944726D01*
X-1735331Y-40944723D01*
X-1841866Y-40873538D01*
X-1841875Y-40873533D01*
X-1960255Y-40824499D01*
X-1960261Y-40824497D01*
X-2085929Y-40799500D01*
X-2085931Y-40799500D01*
X-2214069Y-40799500D01*
X-2214071Y-40799500D01*
X-2339738Y-40824497D01*
X-2339744Y-40824499D01*
X-2458124Y-40873533D01*
X-2458133Y-40873538D01*
X-2506609Y-40905929D01*
X-2573287Y-40926807D01*
X-2640667Y-40908322D01*
X-2687357Y-40856344D01*
X-2699500Y-40802827D01*
X-2699500Y-19260691D01*
X-2300500Y-19260691D01*
X-2300500Y-19379309D01*
X-2269799Y-19493886D01*
X-2210489Y-19596613D01*
X-2126613Y-19680489D01*
X-2023886Y-19739799D01*
X-1909309Y-19770500D01*
X-1909306Y-19770500D01*
X-1790694Y-19770500D01*
X-1790691Y-19770500D01*
X-1676114Y-19739799D01*
X-1573387Y-19680489D01*
X-1489511Y-19596613D01*
X-1430201Y-19493886D01*
X-1399500Y-19379309D01*
X-1399500Y-19260691D01*
X-1430201Y-19146114D01*
X-1489511Y-19043387D01*
X-1489513Y-19043384D01*
X-1573384Y-18959513D01*
X-1573387Y-18959511D01*
X-1676112Y-18900202D01*
X-1676112Y-18900201D01*
X-1676114Y-18900201D01*
X-1790691Y-18869500D01*
X-1909309Y-18869500D01*
X-2023886Y-18900201D01*
X-2126613Y-18959511D01*
X-2210489Y-19043387D01*
X-2269799Y-19146114D01*
X-2300500Y-19260691D01*
X-2699500Y-19260691D01*
X-2699500Y-16420691D01*
X-710500Y-16420691D01*
X-710500Y-16539309D01*
X-679799Y-16653886D01*
X-620489Y-16756613D01*
X-536613Y-16840489D01*
X-433886Y-16899799D01*
X-319309Y-16930500D01*
X-319306Y-16930500D01*
X-200694Y-16930500D01*
X-200691Y-16930500D01*
X-86114Y-16899799D01*
X16613Y-16840489D01*
X100489Y-16756613D01*
X159799Y-16653886D01*
X190500Y-16539309D01*
X190500Y-16420691D01*
X159799Y-16306114D01*
X100489Y-16203387D01*
X16613Y-16119511D01*
X-86114Y-16060201D01*
X-200691Y-16029500D01*
X-319309Y-16029500D01*
X-433886Y-16060201D01*
X-536613Y-16119511D01*
X-620489Y-16203387D01*
X-679799Y-16306114D01*
X-710500Y-16420691D01*
X-2699500Y-16420691D01*
X-2699500Y-15873920D01*
X6099499Y-15873920D01*
X6128340Y-16018907D01*
X6128343Y-16018917D01*
X6184912Y-16155488D01*
X6184919Y-16155501D01*
X6267048Y-16278415D01*
X6267051Y-16278419D01*
X6371580Y-16382948D01*
X6371584Y-16382951D01*
X6494498Y-16465080D01*
X6494511Y-16465087D01*
X6631082Y-16521656D01*
X6631087Y-16521658D01*
X6631091Y-16521658D01*
X6631092Y-16521659D01*
X6776079Y-16550500D01*
X6776082Y-16550500D01*
X6923920Y-16550500D01*
X7021462Y-16531096D01*
X7068913Y-16521658D01*
X7179586Y-16475816D01*
X7205488Y-16465087D01*
X7205488Y-16465086D01*
X7205495Y-16465084D01*
X7328416Y-16382951D01*
X7432951Y-16278416D01*
X7515084Y-16155495D01*
X7518899Y-16146286D01*
X7529989Y-16119511D01*
X7571658Y-16018913D01*
X7581096Y-15971462D01*
X7600500Y-15873920D01*
X9399499Y-15873920D01*
X9428340Y-16018907D01*
X9428343Y-16018917D01*
X9484912Y-16155488D01*
X9484919Y-16155501D01*
X9567048Y-16278415D01*
X9567051Y-16278419D01*
X9671580Y-16382948D01*
X9671584Y-16382951D01*
X9794498Y-16465080D01*
X9794511Y-16465087D01*
X9931082Y-16521656D01*
X9931087Y-16521658D01*
X9931091Y-16521658D01*
X9931092Y-16521659D01*
X10076079Y-16550500D01*
X10076082Y-16550500D01*
X10223920Y-16550500D01*
X10321462Y-16531096D01*
X10368913Y-16521658D01*
X10479586Y-16475816D01*
X10505488Y-16465087D01*
X10505488Y-16465086D01*
X10505495Y-16465084D01*
X10628416Y-16382951D01*
X10732951Y-16278416D01*
X10815084Y-16155495D01*
X10818899Y-16146286D01*
X10829989Y-16119511D01*
X10871658Y-16018913D01*
X10881096Y-15971462D01*
X10900500Y-15873920D01*
X10900500Y-15726079D01*
X10871659Y-15581092D01*
X10871658Y-15581091D01*
X10871658Y-15581087D01*
X10860317Y-15553707D01*
X10815087Y-15444511D01*
X10815080Y-15444498D01*
X10732951Y-15321584D01*
X10732948Y-15321580D01*
X10628419Y-15217051D01*
X10628415Y-15217048D01*
X10505501Y-15134919D01*
X10505488Y-15134912D01*
X10368917Y-15078343D01*
X10368907Y-15078340D01*
X10223920Y-15049500D01*
X10223918Y-15049500D01*
X10076082Y-15049500D01*
X10076080Y-15049500D01*
X9931092Y-15078340D01*
X9931082Y-15078343D01*
X9794511Y-15134912D01*
X9794498Y-15134919D01*
X9671584Y-15217048D01*
X9671580Y-15217051D01*
X9567051Y-15321580D01*
X9567048Y-15321584D01*
X9484919Y-15444498D01*
X9484912Y-15444511D01*
X9428343Y-15581082D01*
X9428340Y-15581092D01*
X9399500Y-15726079D01*
X9399500Y-15726082D01*
X9399500Y-15873918D01*
X9399500Y-15873920D01*
X9399499Y-15873920D01*
X7600500Y-15873920D01*
X7600500Y-15726079D01*
X7571659Y-15581092D01*
X7571658Y-15581091D01*
X7571658Y-15581087D01*
X7560317Y-15553707D01*
X7515087Y-15444511D01*
X7515080Y-15444498D01*
X7432951Y-15321584D01*
X7432948Y-15321580D01*
X7328419Y-15217051D01*
X7328415Y-15217048D01*
X7205501Y-15134919D01*
X7205488Y-15134912D01*
X7068917Y-15078343D01*
X7068907Y-15078340D01*
X6923920Y-15049500D01*
X6923918Y-15049500D01*
X6776082Y-15049500D01*
X6776080Y-15049500D01*
X6631092Y-15078340D01*
X6631082Y-15078343D01*
X6494511Y-15134912D01*
X6494498Y-15134919D01*
X6371584Y-15217048D01*
X6371580Y-15217051D01*
X6267051Y-15321580D01*
X6267048Y-15321584D01*
X6184919Y-15444498D01*
X6184912Y-15444511D01*
X6128343Y-15581082D01*
X6128340Y-15581092D01*
X6099500Y-15726079D01*
X6099500Y-15726082D01*
X6099500Y-15873918D01*
X6099500Y-15873920D01*
X6099499Y-15873920D01*
X-2699500Y-15873920D01*
X-2699500Y-14795928D01*
X-2190500Y-14795928D01*
X-2190500Y-14924071D01*
X-2179627Y-14978732D01*
X-2165501Y-15049744D01*
X-2116465Y-15168127D01*
X-2045276Y-15274669D01*
X-1954669Y-15365276D01*
X-1848127Y-15436465D01*
X-1729744Y-15485501D01*
X-1688615Y-15493682D01*
X-1604071Y-15510500D01*
X-1604069Y-15510500D01*
X-1475928Y-15510500D01*
X-1350261Y-15485502D01*
X-1350260Y-15485501D01*
X-1350256Y-15485501D01*
X-1231873Y-15436465D01*
X-1231872Y-15436464D01*
X-1231866Y-15436461D01*
X-1125331Y-15365276D01*
X-1125327Y-15365273D01*
X-1034726Y-15274672D01*
X-1034723Y-15274668D01*
X-963538Y-15168133D01*
X-963533Y-15168124D01*
X-914499Y-15049744D01*
X-914497Y-15049738D01*
X-889500Y-14924071D01*
X-889500Y-14795928D01*
X-889499Y-14795928D01*
X-914497Y-14670261D01*
X-914499Y-14670255D01*
X-963533Y-14551875D01*
X-963538Y-14551866D01*
X-1034723Y-14445331D01*
X-1034726Y-14445327D01*
X-1125327Y-14354726D01*
X-1125331Y-14354723D01*
X-1231866Y-14283538D01*
X-1231875Y-14283533D01*
X-1350255Y-14234499D01*
X-1350261Y-14234497D01*
X-1475929Y-14209500D01*
X-1475931Y-14209500D01*
X-1604069Y-14209500D01*
X-1604071Y-14209500D01*
X-1729738Y-14234497D01*
X-1729744Y-14234499D01*
X-1848124Y-14283533D01*
X-1848133Y-14283538D01*
X-1954668Y-14354723D01*
X-1954672Y-14354726D01*
X-2045273Y-14445327D01*
X-2045276Y-14445331D01*
X-2116461Y-14551866D01*
X-2116464Y-14551872D01*
X-2116465Y-14551873D01*
X-2165501Y-14670256D01*
X-2165501Y-14670260D01*
X-2165502Y-14670261D01*
X-2190500Y-14795928D01*
X-2699500Y-14795928D01*
X-2699500Y-13373920D01*
X6099499Y-13373920D01*
X6128340Y-13518907D01*
X6128343Y-13518917D01*
X6184912Y-13655488D01*
X6184919Y-13655501D01*
X6267048Y-13778415D01*
X6267051Y-13778419D01*
X6371580Y-13882948D01*
X6371584Y-13882951D01*
X6494498Y-13965080D01*
X6494511Y-13965087D01*
X6631082Y-14021656D01*
X6631087Y-14021658D01*
X6631091Y-14021658D01*
X6631092Y-14021659D01*
X6776079Y-14050500D01*
X6776082Y-14050500D01*
X6923920Y-14050500D01*
X7048648Y-14025689D01*
X7068913Y-14021658D01*
X7205495Y-13965084D01*
X7328416Y-13882951D01*
X7432951Y-13778416D01*
X7515084Y-13655495D01*
X7518186Y-13648004D01*
X7562021Y-13593601D01*
X7628314Y-13571531D01*
X7696015Y-13588806D01*
X7735851Y-13626561D01*
X7794723Y-13714668D01*
X7794726Y-13714672D01*
X7885327Y-13805273D01*
X7885331Y-13805276D01*
X7991866Y-13876461D01*
X7991875Y-13876466D01*
X8018692Y-13887574D01*
X8110256Y-13925501D01*
X8110260Y-13925501D01*
X8110261Y-13925502D01*
X8235928Y-13950500D01*
X8235931Y-13950500D01*
X8364071Y-13950500D01*
X8448615Y-13933682D01*
X8489744Y-13925501D01*
X8608127Y-13876465D01*
X8714669Y-13805276D01*
X8805276Y-13714669D01*
X8876465Y-13608127D01*
X8925501Y-13489744D01*
X8944839Y-13392528D01*
X8977224Y-13330617D01*
X8978719Y-13329094D01*
X9189358Y-13118455D01*
X9250679Y-13084972D01*
X9320371Y-13089956D01*
X9376304Y-13131828D01*
X9400721Y-13197292D01*
X9399307Y-13219939D01*
X9400097Y-13220017D01*
X9399500Y-13226079D01*
X9399500Y-13226082D01*
X9399500Y-13373918D01*
X9399500Y-13373920D01*
X9399499Y-13373920D01*
X9428340Y-13518907D01*
X9428343Y-13518917D01*
X9484912Y-13655488D01*
X9484919Y-13655501D01*
X9567048Y-13778415D01*
X9567051Y-13778419D01*
X9671580Y-13882948D01*
X9671584Y-13882951D01*
X9794498Y-13965080D01*
X9794511Y-13965087D01*
X9931082Y-14021656D01*
X9931087Y-14021658D01*
X9931091Y-14021658D01*
X9931092Y-14021659D01*
X10076079Y-14050500D01*
X10076082Y-14050500D01*
X10223920Y-14050500D01*
X10348648Y-14025689D01*
X10368913Y-14021658D01*
X10505495Y-13965084D01*
X10542002Y-13940691D01*
X14949500Y-13940691D01*
X14949500Y-14059309D01*
X14980201Y-14173886D01*
X15039511Y-14276613D01*
X15123387Y-14360489D01*
X15187587Y-14397555D01*
X15204027Y-14407047D01*
X15252242Y-14457615D01*
X15265464Y-14526222D01*
X15239496Y-14591087D01*
X15204027Y-14621820D01*
X15173393Y-14639506D01*
X15173384Y-14639513D01*
X15089513Y-14723384D01*
X15089511Y-14723387D01*
X15030201Y-14826114D01*
X14999500Y-14940691D01*
X14999500Y-15059309D01*
X15030201Y-15173886D01*
X15089511Y-15276613D01*
X15173387Y-15360489D01*
X15276114Y-15419799D01*
X15390691Y-15450500D01*
X15390694Y-15450500D01*
X15509306Y-15450500D01*
X15509309Y-15450500D01*
X15623886Y-15419799D01*
X15726613Y-15360489D01*
X15810489Y-15276613D01*
X15869799Y-15173886D01*
X15900500Y-15059309D01*
X15900500Y-15040691D01*
X17949500Y-15040691D01*
X17949500Y-15159309D01*
X17980201Y-15273886D01*
X18039511Y-15376613D01*
X18123387Y-15460489D01*
X18226114Y-15519799D01*
X18340691Y-15550500D01*
X18340694Y-15550500D01*
X18459306Y-15550500D01*
X18459309Y-15550500D01*
X18573886Y-15519799D01*
X18676613Y-15460489D01*
X18760489Y-15376613D01*
X18819799Y-15273886D01*
X18850500Y-15159309D01*
X18850500Y-15040691D01*
X18819799Y-14926114D01*
X18760489Y-14823387D01*
X18676613Y-14739511D01*
X18573886Y-14680201D01*
X18459309Y-14649500D01*
X18340691Y-14649500D01*
X18226114Y-14680201D01*
X18226112Y-14680201D01*
X18226112Y-14680202D01*
X18123387Y-14739511D01*
X18123384Y-14739513D01*
X18039513Y-14823384D01*
X18039511Y-14823387D01*
X17981381Y-14924071D01*
X17980201Y-14926114D01*
X17949500Y-15040691D01*
X15900500Y-15040691D01*
X15900500Y-14940691D01*
X15869799Y-14826114D01*
X15810489Y-14723387D01*
X15726613Y-14639511D01*
X15726610Y-14639509D01*
X15726606Y-14639506D01*
X15645972Y-14592951D01*
X15597757Y-14542384D01*
X15584535Y-14473776D01*
X15610503Y-14408912D01*
X15645971Y-14378180D01*
X15676613Y-14360489D01*
X15760489Y-14276613D01*
X15819799Y-14173886D01*
X15850500Y-14059309D01*
X15850500Y-13940691D01*
X15819799Y-13826114D01*
X15760489Y-13723387D01*
X15676613Y-13639511D01*
X15573886Y-13580201D01*
X15459309Y-13549500D01*
X15340691Y-13549500D01*
X15226114Y-13580201D01*
X15226112Y-13580201D01*
X15226112Y-13580202D01*
X15123387Y-13639511D01*
X15123384Y-13639513D01*
X15039513Y-13723384D01*
X15039511Y-13723387D01*
X14980201Y-13826114D01*
X14949500Y-13940691D01*
X10542002Y-13940691D01*
X10628416Y-13882951D01*
X10647056Y-13864311D01*
X10666485Y-13844883D01*
X10732948Y-13778419D01*
X10732951Y-13778416D01*
X10815084Y-13655495D01*
X10871658Y-13518913D01*
X10885267Y-13450500D01*
X10900500Y-13373920D01*
X10900500Y-13226079D01*
X10871659Y-13081092D01*
X10871658Y-13081091D01*
X10871658Y-13081087D01*
X10862636Y-13059306D01*
X10815087Y-12944511D01*
X10815080Y-12944498D01*
X10732951Y-12821584D01*
X10732948Y-12821580D01*
X10628419Y-12717051D01*
X10628415Y-12717048D01*
X10505501Y-12634919D01*
X10505488Y-12634912D01*
X10368917Y-12578343D01*
X10368907Y-12578340D01*
X10223920Y-12549500D01*
X10223918Y-12549500D01*
X10076082Y-12549500D01*
X10076079Y-12549500D01*
X10070017Y-12550097D01*
X10069782Y-12547717D01*
X10010704Y-12542414D01*
X9955539Y-12499535D01*
X9932314Y-12433638D01*
X9948402Y-12365646D01*
X9968453Y-12339360D01*
X10367122Y-11940691D01*
X14899500Y-11940691D01*
X14899500Y-12059309D01*
X14930201Y-12173886D01*
X14989511Y-12276613D01*
X15073387Y-12360489D01*
X15176114Y-12419799D01*
X15290691Y-12450500D01*
X15290694Y-12450500D01*
X15409306Y-12450500D01*
X15409309Y-12450500D01*
X15523886Y-12419799D01*
X15626613Y-12360489D01*
X15710489Y-12276613D01*
X15769799Y-12173886D01*
X15800500Y-12059309D01*
X15800500Y-11940691D01*
X17799500Y-11940691D01*
X17799500Y-12059309D01*
X17830201Y-12173886D01*
X17889511Y-12276613D01*
X17973387Y-12360489D01*
X18050094Y-12404776D01*
X18054027Y-12407047D01*
X18102242Y-12457615D01*
X18115464Y-12526222D01*
X18089496Y-12591087D01*
X18054027Y-12621820D01*
X18023393Y-12639506D01*
X18023384Y-12639513D01*
X17939513Y-12723384D01*
X17939511Y-12723387D01*
X17881340Y-12824142D01*
X17880201Y-12826114D01*
X17849500Y-12940691D01*
X17849500Y-13059309D01*
X17880201Y-13173886D01*
X17939511Y-13276613D01*
X18023387Y-13360489D01*
X18126114Y-13419799D01*
X18240691Y-13450500D01*
X18240694Y-13450500D01*
X18359306Y-13450500D01*
X18359309Y-13450500D01*
X18473886Y-13419799D01*
X18576613Y-13360489D01*
X18660489Y-13276613D01*
X18719799Y-13173886D01*
X18750500Y-13059309D01*
X18750500Y-12940691D01*
X18719799Y-12826114D01*
X18660489Y-12723387D01*
X18576613Y-12639511D01*
X18576610Y-12639509D01*
X18576606Y-12639506D01*
X18495972Y-12592951D01*
X18447757Y-12542384D01*
X18434535Y-12473776D01*
X18460503Y-12408912D01*
X18495971Y-12378180D01*
X18526613Y-12360489D01*
X18610489Y-12276613D01*
X18669799Y-12173886D01*
X18700500Y-12059309D01*
X18700500Y-11940691D01*
X18669799Y-11826114D01*
X18610489Y-11723387D01*
X18526613Y-11639511D01*
X18423886Y-11580201D01*
X18309309Y-11549500D01*
X18190691Y-11549500D01*
X18076114Y-11580201D01*
X18076112Y-11580201D01*
X18076112Y-11580202D01*
X17973387Y-11639511D01*
X17973384Y-11639513D01*
X17889513Y-11723384D01*
X17889511Y-11723387D01*
X17830201Y-11826114D01*
X17799500Y-11940691D01*
X15800500Y-11940691D01*
X15769799Y-11826114D01*
X15710489Y-11723387D01*
X15626613Y-11639511D01*
X15523886Y-11580201D01*
X15409309Y-11549500D01*
X15290691Y-11549500D01*
X15176114Y-11580201D01*
X15176112Y-11580201D01*
X15176112Y-11580202D01*
X15073387Y-11639511D01*
X15073384Y-11639513D01*
X14989513Y-11723384D01*
X14989511Y-11723387D01*
X14930201Y-11826114D01*
X14899500Y-11940691D01*
X10367122Y-11940691D01*
X11870995Y-10436819D01*
X11932318Y-10403334D01*
X11958676Y-10400500D01*
X14219445Y-10400500D01*
X14286484Y-10420185D01*
X14329930Y-10468205D01*
X14387715Y-10581613D01*
X14508028Y-10747213D01*
X14652786Y-10891971D01*
X14807749Y-11004556D01*
X14818390Y-11012287D01*
X14924363Y-11066283D01*
X15000776Y-11105218D01*
X15000778Y-11105218D01*
X15000781Y-11105220D01*
X15105137Y-11139127D01*
X15195465Y-11168477D01*
X15296557Y-11184488D01*
X15397648Y-11200500D01*
X15397649Y-11200500D01*
X18602351Y-11200500D01*
X18602352Y-11200500D01*
X18804534Y-11168477D01*
X18999219Y-11105220D01*
X19181610Y-11012287D01*
X19339100Y-10897865D01*
X19347213Y-10891971D01*
X19347215Y-10891968D01*
X19347219Y-10891966D01*
X19491966Y-10747219D01*
X19491968Y-10747215D01*
X19491971Y-10747213D01*
X19583486Y-10621251D01*
X19612287Y-10581610D01*
X19705220Y-10399219D01*
X19768477Y-10204534D01*
X19800500Y-10002352D01*
X19800500Y-9797648D01*
X19768477Y-9595466D01*
X19705220Y-9400781D01*
X19705218Y-9400778D01*
X19705218Y-9400776D01*
X19659214Y-9310489D01*
X19612287Y-9218390D01*
X19604556Y-9207749D01*
X19491971Y-9052786D01*
X19347213Y-8908028D01*
X19181613Y-8787715D01*
X19181612Y-8787714D01*
X19181610Y-8787713D01*
X19124653Y-8758691D01*
X18999223Y-8694781D01*
X18804534Y-8631522D01*
X18629995Y-8603878D01*
X18602352Y-8599500D01*
X15397648Y-8599500D01*
X15373329Y-8603351D01*
X15195465Y-8631522D01*
X15000776Y-8694781D01*
X14818386Y-8787715D01*
X14652786Y-8908028D01*
X14508028Y-9052786D01*
X14387715Y-9218386D01*
X14329930Y-9331795D01*
X14281955Y-9382591D01*
X14219445Y-9399500D01*
X12275447Y-9399500D01*
X12208408Y-9379815D01*
X12162653Y-9327011D01*
X12152709Y-9257853D01*
X12168060Y-9213499D01*
X12219799Y-9123886D01*
X12250500Y-9009309D01*
X12250500Y-8890691D01*
X12219799Y-8776114D01*
X12160489Y-8673387D01*
X12145687Y-8658585D01*
X12112202Y-8597262D01*
X12117186Y-8527570D01*
X12159058Y-8471637D01*
X12171361Y-8463521D01*
X12176613Y-8460489D01*
X12260489Y-8376613D01*
X12319799Y-8273886D01*
X12350500Y-8159309D01*
X12350500Y-8040691D01*
X12319799Y-7926114D01*
X12260489Y-7823387D01*
X12176613Y-7739511D01*
X12073886Y-7680201D01*
X11959309Y-7649500D01*
X11840691Y-7649500D01*
X11726114Y-7680201D01*
X11726112Y-7680201D01*
X11726112Y-7680202D01*
X11623387Y-7739511D01*
X11623384Y-7739513D01*
X11539513Y-7823384D01*
X11539511Y-7823387D01*
X11480201Y-7926114D01*
X11469774Y-7965027D01*
X11433410Y-8024686D01*
X11370563Y-8055215D01*
X11301187Y-8046920D01*
X11247309Y-8002435D01*
X11230226Y-7965028D01*
X11219799Y-7926114D01*
X11160489Y-7823387D01*
X11076613Y-7739511D01*
X10973886Y-7680201D01*
X10859309Y-7649500D01*
X10740691Y-7649500D01*
X10626114Y-7680201D01*
X10626112Y-7680201D01*
X10626112Y-7680202D01*
X10523387Y-7739511D01*
X10523384Y-7739513D01*
X10439513Y-7823384D01*
X10439511Y-7823387D01*
X10380201Y-7926114D01*
X10349500Y-8040691D01*
X10349500Y-8159309D01*
X10380201Y-8273886D01*
X10439511Y-8376613D01*
X10523387Y-8460489D01*
X10626114Y-8519799D01*
X10740691Y-8550500D01*
X10740694Y-8550500D01*
X10859306Y-8550500D01*
X10859309Y-8550500D01*
X10973886Y-8519799D01*
X11076613Y-8460489D01*
X11160489Y-8376613D01*
X11219799Y-8273886D01*
X11230225Y-8234972D01*
X11266590Y-8175313D01*
X11329437Y-8144784D01*
X11398812Y-8153079D01*
X11452690Y-8197564D01*
X11469773Y-8234971D01*
X11476572Y-8260343D01*
X11480201Y-8273887D01*
X11509856Y-8325249D01*
X11539511Y-8376613D01*
X11539513Y-8376615D01*
X11554312Y-8391414D01*
X11587797Y-8452737D01*
X11582813Y-8522429D01*
X11540941Y-8578362D01*
X11528640Y-8586477D01*
X11523393Y-8589506D01*
X11523384Y-8589513D01*
X11439513Y-8673384D01*
X11439511Y-8673387D01*
X11380201Y-8776114D01*
X11349500Y-8890691D01*
X11349500Y-9009309D01*
X11380201Y-9123886D01*
X11439511Y-9226613D01*
X11439513Y-9226615D01*
X11481106Y-9268208D01*
X11514591Y-9329531D01*
X11509607Y-9399223D01*
X11467735Y-9455156D01*
X11455427Y-9463275D01*
X11392689Y-9499498D01*
X11392683Y-9499502D01*
X9123154Y-11769031D01*
X9061831Y-11802516D01*
X8992139Y-11797532D01*
X8936206Y-11755660D01*
X8920907Y-11728792D01*
X8919801Y-11726124D01*
X8919799Y-11726114D01*
X8860489Y-11623387D01*
X8776613Y-11539511D01*
X8673886Y-11480201D01*
X8603716Y-11461398D01*
X8544058Y-11425035D01*
X8513529Y-11362188D01*
X8521824Y-11292812D01*
X8528426Y-11279624D01*
X8548045Y-11245642D01*
X8548046Y-11245641D01*
X8548047Y-11245638D01*
X8548048Y-11245637D01*
X8578749Y-11131060D01*
X8578749Y-11012442D01*
X8548048Y-10897865D01*
X8488738Y-10795138D01*
X8404862Y-10711262D01*
X8302135Y-10651952D01*
X8187558Y-10621251D01*
X8068940Y-10621251D01*
X7954363Y-10651952D01*
X7954361Y-10651952D01*
X7954361Y-10651953D01*
X7851636Y-10711262D01*
X7851633Y-10711264D01*
X7767762Y-10795135D01*
X7767760Y-10795138D01*
X7708450Y-10897865D01*
X7677749Y-11012442D01*
X7677749Y-11131060D01*
X7708450Y-11245637D01*
X7767760Y-11348364D01*
X7851636Y-11432240D01*
X7934706Y-11480201D01*
X7944211Y-11485689D01*
X7954363Y-11491550D01*
X8024532Y-11510351D01*
X8084189Y-11546714D01*
X8114719Y-11609561D01*
X8106425Y-11678937D01*
X8099824Y-11692123D01*
X8080203Y-11726108D01*
X8080202Y-11726109D01*
X8072284Y-11755660D01*
X8049500Y-11840691D01*
X8049500Y-11959309D01*
X8080201Y-12073886D01*
X8139511Y-12176613D01*
X8223387Y-12260489D01*
X8326114Y-12319799D01*
X8326124Y-12319801D01*
X8328792Y-12320907D01*
X8330710Y-12322452D01*
X8333153Y-12323863D01*
X8332933Y-12324243D01*
X8383199Y-12364743D01*
X8405271Y-12431035D01*
X8387998Y-12498736D01*
X8369031Y-12523154D01*
X8270961Y-12621224D01*
X8209638Y-12654709D01*
X8207473Y-12655160D01*
X8110260Y-12674497D01*
X8110255Y-12674499D01*
X7991875Y-12723533D01*
X7991866Y-12723538D01*
X7885331Y-12794723D01*
X7885327Y-12794726D01*
X7794726Y-12885327D01*
X7794721Y-12885333D01*
X7735850Y-12973439D01*
X7682238Y-13018243D01*
X7612913Y-13026950D01*
X7549886Y-12996795D01*
X7518186Y-12951994D01*
X7515086Y-12944509D01*
X7515080Y-12944498D01*
X7432951Y-12821584D01*
X7432948Y-12821580D01*
X7328419Y-12717051D01*
X7328415Y-12717048D01*
X7205501Y-12634919D01*
X7205488Y-12634912D01*
X7068917Y-12578343D01*
X7068907Y-12578340D01*
X6923920Y-12549500D01*
X6923918Y-12549500D01*
X6776082Y-12549500D01*
X6776080Y-12549500D01*
X6631092Y-12578340D01*
X6631082Y-12578343D01*
X6494511Y-12634912D01*
X6494498Y-12634919D01*
X6371584Y-12717048D01*
X6371580Y-12717051D01*
X6267051Y-12821580D01*
X6267048Y-12821584D01*
X6184919Y-12944498D01*
X6184912Y-12944511D01*
X6128343Y-13081082D01*
X6128340Y-13081092D01*
X6099500Y-13226079D01*
X6099500Y-13226082D01*
X6099500Y-13373918D01*
X6099500Y-13373920D01*
X6099499Y-13373920D01*
X-2699500Y-13373920D01*
X-2699500Y-12540691D01*
X99500Y-12540691D01*
X99500Y-12659309D01*
X130201Y-12773886D01*
X189511Y-12876613D01*
X273387Y-12960489D01*
X376114Y-13019799D01*
X490691Y-13050500D01*
X490694Y-13050500D01*
X609306Y-13050500D01*
X609309Y-13050500D01*
X723886Y-13019799D01*
X826613Y-12960489D01*
X910489Y-12876613D01*
X969799Y-12773886D01*
X1000500Y-12659309D01*
X1000500Y-12540691D01*
X969799Y-12426114D01*
X910489Y-12323387D01*
X826613Y-12239511D01*
X723886Y-12180201D01*
X609309Y-12149500D01*
X490691Y-12149500D01*
X376114Y-12180201D01*
X376112Y-12180201D01*
X376112Y-12180202D01*
X273387Y-12239511D01*
X273384Y-12239513D01*
X189513Y-12323384D01*
X189511Y-12323387D01*
X165113Y-12365646D01*
X130201Y-12426114D01*
X99500Y-12540691D01*
X-2699500Y-12540691D01*
X-2699500Y-10370691D01*
X-900500Y-10370691D01*
X-900500Y-10489309D01*
X-869799Y-10603886D01*
X-810489Y-10706613D01*
X-726613Y-10790489D01*
X-623886Y-10849799D01*
X-509309Y-10880500D01*
X-509306Y-10880500D01*
X-390694Y-10880500D01*
X-390691Y-10880500D01*
X-276114Y-10849799D01*
X-173387Y-10790489D01*
X-89511Y-10706613D01*
X-30201Y-10603886D01*
X500Y-10489309D01*
X500Y-10370691D01*
X-30201Y-10256114D01*
X-89511Y-10153387D01*
X-89513Y-10153384D01*
X-122653Y-10120245D01*
X-173384Y-10069513D01*
X-173387Y-10069511D01*
X-223304Y-10040691D01*
X4499500Y-10040691D01*
X4499500Y-10159309D01*
X4530201Y-10273886D01*
X4589511Y-10376613D01*
X4673387Y-10460489D01*
X4776114Y-10519799D01*
X4890691Y-10550500D01*
X4890694Y-10550500D01*
X5009306Y-10550500D01*
X5009309Y-10550500D01*
X5123886Y-10519799D01*
X5226613Y-10460489D01*
X5310489Y-10376613D01*
X5369799Y-10273886D01*
X5400500Y-10159309D01*
X5400500Y-10040691D01*
X5369799Y-9926114D01*
X5310489Y-9823387D01*
X5226613Y-9739511D01*
X5123886Y-9680201D01*
X5009309Y-9649500D01*
X4890691Y-9649500D01*
X4776114Y-9680201D01*
X4776112Y-9680201D01*
X4776112Y-9680202D01*
X4673387Y-9739511D01*
X4673384Y-9739513D01*
X4589513Y-9823384D01*
X4589511Y-9823387D01*
X4530201Y-9926114D01*
X4499500Y-10040691D01*
X-223304Y-10040691D01*
X-276112Y-10010202D01*
X-276112Y-10010201D01*
X-276114Y-10010201D01*
X-390691Y-9979500D01*
X-509309Y-9979500D01*
X-623886Y-10010201D01*
X-726613Y-10069511D01*
X-810489Y-10153387D01*
X-869799Y-10256114D01*
X-900500Y-10370691D01*
X-2699500Y-10370691D01*
X-2699500Y-7790691D01*
X6699500Y-7790691D01*
X6699500Y-7909309D01*
X6730201Y-8023886D01*
X6789511Y-8126613D01*
X6873387Y-8210489D01*
X6976114Y-8269799D01*
X7090691Y-8300500D01*
X7090694Y-8300500D01*
X7209306Y-8300500D01*
X7209309Y-8300500D01*
X7323886Y-8269799D01*
X7426613Y-8210489D01*
X7510489Y-8126613D01*
X7569799Y-8023886D01*
X7600500Y-7909309D01*
X7600500Y-7790691D01*
X7569799Y-7676114D01*
X7510489Y-7573387D01*
X7426613Y-7489511D01*
X7323886Y-7430201D01*
X7209309Y-7399500D01*
X7090691Y-7399500D01*
X6976114Y-7430201D01*
X6976112Y-7430201D01*
X6976112Y-7430202D01*
X6873387Y-7489511D01*
X6873384Y-7489513D01*
X6789513Y-7573384D01*
X6789511Y-7573387D01*
X6730201Y-7676114D01*
X6699500Y-7790691D01*
X-2699500Y-7790691D01*
X-2699500Y-7080691D01*
X19500Y-7080691D01*
X19500Y-7199309D01*
X50201Y-7313886D01*
X109511Y-7416613D01*
X193387Y-7500489D01*
X296114Y-7559799D01*
X410691Y-7590500D01*
X410694Y-7590500D01*
X529306Y-7590500D01*
X529309Y-7590500D01*
X643886Y-7559799D01*
X746613Y-7500489D01*
X830489Y-7416613D01*
X889799Y-7313886D01*
X920500Y-7199309D01*
X920500Y-7080691D01*
X889799Y-6966114D01*
X875121Y-6940691D01*
X5449500Y-6940691D01*
X5449500Y-7059309D01*
X5480201Y-7173886D01*
X5539511Y-7276613D01*
X5623387Y-7360489D01*
X5726114Y-7419799D01*
X5840691Y-7450500D01*
X5840694Y-7450500D01*
X5959306Y-7450500D01*
X5959309Y-7450500D01*
X6073886Y-7419799D01*
X6176613Y-7360489D01*
X6260489Y-7276613D01*
X6319799Y-7173886D01*
X6350500Y-7059309D01*
X6350500Y-6940691D01*
X6319799Y-6826114D01*
X6260489Y-6723387D01*
X6176613Y-6639511D01*
X6073886Y-6580201D01*
X5959309Y-6549500D01*
X5840691Y-6549500D01*
X5726114Y-6580201D01*
X5726112Y-6580201D01*
X5726112Y-6580202D01*
X5623387Y-6639511D01*
X5623384Y-6639513D01*
X5539513Y-6723384D01*
X5539511Y-6723387D01*
X5480201Y-6826114D01*
X5449500Y-6940691D01*
X875121Y-6940691D01*
X830489Y-6863387D01*
X746613Y-6779511D01*
X643886Y-6720201D01*
X529309Y-6689500D01*
X410691Y-6689500D01*
X296114Y-6720201D01*
X296112Y-6720201D01*
X296112Y-6720202D01*
X193387Y-6779511D01*
X193384Y-6779513D01*
X109513Y-6863384D01*
X109511Y-6863387D01*
X50201Y-6966114D01*
X19500Y-7080691D01*
X-2699500Y-7080691D01*
X-2699500Y-6390691D01*
X1899500Y-6390691D01*
X1899500Y-6509309D01*
X1930201Y-6623886D01*
X1989511Y-6726613D01*
X2073387Y-6810489D01*
X2176114Y-6869799D01*
X2290691Y-6900500D01*
X2290694Y-6900500D01*
X2409306Y-6900500D01*
X2409309Y-6900500D01*
X2523886Y-6869799D01*
X2626613Y-6810489D01*
X2710489Y-6726613D01*
X2769799Y-6623886D01*
X2800500Y-6509309D01*
X2800500Y-6390691D01*
X3099500Y-6390691D01*
X3099500Y-6509309D01*
X3130201Y-6623886D01*
X3189511Y-6726613D01*
X3273387Y-6810489D01*
X3376114Y-6869799D01*
X3490691Y-6900500D01*
X3490694Y-6900500D01*
X3609306Y-6900500D01*
X3609309Y-6900500D01*
X3723886Y-6869799D01*
X3826613Y-6810489D01*
X3910489Y-6726613D01*
X3969799Y-6623886D01*
X4000500Y-6509309D01*
X4000500Y-6390691D01*
X3969799Y-6276114D01*
X3910489Y-6173387D01*
X3826613Y-6089511D01*
X3723886Y-6030201D01*
X3609309Y-5999500D01*
X3490691Y-5999500D01*
X3376114Y-6030201D01*
X3376112Y-6030201D01*
X3376112Y-6030202D01*
X3273387Y-6089511D01*
X3273384Y-6089513D01*
X3189513Y-6173384D01*
X3189511Y-6173387D01*
X3153492Y-6235774D01*
X3130201Y-6276114D01*
X3099500Y-6390691D01*
X2800500Y-6390691D01*
X2769799Y-6276114D01*
X2710489Y-6173387D01*
X2626613Y-6089511D01*
X2523886Y-6030201D01*
X2409309Y-5999500D01*
X2290691Y-5999500D01*
X2176114Y-6030201D01*
X2176112Y-6030201D01*
X2176112Y-6030202D01*
X2073387Y-6089511D01*
X2073384Y-6089513D01*
X1989513Y-6173384D01*
X1989511Y-6173387D01*
X1953492Y-6235774D01*
X1930201Y-6276114D01*
X1899500Y-6390691D01*
X-2699500Y-6390691D01*
X-2699500Y-5440691D01*
X6049500Y-5440691D01*
X6049500Y-5559309D01*
X6080201Y-5673886D01*
X6139511Y-5776613D01*
X6223387Y-5860489D01*
X6326114Y-5919799D01*
X6440691Y-5950500D01*
X6440694Y-5950500D01*
X6559306Y-5950500D01*
X6559309Y-5950500D01*
X6673886Y-5919799D01*
X6776613Y-5860489D01*
X6860489Y-5776613D01*
X6919799Y-5673886D01*
X6924794Y-5655246D01*
X7766222Y-5655246D01*
X7766222Y-5773864D01*
X7796923Y-5888441D01*
X7856233Y-5991168D01*
X7940109Y-6075044D01*
X8042836Y-6134354D01*
X8157413Y-6165055D01*
X8157416Y-6165055D01*
X8276029Y-6165055D01*
X8276031Y-6165055D01*
X8313410Y-6155039D01*
X8383257Y-6156700D01*
X8441120Y-6195862D01*
X8468626Y-6260089D01*
X8457041Y-6328992D01*
X8452891Y-6336812D01*
X8430202Y-6376111D01*
X8430201Y-6376113D01*
X8430201Y-6376114D01*
X8399500Y-6490691D01*
X8399500Y-6609309D01*
X8430201Y-6723886D01*
X8489511Y-6826613D01*
X8573387Y-6910489D01*
X8676114Y-6969799D01*
X8790691Y-7000500D01*
X8790694Y-7000500D01*
X8909306Y-7000500D01*
X8909309Y-7000500D01*
X9023886Y-6969799D01*
X9126613Y-6910489D01*
X9210489Y-6826613D01*
X9269799Y-6723886D01*
X9300500Y-6609309D01*
X9300500Y-6490691D01*
X9300500Y-6486964D01*
X9320185Y-6419925D01*
X9372989Y-6374170D01*
X9442147Y-6364226D01*
X9505703Y-6393251D01*
X9512181Y-6399283D01*
X9523387Y-6410489D01*
X9626114Y-6469799D01*
X9740691Y-6500500D01*
X9740694Y-6500500D01*
X9859306Y-6500500D01*
X9859309Y-6500500D01*
X9973886Y-6469799D01*
X10076613Y-6410489D01*
X10160489Y-6326613D01*
X10219799Y-6223886D01*
X10250500Y-6109309D01*
X10250500Y-5990691D01*
X10219799Y-5876114D01*
X10210778Y-5860489D01*
X10201585Y-5844566D01*
X10201584Y-5844565D01*
X10170480Y-5790691D01*
X12799500Y-5790691D01*
X12799500Y-5909309D01*
X12830201Y-6023886D01*
X12889511Y-6126613D01*
X12973387Y-6210489D01*
X13076114Y-6269799D01*
X13190691Y-6300500D01*
X13190694Y-6300500D01*
X13309306Y-6300500D01*
X13309309Y-6300500D01*
X13423886Y-6269799D01*
X13526613Y-6210489D01*
X13610489Y-6126613D01*
X13669799Y-6023886D01*
X13700500Y-5909309D01*
X13700500Y-5790691D01*
X13669799Y-5676114D01*
X13610489Y-5573387D01*
X13526613Y-5489511D01*
X13423886Y-5430201D01*
X13309309Y-5399500D01*
X13190691Y-5399500D01*
X13076114Y-5430201D01*
X13076112Y-5430201D01*
X13076112Y-5430202D01*
X12973387Y-5489511D01*
X12973384Y-5489513D01*
X12889513Y-5573384D01*
X12889511Y-5573387D01*
X12856709Y-5630202D01*
X12830201Y-5676114D01*
X12799500Y-5790691D01*
X10170480Y-5790691D01*
X10160489Y-5773387D01*
X10076613Y-5689511D01*
X9973886Y-5630201D01*
X9859309Y-5599500D01*
X9740691Y-5599500D01*
X9626114Y-5630201D01*
X9626112Y-5630201D01*
X9626112Y-5630202D01*
X9523387Y-5689511D01*
X9523384Y-5689513D01*
X9439513Y-5773384D01*
X9439511Y-5773387D01*
X9380201Y-5876114D01*
X9349500Y-5990691D01*
X9349500Y-5990693D01*
X9349500Y-6113036D01*
X9329815Y-6180075D01*
X9277011Y-6225830D01*
X9207853Y-6235774D01*
X9144297Y-6206749D01*
X9137819Y-6200717D01*
X9126615Y-6189513D01*
X9126613Y-6189511D01*
X9023886Y-6130201D01*
X8909309Y-6099500D01*
X8790691Y-6099500D01*
X8753311Y-6109516D01*
X8683461Y-6107853D01*
X8625599Y-6068690D01*
X8598095Y-6004461D01*
X8609682Y-5935559D01*
X8613832Y-5927740D01*
X8636518Y-5888446D01*
X8636519Y-5888445D01*
X8636520Y-5888442D01*
X8636521Y-5888441D01*
X8667222Y-5773864D01*
X8667222Y-5655246D01*
X8636521Y-5540669D01*
X8577211Y-5437942D01*
X8493335Y-5354066D01*
X8390608Y-5294756D01*
X8276031Y-5264055D01*
X8157413Y-5264055D01*
X8042836Y-5294756D01*
X8042834Y-5294756D01*
X8042834Y-5294757D01*
X7940109Y-5354066D01*
X7940106Y-5354068D01*
X7856235Y-5437939D01*
X7856233Y-5437942D01*
X7796923Y-5540669D01*
X7766222Y-5655246D01*
X6924794Y-5655246D01*
X6950500Y-5559309D01*
X6950500Y-5440691D01*
X6919799Y-5326114D01*
X6860489Y-5223387D01*
X6776613Y-5139511D01*
X6673886Y-5080201D01*
X6559309Y-5049500D01*
X6440691Y-5049500D01*
X6372779Y-5067696D01*
X6372772Y-5067698D01*
X6326114Y-5080201D01*
X6274451Y-5110028D01*
X6274439Y-5110034D01*
X6223390Y-5139509D01*
X6223384Y-5139513D01*
X6139513Y-5223384D01*
X6139511Y-5223387D01*
X6080201Y-5326114D01*
X6049500Y-5440691D01*
X-2699500Y-5440691D01*
X-2699500Y-4389956D01*
X5600235Y-4389956D01*
X5600235Y-4508574D01*
X5630936Y-4623151D01*
X5690246Y-4725878D01*
X5774122Y-4809754D01*
X5876849Y-4869064D01*
X5991426Y-4899765D01*
X5991429Y-4899765D01*
X6110040Y-4899765D01*
X6110044Y-4899765D01*
X6224621Y-4869064D01*
X6327348Y-4809754D01*
X6411224Y-4725878D01*
X6470534Y-4623151D01*
X6501235Y-4508574D01*
X6501235Y-4389956D01*
X6470534Y-4275379D01*
X6411224Y-4172652D01*
X6327348Y-4088776D01*
X6224621Y-4029466D01*
X6110044Y-3998765D01*
X5991426Y-3998765D01*
X5876849Y-4029466D01*
X5876847Y-4029466D01*
X5876847Y-4029467D01*
X5774122Y-4088776D01*
X5774119Y-4088778D01*
X5690248Y-4172649D01*
X5690246Y-4172652D01*
X5639535Y-4260486D01*
X5630936Y-4275379D01*
X5600235Y-4389956D01*
X-2699500Y-4389956D01*
X-2699500Y-3590691D01*
X1649500Y-3590691D01*
X1649500Y-3709309D01*
X1680201Y-3823886D01*
X1739511Y-3926613D01*
X1823387Y-4010489D01*
X1926114Y-4069799D01*
X2040691Y-4100500D01*
X2040694Y-4100500D01*
X2159306Y-4100500D01*
X2159309Y-4100500D01*
X2273886Y-4069799D01*
X2376613Y-4010489D01*
X2460489Y-3926613D01*
X2519799Y-3823886D01*
X2550500Y-3709309D01*
X2550500Y-3590691D01*
X2523705Y-3490691D01*
X4399500Y-3490691D01*
X4399500Y-3609309D01*
X4430201Y-3723886D01*
X4489511Y-3826613D01*
X4573387Y-3910489D01*
X4676114Y-3969799D01*
X4790691Y-4000500D01*
X4790694Y-4000500D01*
X4909306Y-4000500D01*
X4909309Y-4000500D01*
X5023886Y-3969799D01*
X5126613Y-3910489D01*
X5196411Y-3840691D01*
X6749500Y-3840691D01*
X6749500Y-3959309D01*
X6780201Y-4073886D01*
X6839511Y-4176613D01*
X6923387Y-4260489D01*
X7026114Y-4319799D01*
X7140691Y-4350500D01*
X7140694Y-4350500D01*
X7259306Y-4350500D01*
X7259309Y-4350500D01*
X7295916Y-4340691D01*
X8399500Y-4340691D01*
X8399500Y-4459309D01*
X8430201Y-4573886D01*
X8489511Y-4676613D01*
X8573387Y-4760489D01*
X8676114Y-4819799D01*
X8790691Y-4850500D01*
X8790694Y-4850500D01*
X8909306Y-4850500D01*
X8909309Y-4850500D01*
X9023886Y-4819799D01*
X9126613Y-4760489D01*
X9210489Y-4676613D01*
X9269799Y-4573886D01*
X9300500Y-4459309D01*
X9300500Y-4340691D01*
X9269799Y-4226114D01*
X9210489Y-4123387D01*
X9126613Y-4039511D01*
X9023886Y-3980201D01*
X8909309Y-3949500D01*
X8790691Y-3949500D01*
X8676114Y-3980201D01*
X8676112Y-3980201D01*
X8676112Y-3980202D01*
X8573387Y-4039511D01*
X8573384Y-4039513D01*
X8489513Y-4123384D01*
X8489511Y-4123387D01*
X8458780Y-4176615D01*
X8430201Y-4226114D01*
X8399500Y-4340691D01*
X7295916Y-4340691D01*
X7373886Y-4319799D01*
X7476613Y-4260489D01*
X7560489Y-4176613D01*
X7619799Y-4073886D01*
X7650500Y-3959309D01*
X7650500Y-3840691D01*
X7623705Y-3740691D01*
X9799500Y-3740691D01*
X9799500Y-3859309D01*
X9830201Y-3973886D01*
X9889511Y-4076613D01*
X9973387Y-4160489D01*
X10076114Y-4219799D01*
X10190691Y-4250500D01*
X10190694Y-4250500D01*
X10309306Y-4250500D01*
X10309309Y-4250500D01*
X10423886Y-4219799D01*
X10526613Y-4160489D01*
X10610489Y-4076613D01*
X10669799Y-3973886D01*
X10700500Y-3859309D01*
X10700500Y-3740691D01*
X10669799Y-3626114D01*
X10610489Y-3523387D01*
X10526613Y-3439511D01*
X10423886Y-3380201D01*
X10309309Y-3349500D01*
X10190691Y-3349500D01*
X10076114Y-3380201D01*
X10076112Y-3380201D01*
X10076112Y-3380202D01*
X9973387Y-3439511D01*
X9973384Y-3439513D01*
X9889513Y-3523384D01*
X9889511Y-3523387D01*
X9850652Y-3590693D01*
X9830201Y-3626114D01*
X9799500Y-3740691D01*
X7623705Y-3740691D01*
X7619799Y-3726114D01*
X7618514Y-3723889D01*
X7610095Y-3709306D01*
X7560489Y-3623387D01*
X7476613Y-3539511D01*
X7373886Y-3480201D01*
X7259309Y-3449500D01*
X7140691Y-3449500D01*
X7026114Y-3480201D01*
X7026112Y-3480201D01*
X7026112Y-3480202D01*
X6923387Y-3539511D01*
X6923384Y-3539513D01*
X6839513Y-3623384D01*
X6839511Y-3623387D01*
X6781486Y-3723889D01*
X6780201Y-3726114D01*
X6749500Y-3840691D01*
X5196411Y-3840691D01*
X5210489Y-3826613D01*
X5212063Y-3823886D01*
X5242851Y-3770563D01*
X5264955Y-3732274D01*
X5269799Y-3723886D01*
X5300500Y-3609309D01*
X5300500Y-3490691D01*
X5269799Y-3376114D01*
X5210489Y-3273387D01*
X5126613Y-3189511D01*
X5023886Y-3130201D01*
X4909309Y-3099500D01*
X4790691Y-3099500D01*
X4676114Y-3130201D01*
X4676112Y-3130201D01*
X4676112Y-3130202D01*
X4573387Y-3189511D01*
X4573384Y-3189513D01*
X4489513Y-3273384D01*
X4489511Y-3273387D01*
X4430201Y-3376114D01*
X4399500Y-3490691D01*
X2523705Y-3490691D01*
X2519799Y-3476114D01*
X2460489Y-3373387D01*
X2376613Y-3289511D01*
X2273886Y-3230201D01*
X2159309Y-3199500D01*
X2040691Y-3199500D01*
X1926114Y-3230201D01*
X1926112Y-3230201D01*
X1926112Y-3230202D01*
X1823387Y-3289511D01*
X1823384Y-3289513D01*
X1739513Y-3373384D01*
X1739511Y-3373387D01*
X1680201Y-3476114D01*
X1649500Y-3590691D01*
X-2699500Y-3590691D01*
X-2699500Y-2940691D01*
X8599500Y-2940691D01*
X8599500Y-3059309D01*
X8630201Y-3173886D01*
X8689511Y-3276613D01*
X8773387Y-3360489D01*
X8876114Y-3419799D01*
X8990691Y-3450500D01*
X8990694Y-3450500D01*
X9109306Y-3450500D01*
X9109309Y-3450500D01*
X9223886Y-3419799D01*
X9326613Y-3360489D01*
X9410489Y-3276613D01*
X9469799Y-3173886D01*
X9500500Y-3059309D01*
X9500500Y-2940691D01*
X9469799Y-2826114D01*
X9410489Y-2723387D01*
X9326613Y-2639511D01*
X9223886Y-2580201D01*
X9109309Y-2549500D01*
X8990691Y-2549500D01*
X8876114Y-2580201D01*
X8876112Y-2580201D01*
X8876112Y-2580202D01*
X8773387Y-2639511D01*
X8773384Y-2639513D01*
X8689513Y-2723384D01*
X8689511Y-2723387D01*
X8630201Y-2826114D01*
X8599500Y-2940691D01*
X-2699500Y-2940691D01*
X-2699500Y-3480D01*
X-2699305Y3473D01*
X-2692504Y124565D01*
X-1900500Y124565D01*
X-1900500Y-124565D01*
X-1867982Y-371565D01*
X-1803502Y-612207D01*
X-1708164Y-842373D01*
X-1583599Y-1058127D01*
X-1431938Y-1255776D01*
X-1255776Y-1431938D01*
X-1058127Y-1583599D01*
X-842373Y-1708164D01*
X-612207Y-1803502D01*
X-371565Y-1867982D01*
X-124565Y-1900500D01*
X-124558Y-1900500D01*
X124558Y-1900500D01*
X124565Y-1900500D01*
X371565Y-1867982D01*
X612207Y-1803502D01*
X842373Y-1708164D01*
X1058127Y-1583599D01*
X1255776Y-1431938D01*
X1431938Y-1255776D01*
X1583599Y-1058127D01*
X1680268Y-890691D01*
X11849500Y-890691D01*
X11849500Y-1009309D01*
X11880201Y-1123886D01*
X11939511Y-1226613D01*
X12023387Y-1310489D01*
X12126114Y-1369799D01*
X12240691Y-1400500D01*
X12240694Y-1400500D01*
X12359306Y-1400500D01*
X12359309Y-1400500D01*
X12473886Y-1369799D01*
X12576613Y-1310489D01*
X12660489Y-1226613D01*
X12719799Y-1123886D01*
X12750500Y-1009309D01*
X12750500Y-890691D01*
X12719799Y-776114D01*
X12660489Y-673387D01*
X12576613Y-589511D01*
X12473886Y-530201D01*
X12359309Y-499500D01*
X12240691Y-499500D01*
X12126114Y-530201D01*
X12126112Y-530201D01*
X12126112Y-530202D01*
X12023387Y-589511D01*
X12023384Y-589513D01*
X11939513Y-673384D01*
X11939511Y-673387D01*
X11880201Y-776114D01*
X11849500Y-890691D01*
X1680268Y-890691D01*
X1708164Y-842373D01*
X1803502Y-612207D01*
X1867982Y-371565D01*
X1900500Y-124565D01*
X1900500Y124565D01*
X1867982Y371565D01*
X1865907Y379309D01*
X4969500Y379309D01*
X4969500Y260691D01*
X4998075Y154049D01*
X5000202Y146112D01*
X5059511Y43387D01*
X5059513Y43384D01*
X5102898Y0D01*
X5143387Y-40489D01*
X5246114Y-99799D01*
X5360691Y-130500D01*
X5360694Y-130500D01*
X5479306Y-130500D01*
X5479309Y-130500D01*
X5593886Y-99799D01*
X5696613Y-40489D01*
X5780489Y43387D01*
X5827354Y124558D01*
X18099500Y124558D01*
X18099500Y-124558D01*
X18099501Y-124575D01*
X18132017Y-371561D01*
X18196498Y-612207D01*
X18291830Y-842361D01*
X18291837Y-842376D01*
X18416400Y-1058126D01*
X18568060Y-1255774D01*
X18568066Y-1255781D01*
X18744218Y-1431933D01*
X18744225Y-1431939D01*
X18941873Y-1583599D01*
X19157623Y-1708162D01*
X19157638Y-1708169D01*
X19256825Y-1749253D01*
X19387793Y-1803502D01*
X19628435Y-1867982D01*
X19875435Y-1900500D01*
X19875442Y-1900500D01*
X20124558Y-1900500D01*
X20124565Y-1900500D01*
X20371565Y-1867982D01*
X20612207Y-1803502D01*
X20842373Y-1708164D01*
X21058127Y-1583599D01*
X21255776Y-1431938D01*
X21431938Y-1255776D01*
X21583599Y-1058127D01*
X21708164Y-842373D01*
X21803502Y-612207D01*
X21867982Y-371565D01*
X21900500Y-124565D01*
X21900500Y124565D01*
X21867982Y371565D01*
X21803502Y612207D01*
X21708164Y842373D01*
X21583599Y1058127D01*
X21431938Y1255776D01*
X21255776Y1431938D01*
X21058127Y1583599D01*
X20842373Y1708164D01*
X20612207Y1803502D01*
X20371565Y1867982D01*
X20124565Y1900500D01*
X19875435Y1900500D01*
X19628435Y1867982D01*
X19387793Y1803502D01*
X19256825Y1749253D01*
X19157638Y1708169D01*
X19157623Y1708162D01*
X18941873Y1583599D01*
X18744225Y1431939D01*
X18744218Y1431933D01*
X18568066Y1255781D01*
X18568060Y1255774D01*
X18416400Y1058126D01*
X18291837Y842376D01*
X18291830Y842361D01*
X18196498Y612207D01*
X18132017Y371561D01*
X18099501Y124575D01*
X18099500Y124558D01*
X5827354Y124558D01*
X5839799Y146114D01*
X5870500Y260691D01*
X5870500Y342388D01*
X5871903Y351636D01*
X5882871Y375167D01*
X5890185Y400075D01*
X5897391Y406319D01*
X5901421Y414964D01*
X5923370Y428830D01*
X5942989Y445830D01*
X5952427Y447187D01*
X5960491Y452281D01*
X5986450Y452079D01*
X6012147Y455774D01*
X6020822Y451812D01*
X6030358Y451738D01*
X6052086Y437534D01*
X6075703Y426749D01*
X6082181Y420717D01*
X6123384Y379513D01*
X6123387Y379511D01*
X6226114Y320201D01*
X6340691Y289500D01*
X6340694Y289500D01*
X6459306Y289500D01*
X6459309Y289500D01*
X6573886Y320201D01*
X6676613Y379511D01*
X6760489Y463387D01*
X6819799Y566114D01*
X6850500Y680691D01*
X6850500Y799309D01*
X6819799Y913886D01*
X6760489Y1016613D01*
X6676613Y1100489D01*
X6573886Y1159799D01*
X6459309Y1190500D01*
X6340691Y1190500D01*
X6226114Y1159799D01*
X6123387Y1100489D01*
X6039511Y1016613D01*
X5980201Y913886D01*
X5949500Y799309D01*
X5949500Y799306D01*
X5949500Y726964D01*
X5929815Y659925D01*
X5877011Y614170D01*
X5807853Y604226D01*
X5744297Y633251D01*
X5737819Y639283D01*
X5696613Y680489D01*
X5593886Y739799D01*
X5479309Y770500D01*
X5360691Y770500D01*
X5246114Y739799D01*
X5143387Y680489D01*
X5059511Y596613D01*
X5000201Y493886D01*
X4969500Y379309D01*
X1865907Y379309D01*
X1803502Y612207D01*
X1708164Y842373D01*
X1583599Y1058127D01*
X1431938Y1255776D01*
X1255776Y1431938D01*
X1058127Y1583599D01*
X842373Y1708164D01*
X612207Y1803502D01*
X371565Y1867982D01*
X124565Y1900500D01*
X-124565Y1900500D01*
X-371565Y1867982D01*
X-612207Y1803502D01*
X-842373Y1708164D01*
X-1058127Y1583599D01*
X-1255776Y1431938D01*
X-1431938Y1255776D01*
X-1583599Y1058127D01*
X-1708164Y842373D01*
X-1803502Y612207D01*
X-1867982Y371565D01*
X-1900500Y124565D01*
X-2692504Y124565D01*
X-2691886Y135577D01*
X-2682916Y295296D01*
X-2681359Y309114D01*
X-2632984Y593830D01*
X-2629890Y607386D01*
X-2549941Y884897D01*
X-2545348Y898023D01*
X-2434831Y1164835D01*
X-2428798Y1177363D01*
X-2289101Y1430125D01*
X-2281703Y1441899D01*
X-2114581Y1677436D01*
X-2105910Y1688308D01*
X-1913474Y1903642D01*
X-1903642Y1913474D01*
X-1688308Y2105910D01*
X-1677436Y2114581D01*
X-1441899Y2281703D01*
X-1430125Y2289101D01*
X-1177363Y2428798D01*
X-1164835Y2434831D01*
X-898023Y2545348D01*
X-884897Y2549941D01*
X-607386Y2629890D01*
X-593830Y2632984D01*
X-309114Y2681359D01*
X-295296Y2682916D01*
X-3472Y2699305D01*
X3481Y2699500D01*
X47594Y2699500D01*
X19952405Y2699500D01*
X19996519Y2699500D01*
X20003472Y2699305D01*
G37*
%TD.AperFunction*%
%TD*%
M02*
